<svg width="60" height="60" viewBox="0 0 60 60" fill="none" xmlns="http://www.w3.org/2000/svg">
<g clip-path="url(#clip0_2098_25578)">
<path d="M60 21.93C59.9965 21.3025 59.6866 20.7163 59.17 20.36C58.6104 19.9824 57.9035 19.8968 57.27 20.13L47 24V18.26L47.31 18.47C47.8049 18.8174 48.3954 19.0026 49 19C49.9925 19.0004 50.9209 18.51 51.48 17.69C52.4092 16.325 52.0606 14.4657 50.7 13.53L31.7 0.53C31.2 0.185352 30.6072 0.00054168 30 0C29.3928 0.00054168 28.8 0.185352 28.3 0.53L9.3 13.53C8.63919 13.9781 8.18429 14.6712 8.03601 15.4558C7.88773 16.2403 8.05832 17.0516 8.51 17.71C9.07558 18.5253 10.0077 19.0083 11 19C11.6028 19.0004 12.1917 18.8192 12.69 18.48L13 18.26V24.26L2.75 20.15C2.13417 19.9009 1.43483 19.9738 0.883642 20.3446C0.332451 20.7154 0.00134455 21.3357 0 22V49C0 50.1046 0.89543 51 2 51H2.75C3.86806 50.9929 4.88943 50.3647 5.4 49.37L6.24 47.7L8 48.52C7.41169 50.0771 8.12793 51.824 9.64 52.52C10.0567 52.7131 10.5108 52.8121 10.97 52.81C11.3603 52.8075 11.7468 52.7329 12.11 52.59C12.4364 53.4266 13.0745 54.1041 13.89 54.48C14.3485 54.6888 14.8462 54.7979 15.35 54.8C15.7666 54.8007 16.1799 54.7262 16.57 54.58C16.8866 55.4654 17.5461 56.1862 18.4 56.58C18.857 56.7933 19.3557 56.9026 19.86 56.9C20.22 56.898 20.5775 56.8407 20.92 56.73V56.78C21.1948 57.5282 21.7561 58.1363 22.48 58.47C23.7933 59.0707 25.3481 58.6504 26.18 57.47L28.55 59.38C29.4302 60.0451 30.5872 60.2199 31.6246 59.8445C32.6621 59.4691 33.4392 58.5944 33.69 57.52C34.761 57.8318 35.9165 57.5237 36.69 56.72C37.1913 56.2257 37.5028 55.5708 37.57 54.87C37.7132 54.8792 37.8568 54.8792 38 54.87C39.8254 54.8742 41.3764 53.5363 41.64 51.73C42.0365 51.8639 42.4515 51.9348 42.87 51.94C43.8866 51.9427 44.8623 51.54 45.5812 50.8212C46.3 50.1023 46.7027 49.1266 46.7 48.11C46.6971 47.6083 46.5951 47.1122 46.4 46.65L52.76 44L54.62 47.44C55.146 48.4013 56.1542 48.9993 57.25 49H58C59.0778 49.0007 59.9623 48.1471 60 47.07V21.93ZM11.56 16.83C11.1044 17.142 10.4821 17.0256 10.17 16.57C10.0199 16.3471 9.96586 16.0732 10.02 15.81C10.0695 15.5547 10.2166 15.3287 10.43 15.18L29.43 2.18C29.5954 2.05958 29.7955 1.99638 30 2C30.2039 2.00048 30.4028 2.06329 30.57 2.18L49.57 15.18C50.0194 15.4915 50.1352 16.1063 49.83 16.56C49.5179 17.0156 48.8956 17.132 48.44 16.82L30.57 4.6C30.2272 4.36219 29.7728 4.36219 29.43 4.6L11.56 16.83ZM30 6.63L45 16.9V25C43.9733 25.8426 43.6956 27.2986 44.34 28.46L45.34 30.32L42.64 31.32C41.7173 31.6785 40.6771 31.5588 39.86 31L35 27.41V22C35 20.8954 34.1046 20 33 20H27C25.8954 20 25 20.8954 25 22V28.53C24.6219 29.0551 24.2875 29.6103 24 30.19C22.9192 30.2888 21.8467 30.4625 20.79 30.71C20.2024 30.8561 19.6037 30.9531 19 31C17.6744 30.8418 16.3839 30.4668 15.18 29.89L15.66 28.89C16.2823 27.6792 16.0113 26.2013 15 25.29V16.9L30 6.63ZM33 26.05C31.0739 25.0628 28.7573 25.2366 27 26.5V22H33V26.05ZM2.75 49H2V22L13.38 26.62C13.6378 26.7239 13.8407 26.9304 13.94 27.19C14.0446 27.4652 14.0227 27.7725 13.88 28.03L3.62 48.47C3.44847 48.7922 3.115 48.9954 2.75 49ZM10.44 50.67C9.85042 50.3981 9.59125 49.701 9.86 49.11L11 46.71C11.2719 46.1204 11.969 45.8613 12.56 46.13C12.8458 46.2562 13.0667 46.4951 13.17 46.79C13.2895 47.0816 13.2895 47.4084 13.17 47.7L12 50.1C11.8696 50.3833 11.6316 50.6028 11.3387 50.7098C11.0458 50.8168 10.7223 50.8025 10.44 50.67ZM15.83 52.67C15.4657 52.8245 15.0543 52.8245 14.69 52.67C14.3264 52.508 14.0446 52.2046 13.91 51.83C13.7605 51.4613 13.7605 51.0488 13.91 50.68L15.63 47C15.7957 46.6391 16.0978 46.3585 16.47 46.22C16.6371 46.1611 16.8128 46.1306 16.99 46.13C17.2068 46.1288 17.4214 46.1731 17.62 46.26C17.9816 46.4298 18.2618 46.7352 18.4 47.11C18.555 47.4777 18.555 47.8923 18.4 48.26L16.68 51.9C16.5102 52.2616 16.2048 52.5418 15.83 52.68V52.67ZM19.23 54.67C18.4786 54.3172 18.1492 53.4269 18.49 52.67L19.75 50C19.9183 49.641 20.2195 49.3613 20.59 49.22C20.7571 49.1611 20.9328 49.1306 21.11 49.13C21.3281 49.1262 21.544 49.1742 21.74 49.27C22.103 49.4329 22.3844 49.736 22.52 50.11C22.6592 50.4844 22.6412 50.8991 22.47 51.26L21.31 53.8L21.23 53.97C21.0646 54.3348 20.7601 54.6183 20.3844 54.7573C20.0087 54.8963 19.593 54.8793 19.23 54.71V54.67ZM23.32 56.55C23.0794 56.4395 22.8924 56.2382 22.8 55.99C22.6972 55.7436 22.6972 55.4664 22.8 55.22L23.11 54.55L24.04 52.55C24.2202 52.1902 24.5985 51.9735 25 52C25.1449 51.9992 25.2882 52.0299 25.42 52.09C25.6661 52.199 25.8579 52.4026 25.952 52.6548C26.0461 52.907 26.0346 53.1864 25.92 53.43L24.67 56.14C24.5555 56.3834 24.3479 56.5705 24.0938 56.6589C23.8398 56.7473 23.5609 56.7297 23.32 56.61V56.55ZM44.16 49.36C43.4838 50.0425 42.3937 50.0819 41.67 49.45L36.81 45.19L35.66 44.19C35.5592 44.0988 35.4398 44.0306 35.31 43.99C35.2601 43.9851 35.2099 43.9851 35.16 43.99C34.9576 43.9509 34.748 43.9754 34.56 44.06C34.444 44.1222 34.3392 44.2033 34.25 44.3C34.074 44.4891 33.9836 44.7422 34 45C33.9958 45.0299 33.9958 45.0602 34 45.09C34.0328 45.3163 34.1422 45.5246 34.31 45.68L39.08 49.86C39.7593 50.4951 39.7951 51.5607 39.16 52.24C38.5249 52.9193 37.4593 52.9551 36.78 52.32L36.67 52.21L32.67 48.21C32.2779 47.8179 31.6421 47.8179 31.25 48.21C30.8579 48.6021 30.8579 49.2379 31.25 49.63L35.25 53.63C35.4613 53.8386 35.5803 54.1231 35.5803 54.42C35.5803 54.7169 35.4613 55.0014 35.25 55.21C34.8033 55.6304 34.1067 55.6304 33.66 55.21L32.8 54.34L31.68 53.22C31.4922 53.0307 31.2366 52.9242 30.97 52.9242C30.7034 52.9242 30.4478 53.0307 30.26 53.22C30.0707 53.4078 29.9642 53.6634 29.9642 53.93C29.9642 54.1966 30.0707 54.4522 30.26 54.64L31.38 55.76C31.6255 55.9947 31.763 56.3204 31.76 56.66C31.7392 57.1237 31.4689 57.5399 31.0537 57.7475C30.6385 57.955 30.1435 57.9216 29.76 57.66L27.1 55.6L27.72 54.24C28.0592 53.5152 28.0947 52.6848 27.8187 51.9336C27.5426 51.1825 26.9779 50.5727 26.25 50.24C25.7178 49.9995 25.127 49.9196 24.55 50.01C24.5154 49.8097 24.4652 49.6125 24.4 49.42C23.8114 47.8068 22.1341 46.8641 20.45 47.2C20.3229 46.1401 19.7178 45.1967 18.8075 44.6392C17.8972 44.0817 16.7818 43.9715 15.78 44.34C15.2927 44.5249 14.8522 44.8152 14.49 45.19C14.1927 44.811 13.8086 44.5092 13.37 44.31C11.7766 43.5734 9.88774 44.2671 9.15 45.86L8.78 46.68L7.14 45.9L14.28 31.68C15.7651 32.3897 17.3622 32.8363 19 33C19.7325 32.9556 20.459 32.8417 21.17 32.66C21.73 32.54 22.33 32.42 22.96 32.32L21.32 36C20.5562 37.7415 21.2959 39.7759 23 40.62H23.1C23.5682 40.8444 24.0808 40.9606 24.6 40.96C25.6265 40.9643 26.6044 40.5228 27.28 39.75L31.23 35.35L44.08 46.76C44.459 47.093 44.6828 47.5683 44.698 48.0726C44.7132 48.5769 44.5183 49.0649 44.16 49.42V49.36ZM45.16 44.97L30.66 32.25C30.2431 31.9142 29.6357 31.9663 29.282 32.3682C28.9284 32.7701 28.9539 33.3792 29.34 33.75L29.7 34.07L25.76 38.46C25.2907 38.9961 24.5207 39.1517 23.88 38.84H23.81C23.1092 38.4418 22.8205 37.58 23.14 36.84L25.46 31.7C26.007 30.4859 26.7926 29.3943 27.77 28.49C29.0968 27.26 31.1092 27.1426 32.57 28.21L38.66 32.65C40.0157 33.623 41.7674 33.8556 43.33 33.27L46.33 32.16L51.8 42.27L45.16 44.97ZM57.27 46.97C56.9119 46.9792 56.5762 46.7961 56.39 46.49L46.12 27.49C46.0092 27.291 45.991 27.0536 46.07 26.84C46.1658 26.5964 46.3629 26.4066 46.61 26.32L58 21.93V47L57.27 46.97Z" fill="#224334"/>
<path d="M30 18C32.2091 18 34 16.2091 34 14C34 11.7909 32.2091 10 30 10C27.7909 10 26 11.7909 26 14C26 16.2091 27.7909 18 30 18ZM30 12C31.1046 12 32 12.8954 32 14C32 15.1046 31.1046 16 30 16C28.8954 16 28 15.1046 28 14C28 12.8954 28.8954 12 30 12Z" fill="#224334"/>
</g>
<defs>
<clipPath id="clip0_2098_25578">
<rect width="60" height="60" fill="white"/>
</clipPath>
</defs>
</svg>
