<svg width="60" height="60" viewBox="0 0 60 60" fill="none" xmlns="http://www.w3.org/2000/svg">
<path fill-rule="evenodd" clip-rule="evenodd" d="M19.9254 31.325C19.1929 30.595 19.1929 29.405 19.9254 28.675C20.6554 27.9425 21.8454 27.9425 22.5754 28.675L27.0829 33.1825L37.4254 22.84C38.1554 22.11 39.3454 22.11 40.0754 22.84C40.8079 23.5725 40.8079 24.76 40.0754 25.4925L28.4104 37.16C27.6779 37.8925 26.4904 37.8925 25.7579 37.16L19.9254 31.325Z" fill="#224334"/>
<path fill-rule="evenodd" clip-rule="evenodd" d="M26.8299 4.4375C27.6699 3.5975 28.8099 3.125 29.9999 3.125C31.1899 3.125 32.3299 3.5975 33.1699 4.4375L36.7824 8.05C36.9474 8.215 37.1824 8.2925 37.4149 8.255L42.4599 7.4575C43.6349 7.27 44.8349 7.56 45.7974 8.2575C46.7574 8.9575 47.4024 10.01 47.5899 11.1825L48.3874 16.2275C48.4249 16.46 48.5699 16.66 48.7799 16.7675L53.3299 19.085C54.3899 19.625 55.1924 20.565 55.5599 21.695C55.9274 22.825 55.8299 24.0575 55.2899 25.115L52.9724 29.6675C52.8649 29.8775 52.8649 30.1225 52.9724 30.3325L55.2899 34.885C55.8299 35.9425 55.9274 37.175 55.5599 38.305C55.1924 39.435 54.3899 40.375 53.3299 40.915L48.7799 43.2325C48.5699 43.34 48.4249 43.54 48.3874 43.7725L47.5899 48.8175C47.4024 49.99 46.7574 51.0425 45.7974 51.7425C44.8349 52.44 43.6349 52.73 42.4599 52.5425L37.4149 51.745C37.1824 51.7075 36.9474 51.785 36.7824 51.95L33.1699 55.5625C32.3299 56.4025 31.1899 56.875 29.9999 56.875C28.8099 56.875 27.6699 56.4025 26.8299 55.5625L23.2174 51.95C23.0524 51.785 22.8174 51.7075 22.5849 51.745L17.5399 52.5425C16.3649 52.73 15.1649 52.44 14.2024 51.7425C13.2424 51.0425 12.5974 49.99 12.4099 48.8175L11.6124 43.7725C11.5749 43.54 11.4299 43.34 11.2199 43.2325L6.66994 40.915C5.60994 40.375 4.80744 39.435 4.43994 38.305C4.07244 37.175 4.16994 35.9425 4.70994 34.885L7.02744 30.3325C7.13494 30.1225 7.13494 29.8775 7.02744 29.6675L4.70994 25.115C4.16994 24.0575 4.07244 22.825 4.43994 21.695C4.80744 20.565 5.60994 19.625 6.66994 19.085L11.2199 16.7675C11.4299 16.66 11.5749 16.46 11.6124 16.2275L12.4099 11.1825C12.5974 10.01 13.2424 8.9575 14.2024 8.2575C15.1649 7.56 16.3649 7.27 17.5399 7.4575L22.5849 8.255C22.8174 8.2925 23.0524 8.215 23.2174 8.05L26.8299 4.4375ZM29.4824 7.09L25.8699 10.7025C24.8549 11.7175 23.4149 12.185 21.9974 11.96L16.9524 11.16C16.7599 11.13 16.5649 11.1775 16.4074 11.2925C16.2499 11.405 16.1449 11.5775 16.1149 11.77L15.3149 16.815C15.0899 18.2325 14.2024 19.4575 12.9224 20.1075L8.36994 22.4275C8.19744 22.515 8.06744 22.67 8.00744 22.855C7.94744 23.04 7.96244 23.24 8.04994 23.4125L10.3699 27.965C11.0224 29.2425 11.0224 30.7575 10.3699 32.035L8.04994 36.5875C7.96244 36.76 7.94744 36.96 8.00744 37.145C8.06744 37.33 8.19744 37.485 8.36994 37.5725L12.9224 39.8925C14.2024 40.5425 15.0899 41.7675 15.3149 43.185L16.1149 48.23C16.1449 48.4225 16.2499 48.595 16.4074 48.7075C16.5649 48.8225 16.7599 48.87 16.9524 48.84L21.9974 48.04C23.4149 47.815 24.8549 48.2825 25.8699 49.2975L29.4824 52.91C29.6199 53.0475 29.8049 53.125 29.9999 53.125C30.1949 53.125 30.3799 53.0475 30.5174 52.91L34.1299 49.2975C35.1449 48.2825 36.5849 47.815 38.0024 48.04L43.0474 48.84C43.2399 48.87 43.4349 48.8225 43.5924 48.7075C43.7499 48.595 43.8549 48.4225 43.8849 48.23L44.6849 43.185C44.9099 41.7675 45.7974 40.5425 47.0774 39.8925L51.6299 37.5725C51.8024 37.485 51.9324 37.33 51.9924 37.145C52.0524 36.96 52.0374 36.76 51.9499 36.5875L49.6299 32.035C48.9774 30.7575 48.9774 29.2425 49.6299 27.965L51.9499 23.4125C52.0374 23.24 52.0524 23.04 51.9924 22.855C51.9324 22.67 51.8024 22.515 51.6299 22.4275L47.0774 20.1075C45.7974 19.4575 44.9099 18.2325 44.6849 16.815L43.8849 11.77C43.8549 11.5775 43.7499 11.405 43.5924 11.2925C43.4349 11.1775 43.2399 11.13 43.0474 11.16L38.0024 11.96C36.5849 12.185 35.1449 11.7175 34.1299 10.7025L30.5174 7.09C30.3799 6.9525 30.1949 6.875 29.9999 6.875C29.8049 6.875 29.6199 6.9525 29.4824 7.09Z" fill="#224334"/>
</svg>
