<svg width="555" height="610" viewBox="0 0 555 610" fill="none" xmlns="http://www.w3.org/2000/svg">
<g clip-path="url(#clip0_2098_25760)">
<rect width="555" height="610.299" rx="32" fill="#DEEDE2"/>
<g clip-path="url(#clip1_2098_25760)">
<path d="M416.294 600.437C417.903 600.927 419.793 600.667 421.472 600.647L430.243 600.657L468.486 600.732C475.133 600.762 482.12 600.407 488.718 601.056L489.532 600.182L490.142 601.061C490.397 601.431 490.662 601.781 490.847 602.191C491.401 603.396 491.666 606.6 491.141 607.835C490.852 608.52 490.137 609.585 489.372 609.795C488.178 610.125 486.309 609.885 485.039 609.875H476.763L437.075 609.9L422.262 609.905C420.917 609.905 418.083 610.245 416.919 609.655C415.934 609.16 415.165 608.245 414.88 607.18C414.48 605.681 414.63 603.276 415.424 601.946C415.704 601.471 415.894 600.982 416.099 600.477L416.294 600.437Z" fill="#FCC139"/>
<path d="M268.609 592.213C270.208 593.003 273.177 592.598 274.981 592.598L290.41 592.608L346.61 592.628C350.363 588.803 353.387 583.899 356.561 579.58L356.781 580.7L355.261 600.626L354.801 606.94C354.732 607.755 354.762 608.92 354.352 609.625L296.742 609.67H277.905C274.881 609.67 271.653 609.885 268.649 609.64C268.134 609.6 267.844 609.415 267.435 609.115L268.609 592.213Z" fill="#28543F"/>
<path d="M418.534 566.103C421.333 566.348 424.381 566.113 427.2 566.118L445.322 566.128L475.969 566.098C480.187 566.088 485.395 566.658 489.508 565.798C489.488 566.638 489.628 567.872 489.233 568.602L489.343 569.092C489.608 570.072 490.607 570.922 491.297 571.637L491.247 578.381C491.237 579.235 491.352 580.51 491.122 581.315C491.152 584.904 492.052 596.777 490.328 598.992L490.148 599.172C489.963 599.497 489.783 599.902 489.543 600.182L488.728 601.056C482.131 600.406 475.144 600.761 468.497 600.731L430.254 600.656L421.483 600.646C419.803 600.666 417.914 600.926 416.305 600.436C416.48 599.637 416.415 598.762 416.41 597.942C415.675 597.762 415.055 596.907 414.516 596.362L414.571 572.552C414.526 571.852 414.561 571.037 414.856 570.392C415.37 569.257 416.505 568.827 417.609 568.382L418.279 568.132L418.534 566.103Z" fill="#FCC139"/>
<path d="M435.396 578.616C437.73 579.471 439.479 578.656 441.418 580.951C442.663 582.425 443.157 584.05 442.962 585.945C442.793 587.585 441.983 588.874 440.683 589.874C439.539 590.759 438.844 590.939 437.485 590.794C436.805 591.159 436.65 591.324 435.846 591.249C434.051 591.094 432.652 590.519 431.492 589.069C430.448 587.754 430.013 585.92 430.258 584.275C430.748 581.016 433.107 580.321 435.396 578.616Z" fill="#FEFEFE"/>
<path d="M473.424 579.296C476.038 579.581 478.322 579.416 480.256 581.57C481.596 583.06 482.205 584.965 481.961 586.959C481.766 588.544 480.826 589.979 479.577 590.944C478.657 591.649 478.017 592.049 476.848 591.924C476.023 592.409 475.878 592.538 474.904 592.443C472.924 592.248 471.21 591.329 469.971 589.764C468.946 588.474 468.466 586.78 468.706 585.15C469.156 582.09 471.22 580.991 473.424 579.296Z" fill="#FEFEFE"/>
<path d="M416.4 597.942C416.61 598.082 417.109 598.512 417.329 598.562C418.829 598.892 421.228 598.562 422.802 598.557L441.134 598.422L479.697 598.442C481.086 598.437 488.658 598.017 489.193 598.297C489.503 598.462 489.613 598.797 489.733 599.097L490.148 599.172C489.963 599.497 489.783 599.902 489.543 600.182L488.728 601.057C482.131 600.407 475.144 600.762 468.497 600.732L430.254 600.657L421.482 600.647C419.803 600.667 417.914 600.927 416.305 600.437C416.475 599.637 416.405 598.762 416.4 597.942Z" fill="#E67F14"/>
<path d="M418.533 566.103C421.332 566.348 424.381 566.113 427.199 566.118L445.322 566.128L475.968 566.098C480.186 566.088 485.394 566.658 489.507 565.798C489.487 566.638 489.627 567.872 489.232 568.602L489.342 569.092C489.607 570.072 490.607 570.922 491.297 571.637L491.247 578.381C491.237 579.235 491.352 580.51 491.122 581.315C490.562 578.8 490.962 575.226 490.947 572.587L438.56 572.447L422.297 572.677C419.833 572.702 416.984 573.017 414.565 572.552C414.52 571.852 414.555 571.037 414.85 570.392C415.365 569.257 416.499 568.827 417.604 568.382L418.273 568.132L418.533 566.103Z" fill="#FECF5B"/>
<path d="M418.533 566.103C421.332 566.348 424.381 566.113 427.2 566.118L445.322 566.128L475.968 566.098C480.186 566.088 485.394 566.658 489.507 565.798C489.487 566.638 489.627 567.872 489.233 568.602L488.623 568.837C487.213 569.187 485.064 568.857 483.57 568.852L471.12 568.842L419.238 568.892C418.613 568.877 418.129 568.692 417.594 568.382L418.263 568.132L418.533 566.103Z" fill="#F0A412"/>
<path d="M386.043 525.671C388.542 522.156 390.426 517.872 392.58 514.113L408.293 486.743L411.682 480.809C412.186 479.934 412.616 478.809 413.506 478.324L418.998 499.915C417.764 500.05 416.51 500.11 415.625 501.105C414.755 502.08 414.795 503.575 414.805 504.799L414.795 522.146C414.795 524.196 414.365 527.48 415 529.39C415.8 530.05 416.345 530.58 417.464 530.455C417.949 530.4 418.424 530.25 418.873 530.06C418.893 530.975 418.998 531.964 418.913 532.874C418.369 533.374 417.909 533.689 417.234 534.009C416.245 534.474 415.55 535.184 415.085 536.179C414.635 538.578 414.815 541.143 414.82 543.577C414.82 545.992 414.65 548.551 414.87 550.951L414.795 560.299C414.8 561.889 414.47 563.749 415.63 564.983C416.35 565.753 417.174 566.193 418.244 566.143L418.534 566.103L418.269 568.133L417.599 568.383C416.495 568.828 415.365 569.258 414.845 570.392C414.555 571.037 414.52 571.852 414.56 572.552L414.505 596.363C415.045 596.908 415.67 597.762 416.4 597.942C416.405 598.762 416.47 599.637 416.295 600.437L416.095 600.477C412.451 600.277 408.553 598.827 405.075 597.752L385.328 591.299L377.816 588.789C376.657 588.389 375.248 588.119 374.373 587.224C374.678 586.899 374.928 586.579 375.173 586.204L375.442 585.78L374.918 585.575C373.428 584.93 372.469 583.795 371.874 582.31C371.654 581.76 370.929 580.126 371.139 579.651C372.839 580.021 377.487 581.76 379.016 581.475L379.466 581.37C379.731 581.265 379.821 581.25 380.055 581.025C380.88 580.231 381.7 578.526 382.304 577.506C387.352 568.983 390.526 559.214 391.825 549.396C392.46 544.612 393.345 537.198 390.201 533.104L389.931 533.154C388.262 533.404 384.319 532.024 383.014 531C384.064 529.925 384.803 528.05 385.433 526.69L386.043 525.671Z" fill="#32694F"/>
<path d="M386.042 525.671L386.422 525.811C387.842 526.261 390.815 525.246 392.495 525.261C396.803 525.301 410.362 527.67 412.811 531.235C412.181 532.005 412.191 532.01 411.221 532.205C403.46 528.82 394.449 526.236 385.932 527.755L385.433 526.691L386.042 525.671Z" fill="#458464"/>
<path d="M196.445 548.262C198.349 548.492 201.148 547.422 203.022 546.917C203.192 548.632 203.422 550.301 203.822 551.981C204.322 554.091 208.065 566.293 207.745 567.318C209.079 567.598 216.726 564.494 218.72 563.889L226.577 561.749C226.642 562.424 226.687 563.079 226.937 563.714L227.102 564.119L225.622 583.63C225.367 586.49 224.838 589.594 224.908 592.449L223.878 603.807C223.743 605.401 223.843 607.756 223.283 609.221C222.813 609.566 222.524 609.775 221.919 609.8L194.026 609.63L139.97 609.7L139.215 595.688C138.835 594.863 138.95 593.354 138.905 592.424L138.575 583.53C138.62 583.29 138.68 582.485 138.795 582.325C139.34 581.566 171.881 571.223 175.304 570.043C177.128 569.418 181.187 568.653 182.401 567.353C182.081 566.498 181.921 565.729 181.821 564.819L181.791 564.519C183.491 564.679 185.885 563.609 187.524 563.104L199.294 559.545C198.459 555.915 196.995 552.301 196.49 548.627L196.445 548.262Z" fill="#28543F"/>
<path d="M196.445 548.262C198.349 548.492 201.148 547.422 203.022 546.917C203.192 548.632 203.422 550.301 203.822 551.981C204.322 554.091 208.065 566.293 207.745 567.318C207.41 567.678 207.035 568.028 206.596 568.258C205.211 568.968 203.577 569.393 202.132 569.998L188.598 575.412L140.055 595.943L139.215 595.688C138.835 594.863 138.95 593.353 138.905 592.424L138.575 583.53C138.62 583.29 138.68 582.485 138.795 582.325C139.34 581.566 171.881 571.223 175.304 570.043C177.128 569.418 181.187 568.653 182.401 567.353C182.081 566.498 181.921 565.729 181.821 564.819L181.791 564.519C183.491 564.679 185.885 563.609 187.524 563.104L199.294 559.545C198.459 555.915 196.995 552.301 196.49 548.627L196.445 548.262Z" fill="#32694F"/>
<path d="M462.89 498.146L463.134 498.5L464.524 500.02L484.495 499.995C486.209 500.035 488.698 499.755 489.958 501.055C490.138 501.24 490.563 501.65 490.663 501.89C491.472 503.824 490.982 508.029 490.982 510.188L490.987 526.53C490.972 527.045 491.017 526.835 490.807 527.275C490.428 529.01 489.978 529.515 488.523 530.55L488.628 531.079L488.883 533.759L489.193 534.054C490.737 535.514 491.007 536.254 491.037 538.398L491.007 555.095C491.052 558.17 491.772 563.109 489.953 565.653L489.508 565.793C485.395 566.653 480.187 566.083 475.969 566.093L445.322 566.123L427.2 566.113C424.381 566.108 421.333 566.343 418.534 566.098L418.244 566.138C417.175 566.188 416.35 565.748 415.63 564.978C414.476 563.743 414.801 561.884 414.796 560.294L414.871 550.946C414.651 548.546 414.821 545.987 414.821 543.572C414.821 541.138 414.641 538.573 415.085 536.174C415.55 535.179 416.245 534.469 417.234 534.004C417.909 533.684 418.369 533.369 418.914 532.869C419.004 531.959 418.899 530.969 418.874 530.055C418.424 530.245 417.949 530.395 417.464 530.45C416.345 530.575 415.795 530.045 415 529.385C414.366 527.475 414.796 524.191 414.796 522.141L414.806 504.794C414.796 503.57 414.756 502.075 415.625 501.1C416.51 500.105 417.764 500.045 418.999 499.91C420.593 500.475 422.992 500.23 424.701 500.11L423.552 498.22L462.89 498.146Z" fill="#FCC139"/>
<path d="M430.413 552.001C430.288 550.101 430.353 548.581 431.643 547.012C432.772 545.637 434.556 544.867 436.306 544.807C438.195 544.737 439.984 545.182 441.358 546.577C442.553 547.786 443.258 549.551 443.168 551.261C443.148 551.641 443.113 551.696 443.013 552.011L442.618 553.45C442.028 554.895 440.564 556.125 439.149 556.725C437.455 557.445 435.621 557.465 433.947 556.665C431.952 555.705 431.063 554.01 430.413 552.001Z" fill="#FEFEFE"/>
<path d="M468.921 552.791L468.727 552.076C468.437 550.491 468.981 548.431 469.906 547.132C471.016 545.577 472.59 544.647 474.479 544.392C476.193 544.162 478.132 544.737 479.487 545.787C481.236 547.152 481.806 548.926 482.041 551.036C481.596 553.26 480.941 554.915 478.922 556.195C477.358 557.185 475.594 557.63 473.769 557.205C472.075 556.81 470.466 555.735 469.571 554.23L468.921 552.791Z" fill="#FEFEFE"/>
<path d="M418.878 530.059C425.471 530.619 432.358 530.199 438.99 530.199L478.617 530.114C479.882 530.104 487.104 529.699 487.788 530.014C488.063 530.144 488.273 530.374 488.518 530.554L488.623 531.084L488.878 533.764L489.188 534.058C490.732 535.518 491.002 536.258 491.032 538.403L491.002 555.1C490.527 554.315 490.697 552.01 490.657 551.02L490.677 537.408C484.74 536.528 478.223 537.068 472.21 536.998L432.512 536.738L422.107 536.838C420.313 536.853 418.319 537.028 416.539 536.783C416.01 536.708 415.525 536.458 415.08 536.178C415.545 535.183 416.24 534.473 417.229 534.009C417.904 533.689 418.364 533.374 418.908 532.874C419.008 531.964 418.903 530.974 418.878 530.059Z" fill="#FECF5B"/>
<path d="M418.878 530.059C425.47 530.619 432.357 530.199 438.989 530.199L478.617 530.114C479.881 530.104 487.103 529.699 487.788 530.014C488.063 530.144 488.273 530.374 488.518 530.554L488.623 531.084L488.403 533.454C486.653 533.679 484.734 533.389 482.965 533.359L473.339 533.329L434.416 533.299L424.176 533.304C422.516 533.304 420.417 533.599 418.913 532.874C419.008 531.964 418.903 530.974 418.878 530.059Z" fill="#F0A412"/>
<path d="M462.889 498.146L463.134 498.5L464.524 500.02L484.495 499.995C486.209 500.035 488.698 499.755 489.958 501.055C490.137 501.24 490.562 501.65 490.662 501.89C491.472 503.824 490.982 508.029 490.982 510.188L490.987 526.53C490.972 527.045 491.017 526.835 490.807 527.275C490.427 529.01 489.978 529.515 488.523 530.55C488.283 530.37 488.068 530.14 487.793 530.01C487.109 529.695 479.887 530.1 478.622 530.11L438.995 530.195C432.358 530.195 425.471 530.615 418.884 530.055C418.434 530.245 417.959 530.395 417.474 530.45C416.355 530.575 415.805 530.045 415.01 529.385C414.376 527.475 414.805 524.191 414.805 522.141L414.815 504.794C414.805 503.57 414.765 502.075 415.635 501.1C416.52 500.105 417.774 500.045 419.008 499.91C420.603 500.475 423.002 500.23 424.711 500.11L423.562 498.22L462.889 498.146Z" fill="#FCC139"/>
<path d="M435.216 510.228L436.701 510.188C438.57 510.268 440.494 511.088 441.663 512.578C442.778 513.993 443.478 515.962 443.223 517.772C443.013 519.247 442.173 520.726 440.939 521.581C440.004 522.226 439.534 522.436 438.435 522.266C437.195 522.936 436.271 522.976 434.881 522.591C433.277 522.151 431.953 520.981 431.158 519.547C430.348 518.092 430.068 516.012 430.633 514.417C431.453 512.103 433.132 511.173 435.216 510.228Z" fill="#FEFEFE"/>
<path d="M473.664 509.909L475.249 509.799C477.068 509.804 478.717 510.539 479.947 511.893C481.186 513.263 481.821 515.208 481.676 517.048C481.546 518.647 480.741 520.087 479.507 521.087C478.487 521.917 477.877 522.167 476.623 522.082L475.758 522.666C474.949 522.711 474.149 522.741 473.359 522.526C471.465 522.002 469.971 520.877 469.081 519.102C468.392 517.722 468.377 515.938 468.866 514.488C469.661 512.143 471.59 510.969 473.664 509.909Z" fill="#FEFEFE"/>
<path d="M462.889 498.146L463.134 498.5L464.523 500.02L484.495 499.995C486.209 500.035 488.698 499.755 489.957 501.055C490.137 501.24 490.562 501.65 490.662 501.89C491.472 503.824 490.982 508.029 490.982 510.188L490.987 526.53C490.972 527.045 491.017 526.835 490.807 527.275C490.272 525.575 490.647 522.596 490.642 520.761L490.612 504.864L437.875 504.504C430.303 504.504 422.332 504.039 414.81 504.789C414.8 503.565 414.76 502.07 415.63 501.095C416.514 500.1 417.769 500.04 419.003 499.905C420.598 500.47 422.996 500.225 424.706 500.105L423.556 498.215L462.889 498.146Z" fill="#FECF5B"/>
<path d="M462.89 498.146L463.135 498.5L464.524 500.02C460.166 500.99 454.473 500.33 449.98 500.325L424.701 500.105L423.552 498.215L462.89 498.146Z" fill="#F39A28"/>
<path d="M331.062 87.9511C331.376 84.4217 331.641 80.8724 332.431 77.413C334.95 66.415 340.952 56.4819 349.623 49.2282C360.634 40.0249 374.962 35.8656 389.201 37.2654C403.8 38.7001 417.354 45.8688 426.6 57.2567C435.526 68.2547 440.204 82.6571 438.69 96.8195C437.11 111.617 429.679 124.574 418.124 133.858L416.879 134.748C407.518 141.101 397.043 144.696 385.668 144.871C371.194 145.091 357.675 138.937 347.424 128.919C336.159 117.911 331.306 103.418 331.062 87.9511Z" fill="#458464"/>
<path d="M402.911 71.1289L413.746 82.3269L382.14 114.476L368.291 100.743L357.221 89.6905L367.951 78.8575L381.9 92.9599L402.911 71.1289Z" fill="#FEFEFE"/>
<path d="M285.262 495.591C291.869 482.179 300.1 469.471 307.812 456.674L316.623 442.171C318.527 439.147 320.212 435.952 322.881 433.508C324.88 431.678 327.673 430.033 330.357 429.488C333.931 428.764 338.294 429.493 341.932 429.673L363.623 430.788L365.672 430.838L390.791 432.308C394.924 432.523 399.452 433.193 403.555 432.933L439.6 435.202C439.47 436.067 438.73 436.922 438.26 437.672L434.417 443.746L418.959 468.936L415.225 474.97C414.591 475.99 413.661 477.115 413.501 478.325C412.611 478.809 412.177 479.934 411.677 480.809L408.288 486.743L392.575 514.113C390.421 517.872 388.542 522.157 386.038 525.671L385.428 526.691C384.794 528.05 384.059 529.925 383.009 531C384.314 532.025 388.262 533.404 389.926 533.154L390.196 533.105L369.815 579.756C367.311 579.291 358.74 578.126 357.046 576.722C357.031 577.731 357.251 579.886 356.781 580.701L356.561 579.581C353.387 583.9 350.369 588.804 346.61 592.629L290.41 592.609L274.981 592.599C273.177 592.599 270.208 593.004 268.609 592.214L267.44 609.116C267.165 609.291 266.72 609.66 266.425 609.745C265.71 609.96 226.158 610.1 224.403 609.775C223.959 609.695 223.644 609.471 223.279 609.221C223.839 607.756 223.734 605.401 223.874 603.807L224.903 592.449C224.833 589.594 225.363 586.49 225.618 583.63L227.097 564.119L226.932 563.714C226.682 563.079 226.637 562.424 226.572 561.749L218.716 563.889C216.727 564.494 209.075 567.598 207.741 567.318C208.066 566.293 204.317 554.091 203.817 551.981C203.423 550.301 203.188 548.632 203.018 546.917C201.144 547.422 198.345 548.492 196.441 548.262L192.807 549.407L181.282 513.323L215.652 495.696L226.278 490.382C227.282 489.982 228.282 489.627 229.186 489.023C230.261 488.603 231.525 487.973 232.68 487.953C235.863 487.903 239.342 488.738 242.516 489.163L268.369 492.987L273.242 493.602L278.54 494.377L285.262 495.591Z" fill="#94C1A7"/>
<path d="M332.376 533.394C331.986 533.629 331.721 533.809 331.256 533.859C330.122 533.979 328.627 533.664 327.473 533.544L320.076 532.92L293.343 530.915L300.255 517.442L369.075 522.371L365.821 530.015L365.151 530.165C363.442 530.58 361.563 529.81 359.864 529.465L346.66 527.061C344.441 526.686 341.592 525.981 339.368 526.316C336.914 526.686 334.57 528.05 333.245 530.175C332.631 531.16 332.506 532.26 332.376 533.394Z" fill="#224334"/>
<path d="M324.05 471.381L393.439 476.45L386.912 489.278L317.822 484.453C317.817 483.254 318.837 481.664 319.367 480.579L324.05 471.381Z" fill="#224334"/>
<path d="M312.395 494.307L381.645 499.271L374.883 512.713L305.748 507.629L312.395 494.307Z" fill="#224334"/>
<path d="M264.85 533.594C264.47 534.983 262.196 539.998 261.162 540.687L261.082 540.967C259.777 545.182 256.899 549.541 254.85 553.485L238.727 584.389C237.482 587.019 236.053 589.659 234.968 592.358L251.391 592.538C253.615 592.563 257.538 593.093 259.528 592.233C261.217 592.848 266.614 593.093 268.209 592.403L268.609 592.213L267.439 609.115C267.164 609.29 266.719 609.66 266.425 609.745C265.71 609.96 226.157 610.1 224.403 609.775C223.958 609.695 223.643 609.47 223.278 609.22C223.838 607.755 223.733 605.401 223.873 603.806L224.903 592.448C224.833 589.593 225.362 586.489 225.617 583.63L227.097 564.118C227.576 563.228 227.516 560.944 227.606 559.899C227.936 555.99 228.961 550.916 228.326 547.071C228.671 547.151 228.681 547.166 229.096 547.191C231.455 547.316 241.685 545.432 243.29 543.782C245.544 541.477 250.387 539.893 253.465 538.773L253.97 537.683C254.505 538.508 254.57 538.768 255.499 539.158L256.449 538.888L256.664 538.903C257.448 538.838 258.363 538.078 259.023 537.658C260.997 536.393 263.096 535.173 264.85 533.594Z" fill="#E67F14"/>
<path d="M264.851 533.594C264.471 534.983 262.197 539.998 261.162 540.687C260.778 540.522 260.887 540.522 260.543 540.512C259.263 540.478 258.224 540.622 257.039 540.003C253.991 541.272 250.527 542.052 247.348 543.057C246.054 543.467 244.58 544.202 243.285 543.782C245.539 541.477 250.382 539.893 253.461 538.773L253.965 537.683C254.5 538.508 254.565 538.768 255.495 539.158L256.444 538.888L256.659 538.903C257.444 538.838 258.359 538.078 259.018 537.658C260.997 536.393 263.097 535.173 264.851 533.594Z" fill="#F39A28"/>
<path d="M259.528 592.233C261.217 592.848 266.614 593.093 268.209 592.403L268.609 592.213L267.439 609.115C267.164 609.29 266.719 609.66 266.425 609.745C265.71 609.96 226.157 610.1 224.403 609.775C223.958 609.695 223.643 609.47 223.278 609.22C223.838 607.755 223.733 605.4 223.873 603.806L224.903 592.448C226.407 593.288 227.521 594.672 228.796 595.812C230.585 597.417 232.659 598.382 234.898 599.207C238.697 600.601 242.885 601.946 246.893 602.526C247.788 602.656 248.847 602.876 249.682 602.451C252.935 600.786 258.963 598.192 260.572 594.797C260.767 594.383 261.007 593.968 261.272 593.598L261.582 593.208C260.722 593.088 260.357 592.963 259.702 592.388L259.528 592.233Z" fill="#F0A412"/>
<path d="M332.376 533.394C332.506 532.259 332.631 531.159 333.246 530.175C334.57 528.05 336.914 526.685 339.368 526.315C341.597 525.98 344.441 526.685 346.66 527.06L359.864 529.465C361.563 529.81 363.447 530.58 365.152 530.165C366.361 531.329 368.445 531.469 370.039 531.874L381.275 534.874L383.004 530.999C384.308 532.024 388.257 533.404 389.921 533.154L390.191 533.104L369.81 579.756C367.306 579.291 358.734 578.126 357.04 576.721C354.251 577.316 339.763 572.002 336.599 570.852L325.049 566.198C323.33 565.403 321.471 564.733 320.621 562.919C320.501 561.869 320.861 561.329 321.371 560.434L321.356 559.864C321.041 559.819 320.861 559.744 320.606 559.549C319.511 558.719 318.537 557.3 318.437 555.9C318.162 552.031 320.646 550.246 322.815 547.566L322.965 547.376L323.625 546.327L323.26 546.187C322.615 545.797 322.38 545.052 322.295 544.362C322.065 542.507 322.805 540.453 323.99 539.048C325.344 537.438 327.743 536.329 329.837 536.239C331.031 536.189 332.091 536.433 333.32 536.279L333.585 536.239L333.86 535.989C333.121 535.174 332.786 534.414 332.376 533.394Z" fill="#F1A261"/>
<path d="M333.871 535.988C337.054 536.203 340.218 537.378 343.281 538.223L358.89 542.482L371.399 545.827C373.803 546.471 376.467 546.966 378.741 547.976L379.196 548.606C378.931 549.601 378.876 549.731 378.116 550.416C373.263 549.601 368.361 547.986 363.613 546.666L343.396 541.092L337.144 539.328C335.825 538.958 334.355 538.683 333.256 537.828C333.316 537.253 333.351 536.773 333.586 536.238L333.871 535.988Z" fill="#B55045"/>
<path d="M321.371 559.864L322.506 558.959C326.964 559.504 331.737 561.274 336.04 562.563L354.582 567.837L364.087 570.232C365.112 570.477 367.076 570.707 367.951 571.257C368.231 571.432 368.551 571.862 368.795 572.107C368.72 573.026 368.666 573.146 368.121 573.896C366.382 573.956 364.992 573.411 363.343 572.961L356.526 571.132L336.719 565.768C331.922 564.393 327.079 562.703 322.191 561.718C321.906 561.294 321.611 560.889 321.381 560.434L321.371 559.864Z" fill="#B55045"/>
<path d="M323.64 546.326C324.085 546.256 324.42 546.196 324.87 546.261C326.669 546.536 328.668 547.376 330.432 547.866L345.371 552.165L365.702 557.939C367.951 558.594 371.389 559.144 373.304 560.464C373.843 560.834 373.768 560.929 373.883 561.573C373.398 562.133 373.189 562.608 372.384 562.678C371.564 562.748 370.525 562.288 369.735 562.048L363.368 560.139L338.439 553.095L329.882 550.74C327.848 550.196 325.594 549.751 323.76 548.686C323.455 548.236 323.205 547.871 322.98 547.376L323.64 546.326Z" fill="#B55045"/>
<path d="M229.186 489.017C230.26 488.597 231.525 487.967 232.679 487.947C235.863 487.897 239.341 488.732 242.515 489.157L268.369 492.982L273.241 493.596L278.539 494.371L285.256 495.591L283.842 498.316C282.692 501.195 281.078 503.92 279.664 506.679L272.077 521.251L267.834 529.1C267.024 530.57 266.284 532.174 265.19 533.459L264.85 533.594C263.096 535.174 260.997 536.394 259.013 537.658C258.358 538.078 257.438 538.838 256.654 538.903L256.439 538.888L255.489 539.158C254.565 538.768 254.495 538.508 253.96 537.683L253.455 538.773C250.381 539.893 245.538 541.478 243.279 543.782C241.68 545.432 231.45 547.317 229.086 547.192C228.671 547.167 228.661 547.152 228.316 547.072C228.951 550.916 227.926 555.99 227.596 559.899C227.506 560.944 227.566 563.229 227.087 564.119L226.922 563.714C226.672 563.079 226.627 562.424 226.562 561.749L218.705 563.889C216.716 564.493 209.064 567.598 207.73 567.318C208.055 566.293 204.306 554.09 203.807 551.981C203.412 550.301 203.177 548.631 203.007 546.917C201.133 547.422 198.334 548.491 196.43 548.261L192.796 549.406L181.271 513.323L215.642 495.696L226.267 490.382C227.281 489.977 228.276 489.622 229.186 489.017Z" fill="#F1A261"/>
<path d="M254.605 533.274C249.992 533.759 244.844 534.723 240.236 534.464C239.646 533.609 239.636 533.409 239.581 532.359C239.726 532.174 239.811 531.904 240.021 531.809C240.551 531.564 242.31 531.664 242.955 531.619L251.671 530.929C253.365 530.799 255.259 530.854 256.864 530.274L257.073 530.194C256.554 531.404 255.894 532.204 255.029 533.159L254.605 533.274Z" fill="#D6744B"/>
<path d="M265.205 520.107L240.955 518.542C240.196 518.432 240.176 518.427 239.751 517.832C239.876 516.752 239.901 516.448 240.521 515.573C242.87 515.443 245.344 515.838 247.693 516.008C254.295 516.492 260.982 517.367 267.599 517.362C267.014 518.117 266.055 519.787 265.205 520.107Z" fill="#D6744B"/>
<path d="M276.351 506.769C275.261 506.074 272.352 506.184 270.983 506.059C267.06 505.694 243.095 504.339 241.456 503.264C241.111 502.429 241.176 502.444 241.481 501.585C241.726 501.4 241.921 501.135 242.211 501.035C243.555 500.57 247.054 501.29 248.618 501.4C258.728 502.129 268.909 503.539 279.03 503.669L276.351 506.769Z" fill="#D6744B"/>
<path d="M279.024 503.664L283.847 498.315C282.698 501.195 281.084 503.919 279.669 506.679L272.082 521.251L267.839 529.1C267.03 530.57 266.29 532.174 265.195 533.459L264.856 533.594C263.101 535.174 261.002 536.393 259.018 537.658C258.363 538.078 257.444 538.838 256.659 538.903L256.444 538.888L255.495 539.158C254.57 538.768 254.5 538.508 253.965 537.683C253.735 537.368 253.621 536.938 253.476 536.578C253.661 535.354 254.09 534.379 254.605 533.274L255.035 533.159C255.9 532.204 256.559 531.404 257.079 530.195C257.914 529.92 258.648 528.675 259.213 527.975C261.182 525.535 263.791 522.886 265.205 520.106C266.055 519.787 267.015 518.117 267.604 517.362L276.351 506.769L279.024 503.664Z" fill="#182F25"/>
<path d="M203.022 546.917C207.441 549.282 222.589 549.027 227.527 547.552C227.862 547.452 228.062 547.282 228.326 547.072C228.961 550.916 227.937 555.99 227.607 559.9C227.517 560.944 227.577 563.229 227.097 564.119L226.932 563.714C226.682 563.079 226.637 562.424 226.572 561.749L218.716 563.889C216.726 564.494 209.075 567.598 207.74 567.318C208.065 566.293 204.317 554.091 203.817 551.981C203.422 550.301 203.192 548.632 203.022 546.917Z" fill="#32694F"/>
<path d="M71.3749 493.237C69.8806 491.332 68.861 488.993 67.7065 486.868C62.6437 477.53 58.7554 468.086 55.4919 457.988C48.275 435.672 46.2059 410.442 49.5694 387.226C51.9834 370.564 57.1861 354.102 63.9532 338.715C67.4467 330.777 71.9197 323.533 75.853 315.844L70.4453 307.486C66.677 300.732 63.1135 293.668 60.3647 286.435C47.9701 253.761 46.6507 218.057 56.3615 184.553C65.2026 154.054 85.6087 125.324 110.693 105.943C118.439 99.9589 126.741 94.9448 135.297 90.2157C158.662 77.293 185.625 71.1542 212.239 71.879C217.771 72.029 223.294 72.254 228.781 73.0688C238.572 74.5285 248.063 77.2131 257.549 79.9376L256.949 76.2232C255.605 67.3549 258.748 57.6916 264.036 50.6129C268.884 44.1191 276.351 39.6149 284.397 38.5451C292.444 37.4803 300.395 39.47 306.802 44.489C313.559 49.7831 318.022 57.9116 318.977 66.435C320.067 76.1432 316.888 85.1866 310.866 92.7502L331.067 87.9511C331.307 103.418 336.16 117.911 347.425 128.919C357.675 138.937 371.199 145.091 385.668 144.871C397.048 144.696 407.518 141.101 416.879 134.748C421.043 136.837 425.331 138.832 429.324 141.231C448.111 152.519 464.908 169.161 475.464 188.458C479.197 195.286 481.906 202.27 484.35 209.649C493.956 238.633 492.192 269.898 484.145 298.972L481.136 308.641L479.402 313.32C479.347 313.48 479.017 314.285 479.027 314.39C479.047 314.605 480.037 315.849 480.202 316.104C481.381 317.919 482.426 319.819 483.43 321.733C487.294 329.077 490.827 336.606 493.936 344.299C507.535 377.943 511.038 414.881 501.957 450.18C500.328 456.519 498.119 462.527 495.845 468.651C493.391 475.25 490.482 481.539 487.449 487.888C486.619 489.628 485.944 491.697 484.975 493.327L484.725 493.702C484.39 495.771 484.485 497.896 484.49 499.991L464.519 500.016L463.129 498.496L462.884 498.141L423.546 498.216L424.696 500.106C422.987 500.226 420.588 500.47 418.993 499.906L413.501 478.315C413.656 477.105 414.585 475.98 415.225 474.96L418.958 468.926L434.417 443.736L438.26 437.662C438.73 436.912 439.465 436.057 439.599 435.192L403.555 432.923C399.447 433.183 394.924 432.513 390.791 432.298L365.672 430.828L363.623 430.778L341.932 429.663C338.289 429.483 333.931 428.754 330.357 429.479C327.673 430.023 324.884 431.668 322.88 433.498C320.211 435.937 318.527 439.132 316.623 442.161L307.812 456.664C300.1 469.461 291.869 482.169 285.262 495.581L278.545 494.362L273.247 493.587L268.374 492.972L242.52 489.148C239.342 488.723 235.868 487.883 232.685 487.938C231.525 487.958 230.261 488.588 229.191 489.008C228.287 489.612 227.292 489.967 226.282 490.367L215.657 495.681L181.287 513.308L192.812 549.392L196.445 548.247L196.49 548.612C196.99 552.286 198.455 555.9 199.294 559.53L187.524 563.089C185.885 563.594 183.491 564.664 181.792 564.504L181.822 564.804C181.922 565.714 182.082 566.483 182.402 567.338C181.187 568.638 177.129 569.403 175.305 570.028C171.881 571.208 139.345 581.551 138.796 582.31C138.681 582.47 138.621 583.275 138.576 583.515L138.066 582.49L111.213 591.509C107.329 592.814 103.176 594.528 99.1129 595.093C95.4045 595.608 91.5711 595.413 87.9127 594.658C78.9866 592.809 71.13 587.175 66.1672 579.586C62.7387 574.347 60.7846 568.393 60.4147 562.149C59.9049 553.551 62.4188 544.452 63.8082 535.984L71.3749 493.237Z" fill="white"/>
<path d="M463.109 484.773L463.574 484.253L476.998 484.123C479.022 484.103 481.791 483.718 483.635 484.463C483.895 484.758 484.36 485.158 484.535 485.488C484.8 485.983 484.76 487.187 484.76 487.757L484.73 493.711C484.31 492.301 484.485 490.692 484.5 489.232L463.194 489.217L463.109 484.773Z" fill="#224334"/>
<path d="M463.194 489.222L484.499 489.237C484.484 490.696 484.31 492.306 484.729 493.716C484.395 495.785 484.489 497.91 484.494 500.005L464.523 500.03L463.134 498.51L463.194 489.222Z" fill="#182F25"/>
<path d="M423.506 489.548C423.386 488.908 423.321 488.208 423.341 487.558C423.371 486.493 423.736 485.778 424.506 485.048C424.991 484.588 425.421 484.403 426.095 484.299C429.479 483.789 433.607 484.234 437.055 484.234L462.644 484.274L463.119 484.773L463.204 489.218L463.149 498.501L462.904 498.146L423.566 498.221L423.506 489.548Z" fill="#F0A412"/>
<path d="M423.506 489.548C423.386 488.908 423.321 488.208 423.341 487.558C423.371 486.493 423.736 485.778 424.506 485.048C424.991 484.588 425.421 484.403 426.095 484.299C429.479 483.789 433.607 484.234 437.055 484.234L462.644 484.274L463.119 484.773L463.204 489.218L463.149 498.501L462.904 498.146L462.924 489.168L423.506 489.548Z" fill="#FCC139"/>
<path d="M357.341 228.085C364.448 227.635 371.839 227.995 378.971 227.995H421.758L442.404 228.005C444.897 228.005 448.821 227.505 451.16 228.21C452.669 228.665 453.994 229.855 454.728 231.234C455.473 232.639 455.638 234.664 455.118 236.163C454.378 238.293 452.844 239.393 450.95 240.373C446.972 241.018 442.494 240.623 438.45 240.608L415.46 240.533L376.422 240.543H364.313C362.064 240.538 359.28 240.828 357.131 240.128C355.546 239.613 354.137 238.368 353.412 236.873C352.808 235.624 352.668 233.284 353.177 231.964C353.992 229.845 355.401 228.98 357.341 228.085Z" fill="#458464"/>
<path d="M358.52 264.113L410.167 264.013L435.296 264.018C439.724 264.023 444.257 263.828 448.675 264.088C450.015 264.168 451.344 264.353 452.519 265.053C453.983 265.933 454.878 267.438 455.203 269.087C455.547 270.847 455.153 272.597 454.108 274.052C452.939 275.676 451.454 276.276 449.58 276.636H433.327L402.506 276.556L374.598 276.616C369.39 276.626 364.102 276.846 358.905 276.531C357.61 276.451 356.76 276.286 355.666 275.556C354.272 274.626 353.212 273.242 352.947 271.552C352.667 269.727 352.812 267.738 353.987 266.258C355.206 264.728 356.696 264.363 358.52 264.113Z" fill="#458464"/>
<path d="M357.686 193.086L376.857 193.001L410.483 193.016L437.926 193.036L446.667 193.046C448.221 193.046 450.035 192.901 451.485 193.556C453.009 194.246 454.428 195.755 454.918 197.37C455.413 199 455.173 201 454.363 202.494C453.324 204.424 451.45 205.259 449.441 205.789L384.524 205.659L366.127 205.694C363.358 205.699 359.29 206.214 356.721 205.364C355.202 204.859 353.812 203.874 353.133 202.389C352.398 200.795 352.163 198.845 352.888 197.2C353.827 195.046 355.516 193.836 357.686 193.086Z" fill="#458464"/>
<path d="M358.365 300.597L373.833 300.537L403.425 300.547L433.102 300.582L448.575 300.647C449.755 300.707 450.894 300.802 451.949 301.382C453.588 302.282 454.518 303.667 455.032 305.431C455.517 307.101 455.247 308.871 454.378 310.37C453.318 312.195 451.769 312.805 449.85 313.305L383.339 313.32L365.996 313.31C363.417 313.31 360.334 313.645 357.84 313.135L357.495 313.055C356.201 312.775 355.056 312.19 354.161 311.185C353.047 309.93 352.582 308.121 352.717 306.466C352.872 304.581 353.712 303.022 355.226 301.877C356.195 301.142 357.22 300.872 358.365 300.597Z" fill="#458464"/>
<path d="M224.468 149.404L224.208 93.5493L260.582 93.5293L260.487 129.878C255.17 130.448 250.202 131.497 246.678 135.917C244.944 138.091 243.994 140.571 243.415 143.255C238.572 142.065 234.264 141.875 229.851 144.51C227.741 145.77 226.002 147.494 224.468 149.404Z" fill="#224334"/>
<path d="M99.8623 295.187L135.252 295.237L135.457 285.409L135.482 295.187L142.079 295.207L176.814 295.187L183.631 295.247L218.376 295.167L222.689 295.172L216.731 306.27C213.743 308.375 211.084 310.735 208.47 313.289L88.9621 313.264L88.9121 295.077L99.8623 295.187Z" fill="#279C67"/>
<path d="M142.079 295.213L142.129 191.412L176.864 191.482L176.814 295.193L142.079 295.213Z" fill="#224334"/>
<path d="M183.631 295.253L183.621 142.171L219.425 142.136L219.336 154.703C219.326 156.573 219.071 158.743 219.411 160.552L219.505 161.017C214.887 162.117 211.129 163.767 208.51 167.971C206.706 170.87 206.126 175.225 206.921 178.509C207.756 181.973 209.57 184.438 212.593 186.318C212.484 187.852 212.294 189.147 212.434 190.692C211.754 191.367 209.17 191.372 208.04 191.732C202.958 193.366 199.569 198.425 199.524 203.694C199.499 206.819 200.404 209.993 202.663 212.248C203.737 213.318 205.037 214.208 206.276 215.072C203.587 219.272 201.768 223.041 202.938 228.225C203.752 231.824 205.602 235.014 208.785 236.998C210.409 238.008 212.109 238.438 213.958 238.828C213.923 241.108 213.773 243.337 214.448 245.547L214.588 246.022C215.312 248.396 216.672 250.591 218.621 252.141C220.485 253.225 222.334 253.935 224.348 254.685C227.507 255.135 229.936 254.385 232.525 252.601C232.635 255.01 232.665 257.485 233.08 259.869C233.539 262.544 234.519 265.388 234.564 268.088L224.293 291.428L222.694 295.163L218.381 295.158L183.631 295.253Z" fill="#224334"/>
<path d="M218.371 295.172L218.316 264.483L218.311 256.379C218.311 254.99 218.111 253.46 218.615 252.155C220.48 253.24 222.329 253.95 224.343 254.7C227.502 255.15 229.93 254.4 232.519 252.615C232.629 255.025 232.659 257.499 233.074 259.884C233.534 262.558 234.513 265.403 234.558 268.102L224.288 291.443L222.689 295.177L218.371 295.172Z" fill="#B0E2E7"/>
<path d="M232.519 252.615C232.629 255.025 232.659 257.499 233.074 259.884C233.534 262.558 234.514 265.403 234.559 268.102L224.288 291.443L224.348 254.7C227.502 255.15 229.936 254.4 232.519 252.615Z" fill="#1D99E5"/>
<path d="M99.8623 295.188L99.6924 151.754L135.327 151.829L135.452 285.41L135.247 295.238L99.8623 295.188Z" fill="#224334"/>
<path d="M260.488 129.873C265.675 130.583 269.699 132.197 273.357 136.097C275.876 131.452 278.975 128.368 284.122 126.818C287.976 125.659 292.139 125.908 295.697 127.848C299.671 130.013 301.655 133.062 303.614 137.016L303.999 136.717C307.137 134.317 310.891 133.207 314.834 133.767C319.632 134.447 324.03 137.391 326.819 141.286C328.818 144.075 329.653 147.22 330.042 150.589C333.426 148.674 336.175 147.47 340.113 148.489C344.346 149.584 347.71 152.999 349.759 156.738C352.293 161.357 352.822 166.446 351.698 171.55C351.603 171.98 351.038 173.635 351.123 173.975C351.283 174.61 352.408 175.949 352.812 176.604C355.146 180.404 356.111 185.073 354.792 189.407C353.327 194.201 349.459 197.585 345.116 199.8L337.879 202.624C336.789 208.438 335.69 214.132 333.621 219.696C332.861 221.731 332.047 224.036 330.697 225.76C327.663 240.782 323.73 255.66 317.883 269.847C312.895 281.96 306.313 294.718 295.083 302.181C289.305 306.021 282.573 308.38 275.576 307.49C272.338 307.01 269.329 306.26 266.3 304.981C252.066 298.962 241.926 286.339 236.258 272.327C236.248 271.827 235.948 271.107 235.724 270.657L234.549 268.097C234.499 265.398 233.524 262.553 233.065 259.879C232.655 257.499 232.625 255.025 232.51 252.61C229.926 254.395 227.492 255.145 224.333 254.695C222.319 253.945 220.475 253.235 218.606 252.15C216.657 250.596 215.292 248.406 214.573 246.032L214.433 245.557C213.758 243.352 213.908 241.122 213.943 238.838C212.094 238.448 210.395 238.023 208.77 237.008C205.587 235.024 203.737 231.834 202.923 228.235C201.748 223.046 203.573 219.276 206.261 215.082C205.022 214.217 203.722 213.327 202.648 212.258C200.389 210.003 199.484 206.829 199.509 203.704C199.554 198.435 202.938 193.376 208.026 191.741C209.155 191.377 211.739 191.377 212.419 190.702C212.284 189.157 212.474 187.862 212.579 186.327C209.56 184.443 207.741 181.978 206.906 178.519C206.116 175.229 206.691 170.875 208.495 167.981C211.114 163.777 214.873 162.127 219.491 161.027C220.51 160.977 221.515 160.962 222.514 160.732C222.224 156.223 222.704 153.563 224.458 149.409C225.993 147.505 227.732 145.775 229.841 144.515C234.254 141.881 238.562 142.066 243.405 143.26C243.985 140.571 244.935 138.091 246.669 135.922C250.207 131.487 255.17 130.443 260.488 129.873Z" fill="#001B53"/>
<path d="M232.519 252.616L232.669 247.786C231.21 247.851 229.81 248.201 228.336 248.076C225.277 247.821 222.019 244.747 220.14 242.537C216.601 238.378 214.832 232.529 215.312 227.095C215.702 222.721 217.631 217.362 221.139 214.523C223.918 212.273 227.516 210.543 231.175 211.013C233.979 211.373 235.858 212.633 237.557 214.838C242.315 220.996 240.191 228.86 239.326 235.849C244.504 225.166 247.663 213.443 252.321 202.505C255.134 195.896 258.833 189.942 262.486 183.783L264.595 185.438C278.399 195.976 296.032 203.83 313.454 205.164C319.386 205.619 325.124 205.159 330.991 204.379L330.701 225.761C327.668 240.783 323.734 255.66 317.887 269.847C312.899 281.96 306.317 294.718 295.087 302.182C289.31 306.021 282.577 308.38 275.58 307.491C272.342 307.011 269.333 306.261 266.305 304.981C252.071 298.962 241.93 286.339 236.263 272.327C236.253 271.827 235.953 271.107 235.728 270.657L234.553 268.098C234.503 265.398 233.529 262.554 233.069 259.879C232.659 257.5 232.629 255.03 232.519 252.616Z" fill="#F1A261"/>
<path d="M272.567 269.407C273.137 269.547 273.477 269.722 273.957 270.062C275.216 273.282 276.725 276.136 279.624 278.161C283.148 280.625 286.531 280.625 290.634 279.936L291.389 280.68L291.329 282.08C287.736 283.02 283.947 282.99 280.529 281.39C276.625 279.566 273.857 276.356 272.422 272.312C271.962 271.027 271.982 270.607 272.567 269.407Z" fill="#001B53"/>
<path d="M311.47 220.821C313.889 220.971 316.868 222.216 318.747 223.746C319.887 224.671 321.366 226.375 321.446 227.865C321.506 228.985 321.026 230.595 320.322 231.449L319.687 231.094C316.918 228.83 314.939 227.92 311.446 227.16C310.456 226.945 309.471 226.57 308.947 225.635C308.532 224.896 308.517 223.961 308.797 223.176C309.271 221.846 310.291 221.416 311.47 220.821Z" fill="#001B53"/>
<path d="M308.591 238.064C309.68 237.959 310.805 237.814 311.855 238.214C313.299 238.758 314.468 239.893 315.088 241.303C315.613 242.493 315.678 244.337 315.183 245.542C314.398 247.447 312.869 248.327 311.065 249.047C310.21 249.222 309.291 249.187 308.446 248.957C307.012 248.562 305.682 247.387 305.038 246.067C304.343 244.647 304.368 243.153 304.908 241.688C305.607 239.773 306.837 238.878 308.591 238.064Z" fill="#001B53"/>
<path d="M272.337 229.015C273.372 228.885 274.591 228.785 275.601 229.055C277.075 229.445 278.35 230.465 279.079 231.799C279.969 233.429 280.004 234.984 279.434 236.718C278.795 238.658 277.35 239.518 275.626 240.343C274.706 240.498 273.602 240.573 272.697 240.328C271.163 239.913 269.858 238.853 269.079 237.478C268.314 236.129 268.054 234.374 268.524 232.884C269.149 230.904 270.593 229.905 272.337 229.015Z" fill="#001B53"/>
<path d="M276.58 210.653C278.104 210.508 279.684 210.643 281.193 210.888C282.887 211.163 285.166 212.278 286.131 213.713C286.716 214.588 286.971 215.513 286.731 216.557C286.501 217.557 285.736 218.417 284.837 218.877C283.467 219.577 281.333 218.352 279.954 217.842C278.304 217.372 276.755 217.022 275.026 217.102C273.222 217.182 271.797 218.092 270.018 217.397C269.558 216.887 269.238 216.497 269.093 215.807C268.893 214.848 269.228 213.813 269.793 213.023C271.137 211.143 274.471 210.898 276.58 210.653Z" fill="#001B53"/>
<path d="M300.235 227.615C301.135 227.665 301.175 227.72 301.885 228.285C301.949 228.565 302.109 228.84 302.079 229.13C302.059 229.32 300.065 231.309 299.765 231.664C298.256 233.459 297.177 235.894 296.677 238.173C295.472 243.662 297.611 249.746 302.614 252.591C304.199 253.49 307.337 253.905 308.257 255.375L307.957 256.625C307.027 259.514 304.993 261.914 302.299 263.299C299.216 264.883 295.437 264.628 292.224 263.629C291.399 263.259 290.854 262.899 290.225 262.249L290.499 261.469C290.714 261.304 290.874 261.029 291.139 260.979C291.379 260.934 292.654 261.404 292.963 261.484C295.157 262.049 297.616 262.544 299.835 261.814C302.684 260.879 304.308 259.069 305.658 256.495C303.094 255.28 300.345 254.115 298.356 252.026C295.207 248.726 294.108 244.997 294.243 240.518C294.413 235.319 296.462 231.164 300.235 227.615Z" fill="#001B53"/>
<path d="M229.591 219.292C230.466 219.277 231.365 219.367 232.215 219.587C233.739 219.982 234.999 221.121 235.699 222.516C237.303 225.725 236.433 230.61 235.474 233.924C234.739 236.459 233.744 238.218 231.385 239.528C229.521 238.808 228.027 237.568 226.872 235.944C224.913 233.184 224.039 229.165 224.748 225.84C225.393 222.831 227.087 220.896 229.591 219.292Z" fill="#D6744B"/>
<path d="M234.559 268.098L235.734 270.657C235.958 271.112 236.258 271.832 236.268 272.327C241.936 286.334 252.071 298.962 266.31 304.981C269.339 306.261 272.348 307.016 275.586 307.49L274.856 313.919L295.552 324.252H295.747C296.047 324.207 296.347 324.092 296.652 324.112C297.372 324.152 299.191 325.237 299.976 325.582C303.624 327.202 307.657 328.627 311.121 330.571L352.033 348.608C359.125 351.802 367.261 354.537 373.558 359.161C378.506 362.795 382.44 367.539 384.709 373.268C386.823 378.612 387.887 384.631 389.397 390.19C393.275 404.488 397.223 419.505 403.56 432.927C399.452 433.187 394.929 432.518 390.796 432.303L365.677 430.833L363.628 430.783L341.937 429.668C338.294 429.488 333.936 428.758 330.362 429.483C327.678 430.028 324.89 431.673 322.886 433.502C320.217 435.942 318.532 439.136 316.628 442.166L307.817 456.668C300.105 469.466 291.874 482.173 285.267 495.586L278.55 494.366L273.252 493.591L268.379 492.976L242.526 489.152C239.347 488.727 235.873 487.887 232.69 487.942C231.53 487.962 230.266 488.592 229.196 489.012C228.292 489.617 227.297 489.972 226.288 490.372C224.244 483.493 223.104 476 221.69 468.941L214.673 434.022L201.528 363.255L197.55 335.485C197.135 331.991 196.496 328.657 196.366 325.127C196.466 324.402 196.371 323.592 196.346 322.858C196.776 322.098 197.755 321.763 198.495 321.363C200.054 320.523 201.788 319.688 203.198 318.608C205.102 317.149 206.811 315.024 208.48 313.284C211.094 310.73 213.748 308.37 216.742 306.266L222.699 295.168L224.299 291.433L234.559 268.098Z" fill="#FEFEFE"/>
<path d="M234.659 361.131C232.475 363.126 230.716 365.845 228.942 368.205C225.953 372.184 223.009 376.088 219.626 379.752L218.916 378.798C215.912 374.183 198.025 341.539 198.77 337.87C199.569 338.385 202.793 345.704 203.558 347.088L209.415 356.642C211.984 360.756 214.538 364.88 218.066 368.25C218.921 368.47 219.086 368.495 219.905 368.175C221.615 367.505 223.354 366.1 224.848 365.05C228.927 362.191 232.99 359.096 236.618 355.687L242.79 349.613C243.89 348.528 244.945 347.248 246.369 346.599C244.625 349.398 242.611 351.968 240.422 354.432C238.677 356.397 235.804 358.796 234.659 361.131Z" fill="#94C1A7"/>
<path d="M246.374 346.588L248.338 343.979C251.377 347.463 254.485 351.067 258.129 353.947L260.928 358.286L262.392 360.645C260.768 363.7 259.098 368.009 256.704 370.469L253.461 372.028C248.788 373.683 244.33 372.253 240.117 370.134C238.297 368.199 236.668 365.175 235.569 362.755L234.664 361.135C235.809 358.801 238.682 356.406 240.432 354.427C242.611 351.957 244.63 349.383 246.374 346.588Z" fill="#F0A412"/>
<path d="M235.563 362.75C235.798 362.665 236.028 362.445 236.273 362.49C236.708 362.575 239.842 366.29 240.451 366.85C241.596 367.899 242.855 368.774 244.35 369.254C247.313 370.209 251.352 370.274 254.15 368.759C257.869 366.74 259.733 362.13 260.932 358.286L262.397 360.646C260.772 363.7 259.103 368.009 256.709 370.469L253.466 372.029C248.793 373.683 244.335 372.254 240.121 370.134C238.292 368.194 236.663 365.17 235.563 362.75Z" fill="#E67F14"/>
<path d="M234.559 268.098L235.733 270.657C235.958 271.112 236.258 271.832 236.268 272.327C241.936 286.334 252.071 298.962 266.31 304.981C269.339 306.261 272.348 307.016 275.586 307.49L274.856 313.919C274.492 316.179 273.852 318.683 273.997 320.963L274.112 321.108C274.292 321.698 274.167 322.068 274.002 322.643C271.698 330.676 255.57 339.695 248.488 343.614C248.223 343.544 248.163 343.539 247.878 343.414C245.474 342.359 243.025 340.694 240.726 339.385C232.82 334.865 217.451 326.092 213.958 317.559C212.344 313.609 215.142 309.855 216.727 306.281L222.684 295.183L224.283 291.448L234.559 268.098Z" fill="#D6744B"/>
<path d="M273.996 320.963C272.412 320.913 270.688 319.828 269.333 319.088C264.27 316.324 259.672 312.965 255.594 308.88C247.208 300.487 242.125 290.319 238.242 279.231C237.502 277.116 236.263 274.567 236.268 272.332C241.935 286.339 252.071 298.967 266.309 304.986C269.338 306.266 272.347 307.021 275.585 307.496L274.856 313.924C274.491 316.179 273.851 318.689 273.996 320.963Z" fill="#001B53"/>
<path d="M240.112 370.129C244.325 372.254 248.788 373.678 253.456 372.024L256.7 370.464L268.369 492.981L242.516 489.157C239.337 488.732 235.864 487.892 232.68 487.947C231.521 487.967 230.256 488.597 229.187 489.017L233.475 443.246L236.508 410.621L239.122 383.072C239.502 378.797 240.237 374.413 240.112 370.129Z" fill="#FCC139"/>
<path d="M295.552 324.252H295.747C295.747 326.831 296.127 330.311 295.527 332.77C294.912 363.24 292.588 394.089 287.421 424.144L273.247 493.596L268.374 492.981L256.704 370.463C259.093 368.004 260.762 363.695 262.392 360.64L260.927 358.281L258.128 353.942C259.908 354.566 261.732 356.406 263.231 357.561L270.813 363.06C273.022 364.525 275.551 365.529 277.99 366.564C283.288 357.751 288.57 348.628 292.009 338.894C293.213 335.48 293.983 331.971 294.927 328.486C295.307 327.061 295.442 325.722 295.552 324.252Z" fill="#FEFEFE"/>
<path d="M295.553 324.252H295.748C295.748 326.831 296.127 330.311 295.528 332.77L294.958 333.015C292.669 344.543 287.391 354.826 282.303 365.304L275.641 379.032L262.392 360.64L260.928 358.281L258.129 353.942C259.908 354.566 261.732 356.406 263.232 357.561L270.813 363.06C273.022 364.525 275.551 365.529 277.99 366.564C283.288 357.751 288.571 348.628 292.009 338.894C293.214 335.48 293.983 331.971 294.928 328.486C295.308 327.061 295.443 325.722 295.553 324.252Z" fill="#94C1A7"/>
<path d="M295.742 324.257C296.042 324.212 296.342 324.097 296.647 324.117C297.367 324.157 299.186 325.242 299.97 325.587C303.619 327.207 307.652 328.632 311.116 330.576L352.028 348.613C359.12 351.807 367.256 354.542 373.553 359.166C378.501 362.8 382.435 367.544 384.704 373.273C386.818 378.617 387.882 384.636 389.391 390.195C393.27 404.493 397.218 419.51 403.555 432.932C399.447 433.192 394.924 432.523 390.791 432.308L365.672 430.838L363.623 430.788L341.932 429.673C338.289 429.493 333.931 428.763 330.357 429.488C327.673 430.033 324.885 431.678 322.88 433.507C320.212 435.947 318.527 439.141 316.623 442.171L307.812 456.673C300.1 469.471 291.869 482.178 285.262 495.591L278.545 494.371L273.247 493.596L287.421 424.144C292.589 394.09 294.913 363.24 295.527 332.771C296.122 330.316 295.742 326.832 295.742 324.257Z" fill="#182F25"/>
<path d="M363.622 430.788C362.903 429.123 365.296 419.46 365.741 417.13L368.785 395.729C369.07 392.885 368.88 389.94 369.37 387.131C370.104 386.706 370.204 386.801 371.009 386.911C371.939 389.5 371.254 393.68 370.984 396.424L367.655 419.455C367.001 423.204 366.041 427.058 365.666 430.833L363.622 430.788Z" fill="#458464"/>
<path d="M295.742 324.258C296.042 324.213 296.342 324.098 296.647 324.118C297.367 324.158 299.186 325.242 299.971 325.587C303.619 327.207 307.652 328.632 311.116 330.576L311.111 331.011C311.136 332.756 312.23 335.086 312.76 336.765L315.989 347.518L328.228 389.066C324.93 389.746 304.114 395.374 302.585 396.694L322.126 407.117C324.51 408.382 328.253 409.807 330.212 411.582L278.535 494.371L273.237 493.596L287.411 424.144C292.579 394.09 294.903 363.24 295.518 332.771C296.122 330.316 295.742 326.832 295.742 324.258Z" fill="#458464"/>
<path d="M181.207 329.362C183.826 327.967 186.77 326.917 189.494 325.727C191.543 324.833 193.797 323.533 195.971 323.043L196.356 325.138C196.486 328.672 197.125 332.001 197.54 335.496L201.518 363.266L214.663 434.033L221.68 468.951C223.094 476.005 224.234 483.504 226.278 490.382L215.652 495.696L181.282 513.323L192.807 549.406L196.441 548.262L196.486 548.627C196.985 552.301 198.45 555.915 199.289 559.545L187.52 563.104C185.88 563.609 183.486 564.679 181.787 564.519L181.817 564.819C181.917 565.728 182.077 566.498 182.397 567.353C181.182 568.653 177.124 569.418 175.3 570.043C171.876 571.223 139.341 581.566 138.791 582.325C138.676 582.485 138.616 583.29 138.571 583.53L138.061 582.505L111.208 591.524C107.325 592.829 103.171 594.543 99.1081 595.108C95.3997 595.623 91.5664 595.428 87.908 594.673C78.9819 592.824 71.1253 587.19 66.1625 579.601C62.7339 574.362 60.7798 568.408 60.41 562.164C59.9002 553.566 62.4141 544.467 63.8035 535.999L71.3702 493.242L87.953 411.447L91.6613 393.235C92.386 389.691 92.9458 385.826 94.2452 382.457C96.7291 376.033 101.117 370.169 106.54 365.925C110.373 362.926 114.501 360.996 118.844 358.901L131.329 352.848L181.207 329.362Z" fill="#182F25"/>
<path d="M136.622 471.481C133.338 453.279 132.738 434.368 131.229 415.951L129.715 397.539C129.545 395.14 129.06 392.555 129.44 390.181C130.514 395.415 130.764 401.039 131.379 406.363L134.113 428.314C135.787 443.141 138.111 458.078 138.921 472.975C139.01 474.625 139.38 478.05 138.451 479.384L138.316 479.559L136.622 471.481Z" fill="#458464"/>
<path d="M125.996 518.781C125.881 519.296 125.876 519.981 125.356 520.261C123.477 521.271 120.543 521.671 118.469 522.276L95.584 528.959C92.1455 529.959 88.607 530.904 85.2785 532.224C84.1639 532.664 80.5055 534.838 79.5859 534.703L96.7335 525.095C104.23 521.406 111.577 518.816 119.723 517.017C121.718 516.572 124.726 515.702 126.67 516.367C126.471 517.167 126.316 518.027 125.996 518.781Z" fill="#28543F"/>
<path d="M136.621 471.48L138.316 479.559L141.839 516.187L126.606 519.977L125.996 518.777C126.316 518.022 126.471 517.162 126.666 516.362L134.028 482.358L135.432 475.94C135.737 474.46 135.902 472.815 136.621 471.48Z" fill="#28543F"/>
<path d="M181.787 564.518L181.427 564.413C180.582 562.969 180.153 561.089 179.618 559.504L176.514 550.216L163.165 510.633L178.928 505.704L181.282 513.323L192.807 549.406L196.441 548.261L196.486 548.626C196.985 552.301 198.45 555.915 199.289 559.544L187.519 563.104C185.88 563.608 183.486 564.678 181.787 564.518Z" fill="#FEFEFE"/>
<path d="M181.207 329.362C183.826 327.967 186.769 326.917 189.493 325.727C191.542 324.833 193.796 323.533 195.97 323.043L196.355 325.138C196.485 328.672 197.125 332.001 197.54 335.496L201.518 363.266L214.662 434.033L221.679 468.951C223.094 476.005 224.233 483.504 226.277 490.382L215.652 495.696C210.829 486.253 204.897 477.12 199.404 468.031L175.289 427.209L168.502 415.646C167.793 414.421 166.548 412.837 166.233 411.487L190.008 397.599L172.366 388.621C171.816 388.341 170.022 387.561 169.692 387.116C169.692 387.116 169.782 386.661 169.792 386.591L173.145 370.884L178.813 343.409L180.552 334.601C180.882 333.031 181.692 330.857 181.207 329.362Z" fill="#458464"/>
</g>
</g>
<defs>
<clipPath id="clip0_2098_25760">
<rect width="555" height="610" fill="white"/>
</clipPath>
<clipPath id="clip1_2098_25760">
<rect width="459" height="573" fill="white" transform="translate(48 37)"/>
</clipPath>
</defs>
</svg>
