<svg width="60" height="60" viewBox="0 0 60 60" fill="none" xmlns="http://www.w3.org/2000/svg">
<path d="M14.2969 16.875C14.8147 16.875 15.2344 17.2947 15.2344 17.8125V18.9844C15.2344 19.5022 14.8147 19.9219 14.2969 19.9219C13.7791 19.9219 13.3594 19.5022 13.3594 18.9844V17.8125C13.3594 17.2947 13.7791 16.875 14.2969 16.875Z" fill="#224334"/>
<path fill-rule="evenodd" clip-rule="evenodd" d="M11.9531 3.51562C10.9176 3.51562 10.0781 4.35509 10.0781 5.39062V20.3906C10.0781 21.4261 10.9176 22.2656 11.9531 22.2656H16.875C17.9105 22.2656 18.75 21.4261 18.75 20.3906H19.8035C20.8785 20.3906 21.9247 20.932 22.6807 21.8205C23.5867 22.8852 24.9122 24.2613 26.2879 24.9732C27.4665 25.5832 28.4542 25.8099 29.3908 25.9837C29.5387 26.0111 29.6838 26.037 29.8271 26.0626C30.5888 26.1988 31.304 26.3266 32.1641 26.6289C33.5557 27.5108 35.7499 28.8206 37.5065 29.8579C38.7246 30.5772 40.1566 30.4928 41.25 29.8148V31.9415C38.0697 32.3963 35.625 35.1315 35.625 38.4375C35.625 40.9633 37.0516 43.154 39.1406 44.2511V44.8461C39.1406 45.3433 39.3382 45.8203 39.6898 46.1719L39.9817 46.4638L39.5752 46.9514C39.2944 47.2884 39.1406 47.7131 39.1406 48.1519V49.4714C39.1406 50.0409 39.375 50.625 39.9175 50.9939L39.5752 51.4045C39.2944 51.7416 39.1406 52.1662 39.1406 52.605V54.8438C39.1406 55.8792 39.9801 56.7188 41.0156 56.7188H42.1977C42.7763 56.7188 43.3225 56.4516 43.6777 55.995L44.8394 54.5016C45.0954 54.172 45.2344 53.767 45.2344 53.3503V44.2511C47.3231 43.154 48.75 40.9633 48.75 38.4375C48.75 35.1315 46.3053 32.3963 43.125 31.9415V29.419C43.7388 30.1276 44.5328 30.6913 45.4611 31.0333C46.4472 31.3966 47.527 30.8047 47.7511 29.778L50.2617 18.2699C50.3958 17.6555 50.213 17.0148 49.7747 16.5637L42.3293 8.89927C42.1032 8.66658 41.8207 8.49652 41.5094 8.40572L30.6255 5.23125C30.4549 5.18152 30.2781 5.15625 30.1005 5.15625H18.7355C18.6202 4.23134 17.8312 3.51562 16.875 3.51562H11.9531ZM37.5 38.4375C37.5 36.1697 39.1104 34.2781 41.25 33.8437V37.0312C41.25 37.549 41.6697 37.9688 42.1875 37.9688C42.7053 37.9688 43.125 37.549 43.125 37.0312V33.8437C45.2646 34.2781 46.875 36.1697 46.875 38.4375C46.875 40.4283 45.6336 42.1315 43.8793 42.8107C43.6405 42.9031 43.4499 43.0892 43.3518 43.3257C43.3095 43.4275 43.3594 53.3503 43.3594 53.3503L42.1977 54.8438H41.0156V52.605L41.3579 52.1944C42.0302 51.3877 41.9531 50.1562 41.0156 49.4714V48.1519L41.4221 47.6639C42.0429 46.9191 41.9933 45.8237 41.3075 45.138L41.0156 44.8461V44.0625V44.0619C41.1184 43.8278 41.1212 43.5619 41.0232 43.3257C40.9251 43.0892 40.7345 42.9031 40.4957 42.8107C38.7414 42.1315 37.5 40.4283 37.5 38.4375ZM18.75 7.03125V18.5156H19.8035C21.5165 18.5156 23.058 19.3705 24.1087 20.6054C24.996 21.6482 26.1222 22.7763 27.1496 23.308C28.0922 23.7958 28.8743 23.9809 29.7327 24.1401C29.8625 24.1642 29.9955 24.1878 30.1319 24.2121C30.8992 24.3484 31.7747 24.5041 32.7915 24.8619C32.9248 24.9089 33.0492 24.97 33.1652 25.0435C34.5285 25.9076 36.7003 27.2043 38.4599 28.2434C39.4047 28.8014 40.6253 28.3539 40.9884 27.3099C41.2822 26.4653 40.8983 25.4763 40.0519 24.9888C38.5682 24.1342 36.5694 22.8344 35.2166 21.3406C34.541 20.5947 33.9603 19.7293 33.7385 18.7812C33.5044 17.7812 33.6882 16.7573 34.4191 15.8271C35.2083 14.8225 36.2602 14.506 37.3215 14.6516C38.3072 14.7869 39.2744 15.3111 40.1037 15.898C41.7778 17.083 43.2677 18.8008 43.8344 19.4865C44.1699 19.8926 44.3029 20.4121 44.2337 20.9105L43.6435 25.1594C43.4039 26.885 44.3603 28.5466 45.955 29.2133L48.4298 17.8702L40.9844 10.2057L30.1005 7.03125H18.75ZM11.9531 5.39062H16.875V20.3906H11.9531V5.39062ZM42.3749 20.6639L41.8996 24.0864C41.6355 23.8053 41.329 23.5605 40.9877 23.364C39.5402 22.5303 37.754 21.3492 36.6063 20.082C36.0316 19.4474 35.6831 18.8623 35.5641 18.354C35.4573 17.8976 35.5212 17.4592 35.8934 16.9854C36.2318 16.5548 36.5989 16.4451 37.0666 16.5092C37.61 16.5838 38.282 16.9057 39.0204 17.4285C40.4695 18.4541 41.819 19.9926 42.3749 20.6639Z" fill="#224334"/>
<path d="M35.1332 35.1439C35.6508 35.1564 36.0806 34.7469 36.0931 34.2293C36.1055 33.7117 35.6961 33.282 35.1784 33.2695C33.4556 33.2279 31.7156 33.8622 30.3951 35.1737C28.6029 36.9535 28.0538 39.5095 28.7475 41.7647L28.3253 42.184C27.9724 42.5344 27.7733 43.0107 27.7715 43.508L27.7701 43.9208L27.1376 43.9761C26.7006 44.0143 26.2908 44.2044 25.9796 44.5135L25.0435 45.4433C24.6393 45.8447 24.3746 46.4065 24.5105 47.0674L23.9779 47.1138C23.5409 47.1522 23.1312 47.3425 22.8199 47.6514L21.2315 49.2293C20.4967 49.9586 20.4926 51.146 21.2224 51.8805L22.0553 52.7196C22.463 53.1302 23.0375 53.3294 23.6119 53.2596L25.4902 53.0313C25.9041 52.9811 26.2894 52.7941 26.5853 52.5002L33.0415 46.0886C34.6135 46.5842 36.3348 46.474 37.8416 45.7564C38.3091 45.5338 38.5076 44.9744 38.2849 44.5069C38.0623 44.0394 37.5029 43.841 37.0354 44.0636C35.799 44.6524 34.356 44.6683 33.1086 44.1121L32.2125 43.7124L31.8544 44.6248L31.854 44.6253L25.264 51.1699L23.3857 51.3982L22.5527 50.5596L24.1412 48.9818L24.6738 48.9354C25.7201 48.8439 26.484 48.0471 26.3647 46.7737L27.3009 45.844L27.9334 45.7886C28.8995 45.7042 29.6418 44.897 29.6451 43.9272C29.6485 42.9575 30.2025 42.9623 30.2025 42.9623L30.2029 42.9619L31.1178 42.6101L30.7243 41.7113C29.9701 39.988 30.3038 37.9069 31.7163 36.5041C32.6598 35.5672 33.8997 35.1142 35.1332 35.1439Z" fill="#224334"/>
</svg>
