<svg width="60" height="60" viewBox="0 0 60 60" fill="none" xmlns="http://www.w3.org/2000/svg">
<g clip-path="url(#clip0_2098_25590)">
<path d="M42.5 55C35.6075 55 30 49.3925 30 42.5C30 35.6075 35.6075 30 42.5 30C49.3925 30 55 35.6075 55 42.5C55 49.3925 49.3925 55 42.5 55ZM42.5 32.5C36.985 32.5 32.5 36.985 32.5 42.5C32.5 48.015 36.985 52.5 42.5 52.5C48.015 52.5 52.5 48.015 52.5 42.5C52.5 36.985 48.015 32.5 42.5 32.5Z" fill="#224334"/>
<path d="M58.7497 60.0002C58.4297 60.0002 58.1097 59.8777 57.8647 59.6352L50.1947 51.9652C49.7072 51.4777 49.7072 50.6852 50.1947 50.1977C50.6822 49.7102 51.4747 49.7102 51.9622 50.1977L59.6322 57.8677C60.1197 58.3552 60.1197 59.1477 59.6322 59.6352C59.3897 59.8777 59.0697 60.0002 58.7497 60.0002Z" fill="#224334"/>
<path d="M23.75 50H12.5C9.7425 50 7.5 47.7575 7.5 45V27.5H2.5C1.0975 27.5 0 26.4025 0 25C0 24.2975 0.305 23.6025 0.815 23.145L25.4 0.332529C25.8775 -0.112471 26.62 -0.112471 27.1 0.332529L35 7.66003V3.75003C35 3.06003 35.56 2.50003 36.25 2.50003H43.75C44.44 2.50003 45 3.06003 45 3.75003V16.93L51.7025 23.1575C52.195 23.6025 52.5 24.2975 52.5 25C52.5 25.575 52.3125 26.1175 51.9575 26.57C51.53 27.115 50.745 27.2075 50.2025 26.7825C49.66 26.3575 49.565 25.5725 49.99 25.0275C50 25.0175 50 25.0125 50 25L42.8975 18.39C42.645 18.155 42.5 17.8225 42.5 17.475V5.00003H37.5V10.525C37.5 11.0225 37.205 11.4725 36.75 11.67C36.2925 11.87 35.76 11.7775 35.4 11.44L26.25 2.95503L2.5 24.9925L8.75 25C9.44 25 10 25.56 10 26.25V45C10 46.3775 11.12 47.5 12.5 47.5H23.75C24.44 47.5 25 48.06 25 48.75C25 49.44 24.44 50 23.75 50Z" fill="#224334"/>
</g>
<defs>
<clipPath id="clip0_2098_25590">
<rect width="60" height="60" fill="white"/>
</clipPath>
</defs>
</svg>
