<svg width="555" height="610" viewBox="0 0 555 610" fill="none" xmlns="http://www.w3.org/2000/svg">
<g clip-path="url(#clip0_2098_27167)">
<rect width="555" height="610.299" rx="32.1739" fill="#DEEDE2"/>
<g clip-path="url(#clip1_2098_27167)">
<path d="M219.837 240.076L221.092 230.461C221.092 230.461 221.493 213.242 222.818 211.586C224.143 209.929 226.131 207.941 226.131 207.941C226.131 207.941 229.444 188.099 231.101 188.065C234.691 187.992 233.421 197.341 231.765 205.955C231.765 205.955 243.029 214.567 243.36 216.556C243.692 218.544 241.372 236.763 232.76 243.721C224.148 250.679 219.837 240.076 219.837 240.076Z" fill="#F3A6A5"/>
<path d="M223.708 30.7911C187.466 43.6728 166.774 78.5536 177.491 108.698C180.552 117.307 185.843 124.6 192.687 130.324C186.639 133.79 178.688 136.976 169.312 137.588C169.312 137.588 186.79 142.98 203.596 137.487C220.112 145.876 241.616 147.384 262.514 139.957C298.755 127.076 319.448 92.1948 308.731 62.0503C298.014 31.9033 259.95 17.9095 223.708 30.7911Z" fill="#224334"/>
<path d="M324.475 123.849C362.775 120.313 396.207 143.271 399.146 175.129C399.986 184.228 398.247 193.069 394.444 201.139C401.386 201.743 409.941 201.294 418.709 197.909C418.709 197.909 405.114 210.145 387.556 212.221C376.092 226.772 357.212 237.176 335.127 239.216C296.827 242.752 263.395 219.794 260.455 187.936C257.516 156.078 286.177 127.385 324.475 123.849Z" fill="#224334"/>
<path d="M242.127 117.499L237.241 118.163C236.735 118.23 236.253 117.93 236.092 117.445L235.742 116.385L243.099 115.387L243.045 116.501C243.019 117.012 242.633 117.432 242.127 117.499Z" fill="#9FAAA5"/>
<path d="M242.425 115.806L236.457 116.618C234.362 116.903 232.413 115.485 232.039 113.403L231.337 109.491L245.458 107.573L245.823 111.531C246.02 113.636 244.522 115.521 242.425 115.806Z" fill="#263238"/>
<path d="M246.439 109.556L231.071 111.643C230.856 111.671 230.656 111.521 230.627 111.306C230.599 111.091 230.749 110.891 230.965 110.863L246.332 108.776C246.547 108.747 246.747 108.898 246.776 109.113C246.807 109.328 246.656 109.525 246.439 109.556Z" fill="#9FAAA5"/>
<path d="M246.319 111.494L231.706 113.48C231.49 113.509 231.291 113.358 231.262 113.143C231.234 112.928 231.384 112.728 231.599 112.7L246.213 110.714C246.428 110.686 246.627 110.836 246.656 111.051C246.684 111.266 246.534 111.463 246.319 111.494Z" fill="#9FAAA5"/>
<path d="M246.244 113.426L232.294 115.322C232.079 115.35 231.88 115.2 231.851 114.985C231.823 114.769 231.973 114.57 232.188 114.541L246.138 112.646C246.353 112.618 246.553 112.768 246.581 112.983C246.61 113.198 246.459 113.398 246.244 113.426Z" fill="#9FAAA5"/>
<path d="M247.593 97.6862C254.429 90.8506 254.429 79.7678 247.593 72.9322C240.757 66.0965 229.675 66.0965 222.839 72.9322C216.003 79.7678 216.003 90.8506 222.839 97.6862C229.675 104.522 240.757 104.522 247.593 97.6862Z" fill="#EFE925"/>
<path d="M228.937 99.5541L230.077 107.954C230.113 108.218 230.238 108.462 230.43 108.646L231.314 109.491L245.427 107.575L246.054 106.523C246.192 106.294 246.246 106.025 246.21 105.76L245.069 97.361L228.937 99.5541Z" fill="#EFE925"/>
<path d="M236.371 101.846C236.524 99.9976 236.273 98.1544 235.923 96.3397C235.57 94.5173 235.166 92.7052 234.663 90.9164C234.411 90.0195 234.139 89.1277 233.852 88.2437C233.608 87.497 233.38 86.7427 233.115 86.0012C232.581 84.5106 231.811 83.064 230.51 82.11C229.851 81.6278 229.037 81.309 228.213 81.4256C227.518 81.5241 226.779 81.9467 226.474 82.6026C225.761 84.1191 227.749 85.125 228.965 85.3091C230.176 85.4905 231.378 85.138 232.389 84.4717C233.432 83.7847 234.29 82.8152 234.899 81.7289C235.467 80.7179 235.863 79.5436 235.811 78.3718C235.78 77.7004 235.614 76.9434 235.083 76.4845C234.523 75.9997 233.769 75.9764 233.11 76.2719C232.431 76.5752 231.972 77.2 231.884 77.9363C231.791 78.7295 232.143 79.4813 232.646 80.0698C233.527 81.1068 234.671 81.9363 235.876 82.5533C237.172 83.217 238.614 83.6655 240.076 83.6836C240.784 83.6914 241.502 83.5955 242.171 83.3648C242.871 83.1237 243.558 82.6622 243.705 81.8871C243.812 81.3375 243.63 80.819 243.138 80.5261C242.699 80.2668 242.152 80.2098 241.652 80.2202C240.558 80.2435 239.309 80.6012 238.596 81.4801C238.264 81.8897 238.049 82.3667 237.88 82.8644C237.691 83.4244 237.543 83.9999 237.377 84.5676C237.118 85.4568 236.921 86.3642 236.807 87.2845C236.698 88.1607 236.703 89.0343 236.727 89.9132C236.773 91.5645 236.879 93.2133 237.1 94.8517C237.307 96.3968 237.611 97.9392 238.134 99.4117C238.365 100.062 238.64 100.698 238.974 101.302C239.156 101.628 239.659 101.335 239.477 101.009C238.816 99.8136 238.401 98.4966 238.098 97.1693C237.761 95.6839 237.569 94.1699 237.45 92.6507C237.39 91.8756 237.349 91.1005 237.32 90.3228C237.292 89.5113 237.261 88.6947 237.325 87.8859C237.445 86.3668 237.872 84.9072 238.303 83.4529C238.373 83.217 238.448 82.9811 238.536 82.7504C238.546 82.7218 238.559 82.6933 238.57 82.6648C238.575 82.6492 238.601 82.5922 238.58 82.6363C238.603 82.5818 238.629 82.5248 238.655 82.4704C238.705 82.3667 238.756 82.2656 238.816 82.1697C238.845 82.123 238.873 82.0763 238.902 82.0323C238.915 82.0115 238.93 81.9908 238.943 81.97C238.951 81.9571 239.008 81.8819 238.972 81.9286C239.042 81.8404 239.117 81.7549 239.197 81.6745C239.236 81.6356 239.277 81.5967 239.319 81.5604C239.34 81.5423 239.358 81.5267 239.379 81.5112C239.381 81.5086 239.415 81.4827 239.392 81.5008C239.366 81.5216 239.42 81.4801 239.425 81.4749C239.521 81.4049 239.625 81.3401 239.729 81.2805C239.983 81.1405 240.2 81.0601 240.491 80.9772C240.651 80.9305 240.817 80.8942 240.983 80.8605C241.032 80.8501 241.082 80.8423 241.131 80.8346C241.154 80.832 241.201 80.8242 241.149 80.832C241.183 80.8268 241.214 80.8242 241.248 80.819C241.481 80.7931 241.719 80.7853 241.953 80.7983C242.01 80.8009 242.067 80.806 242.124 80.8112C242.15 80.8138 242.176 80.8164 242.202 80.819C242.235 80.8242 242.194 80.819 242.189 80.8164C242.209 80.819 242.233 80.8242 242.254 80.8268C242.362 80.8449 242.469 80.8683 242.572 80.902C242.622 80.9175 242.671 80.9357 242.72 80.9538C242.666 80.9305 242.728 80.959 242.746 80.9668C242.769 80.9797 242.793 80.9901 242.816 81.0031C242.839 81.016 242.86 81.029 242.883 81.0446C242.891 81.0497 242.946 81.0886 242.917 81.0653C242.886 81.042 242.948 81.0912 242.953 81.0964C242.972 81.112 242.99 81.1301 243.008 81.1482C243.021 81.1612 243.068 81.2208 243.023 81.1612C243.036 81.1794 243.049 81.1949 243.06 81.2131C243.07 81.2312 243.08 81.2494 243.091 81.2675C243.099 81.2805 243.104 81.2934 243.109 81.3064C243.099 81.2882 243.093 81.2649 243.104 81.296C243.117 81.3427 243.13 81.3893 243.143 81.4386C243.15 81.4697 243.143 81.423 243.14 81.4204C243.143 81.4334 243.143 81.4438 243.143 81.4567C243.145 81.4904 243.145 81.5241 243.145 81.5578C243.145 81.5838 243.143 81.6097 243.143 81.6382C243.143 81.6512 243.14 81.6667 243.14 81.6797C243.145 81.6304 243.14 81.6771 243.138 81.6875C243.125 81.7601 243.109 81.8326 243.086 81.9026C243.044 82.0271 242.966 82.1541 242.873 82.2578C242.661 82.4937 242.386 82.6518 242.088 82.7581C240.851 83.2066 239.506 83.1574 238.243 82.8333C236.936 82.4989 235.705 81.8845 234.619 81.0912C234.129 80.7335 233.66 80.3213 233.245 79.8702C232.807 79.3958 232.439 78.8436 232.436 78.1722C232.434 77.537 232.783 77.0471 233.325 76.7826C233.566 76.666 233.839 76.6089 234.119 76.6401C234.09 76.6375 234.173 76.6504 234.186 76.653C234.217 76.6608 234.251 76.6686 234.282 76.6763C234.362 76.6997 234.388 76.7101 234.458 76.7463C234.593 76.8163 234.681 76.8889 234.785 77.0056C235.143 77.41 235.223 78.0451 235.218 78.5921C235.218 78.7192 235.21 78.8462 235.197 78.9706C235.194 79.0043 235.192 79.038 235.187 79.0691C235.184 79.0821 235.176 79.1495 235.179 79.1314C235.181 79.1132 235.171 79.1936 235.168 79.2065C235.163 79.2402 235.158 79.2739 235.153 79.3076C235.106 79.5721 235.041 79.8339 234.961 80.0905C234.793 80.6246 234.577 81.0912 234.284 81.5838C233.981 82.0919 233.657 82.5248 233.255 82.95C232.498 83.7484 231.575 84.3913 230.513 84.6506C230.38 84.6817 230.248 84.7076 230.113 84.7284C230.064 84.7361 230.152 84.7232 230.1 84.731C230.085 84.7335 230.069 84.7335 230.056 84.7361C230.025 84.7387 229.997 84.7413 229.966 84.7465C229.896 84.7517 229.826 84.7569 229.756 84.7595C229.618 84.7647 229.483 84.7621 229.346 84.7543C229.188 84.7439 229.12 84.7361 228.98 84.7102C228.405 84.6039 227.848 84.3888 227.384 84.0258C227.249 83.9221 227.124 83.7977 227.034 83.6525C226.995 83.5903 226.961 83.5307 226.94 83.4659C226.919 83.4036 226.896 83.3051 226.896 83.274C226.875 83.0122 226.979 82.7737 227.161 82.5715C227.583 82.1023 228.26 81.8793 228.882 81.9908C229.61 82.1204 230.243 82.5637 230.754 83.0822C231.264 83.5981 231.671 84.1995 231.998 84.8476C232.319 85.4827 232.555 86.1568 232.776 86.8334C233.022 87.5826 233.266 88.3318 233.502 89.0862C234.028 90.7609 234.492 92.4563 234.87 94.1699C235.244 95.8601 235.617 97.5711 235.762 99.2977C235.832 100.14 235.843 100.988 235.773 101.83C235.76 101.986 235.915 102.121 236.063 102.121C236.25 102.136 236.358 102.004 236.371 101.846Z" fill="#263238"/>
<g opacity="0.3">
<path d="M225.844 95.3858C225.942 96.1065 225.486 96.7624 224.825 96.8531C224.164 96.9438 223.549 96.4305 223.451 95.7099C223.352 94.9892 223.809 94.3333 224.47 94.2426C225.131 94.1544 225.745 94.6651 225.844 95.3858Z" fill="white"/>
</g>
<g opacity="0.3">
<path d="M221.077 78.9062C220.105 81.8149 219.504 86.0172 221.111 91.0386C221.357 91.806 222.018 92.3659 222.817 92.4878C223.169 92.5422 223.472 92.2363 223.413 91.8838C222.944 89.014 221.575 79.7409 227.019 73.9806C229.287 71.5801 227.136 71.8289 226.034 72.5315C223.698 74.0221 221.956 76.2801 221.077 78.9062Z" fill="white"/>
</g>
<g opacity="0.15">
<path d="M248.575 82.0327C248.564 83.8163 248.341 85.6283 247.989 87.3756C247.273 90.9246 245.018 92.9182 243.338 95.8787C245.005 96.2209 246.348 95.1399 247.398 94.0018C249.43 91.8034 249.894 89.0711 250.159 86.1987C250.239 85.3198 250.625 80.8894 248.575 82.0327Z" fill="white"/>
</g>
<g opacity="0.2">
<path d="M252.66 83.0459C251.359 73.467 242.539 66.7553 232.96 68.0566C223.381 69.358 216.67 78.1774 217.971 87.7563C218.876 94.424 223.423 99.6995 229.336 101.854L230.176 108.047C230.212 108.311 230.337 108.555 230.529 108.739L231.413 109.584L245.526 107.669L246.153 106.616C246.29 106.388 246.345 106.118 246.309 105.854L245.469 99.6606C250.589 96.0105 253.565 89.711 252.66 83.0459Z" fill="#EFE925"/>
</g>
<path d="M251.295 69.3766L256.685 59.8677C256.685 59.8677 258.704 62.3175 258.022 62.6104C257.338 62.9034 251.295 69.3766 251.295 69.3766Z" fill="#EFE925"/>
<path d="M213.608 80.2748L205.95 72.4768C205.95 72.4768 204.627 75.3647 205.364 75.471C206.1 75.5773 213.608 80.2748 213.608 80.2748Z" fill="#EFE925"/>
<path d="M215.012 86.8468L207.165 82.1727C207.165 82.1727 206.711 84.7885 207.328 84.7185C207.948 84.6485 215.012 86.8468 215.012 86.8468Z" fill="#EFE925"/>
<path d="M145.539 560.032L145.879 581.712L168.311 580.756L167.945 574.296L167.971 555.887L145.539 560.032Z" fill="#08797C"/>
<path d="M57.8924 556.989L53.125 583.139L76.5655 581.049L77.3821 574.625L80.7497 556.491L57.8924 556.989Z" fill="#08797C"/>
<path d="M175.614 565.921C173.656 537.153 168.754 434.245 168.754 434.245C169.617 411.885 164.477 315.808 164.477 315.808L113.707 307.284C113.707 307.284 118.008 418.579 123.185 438.626C123.203 438.696 123.224 438.763 123.242 438.833C124.543 468.537 137.544 564.811 137.544 564.811L175.614 565.921Z" fill="#243036"/>
<path d="M124.657 319.72L80.9726 310.468C77.8643 330.336 75.1968 350.285 72.9828 370.256C71.8422 380.543 70.826 390.848 70.209 401.176C69.5038 412.995 69.8512 424.376 67.7047 436.124C60.6715 474.642 54.7971 513.261 49.2598 552.007C48.7542 555.551 48.2487 559.095 47.751 562.639L84.2105 563.31C90.7952 528.406 106.238 478.142 114.653 435.165C126.145 411.211 124.657 319.72 124.657 319.72Z" fill="#243036"/>
<path d="M52.4584 282.02C52.8705 293.927 56.6192 299.882 68.3265 301.591C69.5241 301.767 76.1659 288.089 76.1814 287.457L75.9896 293.367L75.8289 298.314L75.6733 304.725L75.5644 309.163L75.2819 320.925C98.9946 324.344 123.024 324.736 146.799 322.099C151.364 321.594 155.924 320.977 160.466 320.248L164.65 319.579L165.088 289.481L165.228 279.817L194.055 262.702C192.033 253.367 189.708 244.075 187.118 234.883C182.633 218.984 175.634 209.42 159.662 201.975C148.411 196.73 136.354 192.85 124.343 189.744C124.343 189.744 118.902 189.511 111.194 190.872C110.834 190.936 110.466 191.004 110.098 191.074C105.587 191.937 100.387 193.345 95.093 195.639C87.4558 198.944 79.619 204.093 73.3531 212.093C67.064 220.129 64.4949 227.432 62.7372 236.249C62.1306 239.29 61.6199 242.515 61.0885 246.012C59.5201 256.286 52.0928 271.449 52.4584 282.02Z" fill="#0F1F18"/>
<path d="M238.559 240.277C240.739 237.223 219.523 225.358 219.523 225.358C196.609 258.543 196.209 266.268 194.778 266.133L194.053 262.699L193.894 262.654L192.323 262.198L158.428 252.357C159.205 262.271 160.432 272.547 162.869 282.375C164.033 287.08 161.043 291.876 162.69 296.529C164.03 300.317 168.274 303.275 171.639 305.222C181.806 311.104 196.427 307.055 205.934 301.53C215.194 296.146 222.898 281.937 227.235 272.176C235.471 253.654 236.125 243.683 238.559 240.277Z" fill="#0F1F18"/>
<path d="M195.086 267.573V275.799C193.543 277.219 192.411 278.404 191.985 279.153C191.985 279.153 193.406 270.29 193.899 262.652L194.057 262.697L195.086 267.573Z" fill="#0F1F18"/>
<path d="M136.775 226.833C137.982 226.547 138.728 225.338 138.442 224.131C138.156 222.925 136.946 222.179 135.739 222.464C134.533 222.75 133.787 223.96 134.073 225.166C134.359 226.372 135.569 227.119 136.775 226.833Z" fill="white"/>
<path d="M136.264 243.112C137.503 243.112 138.509 242.107 138.509 240.867C138.509 239.627 137.503 238.622 136.264 238.622C135.024 238.622 134.019 239.627 134.019 240.867C134.019 242.107 135.024 243.112 136.264 243.112Z" fill="white"/>
<path d="M99.2673 250.352C99.2673 250.352 88.6125 288.24 85.2139 294.685C85.2139 294.685 122.283 290.657 137.902 289.143C137.902 289.143 106.409 289.625 96.0942 289.228L99.2673 250.352Z" fill="#0F1F18"/>
<path d="M159.139 306.441C161.97 299.724 163.878 292.043 163.881 285.383L163.886 277.816V275.14L163.894 254.38C163.894 258.37 164.226 268.011 164.547 276.361C164.765 282.067 164.977 287.167 165.073 289.44L165.089 289.482L165.086 289.712C165.091 289.816 165.094 289.915 165.099 290C165.102 290.057 165.104 290.109 165.104 290.158C165.097 290.132 165.089 290.109 165.081 290.083C164.939 299.916 164.786 309.415 164.646 319.248C164.609 321.765 145.978 322.413 147.59 321.57C151.207 321.493 154.043 316.147 155.593 313.531C156.871 311.38 158.071 308.979 159.139 306.441Z" fill="#0F1F18"/>
<path d="M123.055 175.139C130.766 174.383 136.428 167.788 135.703 160.408C134.978 153.029 128.14 147.66 120.43 148.416C112.72 149.173 107.057 155.768 107.782 163.147C108.507 170.527 115.345 175.896 123.055 175.139Z" fill="black"/>
<path d="M138.673 172.656C148.13 171.728 155.118 164.067 154.28 155.545C153.443 147.023 145.098 140.867 135.641 141.794C126.184 142.722 119.196 150.383 120.034 158.905C120.871 167.427 129.216 173.583 138.673 172.656Z" fill="#F3A6A5"/>
<path d="M114.147 194.742L137.839 197.689L138.596 191.488L139.639 183.104L141.661 166.858L117.971 163.91L114.147 194.742Z" fill="#F3A6A5"/>
<path d="M138.576 191.483C138.584 191.486 138.589 191.489 138.597 191.489L139.639 183.105C139.097 182.952 131.874 180.792 130.047 173.731C130.047 173.733 129.114 188.282 138.576 191.483Z" fill="#E28D8D"/>
<path d="M141.295 183.658C149.319 182.871 155.215 176.041 154.464 168.402C153.714 160.763 146.601 155.209 138.578 155.996C130.554 156.783 124.658 163.614 125.409 171.252C126.159 178.891 133.272 184.445 141.295 183.658Z" fill="#F3A6A5"/>
<path d="M162.112 143.67C163.725 136.113 157.456 128.373 148.11 126.383C138.764 124.392 129.881 128.904 128.269 136.461C126.657 144.018 132.926 151.758 142.271 153.748C151.617 155.739 160.5 151.227 162.112 143.67Z" fill="black"/>
<path d="M129.55 146.199C136.233 145.543 141.22 140.631 140.689 135.226C140.158 129.822 134.31 125.972 127.627 126.628C120.945 127.283 115.958 132.196 116.489 137.6C117.02 143.005 122.868 146.854 129.55 146.199Z" fill="black"/>
<path d="M121.558 157.994C131.347 157.034 138.786 151.201 138.173 144.966C137.561 138.731 129.129 134.455 119.34 135.415C109.551 136.375 102.112 142.208 102.724 148.443C103.337 154.678 111.769 158.955 121.558 157.994Z" fill="black"/>
<path d="M149.091 152.828C149.091 152.828 130.838 154.619 127.022 152.525C123.206 150.43 133.083 140.719 133.083 140.719L149.091 152.828Z" fill="black"/>
<path d="M118.659 169.109C121.523 168.828 123.563 165.736 123.216 162.202C122.869 158.669 120.266 156.032 117.402 156.313C114.538 156.594 112.497 159.686 112.844 163.22C113.192 166.753 115.795 169.39 118.659 169.109Z" fill="#F3A6A5"/>
<path d="M122.207 164.162C122.355 164.162 122.503 164.1 122.607 163.981C122.798 163.76 122.775 163.426 122.555 163.234C122.176 162.905 118.788 160.017 116.743 160.219C116.452 160.248 116.24 160.507 116.268 160.797C116.297 161.088 116.556 161.3 116.846 161.272C118.047 161.155 120.561 162.902 121.863 164.033C121.959 164.118 122.083 164.162 122.207 164.162Z" fill="black"/>
<path d="M116.665 165.513C116.846 165.513 117.025 165.417 117.123 165.248C117.854 163.978 120.058 162.674 120.081 162.661C120.333 162.513 120.418 162.189 120.271 161.938C120.123 161.686 119.799 161.601 119.547 161.748C119.446 161.808 117.082 163.205 116.208 164.719C116.063 164.973 116.149 165.295 116.403 165.44C116.483 165.489 116.574 165.513 116.665 165.513Z" fill="black"/>
<path d="M148.574 162.93C148.564 163.669 149.093 164.278 149.757 164.286C150.42 164.297 150.965 163.703 150.975 162.964C150.985 162.225 150.456 161.616 149.793 161.608C149.132 161.598 148.585 162.192 148.574 162.93Z" fill="black"/>
<path d="M147.862 159.881L151.52 160.548C151.989 160.633 152.443 160.32 152.528 159.85C152.614 159.381 152.3 158.927 151.831 158.842L148.173 158.176C147.704 158.09 147.25 158.404 147.164 158.873C147.079 159.342 147.393 159.796 147.862 159.881Z" fill="black"/>
<path d="M137.034 163.672C137.107 164.408 137.7 164.953 138.359 164.888C139.02 164.823 139.494 164.172 139.422 163.436C139.349 162.7 138.756 162.155 138.097 162.22C137.439 162.285 136.964 162.936 137.034 163.672Z" fill="black"/>
<path d="M135.349 161.963L138.696 160.348C139.126 160.141 139.308 159.62 139.1 159.19C138.893 158.759 138.372 158.578 137.942 158.785L134.595 160.4C134.164 160.608 133.983 161.129 134.19 161.559C134.398 161.989 134.919 162.171 135.349 161.963Z" fill="black"/>
<path d="M143.984 172.1C143.984 172.1 143.987 172.1 143.987 172.103C144.632 172.373 146.17 172.482 147.375 170.97C148.873 169.088 146.159 165.736 145.846 165.358C145.659 165.135 145.324 165.104 145.101 165.29C144.879 165.477 144.847 165.811 145.034 166.034C145.687 166.817 147.367 169.283 146.548 170.309C145.571 171.538 144.508 171.17 144.391 171.123C144.122 171.017 143.813 171.146 143.707 171.416C143.598 171.683 143.72 171.986 143.984 172.1Z" fill="#B74141"/>
<g opacity="0.2">
<path d="M147.025 166.765C148.189 168.642 146.745 173.054 144.158 172.136C142.216 171.447 142.255 168.803 143.204 167.33C143.746 166.49 144.583 165.922 145.607 165.953C146.263 165.974 146.73 166.288 147.025 166.765Z" fill="#B22D2D"/>
</g>
<path d="M113.572 193.622C115.426 186.923 132.756 189.837 137.703 193.269C142.649 196.704 136.448 209.83 136.448 209.83L135.994 216.44L134.781 209.949C121.241 207.758 112.629 197.028 113.572 193.622Z" fill="#F3A6A5"/>
<path d="M202.079 603.468L142.775 602.854C142.342 602.04 142.117 600.891 142.034 599.52C141.723 594.452 143.418 586.387 144.261 581.3C144.364 580.707 144.45 580.152 144.52 579.649C144.639 578.799 144.714 578.091 144.722 577.57C144.771 573.412 147.501 574.202 147.501 574.202C153.433 580.204 164.015 571.333 167.947 574.296C167.947 574.296 168.564 575.851 171.528 579.869C175.255 584.925 184.16 587.1 190.942 590.05C199.699 593.855 202.152 597.589 202.608 600.15C202.966 602.177 202.079 603.468 202.079 603.468Z" fill="#243036"/>
<path d="M79.9642 596.974C79.9642 597.121 79.9616 597.264 79.9564 597.404C79.9434 598.057 79.9149 598.646 79.8864 599.149C79.8216 600.258 79.7412 600.94 79.7412 600.94H43.2791C43.2791 600.94 43.0976 599.517 43.2376 597.404C43.4761 593.642 44.7153 587.703 49.7497 583.778C56.6429 578.396 53.9805 579.521 55.396 577.069C55.5567 576.797 56.7959 572.628 56.9281 572.343C58.1128 569.797 59.2042 568.592 65.7371 568.592C74.4009 568.592 75.163 572.836 76.0885 575.07C76.4696 575.998 76.9933 577.945 77.5299 580.266C77.7477 581.196 77.9654 582.189 78.1806 583.2C78.7146 585.736 79.2124 588.385 79.552 590.498C79.9149 592.761 79.9927 595.091 79.9642 596.974Z" fill="#243036"/>
<path d="M120.019 414.603L133.224 368.775L138.505 366.299L120.459 418.808L120.019 414.603Z" fill="#1E262B"/>
<path d="M139.12 301.672L145.772 298.151C145.772 298.151 162.594 290.327 173.941 289.936C185.288 289.544 153.596 308.324 148.901 309.107C144.206 309.89 133.251 309.89 133.251 309.89V300.108L139.12 301.672Z" fill="#F3A6A5"/>
<path d="M152.816 292.107C151.826 290.669 146.374 292.934 146.374 292.934L119.236 303.024C117.414 303.701 116.486 305.728 117.163 307.55C117.839 309.373 119.866 310.301 121.689 309.624L142.472 301.899L142.464 301.92C145.145 301.251 147.19 300.439 148.741 299.571L148.826 299.54C149.332 299.353 149.762 299.06 150.115 298.697C153.798 296.03 153.5 293.103 152.816 292.107Z" fill="#F3A6A5"/>
<path d="M65.1408 226.388C66.9243 222.652 68.0546 220.493 68.0546 220.493L76.2751 225.234C80.537 225.447 86.5125 225.579 94.8186 225.48C113.463 225.26 85.2137 294.687 85.2137 294.687C105.313 290.456 138.407 288.642 138.407 288.642L144.453 315.346C144.453 315.346 84.493 346.079 57.0991 319.061C38.6075 300.823 57.8146 239.052 65.1408 226.388Z" fill="#0F1F18"/>
<path d="M141.575 302.33C141.575 302.33 148.93 301.464 153.503 295.006C153.503 295.006 151.73 300.631 141.772 303.322L141.575 302.33Z" fill="#E28D8D"/>
<path d="M142.343 176.412C141.573 176.412 140.803 176.197 140.152 175.772C138.921 174.968 138.273 173.56 138.33 171.808C138.34 171.507 138.594 171.274 138.892 171.282C139.193 171.292 139.429 171.543 139.418 171.844C139.387 172.803 139.592 174.107 140.748 174.862C141.601 175.416 142.781 175.476 143.683 175.004C143.95 174.867 144.277 174.968 144.417 175.235C144.557 175.502 144.453 175.831 144.186 175.969C143.613 176.264 142.978 176.412 142.343 176.412Z" fill="#B22D2D"/>
<path d="M230.689 206.307C230.689 206.307 235.452 203.84 235.941 207.609C236.431 211.378 231.737 219.111 228.854 218.743C225.971 218.375 230.689 206.307 230.689 206.307Z" fill="#F3A6A5"/>
<path d="M234.426 207.173C234.426 207.173 239.188 204.705 239.678 208.475C240.168 212.244 235.473 219.977 232.59 219.609C229.707 219.241 234.426 207.173 234.426 207.173Z" fill="#F3A6A5"/>
<path d="M236.856 210.385C236.856 210.385 241.619 207.918 242.108 211.687C242.598 215.456 237.904 223.189 235.021 222.821C232.138 222.453 236.856 210.385 236.856 210.385Z" fill="#F3A6A5"/>
<path d="M240.112 213.376C240.112 213.376 244.299 210.776 244.602 214.499C244.906 218.224 240.605 226.051 238.132 225.776C235.656 225.504 240.112 213.376 240.112 213.376Z" fill="#F3A6A5"/>
<path d="M241.077 223.7C241.077 223.7 239.241 226.316 237.992 225.769C236.742 225.222 238.186 218.235 239.28 215.658C239.28 215.658 238.109 218.507 237.681 220.89C237.251 223.272 236.823 225.458 237.798 226.121C238.772 226.785 240.685 224.949 241.077 223.7Z" fill="#E28D8D"/>
<path d="M236.252 212.168C236.252 212.168 232.817 221.706 234.639 222.688C236.462 223.671 237.584 221.566 237.584 221.566C237.584 221.566 237.024 224.091 234.569 223.108C232.114 222.126 236.252 212.168 236.252 212.168Z" fill="#E28D8D"/>
<path d="M233.447 210.064C233.447 210.064 230.432 217.989 232.045 219.391C232.045 219.391 232.887 219.951 233.937 219.251C233.937 219.251 233.307 220.444 231.975 219.881C230.642 219.321 231.132 214.481 233.447 210.064Z" fill="#E28D8D"/>
<path d="M231.343 217.709C231.343 217.709 229.52 219.392 228.258 218.339C226.995 217.287 229.45 210.134 229.45 210.134C229.45 210.134 225.888 217.255 228.048 218.759C230.363 220.374 231.343 217.709 231.343 217.709Z" fill="#E28D8D"/>
<path d="M225.371 208.677C225.371 208.677 234.841 205.045 236.713 207.713C238.582 210.381 227.606 216.706 225.148 215.643C225.148 215.643 224.848 213.51 225.078 212.76C225.309 212.014 225.371 208.677 225.371 208.677Z" fill="#F3A6A5"/>
<path d="M227.065 208.171C227.065 208.171 234.788 205.431 236.711 207.712C238.635 209.993 230.57 215.043 227.555 215.533C227.555 215.533 225.942 215.813 225.38 215.673C224.82 215.533 225.146 215.642 225.146 215.642C225.146 215.642 225.24 216.723 230.08 214.971C234.92 213.218 237.232 209.711 237.372 209.081C237.512 208.451 237.512 207.468 236.32 206.696C235.13 205.926 229.52 206.978 227.065 208.171Z" fill="#E28D8D"/>
<path d="M319.22 189.661H312.185V206.533H319.22V189.661Z" fill="white"/>
<path d="M333.331 179.947H326.295V206.53H333.331V179.947Z" fill="white"/>
<path d="M347.444 166.996H340.408V206.821H347.444V166.996Z" fill="white"/>
<path d="M355.436 207.128H304.908C304.724 207.128 304.573 206.978 304.573 206.794V171.563C304.573 171.379 304.724 171.229 304.908 171.229C305.092 171.229 305.242 171.379 305.242 171.563V206.462H355.436C355.62 206.462 355.771 206.612 355.771 206.796C355.771 206.98 355.623 207.128 355.436 207.128Z" fill="white"/>
<path d="M306.678 198.642L306.621 197.439C323.918 196.599 345.113 185.934 350.775 164.497L351.939 164.806C349.375 174.509 343.332 182.919 334.466 189.125C326.378 194.784 316.511 198.165 306.678 198.642Z" fill="#EFE925"/>
<path d="M352.12 161.707L353.167 165.614L349.261 164.567L352.12 161.707Z" fill="#EFE925"/>
<path d="M482.212 572.472L485.04 591.391L506.026 587.783L501.129 559.292L482.212 572.472Z" fill="#F3A6A5"/>
<path d="M512.623 599.806L507.669 588.934C507.656 588.905 507.64 588.879 507.627 588.851C507.513 588.042 507.182 587.378 506.482 587.106C505.932 586.893 505.222 587.22 504.447 587.858L497.496 589.053C492.387 589.657 486.108 590.248 484.695 589.698C482.722 588.933 478.644 595.145 477.081 597.675L466.898 606.344C465.226 607.767 466.504 610.448 468.677 610.075L511.003 602.798C512.405 602.562 513.206 601.081 512.623 599.806Z" fill="#243036"/>
<path d="M400.561 571.705L400.144 590.832H421.435V561.921L400.561 571.705Z" fill="#F3A6A5"/>
<path d="M487.401 319.542L490.885 329.186C490.885 329.186 496.259 366.49 496.259 382.522C496.259 398.553 496.021 434.048 496.021 434.048L509.167 579.148L473.856 580.615C473.856 580.615 451.947 468.203 448.168 431.759C443.989 391.471 440.585 319.301 440.585 319.301L487.401 319.542Z" fill="#28543F"/>
<path d="M412.296 316.441L406.305 337.561C406.305 337.561 391.65 420.891 392.864 442.753C394.077 464.615 389.219 579.997 389.219 579.997H432.942C432.942 579.997 442.659 424.536 447.517 402.674C452.375 380.813 456.02 322.515 456.02 322.515L412.296 316.441Z" fill="#28543F"/>
<path d="M446.265 410.503L445.521 402.687L441.34 358.78L442.802 355.788L446.6 404.523L446.265 410.503Z" fill="#1E262B"/>
<path d="M425.902 603.796L422.861 592.242C422.853 592.21 422.843 592.182 422.832 592.153C422.856 591.337 422.643 590.626 421.998 590.24C421.492 589.937 420.735 590.139 419.864 590.637H412.813C407.675 590.367 401.388 589.885 400.087 589.105C398.272 588.016 393.199 593.447 391.231 595.676L379.726 602.497C377.836 603.617 378.642 606.474 380.846 606.474H423.794C425.218 606.476 426.257 605.154 425.902 603.796Z" fill="#243036"/>
<path d="M442.794 203.713L445.433 201.603C445.433 201.603 409.077 210.311 395.166 265.425C395.166 265.425 360.835 305.996 350.142 323.562L376.579 337.248C376.579 337.248 392.75 318.606 413.523 297.335C434.016 276.349 457.56 216.333 457.56 216.333L442.794 203.713Z" fill="#EFE925"/>
<path d="M444.946 201.926C444.946 201.926 415.467 221.338 410.169 257.761C409.233 264.198 411.763 271.128 411.265 277.536C408.945 307.377 403.988 332.239 403.988 332.239L491.624 330.608L475.069 202.797L468.638 198.979L444.946 201.926Z" fill="#EFE925"/>
<path d="M416.655 267.1L406.77 254.532C406.604 254.319 406.402 254.138 406.177 253.99L391.434 244.393C391.273 244.289 391.104 244.204 390.923 244.139L377.007 239.125C375.369 238.534 373.652 239.781 373.704 241.521C373.73 242.381 374.205 243.164 374.954 243.59L383.055 248.183C383.804 248.608 384.279 249.391 384.305 250.255C384.419 254.135 385.023 265.104 388.245 268.684C391.307 272.085 404.243 279.277 409.858 282.312C411.216 283.049 412.909 282.364 413.378 280.894L417.062 269.376C417.314 268.596 417.161 267.743 416.655 267.1Z" fill="#F3A6A5"/>
<path d="M383.792 254.714C383.789 254.711 383.786 254.708 383.781 254.706C383.048 254.068 382.791 253.01 382.698 252.082C382.568 250.809 383.138 249.759 384.429 249.443C388.121 248.538 396.326 252.354 396.277 255.261C396.22 258.732 387.877 255.948 386.299 255.621C385.443 255.442 384.479 255.302 383.792 254.714Z" fill="#F3A6A5"/>
<path d="M382.822 259.709C382.819 259.706 382.817 259.704 382.812 259.701C382.078 259.063 381.821 258.005 381.728 257.077C381.598 255.805 382.169 254.755 383.46 254.438C387.151 253.534 395.356 257.35 395.307 260.256C395.25 263.727 386.908 260.943 385.329 260.616C384.473 260.437 383.509 260.297 382.822 259.709Z" fill="#F3A6A5"/>
<path d="M384.649 263.577C384.647 263.574 384.644 263.572 384.639 263.569C383.905 262.931 383.648 261.874 383.555 260.946C383.425 259.673 383.996 258.623 385.287 258.307C388.978 257.402 397.183 261.218 397.134 264.124C397.077 267.595 388.735 264.811 387.156 264.484C386.3 264.308 385.334 264.168 384.649 263.577Z" fill="#F3A6A5"/>
<path d="M386.654 267.644C386.651 267.642 386.649 267.639 386.644 267.636C385.91 266.999 385.653 265.941 385.56 265.013C385.43 263.74 386.001 262.69 387.292 262.374C390.983 261.469 399.188 265.285 399.139 268.191C399.082 271.662 390.74 268.878 389.161 268.551C388.305 268.373 387.338 268.233 386.654 267.644Z" fill="#F3A6A5"/>
<path d="M475.459 157.757C475.459 157.757 479.003 194.813 488.67 219.301L465.099 222.093L452.233 171.17L475.459 157.757Z" fill="black"/>
<path d="M465.636 186.714C465.636 186.714 473.141 178.139 475.284 166.88C477.428 155.623 472.604 139.543 459.74 136.326C434.947 130.127 428.074 148.341 428.074 148.341L465.636 186.714Z" fill="black"/>
<path d="M462.748 163.146C463.585 154.624 456.598 146.963 447.141 146.035C437.684 145.108 429.339 151.264 428.501 159.786C427.664 168.308 434.652 175.969 444.109 176.897C453.566 177.824 461.911 171.668 462.748 163.146Z" fill="#F3A6A5"/>
<path d="M468.635 198.979L445.464 201.926L445.13 199.145L444.723 195.725L443.746 187.702L443.704 187.342L441.724 171.095L464.895 168.147L468.635 198.979Z" fill="#F3A6A5"/>
<path d="M455.531 181.024C455.531 181.024 454.486 196.153 445.384 199.305L445.037 199.147L444.63 195.728C444.63 195.728 443.652 187.707 443.652 187.704C443.627 187.497 447.958 186.185 448.389 186.048C451.3 185.117 453.065 182.784 455.531 181.024Z" fill="#E28D8D"/>
<path d="M457.366 175.49C458.116 167.851 452.22 161.021 444.197 160.234C436.173 159.447 429.061 165.001 428.31 172.64C427.56 180.278 433.456 187.109 441.479 187.896C449.503 188.683 456.615 183.129 457.366 175.49Z" fill="#F3A6A5"/>
<path d="M433.446 167.32C433.456 168.059 432.927 168.668 432.263 168.676C431.6 168.687 431.055 168.093 431.045 167.354C431.035 166.615 431.564 166.006 432.227 165.998C432.891 165.988 433.435 166.579 433.446 167.32Z" fill="black"/>
<path d="M434.159 164.272L430.501 164.938C430.032 165.024 429.578 164.71 429.493 164.241C429.407 163.771 429.721 163.318 430.19 163.232L433.848 162.566C434.317 162.48 434.771 162.794 434.856 163.263C434.942 163.733 434.628 164.186 434.159 164.272Z" fill="black"/>
<path d="M445.215 167.831C445.143 168.567 444.549 169.112 443.891 169.047C443.229 168.982 442.755 168.332 442.828 167.595C442.9 166.859 443.494 166.315 444.152 166.38C444.811 166.447 445.288 167.095 445.215 167.831Z" fill="black"/>
<path d="M446.902 166.123L443.556 164.508C443.125 164.3 442.944 163.779 443.151 163.349C443.359 162.919 443.88 162.737 444.31 162.944L447.657 164.56C448.087 164.767 448.269 165.288 448.061 165.718C447.854 166.149 447.333 166.33 446.902 166.123Z" fill="black"/>
<g opacity="0.2">
<path d="M434.237 170.774C433.073 172.651 434.517 177.063 437.104 176.145C439.046 175.456 439.007 172.811 438.058 171.339C437.516 170.499 436.679 169.931 435.655 169.962C434.996 169.983 434.532 170.297 434.237 170.774Z" fill="#B22D2D"/>
</g>
<path d="M437.275 176.106C437.275 176.106 437.273 176.106 437.273 176.108C436.627 176.378 435.09 176.487 433.885 174.975C432.386 173.093 435.1 169.741 435.414 169.365C435.601 169.142 435.935 169.111 436.158 169.298C436.381 169.485 436.412 169.819 436.225 170.042C435.572 170.825 433.892 173.29 434.712 174.317C435.689 175.546 436.752 175.178 436.868 175.131C437.138 175.025 437.444 175.154 437.553 175.424C437.664 175.691 437.54 175.994 437.275 176.106Z" fill="#B74141"/>
<path d="M436.152 153.479L428.502 159.779C428.502 159.779 422.425 143.947 437.225 142.221C452.37 140.455 464.028 142.221 467.243 151.333L467.78 160.445L462.517 166.169L455.987 157.228C455.987 157.233 439.903 156.696 436.152 153.479Z" fill="black"/>
<path d="M469.936 167.465C470.283 163.931 468.243 160.839 465.379 160.558C462.515 160.277 459.911 162.914 459.564 166.448C459.217 169.981 461.257 173.074 464.121 173.355C466.985 173.635 469.589 170.999 469.936 167.465Z" fill="#F3A6A5"/>
<path d="M460.578 168.399C460.43 168.399 460.282 168.337 460.179 168.218C459.987 167.997 460.01 167.663 460.231 167.471C460.609 167.142 463.997 164.254 466.043 164.456C466.333 164.485 466.546 164.744 466.517 165.034C466.489 165.325 466.229 165.537 465.939 165.509C464.739 165.392 462.224 167.139 460.925 168.27C460.824 168.355 460.7 168.399 460.578 168.399Z" fill="black"/>
<path d="M466.121 169.75C465.939 169.75 465.761 169.654 465.662 169.485C464.931 168.215 462.727 166.911 462.704 166.898C462.453 166.75 462.367 166.426 462.515 166.175C462.663 165.923 462.987 165.838 463.238 165.986C463.339 166.045 465.704 167.443 466.577 168.957C466.722 169.211 466.637 169.532 466.383 169.677C466.3 169.727 466.209 169.75 466.121 169.75Z" fill="black"/>
<path d="M468.635 198.979C468.635 198.979 448.186 214.422 436.987 218.847L444.946 201.929L457.052 200.469L468.635 198.979Z" fill="#F3A6A5"/>
<path d="M440.327 179.225C439.663 179.225 439.233 179.155 439.217 179.152C438.909 179.098 438.701 178.802 438.756 178.493C438.81 178.185 439.103 177.978 439.414 178.029C439.619 178.063 444.454 178.836 446.302 174.322C446.421 174.032 446.756 173.892 447.046 174.011C447.337 174.13 447.477 174.462 447.357 174.755C445.742 178.69 442.152 179.225 440.327 179.225Z" fill="#B74141"/>
<path d="M488.747 308.002C488.747 308.002 459.71 312.586 407.242 284.059C407.242 284.059 445.449 312.586 489.258 311.821L488.747 308.002Z" fill="#DDCE17"/>
<path d="M455.932 220.526C455.932 220.526 462.75 260.299 467.054 268.043C467.054 268.043 419.289 255.495 407.089 254.718C407.089 254.718 447.445 257.414 459.818 261.735C459.818 261.735 454.908 247.005 455.932 220.526Z" fill="#DDCE17"/>
<path d="M440.503 203.712C432.822 212.845 424.816 221.61 416.65 230.227C410.444 236.776 407.73 246.043 407.862 254.93C408.58 247 411.992 239.505 416.49 232.936C420.106 227.655 424.422 222.906 428.84 218.292C433.138 213.802 436.485 208.49 440.503 203.712Z" fill="#DDCE17"/>
<path d="M410.467 286.107C410.467 286.107 410.208 297.77 408.134 302.693L410.726 300.36L412.022 286.366L410.467 286.107Z" fill="#DDCE17"/>
<path d="M468.636 198.979C468.636 198.979 487.309 204.303 493.289 216.265C499.27 228.226 521.438 281.516 506.747 299.253C484.066 326.639 405.84 283.035 405.84 283.035L407.089 254.718C407.089 254.718 459.897 261.526 467.054 268.043C467.054 268.043 441.739 213.092 468.636 198.979Z" fill="#EFE925"/>
<path d="M413.967 344.991H113.951C112.24 344.991 110.84 343.591 110.84 341.88V334.349C110.84 332.638 112.24 331.238 113.951 331.238H413.964C415.675 331.238 417.075 332.638 417.075 334.349V341.88C417.078 343.591 415.678 344.991 413.967 344.991Z" fill="#458464"/>
<path d="M124.511 338.766H115.472V605.408H124.511V338.766Z" fill="#458464"/>
<path d="M412.618 338.766H403.578V605.408H412.618V338.766Z" fill="#458464"/>
<path d="M211.186 338.517H205.081V586.175H211.186V338.517Z" fill="#458464"/>
<path d="M329.278 338.517H323.522V586.175H329.278V338.517Z" fill="#458464"/>
<path d="M256.732 332.513H181.184C180.256 332.513 179.499 331.754 179.499 330.828C179.499 329.094 180.917 327.676 182.651 327.676H256.732C257.66 327.676 258.417 328.435 258.417 329.361V330.828C258.417 331.754 257.657 332.513 256.732 332.513Z" fill="#808482"/>
<path d="M307.359 330.74H205.053C200.236 330.74 196.332 326.835 196.332 322.019V258.15C196.332 253.333 200.236 249.429 205.053 249.429H307.359C312.176 249.429 316.08 253.333 316.08 258.15V322.019C316.083 326.835 312.176 330.74 307.359 330.74Z" fill="#B6C5BF"/>
<path d="M308.967 332.723H206.66C201.844 332.723 197.939 328.819 197.939 324.002V260.133C197.939 255.317 201.844 251.412 206.66 251.412H308.967C313.784 251.412 317.688 255.317 317.688 260.133V324.002C317.69 328.819 313.784 332.723 308.967 332.723Z" fill="#9FAAA5"/>
<path d="M264.471 292.381C265.273 288.988 263.172 285.589 259.779 284.789C256.386 283.988 252.986 286.089 252.184 289.482C251.382 292.875 253.483 296.274 256.876 297.075C260.269 297.875 263.67 295.774 264.471 292.381Z" fill="#F7F7F7"/>
<path d="M348.2 280.93C348.2 280.93 341.895 273.01 340.602 270.423C339.308 267.836 338.014 260.561 343.026 259.431C348.037 258.298 352.241 264.764 348.2 280.93Z" fill="#D33752"/>
<path d="M343.864 284.798C343.864 284.798 335.977 283.069 333.875 282.12C331.773 281.171 327.314 277.319 329.844 274.099C332.377 270.877 338.23 272.764 343.864 284.798Z" fill="#D33752"/>
<path d="M344.52 331.974C344.509 331.974 344.496 331.974 344.486 331.971C344.323 331.953 344.203 331.805 344.222 331.642C344.266 331.261 348.517 293.308 347.817 284.289C347.283 277.43 346.376 275.081 346.365 275.057C346.306 274.905 346.378 274.731 346.531 274.669C346.684 274.606 346.858 274.682 346.92 274.835C346.959 274.93 347.869 277.261 348.413 284.24C349.119 293.313 344.859 331.323 344.815 331.704C344.8 331.86 344.67 331.974 344.52 331.974Z" fill="#477983"/>
<path d="M352.665 287.971C352.665 287.971 360.061 285.153 361.961 283.93C363.862 282.703 367.628 278.325 364.709 275.569C361.788 272.808 356.385 275.486 352.665 287.971Z" fill="#D33752"/>
<path d="M340.945 296.191C340.646 295.805 338.181 296.168 337.738 296.171C333.432 296.181 328.234 296.464 324.392 294.206C321.865 292.72 319.259 290.014 320.75 286.89C322.977 282.231 330.697 282.936 340.945 296.191Z" fill="#D33752"/>
<path d="M354.511 299.056C354.731 298.654 357.069 298.636 357.482 298.571C361.474 297.957 366.335 297.469 369.57 294.82C371.698 293.075 373.723 290.19 371.888 287.509C369.15 283.512 362.094 285.282 354.511 299.056Z" fill="#D33752"/>
<path d="M347.879 290.69C347.773 290.69 347.669 290.633 347.615 290.532C347.586 290.48 344.755 285.306 340.024 283.136C339.874 283.066 339.809 282.889 339.876 282.739C339.946 282.589 340.122 282.524 340.273 282.591C345.188 284.844 348.022 290.026 348.138 290.247C348.216 290.392 348.162 290.573 348.016 290.651C347.975 290.68 347.926 290.69 347.879 290.69Z" fill="#477983"/>
<path d="M347.675 295.773C347.623 295.773 347.573 295.76 347.524 295.732C347.382 295.649 347.332 295.468 347.415 295.325C347.459 295.247 351.986 287.496 357.663 283.237C357.795 283.138 357.982 283.164 358.08 283.296C358.179 283.428 358.153 283.615 358.021 283.714C352.442 287.898 347.975 295.545 347.931 295.623C347.879 295.722 347.778 295.773 347.675 295.773Z" fill="#477983"/>
<path d="M347.27 302.486C347.177 302.486 347.083 302.442 347.026 302.359C346.974 302.284 341.699 294.895 333.566 292.712C333.408 292.671 333.312 292.505 333.356 292.347C333.398 292.189 333.561 292.093 333.722 292.137C342.067 294.377 347.462 301.939 347.514 302.017C347.609 302.151 347.576 302.338 347.441 302.431C347.389 302.468 347.329 302.486 347.27 302.486Z" fill="#477983"/>
<path d="M347.066 307.774C347.006 307.774 346.946 307.756 346.895 307.72C346.76 307.626 346.726 307.44 346.819 307.305C346.884 307.212 353.479 297.832 362.991 292.772C363.136 292.694 363.317 292.749 363.395 292.896C363.473 293.042 363.419 293.223 363.271 293.301C353.889 298.291 347.374 307.554 347.309 307.647C347.252 307.728 347.159 307.774 347.066 307.774Z" fill="#477983"/>
<path d="M367.133 306.678H328.037V332.498H367.133V306.678Z" fill="#458464"/>
</g>
</g>
<defs>
<clipPath id="clip0_2098_27167">
<rect width="555" height="610" fill="white"/>
</clipPath>
<clipPath id="clip1_2098_27167">
<rect width="469.629" height="584.115" fill="white" transform="translate(43.1855 26)"/>
</clipPath>
</defs>
</svg>
