<svg width="555" height="441" viewBox="0 0 555 441" fill="none" xmlns="http://www.w3.org/2000/svg">
<g clip-path="url(#clip0_2098_28079)">
<path d="M487.387 269.656C466.102 310.856 425.24 336.218 383.405 337.707C357.395 338.62 331.504 331.098 306.209 323.06C280.914 315.023 255.439 306.39 229.389 304.981C203.299 303.552 176.078 310.121 156.501 329.49C150.207 335.742 145.381 342.946 141.729 350.883C134.462 366.839 119.531 377.972 102.058 379.481L101.681 379.521C82.5206 381.168 64.0752 371.245 55.2998 354.138C31.498 307.658 39.2474 262.969 55.101 212.778C70.3299 164.614 90.0466 117.739 118.996 79.1996C147.945 40.6792 186.92 10.8513 230.8 2.49678C265.268 -4.05165 301.206 2.81414 334.423 16.925C367.601 31.0552 398.397 52.1699 428.06 74.7553C448.987 90.671 469.954 107.937 484.21 131.812C508.314 172.215 508.632 228.477 487.387 269.656Z" fill="#F8F7FC"/>
<path d="M226.13 331.795L194.982 433.283H181.708L212.856 331.795H226.13Z" fill="#458464"/>
<path d="M299.165 331.795L330.313 433.283H343.587L312.44 331.795H299.165Z" fill="#458464"/>
<path d="M269.284 331.795H256.011V433.283H269.284V331.795Z" fill="#458464"/>
<path d="M399.503 34.978V325.439C399.503 333.094 393.295 339.3 385.636 339.3H139.661C132.002 339.3 125.794 333.094 125.794 325.439V34.978C125.794 27.3227 132.002 21.1174 139.661 21.1174H385.636C393.295 21.1161 399.503 27.3227 399.503 34.978Z" fill="#28543F"/>
<path d="M139.66 331.795C136.154 331.795 133.3 328.943 133.3 325.438V34.9769C133.3 31.4717 136.154 28.6194 139.66 28.6194H385.636C389.143 28.6194 391.997 31.4717 391.997 34.9769V325.438C391.997 328.943 389.143 331.795 385.636 331.795H139.66Z" fill="white"/>
<path d="M196.336 245.902V263.191C196.336 266.115 193.965 268.486 191.04 268.486H161.926C159.001 268.486 156.63 266.116 156.63 263.191V245.902C156.63 242.979 159.001 240.609 161.926 240.609H191.04C193.963 240.607 196.336 242.979 196.336 245.902Z" fill="#182F25"/>
<path d="M253.779 210.464V263.192C253.779 266.115 251.408 268.486 248.484 268.486H219.369C216.445 268.486 214.072 266.117 214.072 263.192V210.464C214.072 207.541 216.443 205.169 219.369 205.169H248.484C251.408 205.169 253.779 207.539 253.779 210.464Z" fill="#65A282"/>
<path d="M311.223 177.435V263.191C311.223 266.114 308.852 268.485 305.928 268.485H276.813C273.889 268.485 271.518 266.115 271.518 263.191V177.435C271.518 174.512 273.889 172.142 276.813 172.142H305.928C308.852 172.142 311.223 174.512 311.223 177.435Z" fill="#28543F"/>
<path d="M368.669 147.354V263.19C368.669 266.114 366.298 268.485 363.373 268.485H334.259C331.334 268.485 328.963 266.115 328.963 263.19V147.354C328.963 144.431 331.334 142.061 334.259 142.061H363.373C366.298 142.061 368.669 144.431 368.669 147.354Z" fill="#65A282"/>
<path d="M162.509 195.435C161.791 192.133 163.889 188.874 167.193 188.157C234.982 173.442 293.95 138.973 342.458 85.7079C344.733 83.2064 348.607 83.0284 351.107 85.3015C353.608 87.5772 353.79 91.4474 351.513 93.9463C301.258 149.131 240.117 184.85 169.791 200.117C166.48 200.836 163.227 198.734 162.509 195.435Z" fill="#BFDBC9"/>
<path d="M359.9 80.0495L355.433 105.669C355.17 107.167 354.12 108.393 352.685 108.88C351.213 109.36 349.635 109.004 348.552 108.009L327.851 88.9536C326.74 87.937 326.272 86.3864 326.64 84.9196C326.996 83.4527 328.136 82.2917 329.61 81.9137L354.768 75.3381C356.134 74.9872 357.589 75.342 358.622 76.2941C359.655 77.2475 360.131 78.6678 359.9 80.0495Z" fill="#BFDBC9"/>
<path d="M244.339 96.5551C244.339 122.717 223.12 143.925 196.947 143.925C170.764 143.925 149.545 122.717 149.545 96.5551C149.545 70.3846 170.764 49.177 196.947 49.177C223.119 49.177 244.339 70.3846 244.339 96.5551Z" fill="#FFDE9E"/>
<path d="M235.587 96.5541C235.587 117.886 218.285 135.178 196.945 135.178C175.596 135.178 158.296 117.886 158.296 96.5541C158.296 75.2163 175.596 57.9241 196.945 57.9241C218.285 57.9241 235.587 75.2176 235.587 96.5541Z" fill="#FFD375"/>
<path d="M196.944 135.751C175.317 135.751 157.723 118.167 157.723 96.5547C157.723 74.9394 175.316 57.3518 196.944 57.3518C218.569 57.3518 236.16 74.9381 236.16 96.5547C236.16 118.167 218.569 135.751 196.944 135.751ZM196.944 58.4974C175.95 58.4974 158.87 75.569 158.87 96.5534C158.87 117.535 175.95 134.604 196.944 134.604C217.936 134.604 235.013 117.534 235.013 96.5534C235.013 75.569 217.935 58.4974 196.944 58.4974Z" fill="#EE9545"/>
<path d="M196.943 93.624C193.815 93.624 191.271 91.0813 191.271 87.9541C191.271 84.8296 193.815 82.2881 196.943 82.2881C200.069 82.2881 202.612 84.8296 202.612 87.9541C202.612 89.2004 203.624 90.2131 204.871 90.2131C206.118 90.2131 207.129 89.2016 207.129 87.9541C207.129 83.1164 203.734 79.0642 199.202 78.0334V76.128C199.202 74.8818 198.19 73.8704 196.942 73.8704C195.695 73.8704 194.683 74.8818 194.683 76.128V78.0334C190.149 79.0642 186.752 83.1176 186.752 87.9541C186.752 93.5711 191.324 98.1406 196.943 98.1406C200.069 98.1406 202.612 100.682 202.612 103.807C202.612 106.934 200.069 109.476 196.943 109.476C193.815 109.476 191.271 106.934 191.271 103.807C191.271 102.56 190.259 101.549 189.011 101.549C187.764 101.549 186.752 102.56 186.752 103.807C186.752 108.647 190.149 112.7 194.683 113.731V115.295C194.683 116.541 195.695 117.552 196.942 117.552C198.189 117.552 199.202 116.541 199.202 115.295V113.731C203.734 112.699 207.129 108.646 207.129 103.807C207.131 98.1909 202.56 93.624 196.943 93.624Z" fill="#EE9545"/>
<path d="M368.675 288.308V292.712C368.675 293.931 367.687 294.92 366.466 294.92H158.83C157.61 294.92 156.62 293.932 156.62 292.712V288.308C156.62 287.088 157.609 286.099 158.83 286.099H366.466C367.685 286.1 368.675 287.088 368.675 288.308Z" fill="#BFDBC9"/>
<path d="M284.641 306.559H158.521C157.472 306.559 156.62 307.409 156.62 308.459V313.48C156.62 314.529 157.471 315.38 158.521 315.38H284.641C285.69 315.38 286.542 314.53 286.542 313.48V308.458C286.542 307.409 285.691 306.559 284.641 306.559Z" fill="#BFDBC9"/>
<path d="M39.3876 431.319C36.8488 426.414 31.5363 427.79 25.0208 427.79C21.5747 427.79 20.6092 425.402 20.4557 423.149L8.03656 422.704C5.90691 426.164 4.83563 432.995 4.8679 437.268C4.88338 439.34 6.5742 441 8.64706 441H35.6898C37.1108 441 38.3989 440.203 39.0546 438.942C40.0175 437.094 40.8938 434.23 39.3876 431.319Z" fill="#0F1F18"/>
<path d="M40.079 435.903C39.6518 438.527 38.3585 440.999 35.688 440.999H8.64663C6.57377 440.999 4.88167 439.34 4.86747 437.268C4.86489 436.843 4.88038 436.375 4.89974 435.903H40.079Z" fill="#224334"/>
<path d="M108.827 431.319C106.289 426.414 100.976 427.79 94.4606 427.79C91.0144 427.79 90.049 425.402 89.8954 423.149L77.4763 422.704C75.3466 426.164 74.2753 432.995 74.3063 437.268C74.3218 439.34 76.0126 441 78.0855 441H105.128C106.549 441 107.837 440.203 108.493 438.942C109.456 437.094 110.332 434.23 108.827 431.319Z" fill="#0F1F18"/>
<path d="M109.519 435.903C109.331 437.061 108.928 438.107 108.495 438.941C107.839 440.201 106.55 440.998 105.13 440.998L78.0871 440.997C76.0142 440.997 74.3234 439.338 74.3079 437.266C74.3053 436.841 74.3208 436.374 74.3402 435.901H109.519V435.903Z" fill="#224334"/>
<path d="M72.4838 422.342C67.1855 391.855 54.8619 370.545 47.7075 335.276C43.0378 358.582 31.9288 397.969 26.5879 422.013C25.3927 427.501 3.30108 427.547 4.16843 422.013C8.76719 391.854 8.98144 324.399 8.98144 324.399C8.99951 324.078 3.69475 269.251 14.3082 250.722H52.0507C52.0507 250.722 52.0507 250.893 52.0507 251.235L74.3566 250.75L75.0561 250.722C75.0561 250.722 75.0987 250.95 75.2136 251.363V251.377C75.442 252.376 75.9274 254.489 76.5417 257.5C76.8128 258.813 77.1135 260.297 77.4413 261.938C80.0834 275.411 84.0678 299.22 84.7247 323.312C85.7237 359.937 86.9525 383.787 94.849 421.754C96.0454 427.467 73.4686 428.08 72.4838 422.342Z" fill="#0F1F18"/>
<path d="M76.5391 257.504C62.6305 265.682 41.7535 250.996 11.3653 258.175C11.3511 258.175 11.3511 258.175 11.3369 258.175C12.1513 255.32 13.1219 252.794 14.3068 250.725H52.0494C52.0494 250.725 52.0494 250.896 52.0494 251.238L74.3552 250.753L75.0548 250.725C75.0548 250.725 75.0974 250.953 75.2123 251.366V251.38C75.4394 252.378 75.9247 254.492 76.5391 257.504Z" fill="#0F1F18"/>
<path d="M57.1325 367.321C52.8912 355.26 49.2502 343.813 47.793 334.493C47.793 334.493 53.5766 302.236 53.5908 280.284L57.1325 367.321Z" fill="#224334"/>
<path d="M27.602 417.561C27.2303 419.101 26.9025 420.602 26.5888 422.013C25.3936 427.501 3.30206 427.547 4.16941 422.013C8.76817 391.854 8.98242 324.399 8.98242 324.399C8.98242 324.399 3.79898 269.19 14.3091 250.722H15.8941C16.6789 254.685 16.4852 252.449 17.4365 321.217C17.8327 349.309 17.8263 370.535 10.1531 398.006C9.1386 401.674 7.99633 405.428 8.36805 409.21C8.73977 413.007 11.0527 416.889 14.7505 417.816C19.2706 418.976 22.9749 415.787 27.602 417.561Z" fill="#0F1F18"/>
<path d="M129.283 161.588C129.283 161.588 113.798 190.881 104.178 193.209C100.154 194.185 86.6865 189.241 86.6865 189.241L92.1333 172.016C92.363 172.068 101.462 174.137 100.885 174.007L121.914 152.055C122.09 152.284 129.77 162.218 129.283 161.588Z" fill="#F7A386"/>
<path d="M129.283 161.588C129.283 161.588 113.798 190.881 104.178 193.21C100.154 194.185 86.6865 189.241 86.6865 189.241L92.1333 172.016L100.533 173.925C99.6813 176.948 99.3457 177.749 100.398 182.578C100.682 183.891 100.967 185.219 101.603 186.397C103.457 189.827 107.143 189.707 109.38 186.736C110.491 185.26 111.033 183.445 111.669 181.712C114.785 173.059 120.653 165.448 128.212 160.207L129.283 161.588Z" fill="url(#paint0_linear_2098_28079)"/>
<path d="M129.283 161.588C129.562 160.574 132.222 157.833 133.224 157.491C134.998 156.895 136.128 156.312 137.141 155.666H137.154C138.193 154.982 139.094 154.247 140.425 153.359C143.416 151.396 141.071 149.431 141.071 149.431C144.431 146.858 140.703 145.642 140.703 145.642C144.457 143.006 140.133 141.561 140.133 141.561C148.145 139.179 150.897 137.747 149.679 136.404C148.183 134.781 137.635 137.468 131.613 140.547C125.603 143.614 121.908 152.115 121.908 152.115L129.283 161.588Z" fill="#F7A386"/>
<path d="M135.349 146.92C134.437 147.046 134.184 146.564 134.399 145.703C134.802 144.404 136.115 143.877 137.085 143.202C138.158 142.619 139.143 141.815 140.357 141.504C140.364 141.503 140.37 141.507 140.371 141.512C140.373 141.517 140.369 141.524 140.364 141.526C139.215 141.957 138.249 142.747 137.207 143.395C136.208 144.06 134.943 144.577 134.575 145.752C134.31 146.692 134.735 146.833 135.334 146.769C138.344 146.494 140.972 145.573 140.738 145.635C140.741 145.644 138.372 146.587 135.349 146.92Z" fill="#E27659"/>
<path d="M135.809 150.953C134.988 151.167 134.718 150.487 134.962 149.661C135.402 148.396 136.692 147.881 137.656 147.21C138.718 146.631 139.697 145.838 140.9 145.531C140.906 145.529 140.912 145.533 140.914 145.538C140.915 145.543 140.911 145.55 140.906 145.552C139.766 145.978 138.81 146.76 137.777 147.404C136.789 148.067 135.538 148.571 135.138 149.719C134.913 150.248 135.08 151.047 135.794 150.804C137.954 150.602 141.315 149.352 141.085 149.433C141.087 149.437 137.588 150.751 135.809 150.953Z" fill="#E27659"/>
<path d="M136.919 154.01C136.369 154.037 135.889 153.908 136.149 152.952C136.431 151.879 138.504 150.828 139.698 150.096C140.123 149.827 140.565 149.534 141.071 149.424C141.078 149.423 141.084 149.427 141.085 149.433C141.087 149.438 141.083 149.445 141.078 149.446C140.156 149.849 139.379 150.548 138.508 151.068C138.065 151.326 137.646 151.606 137.257 151.913C136.838 152.186 136.454 152.528 136.324 153.005C136.056 153.877 136.551 153.865 136.902 153.862C138.412 153.716 139.893 153.107 141.288 152.64C141.295 152.638 141.301 152.642 141.302 152.648C139.823 153.262 138.254 153.852 136.919 154.01Z" fill="#E27659"/>
<path d="M129.339 151.243C133.955 148.081 130.885 144.985 130.885 144.985C133.937 143.665 137.876 142.53 137.174 140.332C136.319 137.656 128.094 141.409 125.192 144.069C123.441 145.674 122.378 147.979 121.911 152.109" fill="#F7A386"/>
<path d="M129.339 151.244C130.34 150.515 131.333 149.628 131.698 148.443C132.093 147.253 131.684 145.914 130.853 145.018C130.836 145 130.836 144.971 130.853 144.954C131.082 144.86 133.718 143.757 134.41 143.433C135.495 142.876 136.866 142.269 137.142 141.035C137.224 140.426 136.882 139.81 136.287 139.651C134.907 139.179 132.134 140.204 130.789 140.776C124.495 143.639 122.712 145.767 121.908 152.112C122.641 145.734 124.406 143.572 130.715 140.607C132.176 139.968 134.844 138.935 136.352 139.459C137.027 139.642 137.435 140.394 137.32 141.062C137.036 142.905 133.33 144.001 130.9 145.028L130.915 144.956C131.759 145.887 132.152 147.253 131.739 148.457C131.359 149.644 130.358 150.52 129.339 151.244Z" fill="#E27659"/>
<path d="M94.3821 193.887L83.8138 191.165L66.8786 186.803L61.6758 153.991L61.7029 154.005L64.9141 155.481L98.4878 170.851C100.601 172.693 96.1168 194.198 94.3821 193.887Z" fill="#94C1A7"/>
<path d="M83.8141 191.165L66.8788 186.803L61.7031 154.004L64.9144 155.48C67.8275 157.105 71.5666 159.367 72.2301 159.963C78.8423 165.935 82.1891 177.569 83.8141 191.165Z" fill="#224334"/>
<path d="M80.1381 251.965C66.3147 265.752 44.4955 247.598 11.3659 255.418C3.59717 257.245 13.9369 232.638 13.7937 226.873C13.7937 226.061 13.6362 222.977 13.5368 221.991C11.3297 200.478 2.84082 193.472 2.84082 179.956C2.84082 166.029 17.8968 154.191 30.9871 149.783C35.0708 148.342 38.841 147.613 41.7115 147.728C44.4284 147.833 49.1394 149.179 50.736 149.797C61.374 153.25 67.9578 156.42 72.1138 161.8C82.3233 175.088 74.9263 193.329 75.1121 233.994C75.1405 236.948 79.0539 243.386 80.324 247.853C80.8519 249.666 80.9384 251.165 80.1381 251.965Z" fill="#65A282"/>
<path d="M84.526 199.552L59.6994 233.985C58.7727 235.27 59.6917 237.065 61.2767 237.065H82.5048C83.1295 237.065 83.7167 236.764 84.082 236.257L108.909 201.824C109.835 200.539 108.916 198.744 107.331 198.744H86.1032C85.4785 198.744 84.8926 199.045 84.526 199.552Z" fill="#4C5C75"/>
<path d="M61.2735 237.056H64.3712C62.7836 237.056 61.862 235.265 62.7836 233.985L87.6205 199.562C87.9793 199.05 88.5679 198.744 89.2081 198.744H86.1104C85.4702 198.744 84.8816 199.05 84.5228 199.562L59.7117 233.985C58.7644 235.265 59.6859 237.056 61.2735 237.056Z" fill="#111D33"/>
<path d="M80.1384 251.965C66.3151 265.752 44.4958 247.598 11.3662 255.418C3.59749 257.245 13.9373 232.638 13.794 226.873C13.794 223.316 13.0131 216.202 12.138 212.828C12.4801 211.686 13.0235 210.829 13.9657 210.93C16.3651 211.201 17.0362 215.64 17.4067 217.353C19.4847 226.853 18.9981 237.053 15.6784 246.527C15.3493 247.44 15.0073 248.425 15.2783 249.354C15.5919 250.424 16.6632 251.124 17.7629 251.308C18.8626 251.508 19.9764 251.294 21.0761 251.08C39.2259 247.711 65.0437 265.309 76.1824 250.595C76.8962 249.653 74.0115 248.368 74.6685 247.384C75.7965 245.7 78.2811 246.37 80.323 247.854C80.8522 249.666 80.9387 251.165 80.1384 251.965Z" fill="#224334"/>
<path d="M9.62215 204.046H10.869C7.86163 195.967 4.82075 189.839 4.82075 181.929C4.82075 168.034 19.9839 156.035 32.9554 151.748C41.3617 148.777 45.1912 149.316 52.1377 151.572C52.3249 151.643 52.5237 151.701 52.7108 151.771C61.2075 154.532 67.1176 157.106 71.2607 160.778C67.0943 156.005 60.6809 153.034 50.7438 149.793C48.7613 149.214 44.9511 147.844 41.7205 147.723C28.4921 147.24 2.84082 161.827 2.84082 179.95C2.84211 188.674 6.58384 195.283 9.62215 204.046Z" fill="#224334"/>
<path d="M50.7415 149.799C50.1259 154.203 45.0767 156.029 40.5928 156.029C35.106 156.029 31.15 153.565 30.5938 149.934C33.4475 148.793 38.2024 147.594 41.717 147.727C44.3952 147.826 48.5306 149.016 50.7415 149.799Z" fill="white"/>
<path d="M48.0931 148.963V134.528H33.2217V149.051C33.2552 154.806 48.1267 154.718 48.0931 148.963Z" fill="url(#paint1_linear_2098_28079)"/>
<path d="M46.293 144.069C54.4037 144.886 60.4584 141.739 61.0482 127.158C61.6381 112.562 54.445 110.25 46.293 110.25C28.764 110.25 24.5589 141.881 46.293 144.069Z" fill="url(#paint2_linear_2098_28079)"/>
<path d="M25.6646 127.126C25.5575 127.126 25.4542 127.065 25.4052 126.962C24.6385 125.353 22.0623 119.768 21.1123 115.452C20.6554 113.379 20.2011 110.664 20.7458 108.044C22.4366 99.9166 31.7838 99.3606 37.0873 106.562C37.3132 106.868 36.8511 107.211 36.6239 106.904C31.7103 100.239 22.9232 100.399 21.3098 108.162C20.7871 110.675 21.2298 113.311 21.6738 115.328C22.4185 118.709 24.3571 123.427 25.9241 126.714C25.9925 126.857 25.9318 127.029 25.7885 127.097C25.7485 127.117 25.7059 127.126 25.6646 127.126Z" fill="#111D33"/>
<path d="M29.2683 134.045C30.5487 135.479 33.365 135.786 33.365 135.786C33.5263 132.612 33.4179 124.703 35.7205 123.578C37.5378 122.733 37.8708 126.572 38.6904 129.183C39.8933 129.311 37.7172 114.365 46.321 117.59C49.9827 118.971 52.7474 119.586 54.7957 119.843C58.1799 121.028 61.8391 121.352 64.6786 121.045C67.9492 120.781 69.7704 119.557 70.4648 116.029C71.0275 113.137 70.67 110.092 69.4658 107.405C67.7505 102.364 61.9643 97.8587 53.3863 98.6779C50.3648 98.9591 47.8557 99.7525 45.7815 100.751C40.1231 103.464 37.8695 107.763 37.8695 107.763C37.8695 107.763 37.8695 107.763 37.8437 107.738C37.7159 107.405 34.6944 100.649 28.139 103.616C18.5142 107.994 23.9932 128.133 29.2683 134.045ZM57.3823 119.995C58.7388 119.944 59.3545 119.713 59.3545 119.713C66.3707 119.022 69.6478 115.311 69.9808 111.192C70.2118 112.753 70.186 114.364 69.9034 115.9C69.2593 119.173 67.6782 120.211 64.6283 120.481C62.2211 120.712 59.7636 120.533 57.3823 119.995Z" fill="#111D33"/>
<path d="M50.7846 127.401C52.0456 127.401 52.0508 125.492 50.7846 125.492C49.5184 125.492 49.5236 127.401 50.7846 127.401Z" fill="#111D33"/>
<path d="M51.0694 126.834C51.5354 126.834 51.5367 126.13 51.0694 126.13C50.8745 126.128 50.6048 126.834 51.0694 126.834Z" fill="white"/>
<path d="M52.6714 125.944C51.0115 125.203 49.9144 125.67 48.4327 126.532L48.4082 126.507C49.3401 125.093 51.3032 125.066 52.6882 125.914L52.6714 125.944Z" fill="#111D33"/>
<path d="M58.4789 127.402C59.7412 127.402 59.7451 125.492 58.4789 125.492C57.2141 125.492 57.2166 127.402 58.4789 127.402Z" fill="#111D33"/>
<path d="M58.8309 126.834C59.2956 126.834 59.2981 126.13 58.8309 126.13C58.3637 126.129 58.3663 126.834 58.8309 126.834Z" fill="white"/>
<path d="M60.5991 125.944C58.9393 125.204 57.8422 125.671 56.3605 126.532L56.3359 126.508C57.273 125.086 59.2413 125.072 60.6159 125.914L60.5991 125.944Z" fill="#111D33"/>
<path d="M52.7432 122.863C52.3573 122.649 51.7855 122.582 51.3531 122.522C50.3735 122.382 49.3848 122.531 48.4142 122.724C46.5698 123.092 46.1633 124.099 46.2897 124.199C46.5943 124.442 47.6682 123.889 48.0528 123.872C49.6468 123.806 51.8397 124.192 52.5922 123.667C52.8762 123.47 53.0866 123.053 52.7432 122.863Z" fill="#111D33"/>
<path d="M56.1971 122.912C56.5456 122.718 57.0619 122.659 57.4517 122.604C58.3358 122.479 59.229 122.611 60.1054 122.786C61.7691 123.118 62.1369 124.027 62.0234 124.118C61.7484 124.338 60.7791 123.838 60.4319 123.824C59.0134 123.765 57.0154 124.114 56.334 123.64C56.0771 123.459 55.8887 123.082 56.1971 122.912Z" fill="#111D33"/>
<path d="M56.7241 131.168C56.7241 132.053 56.0116 132.765 55.1262 132.765C54.2408 132.765 53.5283 132.053 53.5283 131.168C53.5283 130.291 54.2408 131.696 55.1262 131.696C56.0129 131.696 56.7241 130.291 56.7241 131.168Z" fill="#E27659"/>
<path d="M50.9531 135.321C50.9531 135.321 54.2483 137.834 57.5163 135.792C57.5163 135.792 56.5599 139.56 54.2341 138.759C51.9082 137.958 50.9531 135.321 50.9531 135.321Z" fill="#E27659"/>
<path d="M77.7446 225.592C77.8931 226.05 80.6926 226.714 80.4912 227.672C80.2925 228.615 77.5691 228.904 75.8073 228.184C75.9557 228.643 79.1154 229.013 78.825 229.978C78.3719 231.484 72.738 231.479 71.2989 231.604C69.732 231.773 67.2293 231.46 63.5973 229.506C63.5973 229.506 17.5517 233.045 6.09672 224.373C-2.62453 217.752 2.4221 199.108 2.4221 199.108L28.2077 191.989C28.178 192.219 25.8057 210.246 25.9567 209.102L65.4701 218.048C68.0954 216.324 70.1799 215.209 72.7884 215.834C71.5002 217.326 72.0036 218.386 75.3865 218.751C75.3865 218.751 83.9748 220.576 83.0068 222.791C82.5667 223.797 78.8262 223.391 78.0686 223.059C78.2093 223.529 82.3744 223.872 81.8374 225.179C81.2618 226.58 78.5023 225.922 77.7446 225.592Z" fill="#F7A386"/>
<path d="M71.2989 231.604C69.732 231.773 67.2293 231.46 63.5973 229.506C63.5973 229.506 17.5517 233.045 6.09672 224.373C-2.62453 217.752 2.4221 199.108 2.4221 199.108L28.2077 191.989L26.7117 203.374C23.9135 205.637 20.3525 206.946 16.7592 206.945C13.9635 206.924 10.8929 206.246 8.58518 207.828C5.62174 209.849 5.94183 214.635 8.32704 217.303C10.7045 219.98 14.374 221.03 17.8653 221.813C26.4394 223.73 35.1839 224.717 43.9077 225.708C50.9536 226.499 57.9918 227.301 65.03 228.104C66.4575 228.265 67.925 228.437 69.1808 229.118C70.1721 229.638 71.0072 230.557 71.2989 231.604Z" fill="url(#paint3_linear_2098_28079)"/>
<path d="M26.3392 172.415L6.39276 168.164C4.09402 171.851 -1.26625 180.954 0.273557 203.396C0.782092 210.797 22.3664 205.326 28.3127 200.402C32.8172 196.672 33.5594 181.332 26.3392 172.415Z" fill="#94C1A7"/>
<path d="M0.282431 203.401C0.436025 205.652 2.53599 206.727 5.58204 206.959C4.1997 206.371 3.32848 205.449 3.22651 204.017C1.69058 181.572 7.04182 172.461 9.34571 168.776L6.40163 168.16C4.09773 171.846 -1.2535 180.956 0.282431 203.401Z" fill="#224334"/>
<path d="M513.636 430.246C515.985 425.707 520.902 426.98 526.932 426.98C530.122 426.98 531.016 424.77 531.157 422.685L542.652 422.272C544.623 425.474 545.614 431.797 545.586 435.751C545.571 437.668 544.006 439.205 542.088 439.205H517.059C515.743 439.205 514.551 438.467 513.944 437.301C513.052 435.59 512.242 432.94 513.636 430.246Z" fill="#BF7D5A"/>
<path d="M512.994 434.488C513.168 435.56 513.541 436.529 513.943 437.301C514.549 438.467 515.743 439.205 517.057 439.205L542.086 439.204C544.004 439.204 545.57 437.668 545.584 435.751C545.587 435.357 545.573 434.924 545.555 434.488H512.994Z" fill="#8A4852"/>
<path d="M449.368 430.246C451.718 425.706 456.634 426.98 462.665 426.98C465.854 426.98 466.748 424.77 466.889 422.685L478.384 422.272C480.355 425.474 481.346 431.797 481.318 435.751C481.303 437.668 479.738 439.204 477.82 439.204H452.791C451.476 439.204 450.283 438.467 449.676 437.3C448.786 435.59 447.974 432.94 449.368 430.246Z" fill="#BF7D5A"/>
<path d="M448.728 434.488C448.902 435.56 449.275 436.529 449.676 437.3C450.283 438.467 451.475 439.205 452.791 439.205L477.82 439.203C479.738 439.203 481.303 437.668 481.318 435.751C481.32 435.356 481.306 434.924 481.288 434.488H448.728Z" fill="#8A4852"/>
<path d="M483.005 421.937C487.908 393.72 499.314 366.137 505.936 333.494C510.032 353.943 519.548 395.899 524.545 417.512C524.888 418.937 525.193 420.326 525.483 421.632C526.263 425.212 536.624 426.283 542.4 424.829C544.832 424.22 546.471 423.151 546.234 421.632C541.978 393.719 541.779 323.429 541.779 323.429C541.779 323.429 545.56 283.139 539.598 262.134C538.844 259.492 537.946 257.154 536.849 255.238H501.918C501.918 255.238 501.918 255.397 501.918 255.713L481.273 255.264L480.625 255.238C480.625 255.238 480.585 255.449 480.479 255.832V255.846C480.267 256.77 479.818 258.725 479.25 261.513C478.999 262.728 478.721 264.102 478.418 265.621C475.973 278.091 472.286 300.125 471.678 322.424C470.752 356.321 469.617 386.256 462.307 421.395C461.197 426.681 482.092 427.248 483.005 421.937Z" fill="#0F1F18"/>
<path d="M479.251 261.513C492.123 269.082 511.446 255.49 539.57 262.134C539.583 262.134 539.583 262.134 539.596 262.134C538.842 259.492 537.944 257.154 536.847 255.238H501.916C501.916 255.238 501.916 255.397 501.916 255.713L481.271 255.264L480.623 255.238C480.623 255.238 480.583 255.449 480.477 255.832V255.846C480.268 256.771 479.819 258.727 479.251 261.513Z" fill="#182F25"/>
<path d="M497.211 363.152C501.136 351.989 504.506 341.395 505.855 332.769C505.855 332.769 500.502 302.914 500.489 282.597L497.211 363.152Z" fill="#182F25"/>
<path d="M524.543 417.512C524.886 418.937 525.191 420.326 525.481 421.632C526.261 425.212 536.623 426.283 542.398 424.829C544.83 424.22 546.469 423.151 546.232 421.632C541.976 393.719 541.778 323.429 541.778 323.429C541.778 323.429 546.575 272.332 536.848 255.238H535.381C534.614 259.109 534.76 263.309 534.707 267.061C534.576 275.304 534.47 283.534 534.351 291.764C534.219 301.342 534.086 310.906 533.955 320.483C533.77 333.573 533.586 346.692 534.814 359.716C535.818 370.482 537.788 389.004 540.696 399.413C541.634 402.808 542.691 406.283 542.348 409.783C542.005 413.296 539.864 416.89 536.441 417.748C533.757 418.436 530.969 417.326 528.207 417.035C527.015 416.917 525.68 417.076 524.543 417.512Z" fill="#182F25"/>
<path d="M492.303 126.602C491.982 129.039 492.925 131.162 494.408 131.357C495.891 131.553 497.354 129.747 497.676 127.31C497.998 124.873 497.055 122.742 495.572 122.546C494.089 122.351 492.624 124.165 492.303 126.602Z" fill="#497BFD"/>
<path d="M425.058 147.976C425.058 147.976 420.376 149.117 424.098 152.225C424.098 152.225 420.063 153.178 423.377 156.186C423.377 156.186 420.732 158.05 423.712 160.382C425.036 161.435 425.921 162.288 426.956 163.1L426.969 163.102C427.98 163.872 429.118 164.585 430.936 165.37C431.961 165.817 432.707 166.714 432.912 167.807C434.347 175.578 440.464 206.385 448.035 210.595C456.713 215.421 473.167 200.78 473.167 200.78C472.999 200.55 461.38 184.643 462.121 185.657L455.884 191.215C456.247 187.843 451.506 181.302 448.301 178.116C445.096 174.929 443.443 160.752 443.443 160.752C443.443 160.752 440.188 151.417 434.124 147.657C431.428 146.653 428.263 147.245 425.058 147.976Z" fill="#F6A285"/>
<path d="M426.971 163.102C427.983 163.872 429.12 164.586 430.938 165.37C431.963 165.818 432.709 166.714 432.914 167.807C434.35 175.579 440.466 206.386 448.037 210.595C456.715 215.421 473.169 200.78 473.169 200.78L464.101 188.377C459.278 189.91 457.266 193.93 458.016 196.959C458.584 199.184 460.538 201.23 459.896 203.436C459.255 205.643 456.482 206.298 454.198 206.578C451.997 206.838 449.302 206.881 448.127 205.009C446.807 202.923 448.48 200.293 448.794 197.83C449.637 191.506 442.406 187.919 440.431 182.313C438.854 177.85 440.661 172.65 438.777 168.31C437.773 165.995 435.72 164.155 433.309 163.39C431.187 162.715 429.082 163.265 426.971 163.102Z" fill="url(#paint4_linear_2098_28079)"/>
<path d="M435.34 149.719C430.851 166.403 413.679 176.291 396.987 171.804C380.29 167.314 370.396 150.151 374.887 133.467C379.377 116.777 396.55 106.89 413.248 111.379C429.939 115.867 439.831 133.03 435.34 149.719Z" fill="#EE9545"/>
<path d="M438.71 149.719C434.221 166.403 417.048 176.291 400.357 171.804C383.659 167.314 373.766 150.151 378.256 133.467C382.746 116.777 399.919 106.89 416.617 111.379C433.308 115.867 443.201 133.03 438.71 149.719Z" fill="#FFDE9E"/>
<path d="M433.129 148.218C429.468 161.822 415.467 169.884 401.858 166.225C388.243 162.565 380.178 148.572 383.838 134.968C387.5 121.36 401.5 113.298 415.114 116.958C428.723 120.616 436.79 134.61 433.129 148.218Z" fill="#FFD375"/>
<path d="M383.285 134.819C387.023 120.93 401.371 112.672 415.264 116.405C437.572 122.402 441.597 152.627 421.51 164.192C401.303 175.83 377.301 157.049 383.285 134.819ZM384.391 135.117C382.661 141.549 383.54 148.268 386.867 154.039C398.022 173.389 426.864 169.293 432.575 148.07C436.148 134.791 428.249 121.082 414.965 117.511C401.708 113.949 387.973 121.808 384.391 135.117Z" fill="#EE9545"/>
<path d="M408.146 141.573C405.868 142.042 403.632 140.573 403.161 138.296C402.691 136.021 404.161 133.787 406.441 133.317C408.717 132.848 410.952 134.317 411.421 136.592C411.609 137.5 412.498 138.084 413.407 137.896C414.315 137.709 414.9 136.82 414.711 135.912C413.983 132.388 410.901 129.948 407.446 129.878L407.16 128.49C406.972 127.582 406.083 126.997 405.174 127.184C404.266 127.371 403.681 128.26 403.868 129.168L404.155 130.557C401.008 131.989 399.143 135.451 399.871 138.974C400.716 143.065 404.732 145.706 408.825 144.861C411.1 144.391 413.336 145.861 413.805 148.135C414.276 150.412 412.806 152.647 410.53 153.116C408.251 153.586 406.016 152.116 405.545 149.839C405.358 148.931 404.468 148.347 403.56 148.534C402.651 148.721 402.066 149.61 402.254 150.518C402.982 154.044 406.065 156.485 409.523 156.554L409.758 157.693C409.945 158.602 410.834 159.186 411.743 158.999C412.651 158.812 413.236 157.923 413.049 157.015L412.814 155.876C415.959 154.444 417.823 150.981 417.095 147.457C416.251 143.368 412.236 140.729 408.146 141.573Z" fill="#EE9545"/>
<path d="M554.679 203.769H546.874V206.206L538.616 206.402C538.616 206.402 540.012 213.673 541.348 222.851C543.767 239.358 545.988 262.095 539.5 259.953C511.345 250.618 477.725 265.141 479.455 258.912C479.888 257.379 480.124 254.647 480.222 251.19C480.655 233.994 477.627 198.445 477.765 197.56C477.528 197.894 476.644 199.839 474.226 201.333C473.753 201.648 473.301 201.825 472.888 201.844C467.245 201.928 454.602 191.877 456.216 186.398C456.453 185.651 456.708 184.925 457.003 184.178C460.463 175.354 466.381 167.553 473.872 162.443C478.531 159.279 485.629 156.901 492.236 155.466C493.75 155.132 495.264 154.857 496.699 154.64C496.778 154.621 496.837 154.621 496.916 154.602C502.047 153.77 521.464 152.67 524.107 153.993C525.287 154.229 526.605 154.642 528.019 155.133C535.412 157.864 545.125 163.898 549.312 170.028C549.371 170.107 549.429 170.166 549.489 170.284C550.334 171.718 551.062 174.568 551.731 178.066C553.322 186.554 554.325 198.816 554.679 203.769Z" fill="#458464"/>
<path d="M472.901 201.843C473.29 201.829 473.745 201.656 474.228 201.347C471.075 195.844 463.425 195.363 459.279 190.801C458.234 189.662 457.443 188.254 457.161 186.74C457.041 186.097 457.215 184.971 457 184.18C456.704 184.931 456.45 185.668 456.223 186.392C454.505 191.76 467.203 201.928 472.901 201.843Z" fill="#438829"/>
<path d="M456.374 186.832C459.967 178.135 465.388 171.241 472.749 166.231C477.401 163.067 484.507 160.696 491.103 159.263C499.881 157.418 518.139 155.775 526.886 158.942C534.287 161.661 544.007 167.692 548.189 173.815C549.1 175.155 549.906 178.143 550.603 181.869C551.688 187.712 552.694 197.4 553.271 203.778H554.679C554.317 198.821 553.312 186.558 551.729 178.076C551.073 174.579 550.321 171.738 549.49 170.291C549.423 170.183 549.369 170.102 549.316 170.022C545.133 163.898 535.412 157.868 528.013 155.149C527.391 154.926 524.547 153.983 524.111 153.983C519.52 152.672 501.796 153.805 496.694 154.639C495.26 154.868 493.758 155.149 492.23 155.47C485.633 156.903 478.528 159.276 473.876 162.439C465.738 167.986 459.153 176.718 456.522 185.774C456.423 186.111 456.374 186.456 456.374 186.832Z" fill="#28543F"/>
<path d="M489.161 168.388C486.935 176.074 481.529 190.59 477.646 197.587C487.903 183.826 489.161 168.388 489.161 168.388Z" fill="#28543F"/>
<path d="M539.501 259.953C511.346 250.618 477.726 265.14 479.457 258.912C479.889 257.379 480.125 254.647 480.223 251.189C480.381 251.149 480.558 251.13 480.715 251.111C484.589 250.619 488.462 251.543 492.276 252.369C496.071 253.194 500.042 253.941 503.837 253.095C510.03 251.72 515.457 246.237 521.709 247.357C525.995 248.104 529.514 251.916 533.86 251.739C537.045 251.602 539.837 249.185 541.017 246.237C542.177 243.268 541.921 239.909 540.938 236.882C539.355 231.917 536.077 229.053 537.261 226.408C537.989 224.738 539.561 223.52 541.35 222.852C543.767 239.358 545.988 262.094 539.501 259.953Z" fill="#32694F"/>
<path d="M449.872 190.415L463.421 239.303C463.975 241.3 466.033 242.919 468.021 242.919H502.138C504.124 242.919 505.287 241.3 504.734 239.303L491.184 190.415C490.63 188.42 488.571 186.801 486.585 186.801H452.468C450.48 186.801 449.319 188.42 449.872 190.415Z" fill="#28543F"/>
<path d="M496.914 154.598L501.451 174.044C501.568 174.546 502.185 174.729 502.558 174.374L523.999 153.956C520.76 152.659 501.843 153.799 496.914 154.598Z" fill="#28543F"/>
<path d="M492.393 111.822C492.393 111.822 490.315 114.944 493.205 119.968L499.54 112.302L492.393 111.822Z" fill="#0F1F18"/>
<path d="M500.368 132.584V154.136L503.081 168.592C503.148 168.95 503.588 169.091 503.852 168.837L518.576 154.588C518.781 154.392 518.897 154.121 518.897 153.837V132.583H500.368V132.584Z" fill="#F6A285"/>
<path d="M494.399 146.156C498.959 148.799 512.132 145.846 515.696 144.303C517.335 143.588 518.287 143.089 518.287 143.089L519.411 138.376C519.411 138.376 522.252 136.374 523.747 133.853C524.978 131.801 525.306 129.412 522.477 127.496L523.718 116.953C511.678 113.532 500.153 110.284 494.531 114.972C494.529 114.971 486.456 141.553 494.399 146.156Z" fill="url(#paint5_linear_2098_28079)"/>
<path d="M491.734 106.28C491.6 110.046 491.886 112.225 492.697 113.987C495.367 119.831 511.644 118.46 511.231 120.504C510.483 124.218 512.486 125.341 514.228 126.628C515.968 127.922 511.971 133.514 513.647 134.582C514.54 135.155 516.68 131.656 516.68 131.656C516.68 131.656 519.619 125.918 522.726 127.751C525.448 129.375 523.14 134.469 520.785 137.269C523.938 134.332 527.955 129.695 529.986 125.832C530.308 125.239 530.599 124.641 530.848 124.042C532.064 121.171 532.421 117.809 529.203 116.035L529.205 116.024C529.22 116.006 529.222 115.997 529.227 115.977L529.238 115.979C529.278 115.903 529.316 115.828 529.355 115.752C532.066 110.66 529.575 107.181 528.044 105.724C522.518 100.462 509.793 95.8812 496.627 100.456C496.295 100.556 495.969 100.68 495.642 100.804C492.756 101.911 491.805 104.071 491.734 106.28Z" fill="#0F1F18"/>
<path d="M497.755 132.213C497.833 132.188 497.891 132.289 497.842 132.378C497.56 132.892 497.165 133.316 496.717 133.536C496.202 133.789 495.571 133.795 495.215 133.377C494.789 132.878 494.609 132.002 494.969 131.884C495.23 131.799 495.447 132.585 495.726 132.679C496.852 133.061 497.441 132.315 497.755 132.213Z" fill="#E17659"/>
<path d="M518.586 132.567C518.991 131.766 519.513 131.159 520.135 130.761C520.872 130.294 521.752 130.159 522.493 130.399C522.865 130.517 523.224 130.735 523.562 131.042C523.63 131.103 523.635 131.208 523.573 131.275C523.51 131.343 523.407 131.346 523.341 131.286C523.036 131.01 522.719 130.818 522.391 130.711C521.743 130.501 520.967 130.623 520.313 131.039C519.756 131.393 519.286 131.946 518.914 132.665C519.139 132.562 519.38 132.498 519.628 132.521C520.101 132.563 520.649 132.881 520.827 133.149C520.949 133.338 520.967 133.572 520.871 133.748C520.828 133.824 520.734 133.855 520.654 133.816C520.651 133.815 520.649 133.814 520.646 133.812C520.567 133.768 520.538 133.669 520.582 133.588C520.619 133.521 520.606 133.415 520.551 133.328C520.445 133.169 519.997 132.885 519.598 132.849C519.281 132.819 518.946 132.94 518.724 133.166C518.716 133.174 518.704 133.165 518.693 133.171C518.467 133.714 518.284 134.279 518.123 134.866C518.098 134.955 518.008 135.006 517.92 134.981C517.91 134.977 517.901 134.975 517.892 134.971C517.821 134.937 517.782 134.857 517.804 134.779" fill="#E17659"/>
<path d="M503.335 129.847C503.204 130.398 502.65 130.732 502.097 130.601C501.554 130.472 501.211 129.923 501.341 129.373C501.473 128.822 502.027 128.488 502.57 128.617C503.122 128.748 503.466 129.296 503.335 129.847Z" fill="#111D33"/>
<path d="M500.36 128.946C500.368 128.959 500.386 128.973 500.395 128.976C501.073 128.936 501.729 128.901 502.4 128.848C502.789 129.217 503.139 129.618 503.551 129.982C503.99 130.32 504.482 130.618 505.065 130.798C505.084 130.804 505.108 130.798 505.114 130.767C505.117 130.757 505.119 130.747 505.109 130.746C504.835 130.202 504.46 129.774 504.04 129.397C503.799 129.201 502.784 128.494 502.635 128.395C502.463 128.288 502.371 128.365 500.382 128.898C500.371 128.906 500.355 128.924 500.36 128.946Z" fill="#111D33"/>
<path d="M494.355 127.565C494.224 128.116 493.67 128.45 493.119 128.318C492.576 128.189 492.232 127.641 492.363 127.09C492.494 126.539 493.048 126.205 493.591 126.334C494.144 126.466 494.487 127.014 494.355 127.565Z" fill="#111D33"/>
<path d="M493.099 127.266C493.065 127.409 492.921 127.497 492.777 127.462C492.635 127.428 492.546 127.285 492.579 127.142C492.613 126.999 492.759 126.911 492.899 126.945C493.044 126.979 493.133 127.123 493.099 127.266Z" fill="#FBFBFB"/>
<path d="M502.195 129.434C502.16 129.577 502.015 129.665 501.872 129.63C501.53 129.548 501.653 129.031 501.996 129.112C502.139 129.147 502.23 129.29 502.195 129.434Z" fill="#FBFBFB"/>
<path d="M491.385 126.657C491.39 126.679 491.398 126.692 491.421 126.686C492.087 126.654 492.762 126.625 493.433 126.572C493.823 126.941 494.173 127.342 494.568 127.691C495.015 128.042 495.506 128.339 496.09 128.521C496.11 128.526 496.135 128.511 496.14 128.49C496.143 128.48 496.145 128.471 496.137 128.458C495.864 127.916 495.475 127.494 495.069 127.111C494.622 126.76 494.128 126.472 493.679 126.133L493.661 126.118C493.608 126.074 493.544 126.068 493.49 126.076C492.793 126.239 492.1 126.434 491.408 126.619C491.383 126.625 491.377 126.645 491.385 126.657Z" fill="#111D33"/>
<path d="M501.073 123.429C499.207 123.833 499.617 125.934 501.289 125.791C501.951 125.734 504.442 124.665 506.667 126.792C506.89 127.006 507.104 127.248 507.377 127.368C507.649 127.488 508.004 127.457 508.221 127.184C509.14 126.027 504.616 122.661 501.073 123.429Z" fill="#111D33"/>
<path d="M497.38 122.721C498.592 123.704 497.522 125.09 496.35 124.366C495.888 124.08 494.464 122.381 492.055 123.113C491.812 123.187 491.567 123.284 491.324 123.272C491.082 123.259 490.834 123.106 490.776 122.827C490.669 122.306 491.372 122.074 491.67 121.933C492.785 121.408 495.736 121.389 497.38 122.721Z" fill="#111D33"/>
<path d="M492.915 136.71C492.783 136.613 492.589 136.676 492.569 136.839C492.393 138.276 493.243 139.616 494.58 139.935C495.913 140.252 497.28 139.432 497.766 138.061C497.819 137.911 497.68 137.765 497.522 137.787C495.745 138.028 494.208 137.67 492.915 136.71Z" fill="#E17659"/>
<path d="M491.734 106.281C491.6 110.046 491.886 112.225 492.697 113.988C495.367 119.832 511.644 118.46 511.231 120.504C510.483 124.218 512.486 125.342 514.228 126.628C515.968 127.922 511.971 133.514 513.647 134.582C514.54 135.155 516.68 131.657 516.68 131.657C516.68 131.657 519.619 125.918 522.726 127.752C525.448 129.376 523.14 134.469 520.785 137.27C523.276 134.949 526.336 131.517 528.316 128.563C526.96 126.108 524.141 124.535 521.331 124.66C520.261 124.716 517.665 125.304 516.948 123.552C516.585 122.627 517.13 121.633 517.46 120.693C518.698 117.15 516.44 113.09 513.153 111.257C509.878 109.416 505.894 109.346 502.16 109.783C499.985 110.05 497.369 110.297 495.993 108.59C495.014 107.359 495.154 105.654 495.548 104.23C495.871 103.056 496.762 101.719 496.628 100.456C496.296 100.557 495.97 100.681 495.643 100.804C492.756 101.911 491.805 104.071 491.734 106.281Z" fill="#0F1F18"/>
<path d="M522.525 117.999C525.489 115.671 528.374 115.902 529.203 116.026C529.218 116.008 529.22 115.999 529.225 115.978L529.236 115.981C529.276 115.905 529.314 115.83 529.353 115.754C525.033 114.735 522.669 117.8 522.525 117.999Z" fill="white"/>
<path d="M493.664 225.686C480.994 227.964 489.213 229.131 494.965 228.514C483.515 230.176 490.192 231.703 495.903 231.408C490.432 232.211 489.715 233.59 496.318 234.825C501.325 235.707 502.504 235.488 504.001 236.701C505.703 237.504 513.627 238.845 516.657 239.073C531.043 240.145 544.946 238.885 550.523 230.952C554.343 225.499 554.183 213.826 552.922 203.213H531.98C531.961 206.175 532.081 209.079 532.128 209.645C532.329 214.603 532.449 217.055 533.496 222.617C520.732 224.788 512.153 224.333 511.494 224.037C510.141 223.435 503.017 218.312 500.959 215.678C500.499 215.089 499.445 214.927 499.1 215.489C498.199 216.956 499.873 222.331 499.873 222.331C499.296 222.463 486.13 224.064 486.518 225.351C486.889 226.59 491.333 225.94 493.664 225.686Z" fill="#F6A285"/>
<path d="M496.318 234.826C501.325 235.708 502.503 235.489 504.001 236.702C505.703 237.505 513.627 238.846 516.657 239.074C531.043 240.146 544.945 238.886 550.522 230.953C554.343 225.5 554.183 213.827 552.922 203.214H531.98C531.961 206.176 532.081 209.08 532.127 209.646C532.14 209.659 532.155 209.673 532.167 209.673C539.051 213.111 543.385 206.835 547.988 209.552C550.468 211.014 550.777 214.417 550.817 217.298C550.857 220.541 550.67 224.28 548.109 226.277C546.138 227.804 543.417 227.764 540.949 228.072C535.318 228.782 530.224 231.584 524.995 233.768C519.766 235.952 513.868 237.547 508.505 235.751C505.413 234.712 501.895 232.163 498.436 233.326C497.605 233.593 496.841 234.129 496.318 234.826Z" fill="url(#paint6_linear_2098_28079)"/>
<path d="M530.559 175.23L550.81 173.882C553.429 183.754 555.391 192.394 554.934 203.385C554.766 207.434 534.089 207.905 531.186 205.075C525.363 199.401 530.559 175.23 530.559 175.23Z" fill="#28543F"/>
<path d="M531.349 205.248C535.878 208.063 554.772 207.135 554.934 203.384C555.389 192.396 553.432 183.752 550.805 173.877L548.341 174.047C550.889 183.709 554.077 192.128 553.634 202.915C553.485 206.319 536.162 206.481 531.349 205.248Z" fill="#458464"/>
<path d="M437.308 163.635C432.236 160.592 434.179 153.848 434.179 153.848C430.874 152.65 429.362 152.513 429.962 150.148C430.694 147.27 436.898 149.897 440.13 152.518C442.08 154.101 443.184 156.934 443.603 161.945" fill="#F6A285"/>
<path d="M437.302 163.645C436.543 163.133 435.788 162.572 435.267 161.802C433.641 159.532 433.485 156.519 434.134 153.835L434.162 153.892C432.076 153.117 429.865 152.739 429.772 151.247C429.738 149.297 430.611 148.377 433.612 149.038C436.278 149.711 440.922 152.059 442.137 155.027C443.489 158.015 443.632 162.226 443.605 161.958C442.602 154.051 441.187 152.926 436.835 150.52C435.104 149.625 431.608 148.145 430.316 149.601C429.98 150.044 429.908 150.679 429.917 151.235C430.02 153.026 434.304 153.544 434.224 153.862C433.562 156.521 433.7 159.514 435.301 161.778C435.814 162.547 436.562 163.11 437.315 163.626C437.32 163.628 437.323 163.636 437.32 163.641C437.318 163.646 437.308 163.648 437.302 163.645Z" fill="#E17659"/>
<path d="M437.448 37.8578V67.9385C437.448 69.5588 438.762 70.8734 440.385 70.8734H477.613L491.266 80.3516C492.254 81.0367 493.605 80.331 493.605 79.1299V70.8734H499.893C501.515 70.8734 502.83 69.5601 502.83 67.9385V37.8578C502.83 36.2374 501.516 34.9229 499.893 34.9229H440.386C438.763 34.9241 437.448 36.2374 437.448 37.8578Z" fill="#0F1F18"/>
<path d="M481.18 52.2201C481.18 55.0235 483.464 57.3082 486.27 57.3082C489.076 57.3082 491.337 55.0247 491.337 52.2201C491.337 49.4168 489.075 47.1553 486.27 47.1553C483.464 47.1553 481.18 49.4168 481.18 52.2201Z" fill="white"/>
<path d="M465.06 52.2201C465.06 55.0235 467.344 57.3082 470.15 57.3082C472.956 57.3082 475.217 55.0247 475.217 52.2201C475.217 49.4168 472.955 47.1553 470.15 47.1553C467.344 47.1553 465.06 49.4168 465.06 52.2201Z" fill="white"/>
<path d="M448.94 52.2201C448.94 55.0235 451.225 57.3082 454.031 57.3082C456.837 57.3082 459.098 55.0247 459.098 52.2201C459.098 49.4168 456.836 47.1553 454.031 47.1553C451.225 47.1553 448.94 49.4168 448.94 52.2201Z" fill="white"/>
<path d="M101.155 11.456V55.5573C101.155 57.0667 99.9311 58.2897 98.421 58.2897H60.9443L47.3042 69.0734C46.4317 69.7636 45.1474 69.1418 45.1474 68.0298V58.2897H38.4319C36.9218 58.2897 35.6982 57.0667 35.6982 55.5573V11.456C35.6982 9.94792 36.9218 8.72363 38.4319 8.72363H98.421C99.9311 8.72363 101.155 9.94792 101.155 11.456Z" fill="#458464"/>
<path d="M80.1316 35.6555C79.6205 43.912 72.3229 50.2991 63.7513 49.3264C57.0449 48.5653 51.5775 43.0889 50.8469 36.3818C49.9176 27.8466 56.295 20.5925 64.5309 20.0662C65.0343 20.0339 65.4589 20.4571 65.4589 20.9615V33.9048C65.4589 34.3693 65.8203 34.7292 66.2669 34.7292H79.2358C79.7405 34.7292 80.1625 35.1523 80.1316 35.6555Z" fill="white"/>
<path d="M83.5686 30.8629H70.1182C69.6536 30.8629 69.2754 30.4837 69.2754 30.0192L69.2909 16.5921C69.2922 16.089 69.7142 15.6671 70.2163 15.6968C77.8714 16.1561 84.0035 22.2865 84.4643 29.9367C84.4953 30.4411 84.0732 30.8629 83.5686 30.8629Z" fill="white"/>
<path d="M477.078 184.979L478.097 188.787C478.24 189.324 477.837 189.85 477.28 189.85H460.719C460.336 189.85 460.002 189.593 459.902 189.223L458.883 185.415C458.739 184.878 459.143 184.352 459.7 184.352H476.261C476.644 184.352 476.978 184.608 477.078 184.979Z" fill="white"/>
<path d="M403.876 369.565C403.242 369.565 402.73 369.053 402.73 368.42V357.347C402.73 350.366 397.048 344.687 390.064 344.687C383.08 344.687 377.399 350.367 377.399 357.347V368.42C377.399 369.053 376.886 369.565 376.253 369.565C375.619 369.565 375.106 369.053 375.106 368.42V357.347C375.106 349.102 381.817 342.395 390.066 342.395C398.313 342.395 405.024 349.102 405.024 357.347V368.42C405.022 369.052 404.51 369.565 403.876 369.565Z" fill="#111D33"/>
<path d="M417.237 364.561H408.956V434.615H417.237V364.561Z" fill="#FFD475"/>
<path d="M408.956 364.561V434.614H352.367C349.704 434.614 347.545 432.456 347.545 429.795V369.38C347.545 366.719 349.704 364.561 352.367 364.561H408.956Z" fill="#FFDD99"/>
<path d="M425.791 369.393V429.801C425.791 430.92 425.396 431.973 424.737 432.763C423.882 433.882 422.498 434.607 420.951 434.607H417.229V364.556H420.951C423.618 364.556 425.791 366.727 425.791 369.393Z" fill="#FFB961"/>
<path d="M424.738 432.763C423.882 433.881 422.499 434.606 420.951 434.606H408.966L417.23 420.355L417.394 420.058L424.738 432.763Z" fill="#EF9645"/>
<path d="M393.443 369.565C392.81 369.565 392.297 369.053 392.297 368.42V357.347C392.297 350.366 386.616 344.687 379.632 344.687C372.648 344.687 366.966 350.367 366.966 357.347V368.42C366.966 369.053 366.454 369.565 365.82 369.565C365.186 369.565 364.674 369.053 364.674 368.42V357.347C364.674 349.102 371.384 342.395 379.633 342.395C387.881 342.395 394.591 349.102 394.591 357.347V368.42C394.59 369.052 394.077 369.565 393.443 369.565Z" fill="#111D33"/>
<path d="M398.701 402.649C398.701 410.523 389.879 416.913 379.005 416.913C368.132 416.913 359.309 410.522 359.309 402.649C359.309 394.774 368.13 388.383 379.005 388.383C389.877 388.383 398.701 394.774 398.701 402.649Z" fill="#FFB961"/>
<path d="M342.277 395.916C341.643 395.916 341.13 395.404 341.13 394.771V380.341C341.13 375.547 337.229 371.647 332.431 371.647C327.634 371.647 323.732 375.547 323.732 380.341V394.769C323.732 395.403 323.219 395.915 322.586 395.915C321.952 395.915 321.439 395.403 321.439 394.769V380.341C321.439 374.283 326.371 369.355 332.432 369.355C338.493 369.355 343.425 374.283 343.425 380.341V394.769C343.423 395.403 342.91 395.916 342.277 395.916Z" fill="#111D33"/>
<path d="M351.799 385.485H345.896V434.615H351.799V385.485Z" fill="#DF3260"/>
<path d="M345.896 385.485V434.615H305.562C303.663 434.615 302.125 433.077 302.125 431.179V388.92C302.125 387.022 303.663 385.485 305.562 385.485H345.896Z" fill="#F45170"/>
<path d="M357.896 388.929V431.183C357.896 431.98 357.615 432.731 357.145 433.295C356.535 434.092 355.55 434.608 354.446 434.608H351.794V385.481H354.446C356.348 385.481 357.896 387.029 357.896 388.929Z" fill="#F45170"/>
<path d="M357.145 433.295C356.535 434.092 355.55 434.608 354.446 434.608H345.903L351.794 424.451L351.912 424.24L357.145 433.295Z" fill="#D12057"/>
<path d="M334.841 395.916C334.207 395.916 333.694 395.404 333.694 394.771V380.341C333.694 375.547 329.793 371.647 324.995 371.647C320.199 371.647 316.297 375.547 316.297 380.341V394.769C316.297 395.403 315.785 395.915 315.151 395.915C314.517 395.915 314.005 395.403 314.005 394.769V380.341C314.005 374.283 318.935 369.355 324.996 369.355C331.058 369.355 335.989 374.283 335.989 380.341V394.769C335.987 395.403 335.474 395.916 334.841 395.916Z" fill="#111D33"/>
<path d="M338.586 411.831C338.586 417.443 332.297 421.998 324.547 421.998C316.796 421.998 310.508 417.443 310.508 411.831C310.508 406.218 316.796 401.662 324.547 401.662C332.297 401.662 338.586 406.218 338.586 411.831Z" fill="#D12057"/>
</g>
<defs>
<linearGradient id="paint0_linear_2098_28079" x1="86.686" y1="176.772" x2="129.283" y2="176.772" gradientUnits="userSpaceOnUse">
<stop offset="1e-07" stop-color="#F7A386"/>
<stop offset="1" stop-color="#FD6B58"/>
</linearGradient>
<linearGradient id="paint1_linear_2098_28079" x1="50.3624" y1="145.704" x2="16.3717" y2="136.912" gradientUnits="userSpaceOnUse">
<stop offset="1e-07" stop-color="#FEE1BC"/>
<stop offset="1" stop-color="#FD6B58"/>
</linearGradient>
<linearGradient id="paint2_linear_2098_28079" x1="65.8591" y1="128.448" x2="11.5731" y2="124.773" gradientUnits="userSpaceOnUse">
<stop offset="1e-07" stop-color="#FEE1BC"/>
<stop offset="1" stop-color="#FD6B58"/>
</linearGradient>
<linearGradient id="paint3_linear_2098_28079" x1="2.80811" y1="198.535" x2="65.2388" y2="240.598" gradientUnits="userSpaceOnUse">
<stop offset="1e-07" stop-color="#F7A386"/>
<stop offset="1" stop-color="#FD6B58"/>
</linearGradient>
<linearGradient id="paint4_linear_2098_28079" x1="474.067" y1="190.032" x2="425.061" y2="185.933" gradientUnits="userSpaceOnUse">
<stop offset="1e-07" stop-color="#F6A285"/>
<stop offset="1" stop-color="#FC6B58"/>
</linearGradient>
<linearGradient id="paint5_linear_2098_28079" x1="483.799" y1="125.645" x2="541.298" y2="138.977" gradientUnits="userSpaceOnUse">
<stop offset="1e-07" stop-color="#FDE0BB"/>
<stop offset="1" stop-color="#FC6B58"/>
</linearGradient>
<linearGradient id="paint6_linear_2098_28079" x1="553.724" y1="221.308" x2="496.318" y2="221.308" gradientUnits="userSpaceOnUse">
<stop offset="1e-07" stop-color="#F6A285"/>
<stop offset="1" stop-color="#FC6B58"/>
</linearGradient>
<clipPath id="clip0_2098_28079">
<rect width="555" height="441" fill="white"/>
</clipPath>
</defs>
</svg>
