<svg width="555" height="462" viewBox="0 0 555 462" fill="none" xmlns="http://www.w3.org/2000/svg">
<g clip-path="url(#clip0_2098_27593)">
<path d="M353.998 265.548C353.532 265.553 353.091 265.083 352.864 264.157L352.781 261.766C352.943 260.799 353.34 260.239 353.809 260.14C354.277 260.042 354.698 260.45 354.944 261.435L355.046 264.015C354.881 265.046 354.489 265.543 353.998 265.548Z" fill="#28543F"/>
<path d="M354.077 284.552C353.61 284.552 353.188 283.702 352.993 281.982L352.989 277.612C353.182 275.893 353.602 275.042 354.081 275.042C354.56 275.042 354.97 275.892 355.177 277.609L355.181 281.98C354.976 283.701 354.566 284.55 354.077 284.552Z" fill="#28543F"/>
<path d="M354.018 303.578C353.55 303.576 353.132 302.724 352.946 301.002L352.963 296.629C353.163 294.911 353.589 294.061 354.067 294.064C354.545 294.065 354.952 294.918 355.15 296.638L355.133 301.012C354.921 302.73 354.508 303.58 354.018 303.578Z" fill="#28543F"/>
<path d="M353.91 322.601C353.443 322.598 353.027 321.743 352.844 320.022L352.871 315.649C353.075 313.932 353.502 313.084 353.981 313.086C354.46 313.089 354.864 313.942 355.059 315.662L355.031 320.035C354.815 321.756 354.399 322.605 353.91 322.601Z" fill="#28543F"/>
<path d="M348.39 337.515C348.39 337.048 349.359 336.627 351.318 336.433H352.725L352.737 335.03C352.946 333.074 353.376 332.108 353.853 332.112C354.332 332.114 354.733 333.088 354.923 335.048L354.895 338.62H351.318C349.359 338.415 348.39 338.004 348.39 337.515Z" fill="#28543F"/>
<path d="M332.923 337.515C332.923 337.047 333.615 336.627 335.013 336.433H338.567C339.964 336.627 340.655 337.049 340.655 337.527C340.655 338.006 339.964 338.415 338.567 338.62H335.013C333.615 338.415 332.923 338.004 332.923 337.515Z" fill="#28543F"/>
<path d="M319.781 332.104C320.248 332.104 320.669 333.073 320.863 335.034V336.431H322.26C324.218 336.625 325.189 337.047 325.189 337.525C325.189 338.004 324.22 338.413 322.26 338.619H318.675V335.033C318.881 333.074 319.292 332.104 319.781 332.104Z" fill="#28543F"/>
<path d="M319.781 316.805C320.248 316.805 320.669 317.489 320.862 318.872V322.388C320.669 323.77 320.247 324.454 319.769 324.454C319.29 324.454 318.881 323.77 318.676 322.388V318.872C318.881 317.489 319.291 316.805 319.781 316.805Z" fill="#28543F"/>
<path d="M325.191 303.745C325.191 304.213 324.221 304.634 322.261 304.827H320.864V306.226C320.671 308.184 320.249 309.155 319.771 309.155C319.292 309.155 318.883 308.186 318.678 306.226V302.639H322.262C324.22 302.844 325.191 303.255 325.191 303.745Z" fill="#28543F"/>
<path d="M346.573 303.746C346.573 304.214 345.617 304.634 343.683 304.828H338.769C336.837 304.634 335.881 304.212 335.881 303.734C335.881 303.257 336.837 302.845 338.769 302.641H343.683C345.618 302.845 346.573 303.255 346.573 303.746Z" fill="#28543F"/>
<path d="M367.958 303.746C367.958 304.214 367.001 304.634 365.068 304.828H360.154C358.222 304.634 357.266 304.212 357.266 303.734C357.266 303.257 358.222 302.845 360.154 302.641H365.068C367.001 302.845 367.958 303.255 367.958 303.746Z" fill="#28543F"/>
<path d="M384.059 309.156C383.592 309.156 383.171 308.186 382.978 306.225V304.828H381.58C379.622 304.634 378.651 304.212 378.651 303.734C378.651 303.257 379.621 302.845 381.58 302.641H385.166V306.225C384.959 308.186 384.549 309.156 384.059 309.156Z" fill="#28543F"/>
<path d="M384.059 332.267C383.592 332.267 383.171 331.234 382.978 329.144V323.832C383.171 321.744 383.593 320.711 384.071 320.711C384.55 320.711 384.959 321.744 385.164 323.832V329.144C384.959 331.234 384.548 332.267 384.059 332.267Z" fill="#28543F"/>
<path d="M384.059 355.379C383.592 355.379 383.171 354.347 382.978 352.256V346.944C383.171 344.856 383.593 343.823 384.071 343.823C384.55 343.823 384.959 344.856 385.164 346.944V352.256C384.959 354.347 384.548 355.379 384.059 355.379Z" fill="#28543F"/>
<path d="M378.649 372.346C378.649 371.88 379.619 371.457 381.579 371.264H382.976V369.865C383.169 367.907 383.591 366.936 384.069 366.936C384.548 366.936 384.957 367.905 385.162 369.865V373.452H381.578C379.619 373.247 378.649 372.836 378.649 372.346Z" fill="#28543F"/>
<path d="M358.285 372.345C358.285 371.879 359.196 371.457 361.037 371.263H365.717C367.556 371.457 368.467 371.879 368.467 372.357C368.467 372.836 367.556 373.246 365.717 373.45H361.037C359.195 373.246 358.285 372.836 358.285 372.345Z" fill="#28543F"/>
<path d="M337.919 372.345C337.919 371.879 338.83 371.457 340.671 371.263H345.351C347.19 371.457 348.101 371.879 348.101 372.357C348.101 372.836 347.19 373.246 345.351 373.45H340.671C338.829 373.246 337.919 372.836 337.919 372.345Z" fill="#28543F"/>
<path d="M317.554 372.345C317.554 371.879 318.465 371.457 320.305 371.263H324.986C326.825 371.457 327.736 371.879 327.736 372.357C327.736 372.836 326.825 373.246 324.986 373.45H320.305C318.464 373.246 317.554 372.836 317.554 372.345Z" fill="#28543F"/>
<path d="M297.188 372.345C297.188 371.879 298.099 371.457 299.939 371.263H304.619C306.459 371.457 307.37 371.879 307.37 372.357C307.37 372.836 306.459 373.246 304.619 373.45H299.939C298.099 373.246 297.188 372.836 297.188 372.345Z" fill="#28543F"/>
<path d="M276.821 372.345C276.821 371.879 277.733 371.457 279.573 371.263H284.253C286.092 371.457 287.004 371.879 287.004 372.357C287.004 372.836 286.092 373.246 284.253 373.45H279.573C277.733 373.246 276.821 372.836 276.821 372.345Z" fill="#28543F"/>
<path d="M256.455 372.345C256.455 371.879 257.366 371.457 259.207 371.263H263.887C265.726 371.457 266.637 371.879 266.637 372.357C266.637 372.836 265.726 373.246 263.887 373.45H259.207C257.366 373.246 256.455 372.836 256.455 372.345Z" fill="#28543F"/>
<path d="M240.854 372.345C240.854 371.879 241.339 371.457 242.318 371.263H244.81C245.789 371.457 246.273 371.879 246.273 372.357C246.273 372.836 245.788 373.246 244.81 373.45H242.318C241.338 373.246 240.854 372.836 240.854 372.345Z" fill="#28543F"/>
<path d="M526.212 84.3273C526.225 83.8598 526.721 83.4518 527.704 83.2853L530.191 83.3524C531.165 83.5732 531.637 84.007 531.624 84.4861C531.611 84.9638 531.116 85.3615 530.132 85.5397L527.645 85.4725C526.672 85.2414 526.199 84.8179 526.212 84.3273Z" fill="#224334"/>
<path d="M503.735 83.7672C503.747 83.3011 504.763 82.9034 506.801 82.7588L511.968 82.884C513.994 83.1268 514.989 83.5735 514.977 84.0512C514.966 84.529 513.95 84.915 511.915 85.0713L506.748 84.946C504.719 84.6917 503.723 84.2578 503.735 83.7672Z" fill="#224334"/>
<path d="M481.273 83.2713C481.283 82.8039 482.295 82.4037 484.328 82.2539L489.483 82.3649C491.505 82.6025 492.499 83.0454 492.489 83.5231C492.478 84.0021 491.466 84.3908 489.436 84.5522L484.281 84.4424C482.256 84.1919 481.262 83.7607 481.273 83.2713Z" fill="#224334"/>
<path d="M458.825 82.8409C458.834 82.3735 459.846 81.9707 461.88 81.8145L467.041 81.9087C469.066 82.1398 470.062 82.5801 470.053 83.0578C470.044 83.5356 469.032 83.9281 467.001 84.0959L461.84 84.0017C459.813 83.7589 458.816 83.3303 458.825 82.8409Z" fill="#224334"/>
<path d="M436.338 82.4922C436.344 82.0248 437.356 81.6181 439.394 81.4541L444.565 81.529C446.594 81.7524 447.594 82.1888 447.588 82.6665C447.581 83.1455 446.569 83.5406 444.534 83.7162L439.363 83.6413C437.332 83.4076 436.331 82.9816 436.338 82.4922Z" fill="#224334"/>
<path d="M413.847 82.255C413.851 81.7876 414.861 81.3757 416.897 81.2001L422.066 81.2466C424.096 81.4583 425.098 81.8896 425.094 82.3686C425.09 82.8476 424.079 83.2479 422.046 83.4351L416.877 83.3886C414.844 83.1639 413.843 82.7456 413.847 82.255Z" fill="#224334"/>
<path d="M391.345 82.1862C391.343 81.7188 392.349 81.2979 394.386 81.1055L399.561 81.1081C401.595 81.303 402.601 81.7252 402.6 82.2043C402.598 82.682 401.59 83.0926 399.557 83.2966L394.388 83.294C392.354 83.0874 391.346 82.6768 391.345 82.1862Z" fill="#224334"/>
<path d="M368.851 82.447C368.839 81.9809 369.835 81.5419 371.868 81.3134L377.045 81.2256C379.083 81.3844 380.094 81.7898 380.099 82.2676C380.104 82.7466 379.103 83.174 377.076 83.4128L371.914 83.5006C369.878 83.3302 368.862 82.9377 368.851 82.447Z" fill="#224334"/>
<path d="M348.029 83.6868C348.262 83.6868 348.484 83.9386 348.673 84.4435L348.741 84.6449L348.775 84.7546L348.777 84.7624C345.743 84.7624 347.936 84.7624 347.258 84.7637V84.765L347.257 84.7624L347.253 84.7482L347.245 84.7198L347.23 84.6604C347.231 84.5132 347.134 84.6784 347.23 84.1568C347.288 83.9334 347.371 83.8159 347.438 83.7333C347.503 83.6455 347.626 83.5099 347.676 83.4738C348.224 83.0348 348.672 82.8876 349.215 82.6952C351.032 82.3117 352.748 82.1684 354.49 82.0148C356.551 82.047 357.58 82.4215 357.608 82.8953C357.637 83.377 356.656 83.834 354.668 84.1968C352.981 84.3414 351.256 84.4977 349.7 84.8295C349.259 84.8721 348.834 84.9625 348.74 84.9418C348.626 84.836 348.615 84.7211 348.502 84.641C348.456 84.5997 348.402 84.5648 348.345 84.5351C348.324 84.5183 348.324 84.508 348.305 84.499C348.29 84.4899 348.269 84.4848 348.246 84.4848H348.237H348.234C348.101 84.4848 349.389 84.4848 348.843 84.4861V84.4873L348.842 84.4912L348.838 84.5067L348.83 84.5377L348.799 84.6591L348.784 84.7185L348.776 84.7469L348.772 84.7611L348.771 84.7637V84.7624C348.1 84.7624 350.275 84.7624 347.265 84.7611L347.267 84.7533L347.301 84.6436L347.371 84.4422C347.559 83.9373 347.784 83.6868 348.029 83.6868Z" fill="#224334"/>
<path d="M348.029 61.2021C348.496 61.2021 348.917 62.208 349.11 64.2403V69.4062C348.917 71.4372 348.495 72.4418 348.017 72.4418C347.538 72.4418 347.129 71.4372 346.924 69.4062V64.2403C347.129 62.208 347.538 61.2021 348.029 61.2021Z" fill="#224334"/>
<path d="M348.029 38.6974C348.496 38.6974 348.917 39.7045 349.11 41.7394V46.9118C348.917 48.9454 348.495 49.9525 348.017 49.9525C347.538 49.9525 347.129 48.9454 346.924 46.9118V41.7394C347.129 39.7045 347.538 38.6974 348.029 38.6974Z" fill="#224334"/>
<path d="M342.598 21.9368C342.598 21.4694 343.567 21.0472 345.528 20.8535H349.112V24.4391C348.918 26.3978 348.496 27.3675 348.019 27.3675C347.54 27.3675 347.131 26.3978 346.925 24.4391V23.042H345.529C343.567 22.838 342.598 22.4274 342.598 21.9368Z" fill="#224334"/>
<path d="M320.67 21.9368C320.67 21.4694 321.651 21.0472 323.633 20.8535H328.672C330.653 21.0472 331.633 21.4694 331.633 21.9484C331.633 22.4262 330.652 22.8367 328.672 23.042H323.633C321.651 22.838 320.67 22.4274 320.67 21.9368Z" fill="#224334"/>
<path d="M298.742 21.9368C298.742 21.4694 299.723 21.0472 301.706 20.8535H306.745C308.726 21.0472 309.705 21.4694 309.705 21.9484C309.705 22.4262 308.724 22.8367 306.745 23.042H301.706C299.723 22.838 298.742 22.4274 298.742 21.9368Z" fill="#224334"/>
<path d="M276.814 21.9368C276.814 21.4694 277.795 21.0472 279.778 20.8535H284.817C286.798 21.0472 287.778 21.4694 287.778 21.9484C287.778 22.4262 286.797 22.8367 284.817 23.042H279.778C277.795 22.838 276.814 22.4274 276.814 21.9368Z" fill="#224334"/>
<path d="M254.888 21.9368C254.888 21.4694 255.869 21.0472 257.851 20.8535H262.89C264.871 21.0472 265.851 21.4694 265.851 21.9484C265.851 22.4262 264.87 22.8367 262.89 23.042H257.851C255.867 22.838 254.888 22.4274 254.888 21.9368Z" fill="#224334"/>
<path d="M232.961 21.9368C232.961 21.4694 233.942 21.0472 235.924 20.8535H240.963C242.944 21.0472 243.924 21.4694 243.924 21.9484C243.924 22.4262 242.943 22.8367 240.963 23.042H235.924C233.941 22.838 232.961 22.4274 232.961 21.9368Z" fill="#224334"/>
<path d="M211.033 21.9368C211.033 21.4694 212.014 21.0472 213.997 20.8535H219.036C221.017 21.0472 221.996 21.4694 221.996 21.9484C221.996 22.4262 221.015 22.8367 219.036 23.042H213.997C212.014 22.838 211.033 22.4274 211.033 21.9368Z" fill="#224334"/>
<path d="M189.105 21.9368C189.105 21.4694 190.086 21.0472 192.069 20.8535H197.108C199.089 21.0472 200.069 21.4694 200.069 21.9484C200.069 22.4262 199.088 22.8367 197.108 23.042H192.069C190.086 22.838 189.105 22.4274 189.105 21.9368Z" fill="#224334"/>
<path d="M167.178 21.9368C167.178 21.4694 168.159 21.0472 170.141 20.8535H175.18C177.161 21.0472 178.141 21.4694 178.141 21.9484C178.141 22.4262 177.16 22.8367 175.18 23.042H170.141C168.159 22.838 167.178 22.4274 167.178 21.9368Z" fill="#224334"/>
<path d="M145.25 21.9368C145.25 21.4694 146.231 21.0472 148.213 20.8535H153.252C155.234 21.0472 156.213 21.4694 156.213 21.9484C156.213 22.4262 155.232 22.8367 153.252 23.042H148.213C146.231 22.838 145.25 22.4274 145.25 21.9368Z" fill="#224334"/>
<path d="M123.322 21.9368C123.322 21.4694 124.303 21.0472 126.286 20.8535H131.325C133.306 21.0472 134.285 21.4694 134.285 21.9484C134.285 22.4262 133.305 22.8367 131.325 23.042H126.286C124.303 22.838 123.322 22.4274 123.322 21.9368Z" fill="#224334"/>
<path d="M101.396 21.9368C101.396 21.4694 102.376 21.0472 104.359 20.8535H109.398C111.379 21.0472 112.359 21.4694 112.359 21.9484C112.359 22.4262 111.378 22.8367 109.398 23.042H104.359C102.375 22.838 101.396 22.4274 101.396 21.9368Z" fill="#224334"/>
<path d="M79.4678 21.9368C79.4678 21.4694 80.4487 21.0472 82.4312 20.8535H87.4701C89.4513 21.0472 90.431 21.4694 90.431 21.9484C90.431 22.4262 89.45 22.8367 87.4701 23.042H82.4312C80.4474 22.838 79.4678 22.4274 79.4678 21.9368Z" fill="#224334"/>
<path d="M63.084 21.9368C63.084 21.4694 63.5693 21.0472 64.5489 20.8535H67.04C68.0196 21.0472 68.5036 21.4694 68.5036 21.9484C68.5036 22.4262 68.0183 22.8367 67.04 23.042H64.5489C63.5693 22.838 63.084 22.4274 63.084 21.9368Z" fill="#224334"/>
<path d="M401.604 91.125V265.113C401.604 270.623 397.144 275.085 391.637 275.085H161.027C155.531 275.085 151.07 270.623 151.07 265.113V91.125H401.604Z" fill="white" stroke="#BFDBC9"/>
<path d="M150.57 76.6833V90.624H402.104V76.6833C402.104 70.8976 397.42 66.2119 391.636 66.2119H161.029C155.256 66.2119 150.57 70.8988 150.57 76.6833Z" fill="#BFDBC9"/>
<path d="M166.3 83.3388C168.641 83.3388 170.539 81.4404 170.539 79.0986C170.539 76.7568 168.641 74.8584 166.3 74.8584C163.959 74.8584 162.062 76.7568 162.062 79.0986C162.062 81.4404 163.959 83.3388 166.3 83.3388Z" fill="white"/>
<path d="M178.781 83.3388C181.122 83.3388 183.019 81.4404 183.019 79.0986C183.019 76.7568 181.122 74.8584 178.781 74.8584C176.44 74.8584 174.542 76.7568 174.542 79.0986C174.542 81.4404 176.44 83.3388 178.781 83.3388Z" fill="white"/>
<path d="M191.263 83.3388C193.604 83.3388 195.502 81.4404 195.502 79.0986C195.502 76.7568 193.604 74.8584 191.263 74.8584C188.922 74.8584 187.024 76.7568 187.024 79.0986C187.024 81.4404 188.922 83.3388 191.263 83.3388Z" fill="white"/>
<path d="M338.565 171.8L338.472 183.955C338.458 185.887 337.216 187.595 335.383 188.206L328.833 190.387C327.394 190.866 326.328 192.049 325.912 193.508C324.665 197.881 322.901 202.033 320.696 205.901C319.949 207.212 319.85 208.79 320.503 210.149L323.489 216.364C324.326 218.104 323.963 220.183 322.589 221.537L313.93 230.068C312.556 231.423 310.471 231.753 308.746 230.891L302.571 227.805C301.226 227.132 299.653 227.204 298.335 227.926C294.433 230.062 290.254 231.779 285.862 232.966C284.398 233.361 283.202 234.408 282.701 235.838L280.42 242.359C279.783 244.182 278.056 245.398 276.125 245.383L263.997 245.291C262.07 245.277 260.365 244.04 259.752 242.212L257.548 235.638C257.066 234.205 255.888 233.145 254.435 232.728C250.068 231.477 245.937 229.695 242.076 227.485C240.762 226.733 239.178 226.634 237.815 227.293L231.612 230.294C229.871 231.136 227.788 230.776 226.432 229.398L217.906 220.74C216.554 219.366 216.222 217.283 217.082 215.557L220.17 209.355C220.843 208.005 220.767 206.427 220.037 205.106C217.883 201.202 216.16 197.021 214.957 192.641C214.558 191.189 213.516 190.002 212.094 189.504L205.587 187.221C203.766 186.582 202.552 184.855 202.567 182.925L202.659 170.768C202.674 168.836 203.915 167.128 205.748 166.517L212.313 164.331C213.744 163.855 214.808 162.682 215.227 161.234C216.492 156.876 218.259 152.723 220.465 148.854C221.212 147.543 221.313 145.965 220.658 144.606L217.672 138.392C216.835 136.651 217.198 134.572 218.572 133.218L227.232 124.687C228.606 123.333 230.691 123.002 232.416 123.865L238.572 126.941C239.927 127.619 241.513 127.538 242.838 126.802C246.737 124.635 250.901 122.929 255.29 121.73C256.742 121.334 257.93 120.295 258.43 118.874L260.736 112.35C261.377 110.533 263.1 109.325 265.026 109.339L277.16 109.431C279.089 109.445 280.796 110.686 281.408 112.517L283.589 119.055C284.066 120.487 285.24 121.55 286.689 121.969C291.068 123.235 295.227 125.005 299.1 127.215C300.408 127.961 301.98 128.062 303.338 127.414L309.558 124.44C311.295 123.61 313.369 123.973 314.72 125.346L323.248 134.007C324.605 135.384 324.934 137.475 324.065 139.202L320.975 145.353C320.294 146.711 320.372 148.3 321.108 149.629C323.267 153.525 324.969 157.694 326.148 162.062C326.543 163.525 327.59 164.721 329.02 165.222L335.539 167.503C337.364 168.143 338.58 169.869 338.565 171.8Z" fill="#28543F"/>
<path d="M270.567 218.754C293.418 218.754 311.942 200.223 311.942 177.364C311.942 154.505 293.418 135.974 270.567 135.974C247.716 135.974 229.192 154.505 229.192 177.364C229.192 200.223 247.716 218.754 270.567 218.754Z" fill="#F3F6FD"/>
<path d="M333.452 256.87C329.001 256.87 324.816 255.136 321.67 251.987L282.856 213.159C280.039 213.908 277.143 214.288 274.216 214.288C266.092 214.288 258.296 211.371 252.265 206.076C243.652 198.525 239.527 187.261 241.233 175.948L243.098 163.577L264.676 176.62L269.904 171.391L256.856 149.794L269.239 147.938C270.874 147.693 272.544 147.569 274.204 147.569C283.123 147.569 291.505 151.042 297.81 157.35C306.242 165.785 309.496 178.201 306.443 189.609L345.235 228.415C348.379 231.559 350.11 235.745 350.11 240.201C350.11 244.657 348.379 248.843 345.235 251.987C342.088 255.136 337.904 256.87 333.452 256.87Z" fill="#F3F6FD"/>
<path d="M291.906 163.254C299.614 170.965 301.247 182.454 296.785 191.758L339.333 234.321C342.58 237.57 342.58 242.837 339.333 246.085C336.085 249.334 330.821 249.334 327.573 246.085L285.018 203.514C276.214 207.701 265.36 206.463 257.77 199.801C251.014 193.879 248.264 185.293 249.486 177.195L264.147 186.057C265.203 186.704 266.567 186.538 267.45 185.655L278.935 174.166C279.817 173.283 279.983 171.919 279.337 170.862L270.478 156.195C278.057 155.062 286.066 157.412 291.906 163.254Z" fill="#65A282"/>
<path d="M29.3428 451.843C30.6748 453.255 33.0535 455.084 36.5023 455.084C42.748 455.11 42.3814 450.693 43.4269 448.471V448.445C43.4527 448.262 43.4785 446.329 43.5056 444.184C43.5585 442.067 43.6101 439.714 43.6618 438.617C39.2192 438.721 33.6279 438.094 29.3944 436.996V451.53L29.3428 451.843Z" fill="#FEC9AC"/>
<g opacity="0.5">
<path d="M29.3955 436.997V440.447C29.8395 440.866 30.3364 441.231 30.8592 441.571C31.4864 441.989 32.1395 442.354 32.8443 442.668C35.2746 443.767 37.9399 444.184 40.6052 444.237C41.5719 444.263 42.5387 444.237 43.5054 444.184C43.5583 442.066 43.61 439.714 43.6616 438.616C39.2203 438.722 33.629 438.095 29.3955 436.997Z" fill="#FFAB90"/>
</g>
<path d="M25.0824 460.746C25.4128 461.499 26.151 462 26.9835 462H67.5024C67.9245 462 68.2807 461.657 68.2807 461.235C68.2807 459.716 67.8457 458.264 67.0662 457.023C66.2879 455.795 65.1921 454.726 63.793 454.118C56.6528 450.989 48.9048 441.694 43.8891 444.479C43.5329 444.678 43.2954 444.994 43.0966 445.391C43.0966 445.404 43.0966 445.416 43.0966 445.416C42.1196 447.476 42.4629 451.596 36.656 451.569C33.4616 451.556 31.7966 449.834 30.5562 448.527C29.7508 447.681 29.2874 446.971 28.8034 447.014C28.4962 447.042 21.5846 452.573 25.0824 460.746Z" fill="#2E363A"/>
<path d="M69.4434 451.843C70.7754 453.255 73.1541 455.084 76.6029 455.084C82.8485 455.11 82.482 450.693 83.5275 448.471V448.445C83.5533 448.262 83.5791 446.329 83.6062 444.184C83.6591 442.067 83.7107 439.714 83.7624 438.617C79.3198 438.721 73.7285 438.094 69.495 436.996V451.53L69.4434 451.843Z" fill="#FEC9AC"/>
<g opacity="0.5">
<path d="M69.4961 436.997V440.447C69.9401 440.866 70.437 441.231 70.9597 441.571C71.587 441.989 72.2401 442.354 72.9461 442.668C75.3765 443.767 78.0418 444.184 80.7071 444.237C81.6738 444.263 82.6406 444.237 83.6073 444.184C83.6602 442.066 83.7118 439.714 83.7635 438.616C79.3209 438.722 73.7296 438.095 69.4961 436.997Z" fill="#FFAB90"/>
</g>
<path d="M65.1829 460.746C65.5134 461.499 66.2516 462 67.0841 462H107.603C108.025 462 108.381 461.657 108.381 461.235C108.381 459.716 107.946 458.264 107.167 457.023C106.388 455.795 105.293 454.726 103.894 454.118C96.7534 450.989 89.0053 441.694 83.9897 444.479C83.6335 444.678 83.396 444.994 83.1972 445.391C83.1972 445.404 83.1972 445.416 83.1972 445.416C82.2202 447.476 82.5635 451.596 76.7566 451.569C73.5621 451.556 71.8971 449.834 70.6568 448.527C69.8514 447.681 69.388 446.971 68.904 447.014C68.5968 447.042 61.6851 452.573 65.1829 460.746Z" fill="#3A4146"/>
<path d="M32.3243 253.891V268.812C32.3243 268.812 4.39621 264.308 0.587357 250.847C-1.31771 244.189 1.72575 237.385 5.3126 232.188C5.8818 231.396 6.451 230.628 7.0189 229.91V229.886C10.185 225.852 13.2026 223.254 13.2026 223.254L20.8707 228.846C20.8707 228.846 29.5532 237.508 28.6381 239.808C28.2418 240.823 27.2777 242.481 26.3381 244.015C25.1016 246.045 23.8638 247.876 23.8638 247.876L32.3243 253.891Z" fill="#FEC9AC"/>
<g opacity="0.5">
<path d="M28.6377 239.809C28.2415 240.824 27.2773 242.482 26.3377 244.016C20.9207 243.867 7.01855 233.994 7.01855 229.911V229.887C10.1846 225.853 13.2023 223.255 13.2023 223.255L20.8703 228.847C20.8703 228.847 29.5528 237.508 28.6377 239.809Z" fill="#FFAB90"/>
</g>
<path d="M157.098 196.926C157.098 196.926 155.044 208.036 151.185 220.731C146.436 236.396 138.94 254.485 129.17 257.207C124.321 258.543 117.716 253.742 113.141 249.585C109.95 246.715 107.724 244.141 107.724 244.141L119.474 223.998L121.997 219.643C122.492 219.964 126.499 223.33 127.935 224.543C128.256 224.815 128.455 224.988 128.455 224.988C128.455 224.988 145.795 194.056 145.795 193.659C145.795 193.263 143.717 180.272 146.785 180.667C149.878 181.063 150.472 186.111 150.472 186.111C150.472 186.111 156.507 169.952 160.465 170.942C164.325 171.907 155.988 183.043 155.543 183.613C161.65 180.494 166.077 192.768 157.098 196.926Z" fill="#FEC9AC"/>
<g opacity="0.5">
<path d="M127.933 224.542C127.513 225.506 126.746 226.372 126.227 227.263C125.436 228.624 124.867 230.109 124.421 231.62C123.655 234.193 123.234 236.866 122.541 239.464C121.823 242.061 120.76 244.66 118.954 246.64C117.445 248.273 115.318 249.461 113.141 249.585C109.95 246.715 107.724 244.141 107.724 244.141L119.474 223.998L121.997 219.643C122.491 219.964 126.498 223.329 127.933 224.542Z" fill="#FFAB90"/>
</g>
<path d="M108.51 248.002L95.127 236.616C95.127 236.616 95.1464 236.695 95.1864 236.832C95.6962 240.149 101.721 268.143 100.916 274.915C99.7581 285.3 32.9399 284.553 27.8972 277.624C24.6588 273.168 29.486 244.781 29.486 244.781C22.4608 245.272 6.90012 223.757 10.314 218.496C10.314 218.496 16.0641 208.819 26.3458 199.729C34.8231 192.23 46.3813 185.104 60.2743 184.201C95.7737 181.885 122.383 216.866 122.383 216.866C122.54 217.023 122.696 217.22 122.814 217.455C125.817 223.189 113.318 249.925 108.51 248.002Z" fill="#182F25"/>
<path d="M96.4674 276.014C96.4674 276.014 96.4674 278.933 96.4183 283.933C85.7068 290.243 43.1848 290.07 29.7021 285.788C30.3204 278.142 30.8405 272.92 31.211 271.46C33.24 263.122 96.4674 276.014 96.4674 276.014Z" fill="#022E4F"/>
<path d="M96.4667 276.014C96.4667 276.014 96.4667 278.933 96.4176 283.932V284.254C96.2692 309.642 95.651 409.896 93.7704 436.349C93.7704 439.517 80.5859 440.556 71.9279 439.467C67.6738 438.948 64.5322 437.883 64.5322 436.349C63.3203 410.589 62.3303 317.636 62.3303 317.636C62.3303 317.636 62.3303 317.71 62.3058 317.833C62.3058 317.858 62.3058 317.858 62.3058 317.882C61.9599 322.288 56.1221 411.231 52.0396 436.348C52.0396 437.857 47.8835 438.797 42.8124 439.145C34.7726 439.664 24.3593 438.748 24.3593 436.348C23.3448 422.49 25.4228 350.422 27.6247 315.63C28.3178 304.222 29.06 293.829 29.7028 285.786C30.321 278.14 30.8412 272.919 31.2116 271.458C33.2393 263.121 96.4667 276.014 96.4667 276.014Z" fill="#182F25"/>
<path d="M96.4663 276.014C96.4663 276.014 96.4663 278.933 96.4172 283.933V284.254C90.1096 288.609 82.5151 291.108 74.8716 291.134C65.5708 291.134 55.6751 287.818 47.2894 291.876C37.9383 296.38 34.6238 308.035 27.623 315.632C28.3162 304.223 29.0583 293.831 29.7011 285.788C30.3193 278.142 30.8395 272.92 31.2099 271.46C33.2389 263.122 96.4663 276.014 96.4663 276.014Z" fill="#1C4533"/>
<path d="M62.3049 317.883C61.959 322.289 56.1212 411.232 52.0387 436.349C52.0387 437.858 47.8827 438.798 42.8115 439.146C51.5444 411.48 61.6131 322.387 62.3049 317.883Z" fill="#1C4533"/>
<path d="M71.9277 439.468C67.6736 438.949 64.532 437.884 64.532 436.35C63.32 410.59 62.3301 317.636 62.3301 317.636C62.3301 317.636 69.5528 411.06 71.9277 439.468Z" fill="#1C4533"/>
<path d="M79.1851 186.318L78.2829 171.139C78.2829 171.139 88.3542 173.055 89.3558 167.693C90.2283 163.02 89.3558 159.487 89.3558 159.487C89.3558 159.487 92.9646 156.861 92.3089 155.795C91.6532 154.728 85.9935 151.529 85.9935 151.529C85.9935 151.529 85.9935 132.821 74.101 134.379C62.2085 135.938 58.7637 159.077 58.7637 159.077L61.4703 170.564L60.4855 186.318C60.4855 187.675 79.1851 187.675 79.1851 186.318Z" fill="#FEC9AC"/>
<path d="M81.6257 139.217C79.8949 140.33 78.5332 141.667 77.4207 143.103C73.5124 148.225 73.1407 154.485 73.6854 155.228C74.3785 156.194 68.9847 163.964 68.9847 163.964C68.9847 163.964 70.1231 169.706 74.3527 173.318C76.1338 174.852 77.1728 177.971 76.4307 181.162C76.0099 182.969 75.0458 184.799 73.2891 186.359C70.8652 188.611 66.9312 190.318 61.0443 190.763C43.5063 192.075 28.4413 188.487 27.6488 178.044C26.8576 167.626 36.6772 163.321 38.6068 150.453C39.4225 144.935 42.0943 139.292 46.1767 134.813C47.1667 133.725 48.2302 132.71 49.3673 131.77C54.5121 127.539 61.2159 125.039 68.8349 125.906C78.8533 127.02 83.2314 130.632 83.9735 133.973C84.4459 136.05 83.4805 138.03 81.6257 139.217Z" fill="#0F1F18"/>
<path d="M89.4152 162.191C89.5288 162.251 89.3856 162.909 88.3414 163.534C87.4134 163.986 86.3356 163.969 85.4076 163.694C84.2499 163.287 84.0356 162.535 84.1789 162.493C84.326 162.393 84.6526 162.792 85.6103 162.994C86.4234 163.233 87.2933 163.232 88.0239 162.878C88.9119 162.495 89.272 162.078 89.4152 162.191Z" fill="#4F2D2B"/>
<path d="M83.6397 152.312C84.1118 152.27 84.4321 151.539 84.3551 150.679C84.2781 149.82 83.8329 149.158 83.3607 149.2C82.8886 149.242 82.5683 149.973 82.6453 150.833C82.7223 151.692 83.1675 152.354 83.6397 152.312Z" fill="#4F2D2B"/>
<path d="M80.9343 147.169C80.8052 147.148 80.7149 146.537 81.3357 145.588C81.9101 144.837 82.7516 144.284 83.6706 144.057C84.787 143.866 85.3111 144.191 85.2788 144.322C85.2569 144.499 84.7419 144.482 83.8513 144.763C83.0833 144.954 82.3941 145.406 81.9127 146.035C81.2983 146.74 81.1098 147.22 80.9343 147.169Z" fill="#4F2D2B"/>
<path d="M100.92 274.925C99.7571 285.293 32.9428 284.55 27.8962 277.622C24.6553 273.169 29.4799 244.785 29.4799 244.785C22.4546 245.281 6.89527 223.751 10.3092 218.505C10.3092 218.505 16.0734 208.829 26.3383 199.722C31.4585 206.874 36.802 213.902 43.0116 220.112C50.0614 227.19 58.3244 233.228 67.6987 236.667C77.0744 240.083 85.7814 240.281 95.1816 236.84C95.7004 240.157 101.711 268.145 100.92 274.925Z" fill="#65A282"/>
<path d="M75.0165 159.722C75.548 156.878 73.7289 154.151 70.9534 153.632C68.1778 153.113 65.4969 154.998 64.9654 157.842C64.4338 160.685 66.2529 163.412 69.0285 163.931C71.804 164.45 74.4849 162.565 75.0165 159.722Z" fill="#FEC9AC"/>
<path d="M73.2882 186.36C70.8642 188.611 66.9302 190.318 61.0433 190.764C43.5053 192.076 28.4403 188.487 27.6478 178.045C26.8566 167.626 36.6762 163.321 38.6058 150.454C39.4215 144.935 42.0933 139.293 46.1758 134.814C47.0663 136.175 46.572 139.244 46.5217 140.505C46.2003 146.024 44.6669 151.492 42.0688 156.392C40.5845 159.188 38.7297 161.811 36.5768 164.137C33.98 166.884 30.7635 169.755 30.7635 173.541C30.7881 176.956 33.5347 179.753 36.3794 181.633C42.7619 185.841 50.5293 187.523 58.1483 187.647C63.2207 187.721 68.266 187.176 73.2882 186.36Z" fill="#171B26"/>
<path d="M71.5503 160.391C71.5916 160.444 71.4574 160.677 70.9915 160.869C70.5488 161.056 69.6762 161.134 68.8128 160.554C68.1377 160.075 67.5427 159.249 67.6344 158.3C67.7273 157.392 68.21 156.679 68.7728 156.08C69.4878 155.344 70.4778 155.285 70.9218 155.556C71.4032 155.809 71.4419 156.127 71.3825 156.15C71.3103 156.204 71.1515 156.034 70.7785 155.966C70.4042 155.892 69.8285 155.982 69.2903 156.595C68.8166 157.09 68.4139 157.733 68.361 158.36C68.29 158.974 68.6953 159.569 69.2361 159.961C70.5694 160.904 71.5064 160.187 71.5503 160.391Z" fill="#FFAB90"/>
<path d="M491.509 450.174L500.829 456.57L506.247 454.185C506.247 454.185 506.383 449.713 506.491 443.073C506.545 438.058 506.627 433.587 506.627 433.316C506.627 432.638 492.701 433.452 492.051 433.669C491.78 433.75 491.644 436.812 491.59 440.499C491.455 445.972 491.509 449.685 491.509 450.174Z" fill="#FEC9AC"/>
<g opacity="0.5">
<path d="M491.591 440.498C495.764 442.476 500.396 443.425 505.002 443.208C505.49 443.181 506.005 443.154 506.492 443.072C506.546 438.058 506.627 433.586 506.627 433.315C506.627 432.637 492.702 433.451 492.052 433.668C491.781 433.749 491.645 436.812 491.591 440.498Z" fill="#FFAB90"/>
</g>
<path d="M486.85 460.569C486.975 461.411 487.709 462.002 488.569 462.002H530.54C531.274 462.002 531.918 461.554 532.187 460.874C532.814 459.172 533.655 456.02 531.703 454.676C528.981 452.813 523.215 454.533 519.241 451.721C515.284 448.927 510.539 439.415 504.845 445.881C504.845 445.881 500.261 452.902 497.146 451.415C494.03 449.929 491.703 442.244 487.96 445.181C486.079 446.668 486.24 456.95 486.85 460.569Z" fill="#3A4146"/>
<path d="M464.026 450.173L454.706 456.57L449.288 454.185C449.288 454.185 449.152 449.712 449.044 443.073C448.99 438.058 448.908 433.587 448.908 433.316C448.908 432.638 462.834 433.451 463.484 433.668C463.755 433.75 463.891 436.812 463.945 440.499C464.079 445.972 464.026 449.685 464.026 450.173Z" fill="#FEC9AC"/>
<g opacity="0.5">
<path d="M463.945 440.498C459.772 442.476 455.14 443.425 450.533 443.208C450.045 443.181 449.53 443.154 449.044 443.072C448.99 438.057 448.908 433.586 448.908 433.315C448.908 432.637 462.834 433.45 463.484 433.667C463.755 433.749 463.891 436.811 463.945 440.498Z" fill="#FFAB90"/>
</g>
<path d="M468.685 460.569C468.56 461.411 467.826 462.002 466.966 462.002H424.995C424.261 462.002 423.617 461.554 423.348 460.874C422.721 459.172 421.879 456.02 423.832 454.676C426.554 452.813 432.32 454.533 436.294 451.72C440.251 448.926 444.996 439.414 450.69 445.881C450.69 445.881 455.274 452.902 458.389 451.414C461.505 449.928 463.832 442.243 467.575 445.181C469.455 446.668 469.293 456.95 468.685 460.569Z" fill="#3A4146"/>
<path d="M518.558 281.006L518.438 289.456L516.131 440.126C516.131 440.126 502.145 440.755 493.1 439.826C489.267 439.438 486.332 438.778 485.703 437.669C483.517 433.984 482.229 334.217 482.229 334.217C482.229 334.217 469.2 440.335 467.134 440.335C466.474 440.814 463.151 440.394 459.077 439.586C451.531 438.088 441.408 435.241 441.317 434.343L444.192 322.202L445.551 278.042L518.558 281.006Z" fill="#182F25"/>
<path d="M518.558 281.006L518.438 289.456C517.479 289.485 516.521 289.605 515.593 289.726C512.717 290.115 509.902 290.894 507.117 291.763C484.775 298.595 463.481 308.93 444.194 322.202L445.553 278.042L518.558 281.006Z" fill="#65A282"/>
<path d="M493.101 439.825C489.268 439.436 486.333 438.776 485.704 437.667C483.518 433.982 482.23 334.215 482.23 334.215C482.23 334.215 469.201 440.333 467.135 440.333C466.475 440.812 463.152 440.301 458.921 439.554L483.456 313.244L493.101 439.825Z" fill="#1C4533"/>
<path d="M444.482 231.348L444.017 239.709C444.017 239.709 444.017 239.743 443.983 239.776C443.45 241.341 434.255 267.502 413.348 262.427C395.885 258.19 394.904 193.221 394.904 193.221C394.904 193.221 390.272 192.342 387.674 187.378C385.043 182.415 392.169 178.451 392.169 178.451C392.169 178.451 382.579 171.856 386.675 167.892C390.571 164.128 397.597 174.987 398.429 176.286C398.195 175.653 397.331 172.921 400.294 172.322C403.691 171.589 402.459 191.342 402.459 191.342L419.341 224.421L426.067 219.824H426.1C428.931 223.553 435.359 229.415 444.482 231.348Z" fill="#FEC9AC"/>
<path d="M424.494 216.817C424.474 217.3 424.996 218.381 426.076 219.829H426.095C428.934 223.557 435.361 229.407 444.474 231.339L444.01 239.701C444.01 239.701 444.01 239.739 443.991 239.778L443.508 248.198L442.775 260.923L441.617 281.452C441.251 290.412 518.912 290.141 519.279 281.182L519.162 280.216L516.498 255.865L514.104 233.907C514.201 233.926 514.317 233.946 514.413 233.946C524.644 235.336 535.358 231.919 540.049 227.109C540.647 226.587 541.111 226.008 541.477 225.41C541.477 225.41 540.647 219.056 536.69 211.081C536.149 209.96 535.513 208.821 534.837 207.663C534.393 206.91 533.929 206.137 533.427 205.365C533.427 205.326 533.427 205.326 533.427 205.326C526.073 194.067 512.27 181.921 486.633 180.009C435.865 176.224 424.494 216.817 424.494 216.817Z" fill="#94C1A7"/>
<path d="M510.707 219.346L514.414 233.946C524.645 235.336 535.359 231.918 540.05 227.109C540.649 226.587 541.112 226.008 541.479 225.41C541.479 225.41 540.649 219.056 536.691 211.08C536.151 209.96 535.514 208.821 534.838 207.663C534.452 207.005 534.047 206.369 533.622 205.712C533.39 206.408 529.529 217.608 510.707 219.346Z" fill="#458464"/>
<path d="M519.272 281.18C518.905 290.141 441.252 290.407 441.618 281.446L442.784 260.927L443.517 248.203L443.983 239.775C444.016 239.742 444.016 239.708 444.016 239.708L444.482 231.346C435.358 229.415 428.932 223.552 426.101 219.82H426.068C425.002 218.388 424.47 217.288 424.503 216.822C424.503 216.822 435.858 223.784 449.112 222.785C449.112 222.785 460.434 268.821 516.51 255.863L519.174 280.213L519.272 281.18Z" fill="#458464"/>
<path d="M464.915 264.102H397.218C396.219 264.102 395.353 263.436 395.121 262.47L394.356 259.305L384.133 217.367C383.8 216.001 384.833 214.702 386.231 214.702H453.928C454.56 214.702 455.16 214.968 455.493 215.435C455.793 215.701 455.959 216.002 456.026 216.334L467.015 261.437C467.347 262.803 466.314 264.102 464.915 264.102Z" fill="#4A5258"/>
<path d="M464.915 263.812H397.218C396.219 263.812 395.353 263.146 395.121 262.18L394.355 259.015C404.744 256.917 414.867 253.852 424.225 248.956C438.144 241.661 450.265 229.835 455.493 215.145C455.793 215.411 455.959 215.712 456.026 216.044L467.015 261.147C467.347 262.513 466.314 263.812 464.915 263.812Z" fill="#2E363A"/>
<path d="M426.286 242.283C428.074 241.765 428.914 239.242 428.163 236.647C427.411 234.053 425.353 232.37 423.565 232.888C421.777 233.406 420.937 235.929 421.689 238.524C422.44 241.118 424.499 242.801 426.286 242.283Z" fill="#2E363A"/>
<path d="M533.724 278.05C530.594 280.115 525.399 280.681 519.173 280.215C495.363 278.583 475.831 264.819 475.831 264.819C475.831 264.819 452.091 270.948 450.766 256.002C449.88 246.023 464.333 250.048 464.333 250.048L462.719 243.423C462.719 243.423 466.23 241.73 470.991 248.26C471.124 248.46 471.257 248.66 471.391 248.859C476.352 256.087 516.608 256.497 516.542 256.131C516.542 256.097 516.509 255.865 516.475 255.498C516.442 255.264 516.408 254.931 516.376 254.566C516.309 253.999 516.243 253.301 516.142 252.5C516.075 252 516.043 251.435 515.976 250.834C515.908 250.301 515.843 249.801 515.776 249.236C515.076 242.706 514.111 233.912 514.111 233.912C524.434 235.411 535.322 231.981 540.051 227.117H540.118C540.117 227.117 546.876 269.388 533.724 278.05Z" fill="#FEC9AC"/>
<path d="M514.11 233.912C512.764 230.224 511.732 226.459 510.774 222.676C509.856 218.883 509.013 215.071 508.489 211.18C509.838 214.866 510.871 218.631 511.826 222.415C512.741 226.21 513.582 230.023 514.11 233.912Z" fill="#CE6313"/>
<path d="M466.828 180.937C467.002 189.356 491.074 188.854 490.92 180.435C489.357 177.248 488.392 173.966 487.967 170.624C487.774 169.292 487.678 167.959 487.678 166.607H470.517C470.286 168.751 470.034 170.799 469.687 172.671C469.048 176.224 468.179 179.16 466.828 180.937Z" fill="#FEC9AC"/>
<g opacity="0.5">
<path d="M469.686 172.671C471.056 173.714 472.677 174.428 474.57 174.698C480.419 175.528 484.84 173.366 487.967 170.623C487.773 169.291 487.678 167.958 487.678 166.606H470.517C470.283 168.751 470.033 170.798 469.686 172.671Z" fill="#FFAB90"/>
</g>
<path d="M493.039 160.42C493.039 160.42 501.553 154.871 497.553 149.322C493.555 143.772 489.345 152.214 489.345 152.214L486.331 133.254L470.527 131.642L460.774 145.687C460.778 145.426 460.079 170.707 473.624 172.615C487.163 174.524 493.039 160.42 493.039 160.42Z" fill="#FEC9AC"/>
<path d="M501.849 147.316C501.548 146.207 500.864 145.175 500.892 144.026C500.965 141.036 505.598 139.534 505.318 136.557C505.154 134.812 503.36 133.77 501.797 132.98C500.234 132.191 498.474 131.028 498.474 129.276C498.472 127.863 499.682 126.586 499.425 125.197C499.175 123.846 497.636 123.121 496.264 123.082C494.892 123.043 493.535 123.466 492.165 123.406C490.136 123.317 488.303 122.19 486.695 120.948C485.087 119.706 483.567 118.294 481.71 117.469C479.854 116.644 477.513 116.523 475.927 117.793C474.458 118.97 473.807 121.165 472.025 121.766C470.867 122.158 469.616 121.725 468.431 121.428C467.247 121.131 465.829 121.029 464.961 121.89C463.817 123.024 464.371 125.011 463.678 126.465C462.924 128.047 460.98 128.555 459.32 129.113C457.661 129.671 455.808 130.867 455.941 132.613C456.094 134.613 458.818 135.844 458.614 137.839C458.523 138.732 457.848 139.436 457.38 140.204C456.432 141.768 456.455 143.795 457.226 145.424C457.928 146.911 459.603 148.912 461.228 147.388C461.756 146.892 462.082 146.226 462.422 145.586C463.617 143.335 465.112 141.245 466.855 139.388C467.572 138.625 468.366 137.879 469.361 137.552C472.285 136.593 473.561 140.301 475.81 141.192C477.178 141.734 478.663 140.922 479.995 140.296C481.327 139.67 483.14 139.311 484.082 140.442C484.765 141.263 484.621 142.484 484.294 143.502C483.968 144.519 483.493 145.547 483.635 146.606C483.836 148.102 485.187 149.146 486.478 149.928C487.769 150.71 489.203 151.507 489.787 152.899C489.649 152.571 491.073 151.639 491.31 151.511C491.918 151.18 492.609 150.988 493.302 150.976C495.207 150.944 495.897 152.234 497.317 153.125C498.574 153.914 500.108 152.78 500.914 151.778C501.9 150.548 502.262 148.838 501.849 147.316Z" fill="#2E363A"/>
<path d="M459.16 152.259C459.11 155.769 461.735 158.733 465.015 158.862C465.089 158.864 465.163 158.867 465.238 158.867C466.674 158.867 468.042 158.316 469.112 157.302C470.335 156.144 471.047 154.472 471.073 152.711C471.076 152.527 471.042 152.354 471.03 152.176C471.789 152.004 472.538 152.257 472.894 152.432C472.831 152.785 472.779 153.142 472.774 153.506C472.724 157.017 475.349 159.98 478.627 160.109C478.702 160.112 478.776 160.114 478.851 160.114C480.287 160.114 481.655 159.564 482.725 158.549C483.948 157.392 484.66 155.719 484.689 153.957C484.739 150.446 482.114 147.483 478.835 147.354C477.335 147.293 475.86 147.847 474.736 148.915C473.96 149.649 473.418 150.603 473.098 151.644C472.621 151.428 471.819 151.175 470.95 151.343C470.407 148.461 468.063 146.219 465.222 146.106C463.717 146.039 462.249 146.599 461.126 147.666C459.901 148.823 459.187 150.497 459.16 152.259ZM473.574 153.518C473.596 151.971 474.22 150.507 475.283 149.496C476.204 148.624 477.379 148.149 478.612 148.149C478.674 148.149 478.737 148.151 478.802 148.153C481.65 148.265 483.931 150.863 483.885 153.944C483.863 155.492 483.238 156.957 482.172 157.966C481.206 158.881 479.992 159.35 478.657 159.307C475.809 159.196 473.528 156.598 473.574 153.518ZM459.961 152.27C459.983 150.722 460.608 149.257 461.674 148.248C462.593 147.377 463.768 146.903 464.999 146.903C465.061 146.903 465.124 146.905 465.189 146.907C468.037 147.019 470.318 149.617 470.272 152.698C470.25 154.244 469.626 155.71 468.561 156.72C467.596 157.636 466.384 158.096 465.047 158.062C462.196 157.95 459.915 155.352 459.961 152.27Z" fill="#F3F6FD"/>
<path d="M476.568 156.135C477.289 156.135 477.874 155.318 477.874 154.309C477.874 153.301 477.289 152.484 476.568 152.484C475.847 152.484 475.262 153.301 475.262 154.309C475.262 155.318 475.847 156.135 476.568 156.135Z" fill="#4F2D2B"/>
<path d="M465.923 155.311C466.645 155.311 467.23 154.493 467.23 153.485C467.23 152.477 466.645 151.659 465.923 151.659C465.202 151.659 464.617 152.477 464.617 153.485C464.617 154.493 465.202 155.311 465.923 155.311Z" fill="#4F2D2B"/>
<path d="M480.316 151.37C480.191 151.479 479.85 151.223 479.247 150.784C478.767 150.377 478.205 150.116 477.626 150.136C476.951 150.093 476.614 150.295 476.5 150.159C476.388 150.082 476.639 149.526 477.608 149.408C478.409 149.381 479.162 149.752 479.714 150.225C480.324 150.85 480.429 151.273 480.316 151.37Z" fill="#4F2D2B"/>
<path d="M463.517 148.508C463.442 148.402 463.778 147.941 464.79 147.769C465.639 147.697 466.511 147.907 467.229 148.387C468.11 149.019 467.965 149.839 467.783 149.76C467.612 149.745 467.549 149.379 466.822 148.993C466.254 148.612 465.539 148.435 464.85 148.496C464.029 148.506 463.603 148.669 463.517 148.508Z" fill="#4F2D2B"/>
<path d="M471.998 162.066C472.136 162.147 471.134 162.861 469.945 161.482C469.66 160.697 469.929 160.14 470.018 159.578C470.151 159.011 470.319 158.462 470.479 157.921C470.93 156.671 471.163 156.068 471.325 156.092C471.48 156.112 471.508 156.822 471.179 158.129C471.017 158.674 470.855 159.21 470.728 159.746C470.613 160.27 470.46 160.878 470.607 161.176C470.753 161.538 471.317 161.788 471.539 161.885C471.802 161.988 471.967 161.985 471.998 162.066Z" fill="#4F2D2B"/>
<path d="M477.329 163.505C477.448 163.564 477.376 164.193 476.617 165.183C475.944 165.999 474.906 166.543 473.865 166.686C472.644 166.859 472.028 166.543 472.068 166.402C472.098 166.232 472.658 166.251 473.735 165.968C474.663 165.831 475.464 165.418 476.073 164.696C476.837 163.91 477.17 163.416 477.329 163.505Z" fill="#4F2D2B"/>
<path d="M555.001 58.9923V98.6349C555.001 100.468 553.514 101.938 551.698 101.938H507.592C505.776 101.938 504.289 100.468 504.289 98.6349V58.9923C504.289 57.1756 505.776 55.6895 507.592 55.6895H551.698C553.514 55.6882 555.001 57.1756 555.001 58.9923Z" fill="#FFD964"/>
<path d="M546.2 80.8499L545.577 83.755C545.478 84.2172 545.096 84.5645 544.627 84.6201L542.951 84.8176C542.583 84.8615 542.269 85.0913 542.097 85.4206C541.582 86.4058 540.955 87.3122 540.235 88.1295C539.991 88.4058 539.889 88.7789 539.978 89.1366L540.386 90.7725C540.499 91.2308 540.31 91.7099 539.913 91.9668L537.419 93.5808C537.022 93.8364 536.507 93.8132 536.137 93.5214L534.811 92.4768C534.522 92.2496 534.143 92.1889 533.79 92.2961C532.75 92.6137 531.665 92.8177 530.555 92.8848C530.184 92.9068 529.846 93.0979 529.655 93.4155L528.786 94.8642C528.544 95.2696 528.07 95.4749 527.608 95.3755L524.709 94.7531C524.248 94.6537 523.901 94.2741 523.846 93.8054L523.643 92.1217C523.599 91.7551 523.369 91.4426 523.041 91.2709C522.058 90.7544 521.157 90.1243 520.343 89.4038C520.065 89.1585 519.691 89.0565 519.332 89.1469L517.698 89.5575C517.24 89.6724 516.758 89.4839 516.502 89.0862L514.889 86.5904C514.634 86.194 514.657 85.6801 514.949 85.3083L515.996 83.9771C516.224 83.6866 516.283 83.3057 516.174 82.9532C515.851 81.9112 515.646 80.8253 515.575 79.7175C515.552 79.3495 515.361 79.0138 515.044 78.824L513.6 77.9551C513.196 77.7123 512.991 77.2385 513.09 76.7775L513.714 73.8711C513.813 73.4089 514.195 73.0615 514.664 73.006L516.344 72.8085C516.711 72.7659 517.023 72.5373 517.196 72.2107C517.715 71.2294 518.343 70.323 519.062 69.5057C519.306 69.2294 519.408 68.8562 519.319 68.4986L518.911 66.8627C518.798 66.4043 518.987 65.9253 519.384 65.6683L521.879 64.0544C522.275 63.7987 522.79 63.822 523.16 64.1138L524.482 65.1557C524.772 65.3856 525.157 65.445 525.511 65.3339C526.551 65.0085 527.633 64.8058 528.743 64.7361C529.109 64.7129 529.446 64.5231 529.636 64.208L530.511 62.7606C530.755 62.3578 531.227 62.1538 531.687 62.2519L534.587 62.8755C535.048 62.975 535.395 63.3559 535.45 63.8245L535.649 65.4979C535.693 65.8646 535.921 66.177 536.247 66.3488C537.233 66.8691 538.14 67.4979 538.958 68.2197C539.235 68.4624 539.606 68.5657 539.963 68.4766L541.599 68.0725C542.056 67.9601 542.535 68.15 542.79 68.545L544.404 71.0409C544.661 71.4386 544.636 71.955 544.342 72.3256L543.298 73.6452C543.068 73.9357 543.007 74.3204 543.118 74.6755C543.442 75.7149 543.644 76.7982 543.709 77.9021C543.731 78.2714 543.922 78.6097 544.241 78.8008L545.689 79.6697C546.093 79.9138 546.3 80.3876 546.2 80.8499Z" fill="white"/>
<path d="M529.644 86.3626C533.812 86.3626 537.191 82.9826 537.191 78.8131C537.191 74.6437 533.812 71.2637 529.644 71.2637C525.476 71.2637 522.098 74.6437 522.098 78.8131C522.098 82.9826 525.476 86.3626 529.644 86.3626Z" fill="#FFD964"/>
<path d="M84.774 48.0353H41.3936C38.2998 48.0353 35.792 45.5265 35.792 42.4316V5.60366C35.792 2.50874 38.2998 0 41.3936 0H84.7753C87.8691 0 90.3769 2.50874 90.3769 5.60366V42.4316C90.3769 45.5265 87.8678 48.0353 84.774 48.0353Z" fill="#94C1A7"/>
<path d="M78.02 24.0183C78.02 30.5774 73.7982 36.1423 67.9203 38.1514C66.4076 38.673 64.7749 38.9571 63.0828 38.9571C54.8378 38.9571 48.1494 32.2714 48.1494 24.0183C48.1494 15.7651 54.8378 9.07947 63.0828 9.07947V24.0183H78.02Z" fill="white"/>
<path d="M81.4558 24.0182H63.084V5.63977C73.2289 5.63977 81.4558 13.8697 81.4558 24.0182Z" fill="#224334"/>
<path d="M242.604 397.226C256.744 397.226 268.207 385.758 268.207 371.613C268.207 357.467 256.744 346 242.604 346C228.463 346 217 357.467 217 371.613C217 385.758 228.463 397.226 242.604 397.226Z" fill="#F0A667"/>
<path d="M243.023 370.791C246.278 370.791 248.917 368.151 248.917 364.895C248.917 361.639 246.278 359 243.023 359C239.768 359 237.13 361.639 237.13 364.895C237.13 368.151 239.768 370.791 243.023 370.791Z" fill="white"/>
<path d="M231.057 384.075H254.15C254.82 384.075 255.384 383.44 255.172 382.771C253.621 377.305 248.614 373.249 242.621 373.249C236.627 373.249 231.586 377.305 230.034 382.771C229.858 383.441 230.387 384.075 231.057 384.075Z" fill="white"/>
</g>
<defs>
<clipPath id="clip0_2098_27593">
<rect width="555" height="462" fill="white"/>
</clipPath>
</defs>
</svg>
