<svg width="20" height="20" viewBox="0 0 20 20" fill="none" xmlns="http://www.w3.org/2000/svg">
<g id="account_circle">
<mask id="mask0_61_594" style="mask-type:alpha" maskUnits="userSpaceOnUse" x="0" y="0" width="20" height="20">
<rect id="Bounding box" width="20" height="20" fill="#D9D9D9"/>
</mask>
<g mask="url(#mask0_61_594)">
<path id="account_circle_2" d="M4.87533 14.2501C5.58366 13.7084 6.37533 13.2813 7.25033 12.9688C8.12533 12.6563 9.04199 12.5001 10.0003 12.5001C10.9587 12.5001 11.8753 12.6563 12.7503 12.9688C13.6253 13.2813 14.417 13.7084 15.1253 14.2501C15.6114 13.6806 15.9899 13.0348 16.2607 12.3126C16.5316 11.5904 16.667 10.8195 16.667 10.0001C16.667 8.15286 16.0177 6.57994 14.7191 5.28133C13.4205 3.98272 11.8475 3.33341 10.0003 3.33341C8.1531 3.33341 6.58019 3.98272 5.28158 5.28133C3.98296 6.57994 3.33366 8.15286 3.33366 10.0001C3.33366 10.8195 3.46908 11.5904 3.73991 12.3126C4.01074 13.0348 4.38921 13.6806 4.87533 14.2501ZM10.0003 10.8334C9.18088 10.8334 8.48991 10.5522 7.92741 9.98967C7.36491 9.42716 7.08366 8.73619 7.08366 7.91675C7.08366 7.0973 7.36491 6.40633 7.92741 5.84383C8.48991 5.28133 9.18088 5.00008 10.0003 5.00008C10.8198 5.00008 11.5107 5.28133 12.0732 5.84383C12.6357 6.40633 12.917 7.0973 12.917 7.91675C12.917 8.73619 12.6357 9.42716 12.0732 9.98967C11.5107 10.5522 10.8198 10.8334 10.0003 10.8334ZM10.0003 18.3334C8.84755 18.3334 7.76421 18.1147 6.75033 17.6772C5.73644 17.2397 4.85449 16.6459 4.10449 15.8959C3.35449 15.1459 2.76074 14.264 2.32324 13.2501C1.88574 12.2362 1.66699 11.1529 1.66699 10.0001C1.66699 8.8473 1.88574 7.76397 2.32324 6.75008C2.76074 5.73619 3.35449 4.85425 4.10449 4.10425C4.85449 3.35425 5.73644 2.7605 6.75033 2.323C7.76421 1.8855 8.84755 1.66675 10.0003 1.66675C11.1531 1.66675 12.2364 1.8855 13.2503 2.323C14.2642 2.7605 15.1462 3.35425 15.8962 4.10425C16.6462 4.85425 17.2399 5.73619 17.6774 6.75008C18.1149 7.76397 18.3337 8.8473 18.3337 10.0001C18.3337 11.1529 18.1149 12.2362 17.6774 13.2501C17.2399 14.264 16.6462 15.1459 15.8962 15.8959C15.1462 16.6459 14.2642 17.2397 13.2503 17.6772C12.2364 18.1147 11.1531 18.3334 10.0003 18.3334ZM10.0003 16.6667C10.7364 16.6667 11.4309 16.5591 12.0837 16.3438C12.7364 16.1286 13.3337 15.8195 13.8753 15.4167C13.3337 15.014 12.7364 14.7049 12.0837 14.4897C11.4309 14.2744 10.7364 14.1667 10.0003 14.1667C9.26421 14.1667 8.56977 14.2744 7.91699 14.4897C7.26421 14.7049 6.66699 15.014 6.12533 15.4167C6.66699 15.8195 7.26421 16.1286 7.91699 16.3438C8.56977 16.5591 9.26421 16.6667 10.0003 16.6667ZM10.0003 9.16675C10.3614 9.16675 10.66 9.04869 10.8962 8.81258C11.1323 8.57647 11.2503 8.27786 11.2503 7.91675C11.2503 7.55564 11.1323 7.25703 10.8962 7.02091C10.66 6.7848 10.3614 6.66675 10.0003 6.66675C9.63921 6.66675 9.3406 6.7848 9.10449 7.02091C8.86838 7.25703 8.75033 7.55564 8.75033 7.91675C8.75033 8.27786 8.86838 8.57647 9.10449 8.81258C9.3406 9.04869 9.63921 9.16675 10.0003 9.16675Z" fill="#86A0B0"/>
</g>
</g>
</svg>
