<svg width="20" height="20" viewBox="0 0 20 20" fill="none" xmlns="http://www.w3.org/2000/svg">
<g id="Capa_1" clip-path="url(#clip0_14_569)">
<g id="Housekeeping">
<path id="Vector" d="M0.585938 11.2109H11.1328" stroke="#0F4262" stroke-width="1.17188" stroke-miterlimit="10" stroke-linecap="round" stroke-linejoin="round"/>
<path id="Vector_2" d="M14.6875 0.585938V15.8984" stroke="#0F4262" stroke-width="1.17188" stroke-miterlimit="10" stroke-linecap="round" stroke-linejoin="round"/>
<path id="Vector_3" d="M19.4141 19.4141H9.96094V17.0703C9.96094 16.4231 10.4856 15.8984 11.1328 15.8984H18.2422C18.8894 15.8984 19.4141 16.4231 19.4141 17.0703V19.4141Z" stroke="#0F4262" stroke-width="1.17188" stroke-miterlimit="10" stroke-linecap="round" stroke-linejoin="round"/>
<path id="Vector_4" d="M12.3438 19.4141V18.2422" stroke="#0F4262" stroke-width="1.17188" stroke-miterlimit="10" stroke-linecap="round" stroke-linejoin="round"/>
<path id="Vector_5" d="M14.6875 19.4141V18.2422" stroke="#0F4262" stroke-width="1.17188" stroke-miterlimit="10" stroke-linecap="round" stroke-linejoin="round"/>
<path id="Vector_6" d="M17.0312 19.4141V18.2422" stroke="#0F4262" stroke-width="1.17188" stroke-miterlimit="10" stroke-linecap="round" stroke-linejoin="round"/>
<path id="Vector_7" d="M6.48438 4.14062C7.13158 4.14062 7.65625 3.61596 7.65625 2.96875C7.65625 2.32154 7.13158 1.79688 6.48438 1.79688C5.83717 1.79688 5.3125 2.32154 5.3125 2.96875C5.3125 3.61596 5.83717 4.14062 6.48438 4.14062Z" stroke="#0F4262" stroke-width="1.17188" stroke-miterlimit="10" stroke-linecap="round" stroke-linejoin="round"/>
<circle id="Ellipse" cx="4.14062" cy="5.3125" r="0.585938" fill="#0F4262"/>
<path id="Vector_8" d="M8.78906 19.4141H2.92969C2.28246 19.4141 1.75781 18.8894 1.75781 18.2422V11.2109H9.96094V18.2422C9.96094 18.8894 9.43629 19.4141 8.78906 19.4141Z" stroke="#0F4262" stroke-width="1.17188" stroke-miterlimit="10" stroke-linecap="round" stroke-linejoin="round"/>
<path id="Vector_9" d="M5.27344 11.2109C5.27344 13.1526 3.69945 14.7266 1.75781 14.7266H0.585938" stroke="#0F4262" stroke-width="1.17188" stroke-miterlimit="10" stroke-linecap="round" stroke-linejoin="round"/>
<path id="Vector_10" d="M1.75781 11.2109V10.625C1.75781 9.33059 2.80715 8.28125 4.10156 8.28125C4.80156 8.28125 5.42992 8.58813 5.85938 9.07473C6.28883 8.58813 6.91719 8.28125 7.61719 8.28125C8.9116 8.28125 9.96094 9.33059 9.96094 10.625V11.2109" stroke="#0F4262" stroke-width="1.17188" stroke-miterlimit="10" stroke-linecap="round" stroke-linejoin="round"/>
</g>
</g>
<defs>
<clipPath id="clip0_14_569">
<rect width="20" height="20" fill="white"/>
</clipPath>
</defs>
</svg>
