<svg width="112" height="80" viewBox="0 0 112 80" fill="none" xmlns="http://www.w3.org/2000/svg">
<path d="M84.7678 21.145C83.8837 20.955 83.2406 21.035 82.8387 21.385L52.4705 23.2075C52.1138 23.2275 52.0837 23.335 52.3801 23.53C54.7261 25.08 57.0973 26.68 59.4936 28.33C59.986 28.67 60.1794 29.1175 60.0739 29.6725C60.0236 29.9225 60.094 29.96 60.2849 29.785L67.9485 22.81C68.0918 22.6804 68.2725 22.5985 68.4655 22.5757C68.6586 22.5528 68.8544 22.5902 69.0261 22.6825L82.8312 30.1L84.798 31.1575C87.134 32.575 89.5981 33.655 91.693 35.29C98.2992 40.46 104.853 45.5925 111.353 50.6875C111.439 50.7575 111.496 50.8563 111.513 50.9645C111.53 51.0728 111.505 51.1826 111.444 51.2725L110.781 52.2475C110.635 52.4625 110.446 52.5125 110.215 52.3975L109.462 52.015C108.794 51.45 108.151 51.195 107.533 51.25C107.513 50.95 107.395 50.7375 107.179 50.6125C102.326 47.8175 97.513 45.0475 92.7405 42.3025C92.6377 42.2445 92.52 42.2178 92.4021 42.2258C92.2842 42.2338 92.1713 42.2762 92.0773 42.3475L70.7969 58.63C70.0735 58.93 69.4179 59.025 68.8302 58.915C68.7397 58.495 68.6142 58.205 68.4534 58.045C66.454 56.095 62.646 52.4675 57.0295 47.1625C56.4166 46.3875 55.7711 45.965 55.0929 45.895L19.5778 49.84L17.5885 49.9825L12.5999 41.2525C12.5301 41.1304 12.4933 40.9925 12.4932 40.852C12.4931 40.7115 12.5296 40.5732 12.5993 40.4503C12.6689 40.3275 12.7694 40.2243 12.8909 40.1507C13.0125 40.077 13.151 40.0355 13.2932 40.03C13.7855 40.015 14.2804 39.9 14.7777 39.685L16.7369 39.6175L32.0341 38.0575C31.9688 38.8975 32.2074 39.5175 32.75 39.9175L15.3429 41.725C15.322 41.7274 15.3021 41.7348 15.2849 41.7467C15.2676 41.7585 15.2535 41.7744 15.2438 41.7929C15.2342 41.8114 15.2292 41.832 15.2294 41.8528C15.2296 41.8737 15.2349 41.8942 15.2449 41.9125L18.5756 47.7775C18.6459 47.9025 18.754 47.9575 18.8996 47.9425L54.7839 43.9675C54.8948 43.9545 54.9993 43.9082 55.0839 43.8347C55.1686 43.7611 55.2294 43.6637 55.2587 43.555L56.1102 40.36L57.0144 36.4975L58.3482 31.645C58.3871 31.4945 58.4773 31.3598 58.6044 31.2625L59.1621 30.835C59.4635 30.605 59.4258 30.5075 59.049 30.5425L57.0446 30.73C56.3212 30.31 55.6706 30.3075 55.0929 30.7225L37.3693 31.885C36.7664 31.49 36.1385 31.49 35.4854 31.885C35.1187 31.74 34.7921 31.6725 34.5058 31.6825C34.2295 30.9925 34.124 30.41 34.1893 29.935L45.0329 21.4975C45.0679 21.4706 45.0959 21.4359 45.1147 21.3961C45.1335 21.3563 45.1426 21.3126 45.1411 21.2687C45.1396 21.2247 45.1277 21.1818 45.1063 21.1433C45.0848 21.1049 45.0545 21.072 45.0178 21.0475L38.1605 16.4125C37.9395 16.2625 37.7234 16.27 37.5124 16.435L19.2161 30.715C17.9351 31.885 16.423 32.8625 14.6797 33.6475L6.75988 8.48502C6.6795 8.24002 6.53381 8.19252 6.32282 8.34252C5.73505 8.75252 5.35324 9.36252 5.17741 10.1725C4.44395 10.7275 3.82604 11.475 3.32367 12.415L1.86177 14.26C1.49002 14.73 1.04542 14.8125 0.527981 14.5075C0.301915 14.3775 0.15874 14.1425 0.0984554 13.8025C0.079327 13.6937 0.0821453 13.5826 0.106743 13.4756C0.13134 13.3687 0.177213 13.2682 0.24163 13.18L5.69737 5.68002C5.85309 5.4643 6.05533 5.28528 6.28975 5.15567C6.52416 5.02605 6.78501 4.94901 7.05376 4.93002L77.3227 0.257524C77.599 0.242524 77.7975 0.357524 77.918 0.602524L87.8951 20.3125C88.0207 20.5575 87.9453 20.7 87.669 20.74L84.7678 21.145ZM26.5934 6.40002C26.723 6.29516 26.8833 6.23594 27.0486 6.23186C27.214 6.22778 27.3748 6.27908 27.5052 6.37752C34.7645 11.7275 41.1245 16.1425 46.5852 19.6225C47.4443 20.1675 48.3385 20.705 49.2679 21.235C49.5442 21.39 49.8431 21.4575 50.1646 21.4375L84.5493 19.075C84.8809 19.055 84.9713 18.8975 84.8206 18.6025L76.7425 2.62752C76.6169 2.38252 76.4185 2.27002 76.1472 2.29002L8.72666 6.77502C8.42021 6.79502 8.3122 6.95002 8.40263 7.24002L11.6655 18.1975C11.6731 18.2237 11.6871 18.2476 11.7062 18.2671C11.7253 18.2866 11.749 18.3011 11.7751 18.3093C11.8012 18.3175 11.829 18.3191 11.8559 18.314C11.8828 18.3088 11.908 18.2972 11.9293 18.28L26.5934 6.40002ZM12.4191 20.41C12.3786 20.4425 12.349 20.4864 12.3342 20.5359C12.3194 20.5855 12.3201 20.6384 12.3362 20.6875L15.6217 30.5275C15.6348 30.566 15.6569 30.6008 15.6862 30.6291C15.7156 30.6573 15.7512 30.6782 15.7903 30.6899C15.8294 30.7016 15.8707 30.7039 15.9109 30.6965C15.951 30.6892 15.9888 30.6724 16.0211 30.6475L35.8622 15.19C35.893 15.1656 35.9177 15.1345 35.9345 15.0991C35.9513 15.0637 35.9596 15.0248 35.9589 14.9857C35.9582 14.9465 35.9484 14.908 35.9303 14.8732C35.9122 14.8384 35.8863 14.8082 35.8546 14.785L27.234 8.65002C27.1887 8.61763 27.134 8.60084 27.0782 8.60219C27.0225 8.60354 26.9687 8.62297 26.925 8.65752L12.4191 20.41ZM55.1984 28.0825L47.497 22.8775C47.271 22.7225 47.0499 22.73 46.8339 22.9L39.2456 28.9075C38.6679 29.3675 38.7483 29.56 39.4868 29.485C43.6514 29.05 48.0245 28.7725 52.6061 28.6525C53.415 28.6325 54.2489 28.565 55.1079 28.45C55.4546 28.405 55.4847 28.2825 55.1984 28.0825ZM90.3969 41.155C90.4296 41.1314 90.4562 41.1003 90.4745 41.0645C90.4929 41.0287 90.5024 40.989 90.5024 40.9488C90.5024 40.9085 90.4929 40.8689 90.4745 40.833C90.4562 40.7972 90.4296 40.7662 90.3969 40.7425L68.7623 25C68.714 24.9659 68.6554 24.9495 68.5963 24.9536C68.5372 24.9577 68.4814 24.9821 68.4383 25.0225L60.1944 32.5225C60.1572 32.5567 60.131 32.601 60.1191 32.65L57.1878 44.3425C57.1761 44.3861 57.1762 44.4319 57.1881 44.4754C57.2 44.5189 57.2233 44.5584 57.2556 44.59L69.6365 56.4775C69.68 56.5199 69.7373 56.5454 69.7981 56.5495C69.8589 56.5537 69.9191 56.5361 69.968 56.5L90.3969 41.155ZM81.4823 32.05L98.5127 43.78L98.5165 43.781L98.5202 43.78L98.5428 43.75C98.6228 43.6396 98.4832 43.3795 98.1321 42.9845C97.781 42.5895 97.2252 42.0674 96.4966 41.4481C95.768 40.8288 94.8808 40.1245 93.8859 39.3754C92.8909 38.6263 91.8078 37.8471 90.6983 37.0825L90.5325 36.97C89.4219 36.2047 88.307 35.4691 87.2516 34.8054C86.1963 34.1418 85.2213 33.563 84.3826 33.1025C83.5439 32.6419 82.858 32.3085 82.3642 32.1215C81.8704 31.9345 81.5784 31.8974 81.505 32.0125L81.4823 32.0425L81.4813 32.0463L81.4823 32.05Z" fill="#DD2D2C"/>
<path d="M5.17699 10.1725L6.22443 43.6225C6.23437 43.8869 6.32061 44.1445 6.4731 44.365L17.3846 59.9275C17.5704 60.1975 17.6634 60.1675 17.6634 59.8375L17.588 49.9825L19.5774 49.84L19.7884 62.0575C19.7884 62.3125 19.9165 62.4225 20.1727 62.3875L54.7157 57.955C54.9367 57.925 55.0472 57.8 55.0472 57.58L55.0924 45.895C55.7706 45.965 56.4162 46.3875 57.0291 47.1625V57.2425C57.0291 57.7225 57.1622 58.1625 57.4285 58.5625L68.4605 75.1075C68.6665 75.4125 68.7695 75.38 68.7695 75.01L68.8297 58.915C69.4175 59.025 70.0731 58.93 70.7965 58.63L70.8116 77.1025C70.8116 77.4175 70.9648 77.545 71.2713 77.485L107.103 70.9C107.369 70.85 107.505 70.69 107.51 70.42L107.532 51.25C108.15 51.195 108.793 51.45 109.461 52.015L109.499 71.98C109.499 72.28 109.351 72.4575 109.054 72.5125L69.8395 79.7275C69.667 79.7584 69.4897 79.7394 69.3291 79.6728C69.1686 79.6062 69.0317 79.4949 68.9352 79.3525L56.0796 60.0625C56.0188 59.9704 55.9329 59.897 55.8318 59.8506C55.7306 59.8043 55.6181 59.7867 55.5069 59.8L18.756 64.5325C18.6091 64.5528 18.4593 64.532 18.3235 64.4724C18.1878 64.4128 18.0714 64.3167 17.9874 64.195L4.544 45.025C4.40334 44.825 4.33049 44.605 4.32547 44.365L3.32324 12.415C3.82561 11.475 4.44353 10.7275 5.17699 10.1725Z" fill="#909091"/>
<path d="M84.7677 21.1451L84.7978 31.1576L82.8311 30.1001L82.8386 21.3851C83.2405 21.0351 83.8835 20.9551 84.7677 21.1451Z" fill="#909091"/>
<path d="M34.1892 29.9351C34.1239 30.4101 34.2294 30.9926 34.5057 31.6826C34.4052 31.7076 34.3173 31.7401 34.242 31.7801C34.1805 31.8136 34.1292 31.8633 34.0934 31.924C34.0577 31.9847 34.0387 32.0541 34.0385 32.1251V38.0351C34.0385 38.2501 34.1314 38.4151 34.3173 38.5301L35.4024 39.1976C35.5984 39.3226 35.6938 39.2701 35.6888 39.0401L35.4853 31.8851C36.1384 31.4901 36.7664 31.4901 37.3692 31.8851L37.6556 39.7601C37.6656 40.0651 37.8239 40.2026 38.1303 40.1726L54.6105 38.5901C54.922 38.5601 55.0803 38.3876 55.0853 38.0726L55.0928 30.7226C55.6705 30.3076 56.3211 30.3101 57.0445 30.7301L57.0144 36.4976L56.1101 40.3601L37.0452 42.1601C36.794 42.1801 36.5579 42.1276 36.3368 42.0026L32.7499 39.9176C32.2074 39.5176 31.9687 38.8976 32.034 38.0576L32.0793 32.3651C32.0843 32.0551 31.9311 31.9101 31.6196 31.9301L17.2342 32.7401C16.9529 32.7551 16.8097 32.9026 16.8047 33.1826L16.7369 39.6176L14.7776 39.6851L14.6797 33.6476C16.4229 32.8626 17.935 31.8851 19.2161 30.7151L34.1892 29.9351Z" fill="#909091"/>
</svg>
