<svg width="159" height="96" viewBox="0 0 159 96" fill="none" xmlns="http://www.w3.org/2000/svg">
<path d="M129.438 43.5076C129.166 43.5176 128.822 43.6151 128.405 43.8001" stroke="#909091" stroke-width="2"/>
<path d="M127.734 47.0852C127.674 47.3952 127.868 47.6802 128.315 47.9402" stroke="#909091" stroke-width="2"/>
<path d="M142.655 60.1125C142.167 60.1125 141.826 60.25 141.63 60.525" stroke="#909091" stroke-width="2"/>
<path d="M141.524 62.4902L142.27 63.5702" stroke="#909091" stroke-width="2"/>
<path d="M151.238 76.515C150.811 75.965 150.475 75.7775 150.229 75.9525" stroke="#909091" stroke-width="2"/>
<path d="M134.185 89.1602L133.19 88.3877" stroke="#909091" stroke-width="2"/>
<path d="M131.14 85.6502C131.03 84.3002 130.736 83.9427 130.259 84.5777" stroke="#909091" stroke-width="2"/>
<path d="M94.3595 57.2926L93.3799 56.2126" stroke="#909091" stroke-width="2"/>
<path d="M71.4215 47.9927C71.0246 47.8977 70.6227 48.2652 70.2158 49.0952" stroke="#909091" stroke-width="2"/>
<path d="M67.3147 53.9402C67.2243 54.1552 67.0811 54.3677 66.8852 54.5777C66.7144 54.7577 66.5235 54.7752 66.3125 54.6302L64.3984 53.2952" stroke="#909091" stroke-width="2"/>
<path d="M52.4243 45.3976C51.9269 45.2276 51.3994 45.2301 50.8418 45.4051" stroke="#909091" stroke-width="2"/>
<path d="M46.6976 46.17C46.361 46.11 45.9742 46.205 45.5371 46.455" stroke="#909091" stroke-width="2"/>
<path d="M42.5078 44.7901C42.9599 44.5251 43.2388 44.1876 43.3443 43.7776" stroke="#909091" stroke-width="2"/>
<path d="M31.777 36.3675C31.7921 36.1175 31.7443 35.9175 31.6338 35.7675C31.458 35.5375 31.2595 35.5175 31.0385 35.7075C30.8376 35.8775 30.6642 36.08 30.5186 36.315" stroke="#909091" stroke-width="2"/>
<path d="M26.8709 37.2527L25.6953 37.5302" stroke="#909091" stroke-width="2"/>
<path d="M14.8894 40.2375L13.7666 40.6275" stroke="#909091" stroke-width="2"/>
<path d="M9.25322 41.7827C8.86639 41.7177 8.51473 41.7777 8.19824 41.9627" stroke="#909091" stroke-width="2"/>
<path d="M23.4428 28.635C23.3022 28.44 22.943 28.4625 22.3652 28.7025" stroke="#909091" stroke-width="2"/>
<path d="M13.9332 30.6752C13.4911 30.6302 13.1244 30.6877 12.833 30.8477" stroke="#909091" stroke-width="2"/>
<path d="M74.1192 36.0826C73.9283 35.9076 73.4862 35.8126 72.793 35.7976" stroke="#909091" stroke-width="2"/>
<path d="M47.6464 28.2975C47.4957 28.0075 47.3148 27.8775 47.1038 27.9075C46.8727 27.9375 46.6718 28.0575 46.501 28.2675" stroke="#909091" stroke-width="2"/>
<path d="M44.8139 29.445L44.2939 29.4375" stroke="#909091" stroke-width="2"/>
<path d="M42.3414 29.5727C42.1203 29.5327 41.9119 29.5327 41.7159 29.5727C41.5301 29.6177 41.412 29.7327 41.3618 29.9177L41.2939 30.1802" stroke="#909091" stroke-width="2"/>
<path d="M34.128 27.8701C33.6356 27.5951 33.2639 27.5026 33.0127 27.5926" stroke="#909091" stroke-width="2"/>
<path d="M52.5898 37.7626C53.2027 37.5826 53.6674 37.3201 53.9839 36.9751" stroke="#909091" stroke-width="2"/>
<path d="M66.5312 40.5076C66.7523 40.9776 67.0562 41.4126 67.4431 41.8126" stroke="#909091" stroke-width="2"/>
<path d="M124.728 73.4475L122.49 74.1825" stroke="#909091" stroke-width="2"/>
<path d="M120.455 75.2176L119.348 74.7451" stroke="#909091" stroke-width="2"/>
<path d="M113.394 66.5852C113.093 66.1152 112.809 65.7927 112.543 65.6177" stroke="#909091" stroke-width="2"/>
<path d="M110.621 63.0677C110.576 62.3977 110.38 62.0077 110.033 61.8977" stroke="#909091" stroke-width="2"/>
<path d="M111.179 60.7501C111.199 60.9551 111.247 61.0401 111.322 61.0051C112.121 60.6501 112.874 60.3176 113.583 60.0076" stroke="#909091" stroke-width="2"/>
<path d="M114.555 58.8C113.826 58.905 113.083 59.1525 112.324 59.5425" stroke="#909091" stroke-width="2"/>
<path d="M109.122 60.8176C108.946 60.6426 108.597 60.5876 108.074 60.6526" stroke="#909091" stroke-width="2"/>
<path d="M102.965 54.3076L102.068 53.3176" stroke="#909091" stroke-width="2"/>
<path d="M91.7601 41.4602C90.5996 41.5902 89.7255 41.4902 89.1377 41.1602" stroke="#909091" stroke-width="2"/>
<path d="M79.3862 39.3677C79.0847 39.0727 78.7431 38.9802 78.3613 39.0902" stroke="#909091" stroke-width="2"/>
<path d="M129.438 43.5075C129.167 43.5175 128.822 43.615 128.405 43.8L125.519 44.565C125.263 44.635 125.213 44.775 125.369 44.985C126.002 45.83 126.79 46.53 127.735 47.085C127.675 47.395 127.868 47.68 128.315 47.94C128.31 48.415 128.629 48.775 129.272 49.02C129.476 49.1019 129.702 49.1046 129.905 49.0275L136.657 46.62C136.755 46.5844 136.862 46.5781 136.964 46.6021C137.065 46.6261 137.158 46.6793 137.23 46.755L147.335 57.195C147.381 57.2436 147.416 57.3024 147.436 57.3665C147.456 57.4306 147.461 57.4984 147.45 57.5641C147.439 57.6299 147.413 57.6919 147.373 57.745C147.333 57.7982 147.281 57.841 147.222 57.87L142.655 60.1125C142.168 60.1125 141.826 60.25 141.63 60.525C141.193 60.58 140.789 60.7125 140.417 60.9225C140.181 61.0525 140.136 61.23 140.281 61.455C140.598 61.93 141.012 62.275 141.525 62.49L142.271 63.57L156.784 79.665C157.322 80.255 157.254 80.3375 156.581 79.9125L151.238 76.515C150.811 75.965 150.475 75.7775 150.228 75.9525C149.977 75.4875 149.681 75.2125 149.339 75.1275C149.058 75.0525 148.741 75.1825 148.39 75.5175C143.637 80.0575 138.902 84.605 134.185 89.16L133.191 88.3875C132.819 87.3525 132.136 86.44 131.141 85.65C131.03 84.3 130.736 83.9425 130.259 84.5775C130.028 83.9825 129.674 83.5325 129.197 83.2275C128.966 83.0775 128.75 83.095 128.549 83.28L119.883 91.2075C119.854 91.2342 119.82 91.2546 119.783 91.2673C119.746 91.28 119.706 91.2847 119.667 91.2812C119.628 91.2777 119.59 91.2659 119.556 91.2468C119.521 91.2276 119.492 91.2015 119.468 91.17L94.3599 57.2925L93.3802 56.2125L90.9387 52.785C90.783 52.57 90.577 52.4275 90.3208 52.3575L71.9793 47.415C71.7582 47.355 71.6126 47.4325 71.5422 47.6475L71.4217 47.9925C71.0248 47.8975 70.6229 48.265 70.216 49.095L67.3148 53.94C67.2244 54.155 67.0812 54.3675 66.8853 54.5775C66.7145 54.7575 66.5236 54.775 66.3126 54.63L64.3985 53.295L53.374 45.165C53.158 45.01 52.942 45.0125 52.726 45.1725L52.4246 45.3975C51.9272 45.2275 51.3997 45.23 50.8421 45.405L46.6975 46.17C46.361 46.11 45.9741 46.205 45.5371 46.455L40.6917 47.325C40.4305 47.37 40.3853 47.2925 40.5561 47.0925L42.5078 44.79C42.9599 44.525 43.2387 44.1875 43.3442 43.7775C44.4494 42.9825 45.4039 42.03 46.2077 40.92C46.3584 40.715 46.3132 40.5775 46.0721 40.5075L31.7772 36.3675C31.7922 36.1175 31.7445 35.9175 31.634 35.7675C31.4582 35.5375 31.2597 35.5175 31.0387 35.7075C30.8377 35.8775 30.6644 36.08 30.5187 36.315L26.8715 37.2525L25.696 37.53L14.89 40.2375L13.7672 40.6275L9.25341 41.7825C8.86659 41.7175 8.51493 41.7775 8.19844 41.9625L5.66649 42.48C5.42033 42.535 5.27465 42.4375 5.22943 42.1875L1.51441 20.655C1.50599 20.6058 1.51749 20.5548 1.5467 20.5118C1.57592 20.4689 1.62078 20.4371 1.67265 20.4225L33.0205 12.5925C33.2717 12.5325 33.44 12.3825 33.5254 12.1425L35.1305 7.67253C35.2209 7.42253 35.3992 7.32003 35.6655 7.36503L48.3026 9.67503C48.5488 9.72003 48.7899 9.69753 49.026 9.60753L52.191 8.39253C52.4371 8.30253 52.6908 8.28003 52.952 8.32503L61.9495 10.005C62.032 10.0209 62.1171 10.013 62.1947 9.98244C62.2722 9.95184 62.3388 9.89979 62.3865 9.83253L65.461 5.72253C65.6279 5.5028 65.8563 5.33821 66.1166 5.25003L79.1456 0.847533C79.2671 0.805731 79.3966 0.792775 79.5235 0.809711C79.6505 0.826646 79.7714 0.872999 79.8765 0.945033L93.1165 9.85503C93.2572 9.95003 93.2747 10.0675 93.1692 10.2075L89.7406 14.7C89.7194 14.7273 89.7055 14.7594 89.7003 14.7935C89.6951 14.8276 89.6987 14.8624 89.7107 14.8947C89.7228 14.9269 89.7429 14.9556 89.7693 14.978C89.7956 15.0004 89.8272 15.0157 89.8611 15.0225L102.898 17.85C103.065 17.8844 103.22 17.962 103.349 18.0752C103.477 18.1883 103.573 18.333 103.629 18.495C103.965 19.515 104.641 20.0525 105.656 20.1075C105.942 20.1275 106.113 20.2775 106.168 20.5575L106.613 23.055C106.663 23.33 106.824 23.435 107.095 23.37L124.163 19.3275C124.52 19.2425 124.746 19.375 124.841 19.725L127.139 28.1775C127.158 28.2438 127.19 28.3054 127.234 28.3583C127.278 28.4111 127.333 28.4539 127.395 28.4837C127.457 28.5136 127.525 28.5298 127.594 28.5313C127.663 28.5329 127.732 28.5196 127.795 28.4925L129.121 27.9225C129.438 27.7875 129.651 27.8825 129.762 28.2075L134.253 41.4675C134.343 41.7225 134.258 41.8925 133.997 41.9775L129.438 43.5075ZM69.8769 13.275C69.8511 13.3049 69.8336 13.341 69.8262 13.3796C69.8188 13.4183 69.8218 13.4583 69.8347 13.4955C69.8477 13.5327 69.8702 13.5658 69.9001 13.5916C69.93 13.6174 69.9662 13.635 70.005 13.6425L86.6209 16.6425C86.6621 16.6491 86.7043 16.6441 86.7429 16.6282C86.7815 16.6124 86.8149 16.5862 86.8394 16.5525L91.4737 10.4625C91.4924 10.4382 91.5058 10.4104 91.5133 10.3807C91.5207 10.351 91.522 10.3202 91.5171 10.29C91.5121 10.2598 91.5011 10.2309 91.4846 10.2052C91.468 10.1794 91.4464 10.1572 91.421 10.14L79.7334 2.28003C79.688 2.25002 79.6334 2.23729 79.5794 2.24418C79.5254 2.25107 79.4757 2.27712 79.4395 2.31753L69.8769 13.275ZM77.1336 2.77503L66.8627 6.23253C66.6014 6.31753 66.3904 6.47003 66.2297 6.69003L62.1831 12.09C62.1278 12.165 62.1479 12.21 62.2434 12.225L68.1437 13.26C68.2442 13.275 68.3296 13.245 68.3999 13.17L77.2692 2.98503C77.4802 2.74503 77.435 2.67503 77.1336 2.77503ZM43.397 16.9875L47.2024 23.3175C47.2165 23.3425 47.2363 23.3638 47.2603 23.3797C47.2843 23.3956 47.3119 23.4058 47.341 23.4094C47.3701 23.413 47.3999 23.41 47.4281 23.4006C47.4563 23.3912 47.4822 23.3756 47.5038 23.355C48.7095 22.185 49.6213 20.7975 51.2792 20.16C56.3732 18.205 61.2236 16.29 65.8303 14.415C66.2322 14.25 66.2196 14.13 65.7926 14.055L36.4793 8.71503C36.3591 8.69251 36.2345 8.71415 36.1281 8.77605C36.0216 8.83796 35.9404 8.93603 35.8991 9.05253C34.4473 13.0875 33.126 16.77 31.9354 20.1C31.4833 21.37 31.3652 22.785 31.5812 24.345C31.6264 24.67 31.7596 24.71 31.9806 24.465C33.3471 22.97 34.6758 21.5075 35.9669 20.0775C37.5871 18.2775 40.3903 17.7975 42.5379 16.7325C42.9046 16.5525 43.191 16.6375 43.397 16.9875ZM61.0603 11.04C58.1867 10.485 55.5769 10.005 53.2309 9.60003C52.5376 9.48003 51.877 9.61503 51.249 10.005C51.0631 10.12 51.0757 10.195 51.2867 10.23L60.6082 11.9025C60.694 11.9157 60.7815 11.9043 60.8604 11.8697C60.9392 11.8351 61.006 11.7788 61.0527 11.7075L61.2336 11.445C61.3793 11.225 61.3215 11.09 61.0603 11.04ZM23.4428 28.635C23.3022 28.44 22.943 28.4625 22.3653 28.7025L13.933 30.675C13.4909 30.63 13.1242 30.6875 12.8328 30.8475C12.3053 31.0475 11.7929 31.15 11.2955 31.155C11.0343 31.155 10.8836 31.025 10.8434 30.765L10.0522 25.2375C10.012 24.9625 10.0773 24.715 10.2481 24.495L14.7393 18.6825C14.9402 18.4225 14.8825 18.3325 14.566 18.4125L3.21744 21.2625C2.96123 21.3225 2.85573 21.4825 2.90095 21.7425L6.20152 40.86C6.20835 40.9007 6.22376 40.9396 6.24679 40.9741C6.26981 41.0085 6.29994 41.038 6.3353 41.0605C6.37067 41.083 6.4105 41.0982 6.45231 41.105C6.49412 41.1118 6.53701 41.1101 6.57829 41.1L30.0515 35.145C30.1398 35.1219 30.218 35.0704 30.2738 34.9985C30.3297 34.9266 30.3602 34.8384 30.3605 34.7475C30.3655 32.3475 30.3705 29.8825 30.3755 27.3525C30.3755 27.2425 30.3429 27.1425 30.2776 27.0525C30.162 26.8825 30.1218 26.695 30.157 26.49C30.6091 24.0075 29.9837 21.6825 30.9407 19.23C31.6239 17.48 32.2494 15.775 32.8171 14.115C32.8276 14.0868 32.8302 14.0563 32.8246 14.0268C32.8189 13.9972 32.8053 13.9698 32.7851 13.9474C32.7649 13.925 32.739 13.9085 32.7101 13.8997C32.6812 13.8909 32.6504 13.8902 32.6211 13.8975L16.9773 17.8125C16.4448 17.9425 16.4323 18.115 16.9397 18.33L23.1866 21.0075C23.4428 21.1175 23.6011 21.31 23.6614 21.585L24.8746 27.405C24.9399 27.715 24.8143 27.8925 24.4978 27.9375C23.8849 28.0275 23.5333 28.26 23.4428 28.635ZM74.1194 36.0825C73.9285 35.9075 73.4864 35.8125 72.7931 35.7975L57.5261 25.395C57.28 25.23 57.0162 25.1875 56.7349 25.2675L47.9409 27.72C47.755 27.775 47.6445 27.8975 47.6093 28.0875C47.5943 28.1675 47.6068 28.2375 47.647 28.2975C47.4963 28.0075 47.3155 27.8775 47.1045 27.9075C46.8734 27.9375 46.6724 28.0575 46.5016 28.2675C45.6677 28.1425 45.105 28.535 44.8137 29.445L44.2937 29.4375C44.359 29.3375 44.3992 29.24 44.4143 29.145C44.4595 28.89 44.354 28.775 44.0978 28.8C43.3794 28.87 42.7941 29.1275 42.342 29.5725C42.1209 29.5325 41.9125 29.5325 41.7165 29.5725C41.5307 29.6175 41.4126 29.7325 41.3624 29.9175L41.2946 30.18C41.39 29.865 41.3272 29.6675 41.1062 29.5875C39.1017 28.8475 36.7757 28.275 34.1282 27.87C33.6359 27.595 33.2642 27.5025 33.013 27.5925C32.6814 27.2925 32.3398 27.16 31.9882 27.195C31.6968 27.225 31.5511 27.385 31.5511 27.675L31.5436 34.6575C31.5436 34.9475 31.6867 35.1325 31.9731 35.2125C36.7305 36.5175 41.4453 37.87 46.1173 39.27C47.0316 39.54 48.0012 39.5225 49.026 39.2175C50.2618 38.8475 51.45 38.3625 52.5903 37.7625C53.2032 37.5825 53.6679 37.32 53.9844 36.975C55.5016 36.93 57.0539 36.5175 58.6414 35.7375C58.8624 35.6275 59.0759 35.64 59.2819 35.775L66.5311 40.5075C66.7521 40.9775 67.0561 41.4125 67.4429 41.8125C68.3522 42.9325 69.3117 43.98 70.3215 44.955C71.1202 45.725 71.9868 46.2325 72.9212 46.4775C78.8241 48.0175 84.6717 49.59 90.464 51.195C90.7554 51.275 90.9789 51.1875 91.1346 50.9325C93.7922 46.5975 96.4573 42.27 99.1299 37.95C100.064 36.43 100.815 34.645 101.383 32.595C102.468 28.655 103.578 24.935 104.714 21.435C104.725 21.4007 104.728 21.3644 104.724 21.3285C104.719 21.2925 104.707 21.2578 104.688 21.2266C104.669 21.1955 104.643 21.1685 104.612 21.1475C104.582 21.1266 104.547 21.1121 104.51 21.105L68.3848 14.52C68.1085 14.47 68.0658 14.55 68.2567 14.76L79.6731 27.165C79.7253 27.224 79.7571 27.2981 79.7639 27.3764C79.7706 27.4547 79.752 27.533 79.7108 27.6L74.1194 36.0825ZM73.509 34.53C73.5391 34.5494 73.5728 34.5627 73.6081 34.5691C73.6434 34.5754 73.6797 34.5747 73.7147 34.5671C73.7497 34.5594 73.7829 34.5449 73.8123 34.5244C73.8416 34.5038 73.8666 34.4777 73.8858 34.4475L78.2564 27.6825C78.2871 27.6328 78.3007 27.5744 78.2953 27.5163C78.2899 27.4581 78.2656 27.4033 78.2263 27.36L67.4052 15.5775C67.3803 15.5495 67.3499 15.527 67.3158 15.5113C67.2817 15.4957 67.2447 15.4872 67.2072 15.4865C67.1696 15.4858 67.1324 15.4929 67.0977 15.5072C67.063 15.5216 67.0318 15.543 67.0058 15.57L58.453 24.1875C58.425 24.2155 58.4035 24.2493 58.39 24.2864C58.3765 24.3236 58.3714 24.3632 58.375 24.4025C58.3786 24.4419 58.3908 24.48 58.4108 24.5141C58.4308 24.5482 58.458 24.5775 58.4907 24.6L73.509 34.53ZM63.758 16.3575C59.94 18.0825 56.1823 19.6075 52.4848 20.9325C49.8775 21.87 48.0163 24.72 46.0419 26.595C45.635 26.985 45.7028 27.105 46.2454 26.955C49.1089 26.165 52.2161 25.3125 55.5669 24.3975C56.5565 24.1275 57.393 23.635 58.0762 22.92C60.0204 20.895 62.0248 18.8675 64.0896 16.8375C64.1397 16.79 64.171 16.7268 64.1781 16.6588C64.1851 16.5908 64.1673 16.5223 64.1279 16.4653C64.0885 16.4083 64.03 16.3663 63.9624 16.3466C63.8948 16.3269 63.8225 16.3308 63.758 16.3575ZM102.639 19.1897C102.647 19.1481 102.647 19.1054 102.639 19.0638C102.63 19.0223 102.614 18.9828 102.59 18.9476C102.567 18.9124 102.536 18.8822 102.501 18.8587C102.465 18.8352 102.426 18.8189 102.384 18.8106L88.6791 16.1098C88.5948 16.0932 88.5073 16.1106 88.4359 16.1582C88.3645 16.2058 88.315 16.2796 88.2983 16.3635L88.2662 16.5254C88.2579 16.5669 88.2579 16.6097 88.2663 16.6512C88.2746 16.6928 88.2911 16.7323 88.3147 16.7675C88.3384 16.8027 88.3688 16.8329 88.4042 16.8564C88.4396 16.8799 88.4793 16.8962 88.5211 16.9044L102.226 19.6053C102.31 19.6219 102.398 19.6045 102.469 19.5569C102.541 19.5093 102.59 19.4354 102.607 19.3515L102.639 19.1897ZM41.8522 27.5925C41.8657 27.6284 41.8881 27.6603 41.9174 27.6851C41.9467 27.7099 41.9819 27.7269 42.0196 27.7344C42.0573 27.7419 42.0964 27.7397 42.133 27.728C42.1696 27.7163 42.2027 27.6955 42.229 27.6675L45.8912 23.76C45.924 23.7236 45.9439 23.6775 45.9479 23.6288C45.952 23.5801 45.9401 23.5314 45.9138 23.49L42.9222 18.5325C42.9047 18.503 42.8806 18.4779 42.8519 18.459C42.8231 18.4402 42.7904 18.4281 42.7562 18.4238C42.722 18.4194 42.6873 18.4229 42.6547 18.434C42.6221 18.445 42.5925 18.4633 42.5681 18.4875L39.6819 21.345C39.6507 21.3756 39.6291 21.4146 39.6198 21.4572C39.6104 21.4998 39.6137 21.5442 39.6292 21.585L41.8522 27.5925ZM35.1455 22.9425C36.8561 22.0275 38.5818 20.7225 39.9758 19.4325C40.2622 19.1625 40.2145 19.075 39.8327 19.17C37.5569 19.725 36.5924 21.2775 35.0325 22.7925C34.706 23.1125 34.7436 23.1625 35.1455 22.9425ZM22.9681 25.965C23.009 25.9906 23.0566 26.0038 23.1049 26.0029C23.1533 26.0021 23.2003 25.9872 23.2403 25.9602C23.2802 25.9331 23.3114 25.895 23.33 25.8506C23.3486 25.8062 23.3538 25.7573 23.3449 25.71L22.5537 22.1325C22.5451 22.0946 22.5276 22.0592 22.5028 22.0293C22.4779 21.9993 22.4463 21.9756 22.4105 21.96L16.9095 19.5825C16.8665 19.5639 16.819 19.5577 16.7726 19.5648C16.7263 19.5718 16.6828 19.5918 16.6473 19.6224C16.6119 19.653 16.5858 19.693 16.5722 19.7377C16.5586 19.7824 16.558 19.83 16.5704 19.875L17.2185 22.1925C17.2348 22.2514 17.2724 22.3021 17.324 22.335L22.9681 25.965ZM11.8155 28.98L15.8319 22.755C15.8796 22.6838 15.9123 22.6038 15.9278 22.52C15.9433 22.4361 15.9415 22.3502 15.9224 22.2675L15.4401 20.115C15.3949 19.905 15.3045 19.885 15.1688 20.055L11.3935 24.9675C11.2981 25.0925 11.2604 25.235 11.2805 25.395L11.7703 28.9725C11.7693 28.9785 11.7707 28.9846 11.7742 28.9895C11.7778 28.9945 11.7831 28.9978 11.7891 28.9988C11.7951 28.9998 11.8013 28.9984 11.8062 28.9948C11.8112 28.9913 11.8145 28.986 11.8155 28.98ZM126.348 29.7825L123.959 21.0225C123.884 20.7475 123.706 20.6425 123.424 20.7075L106.424 24.7425C106.118 24.8125 105.887 24.715 105.731 24.45C105.615 24.255 105.535 24.04 105.49 23.805C105.42 23.445 105.306 23.43 105.151 23.76C104.905 24.29 104.799 24.825 104.834 25.365C104.849 25.58 104.937 25.7625 105.098 25.9125L123.877 43.4175C123.976 43.5089 124.097 43.5734 124.229 43.6049C124.361 43.6364 124.499 43.6339 124.63 43.5975L132.429 41.3175C132.751 41.2275 132.859 41.025 132.753 40.71L128.993 29.655C128.978 29.6088 128.953 29.5663 128.919 29.5301C128.886 29.4939 128.846 29.4647 128.801 29.4444C128.756 29.424 128.707 29.4129 128.657 29.4118C128.607 29.4106 128.558 29.4194 128.511 29.4375L126.944 30.075C126.637 30.2 126.439 30.1025 126.348 29.7825ZM32.8924 25.8075C32.8544 25.832 32.8244 25.867 32.806 25.9082C32.7876 25.9494 32.7817 25.995 32.7888 26.0395C32.796 26.084 32.816 26.1255 32.8465 26.1589C32.8769 26.1922 32.9164 26.2161 32.9602 26.2275L40.4355 28.095C40.4771 28.1061 40.5209 28.1056 40.5622 28.0935C40.6035 28.0813 40.6407 28.0581 40.6695 28.0263C40.6984 27.9944 40.7178 27.9553 40.7257 27.9132C40.7336 27.8711 40.7297 27.8276 40.7143 27.7875L38.6646 22.47C38.6531 22.4368 38.6342 22.4066 38.6092 22.3817C38.5843 22.3568 38.5539 22.3379 38.5206 22.3263C38.4872 22.3148 38.4516 22.3109 38.4166 22.315C38.3815 22.3191 38.3478 22.3311 38.318 22.35L32.8924 25.8075ZM12.9986 29.205C12.9728 29.2427 12.9592 29.2872 12.9594 29.3328C12.9597 29.3783 12.9738 29.4227 12.9999 29.4601C13.026 29.4975 13.063 29.5261 13.1058 29.5421C13.1486 29.5582 13.1953 29.561 13.2397 29.55L22.3125 27.3375C22.3567 27.3278 22.3969 27.3052 22.428 27.2725C22.4591 27.2398 22.4796 27.1986 22.4869 27.1542C22.4942 27.1097 22.4879 27.0642 22.4689 27.0233C22.4499 26.9825 22.4191 26.9482 22.3803 26.925L17.0376 23.5875C16.9875 23.5563 16.9271 23.5459 16.8693 23.5585C16.8116 23.5712 16.7611 23.6058 16.7287 23.655L12.9986 29.205ZM124.728 73.4475L122.49 74.1825C121.706 74.2475 121.028 74.5925 120.455 75.2175L119.348 74.745L113.395 66.585C113.093 66.115 112.809 65.7925 112.543 65.6175C112.156 64.4675 111.516 63.6175 110.622 63.0675C110.576 62.3975 110.38 62.0075 110.034 61.8975C110.29 61.4225 110.672 61.04 111.179 60.75C111.199 60.955 111.247 61.04 111.322 61.005C112.121 60.65 112.875 60.3175 113.583 60.0075C115.638 59.1975 117.66 58.355 119.649 57.48C120.714 57.01 121.706 56.81 122.626 56.88C125.705 57.105 128.634 57.2875 131.412 57.4275C131.628 57.4375 131.663 57.3625 131.518 57.2025L120.425 45.2925C120.234 45.0875 120.129 45.125 120.109 45.405L119.453 56.3625C119.428 56.8125 119.2 57.1175 118.767 57.2775L114.555 58.8C113.827 58.905 113.083 59.1525 112.325 59.5425C111.049 59.7975 109.981 60.2225 109.122 60.8175C108.946 60.6425 108.597 60.5875 108.075 60.6525L102.965 54.3075L102.069 53.3175L99.0997 49.41C99.0722 49.3742 99.0539 49.3323 99.0463 49.2879C99.0387 49.2434 99.0421 49.1978 99.0562 49.155C99.0703 49.1122 99.0946 49.0734 99.1272 49.042C99.1597 49.0107 99.1994 48.9877 99.2429 48.975C102.137 48.105 105.121 47.14 108.195 46.08C111.759 44.8575 115.512 44.91 119.212 44.4825C119.488 44.4525 119.531 44.335 119.34 44.13L104.224 27.8925C104.208 27.8759 104.187 27.8637 104.165 27.8572C104.142 27.8507 104.119 27.8501 104.096 27.8553C104.073 27.8606 104.052 27.8716 104.035 27.8874C104.018 27.9031 104.005 27.9229 103.998 27.945C102.83 31.3875 102.197 35.31 100.192 38.5125C97.3841 43.0075 94.6939 47.3725 92.1218 51.6075C91.9811 51.8375 91.9937 52.0625 92.1595 52.2825L119.74 89.5275C119.752 89.5419 119.766 89.5539 119.783 89.5628C119.799 89.5717 119.817 89.5773 119.835 89.5794C119.853 89.5815 119.871 89.58 119.889 89.5749C119.906 89.5699 119.922 89.5614 119.936 89.55L142.18 69.1725C142.351 69.0175 142.359 68.855 142.203 68.685L132.309 58.0425C132.138 57.8625 132.055 57.8975 132.06 58.1475V69.7275C132.06 69.8374 132.028 69.9452 131.968 70.0382C131.908 70.1312 131.822 70.2055 131.721 70.2525L124.728 73.4475ZM143.725 69.375L130.139 81.825C129.973 81.975 129.96 82.14 130.101 82.32L134.057 87.1425C134.208 87.3225 134.369 87.3325 134.539 87.1725L148.571 73.6575C148.64 73.5898 148.728 73.5427 148.824 73.5215C148.92 73.5003 149.02 73.5059 149.113 73.5375C149.264 73.5875 149.402 73.65 149.528 73.725C150.01 74.03 150.06 73.9725 149.678 73.5525C142.504 65.6825 135.27 57.6925 127.976 49.5825C124.987 46.2575 122.078 43.2975 119.25 40.7025C116.276 37.9725 113.216 35.1075 110.071 32.1075C109.996 32.0375 109.923 32.0375 109.853 32.1075C109.813 32.1475 109.813 32.19 109.853 32.235C120.785 43.93 132.085 56.0525 143.755 68.6025C144.007 68.8725 143.996 69.13 143.725 69.375ZM66.5688 52.695L69.9598 47.055C70.1054 46.82 70.0929 46.595 69.9221 46.38C67.1741 42.91 63.7028 39.915 59.508 37.395C59.2518 37.24 59.0357 37.2825 58.8599 37.5225L54.2632 43.725C54.0723 43.98 54.105 44.2025 54.3612 44.3925L65.7926 52.845C66.1091 53.08 66.3678 53.03 66.5688 52.695ZM52.6808 43.71C52.7439 43.6984 52.8004 43.6636 52.839 43.6125L56.9911 38.085C57.0268 38.0412 57.0469 37.9868 57.0483 37.9304C57.0496 37.874 57.0321 37.8187 56.9985 37.7733C56.9649 37.7278 56.9171 37.6947 56.8625 37.6792C56.808 37.6637 56.7499 37.6666 56.6972 37.6875L48.1745 40.7925C48.1397 40.8081 48.1088 40.8311 48.0841 40.86L43.9847 45.03C43.9468 45.0691 43.9224 45.1191 43.915 45.1729C43.9077 45.2267 43.9177 45.2815 43.9438 45.3292C43.9699 45.3769 44.0106 45.415 44.0599 45.4381C44.1093 45.4612 44.1648 45.468 44.2183 45.4575L52.6808 43.71ZM109.974 47.985C111.797 47.715 113.568 46.8 115.324 46.14C115.65 46.02 115.638 45.97 115.286 45.99C111.925 46.205 108.602 46.98 105.317 48.315C105.246 48.34 105.249 48.3525 105.324 48.3525C106.806 48.3425 108.356 48.22 109.974 47.985ZM109.461 58.8225C109.452 58.8663 109.455 58.9116 109.469 58.9539C109.484 58.9963 109.509 59.0341 109.542 59.0637C109.576 59.0934 109.617 59.1137 109.661 59.1227C109.705 59.1317 109.75 59.129 109.793 59.115L118.104 56.235C118.151 56.2176 118.191 56.1871 118.221 56.1471C118.25 56.1071 118.267 56.0595 118.27 56.01L118.903 46.38C118.907 46.3365 118.899 46.2928 118.88 46.2532C118.862 46.2136 118.833 46.1793 118.798 46.1537C118.762 46.1281 118.721 46.1121 118.677 46.107C118.634 46.102 118.589 46.1082 118.549 46.125L111.458 48.915C111.419 48.9316 111.385 48.9573 111.359 48.99C111.333 49.0227 111.315 49.0614 111.307 49.1025L109.461 58.8225ZM136.062 50.775C136.108 50.7559 136.148 50.7237 136.176 50.6824C136.204 50.6411 136.219 50.5924 136.22 50.5425L136.265 48.375C136.265 48.3346 136.255 48.2947 136.236 48.2588C136.217 48.2229 136.19 48.192 136.157 48.1685C136.124 48.1451 136.086 48.1298 136.046 48.124C136.005 48.1181 135.964 48.1219 135.926 48.135L130.448 50.085C130.407 50.0992 130.37 50.1234 130.341 50.1554C130.312 50.1875 130.292 50.2262 130.282 50.2682C130.273 50.3101 130.274 50.3538 130.285 50.3952C130.297 50.4366 130.319 50.4744 130.35 50.505L131.97 52.1775C132.005 52.2139 132.05 52.239 132.1 52.2497C132.15 52.2604 132.201 52.2562 132.249 52.2375L136.062 50.775ZM137.599 48.8475C137.581 48.8278 137.559 48.8143 137.533 48.8088C137.508 48.8032 137.481 48.8059 137.456 48.8165C137.432 48.8271 137.411 48.8451 137.396 48.868C137.381 48.891 137.373 48.9178 137.373 48.945L137.418 50.3175C137.428 50.6325 137.566 50.875 137.832 51.045L141.736 53.565C142.55 54.09 142.62 54.005 141.947 53.31L137.599 48.8475ZM101.473 49.8825C101.431 49.8861 101.39 49.9014 101.355 49.9266C101.32 49.9519 101.293 49.9862 101.277 50.0257C101.261 50.0652 101.256 50.1085 101.262 50.1507C101.269 50.1929 101.287 50.2325 101.315 50.265L107.969 58.4325C107.997 58.4658 108.035 58.4904 108.077 58.5035C108.118 58.5167 108.163 58.5178 108.206 58.5069C108.248 58.4959 108.287 58.4733 108.317 58.4416C108.347 58.4099 108.367 58.3703 108.376 58.3275L110.019 49.4775C110.026 49.4422 110.025 49.4056 110.015 49.3708C110.006 49.336 109.988 49.3039 109.964 49.277C109.94 49.25 109.91 49.2291 109.876 49.2157C109.842 49.2024 109.806 49.197 109.77 49.2L101.473 49.8825ZM139.061 60.0675C139.097 60.1099 139.146 60.1394 139.2 60.1516C139.254 60.1638 139.311 60.158 139.362 60.135L145.044 57.5325C145.087 57.5136 145.123 57.4836 145.15 57.4455C145.176 57.4074 145.192 57.3629 145.195 57.3166C145.198 57.2703 145.189 57.224 145.167 57.1828C145.146 57.1415 145.114 57.1069 145.074 57.0825L136.883 51.855C136.85 51.8342 136.812 51.8214 136.773 51.8175C136.733 51.8136 136.694 51.8187 136.657 51.8325L133.213 53.1075C133.174 53.1222 133.138 53.1463 133.111 53.1777C133.083 53.2092 133.063 53.247 133.053 53.2877C133.044 53.3285 133.044 53.3711 133.055 53.4116C133.066 53.4521 133.087 53.4893 133.115 53.52L139.061 60.0675ZM128.051 58.395C126.449 58.335 124.839 58.225 123.221 58.065C120.538 57.8025 117.117 59.88 114.691 60.885C114.43 60.995 114.44 61.04 114.721 61.02C117.469 60.835 120.265 60.65 123.108 60.465C124.879 60.345 126.529 59.5425 128.134 58.815C128.702 58.56 128.674 58.42 128.051 58.395ZM121.156 72.885C121.142 72.9321 121.141 72.9823 121.153 73.0299C121.166 73.0775 121.192 73.1206 121.228 73.1543C121.264 73.1879 121.309 73.2108 121.358 73.2202C121.406 73.2296 121.457 73.2252 121.503 73.2075L130.741 69.435C130.79 69.4158 130.831 69.3827 130.861 69.34C130.89 69.2973 130.907 69.2469 130.907 69.195L130.915 59.31C130.916 59.2659 130.906 59.2221 130.886 59.1828C130.865 59.1436 130.835 59.11 130.798 59.0854C130.762 59.0607 130.719 59.0456 130.675 59.0416C130.631 59.0377 130.586 59.0448 130.546 59.0625L125.271 61.365C125.238 61.3791 125.208 61.3996 125.184 61.4254C125.159 61.4512 125.14 61.4817 125.127 61.515L121.156 72.885ZM112.34 62.3475C112.298 62.3504 112.258 62.3643 112.224 62.3877C112.19 62.4111 112.162 62.4432 112.145 62.4807C112.127 62.5181 112.12 62.5596 112.124 62.6008C112.127 62.642 112.142 62.6814 112.166 62.715L119.551 72.8025C119.576 72.8362 119.61 72.8624 119.649 72.8784C119.688 72.8944 119.731 72.8996 119.773 72.8935C119.814 72.8873 119.854 72.87 119.886 72.8435C119.919 72.8169 119.944 72.782 119.958 72.7425L123.733 61.9125C123.746 61.8759 123.749 61.8367 123.743 61.7984C123.737 61.7602 123.721 61.7242 123.697 61.6936C123.673 61.663 123.642 61.6389 123.606 61.6235C123.57 61.608 123.531 61.6017 123.492 61.605L112.34 62.3475Z" fill="#DD2D2C"/>
<path d="M31.777 36.3675L32.6662 40.5C32.7214 40.75 32.8746 40.91 33.1258 40.98L43.344 43.7775C43.2385 44.1875 42.9597 44.525 42.5076 44.79L32.5531 42.135C32.3019 42.065 32.0533 42.07 31.8071 42.15L29.0943 43.02C28.8029 43.115 28.6799 43.3125 28.7251 43.6125L28.8155 44.265C28.8557 44.57 28.7276 44.7625 28.4312 44.8425L16.412 48.03C16.1558 48.1 15.9523 48.0275 15.8016 47.8125L15.6208 47.565C15.5052 47.4 15.3495 47.3475 15.1536 47.4075L11.0542 48.6975C10.9293 48.7359 10.7943 48.7244 10.6776 48.6657C10.561 48.6069 10.4718 48.5054 10.4288 48.3825L8.19824 41.9625C8.51474 41.7775 8.86639 41.7175 9.25322 41.7825L11.1748 47.13C11.2005 47.2041 11.2544 47.2651 11.3248 47.3002C11.3952 47.3352 11.4766 47.3414 11.5516 47.3175L15.0028 46.23C15.2088 46.165 15.2842 46.03 15.2289 45.825L13.767 40.6275L14.8898 40.2375L16.6682 46.2975C16.7536 46.5775 16.9395 46.68 17.2258 46.605L26.9241 44.0325C27.2004 43.9625 27.3034 43.79 27.233 43.515L25.6958 37.53L26.8713 37.2525L28.077 41.6925C28.0916 41.7455 28.1169 41.795 28.1513 41.8379C28.1857 41.8809 28.2285 41.9164 28.2771 41.9424C28.3258 41.9683 28.3792 41.9842 28.4342 41.9889C28.4892 41.9937 28.5446 41.9873 28.597 41.97L31.0912 41.16C31.3474 41.075 31.4504 40.9025 31.4002 40.6425L30.5185 36.315C30.6642 36.08 30.8375 35.8775 31.0385 35.7075C31.2595 35.5175 31.458 35.5375 31.6338 35.7675C31.7443 35.9175 31.792 36.1175 31.777 36.3675Z" fill="#909091"/>
<path d="M129.437 43.5076C129.679 46.0976 129.304 47.5751 128.315 47.9401C127.868 47.6801 127.674 47.3951 127.734 47.0851C128.181 46.0901 128.405 44.9951 128.405 43.8001C128.822 43.6151 129.166 43.5176 129.437 43.5076Z" fill="#909091"/>
<path d="M52.4245 45.3976L48.8602 48.6826C48.6291 48.8976 48.6668 49.0476 48.9732 49.1326L50.3145 49.4926C50.6059 49.5726 50.7767 49.7601 50.827 50.0551C51.1485 51.8501 50.9199 53.1351 50.1412 53.9101C49.8549 54.1951 49.9051 54.3951 50.2919 54.5101L60.7814 57.6301C61.0477 57.7101 61.1733 57.6126 61.1582 57.3376C61.0025 54.4776 62.0825 53.1301 64.3985 53.2951L66.3125 54.6301C66.5235 54.7751 66.7144 54.7576 66.8852 54.5776C67.0811 54.3676 67.2243 54.1551 67.3147 53.9401C68.0331 54.0351 68.3622 54.4776 68.3019 55.2676C68.2918 55.3976 68.332 55.4126 68.4225 55.3126C69.9195 53.6126 70.5173 51.5401 70.2159 49.0951C70.6228 48.2651 71.0247 47.8976 71.4216 47.9926L71.2935 51.9376C71.2896 52.0719 71.3322 52.2037 71.4143 52.3114C71.4965 52.419 71.6133 52.4962 71.7456 52.5301L92.7321 57.9526C93.0034 58.0276 93.1591 57.9251 93.1993 57.6451L93.3802 56.2126L94.3598 57.2926C94.2694 58.0776 94.3196 58.6101 94.5105 58.8901C102.458 70.6051 110.526 82.1526 118.715 93.5326C118.758 93.5927 118.822 93.6348 118.896 93.6513C118.969 93.6679 119.047 93.6577 119.114 93.6226L128.39 88.7701C128.596 88.6651 128.742 88.5051 128.827 88.2901L130.259 84.5776C130.736 83.9426 131.03 84.3001 131.141 85.6501L130.033 88.6801C129.988 88.8051 130.003 88.9201 130.078 89.0251L131.472 91.0351C131.484 91.0523 131.499 91.0661 131.518 91.0751C131.536 91.0841 131.557 91.088 131.578 91.0865C131.6 91.085 131.62 91.0781 131.639 91.0665C131.657 91.0549 131.672 91.0389 131.683 91.0201L133.19 88.3876L134.185 89.1601C133.703 89.5901 133.366 90.1226 133.175 90.7576C133.105 90.9976 133.183 91.0626 133.409 90.9526L145.24 85.1701C145.486 85.0501 145.669 84.8701 145.79 84.6301L150.228 75.9526C150.474 75.7776 150.811 75.9651 151.238 76.5151L146.747 85.3801C146.59 85.6916 146.334 85.9445 146.016 86.1001L132.053 92.9176C131.895 92.9941 131.715 93.0112 131.546 92.9657C131.377 92.9202 131.23 92.8151 131.133 92.6701L129.302 89.9551C129.256 89.8872 129.187 89.8388 129.106 89.8194C129.025 89.8 128.939 89.811 128.865 89.8501L118.813 95.1076C118.546 95.2476 118.325 95.1926 118.15 94.9426L93.4706 59.6401C93.3048 59.4001 93.0813 59.2451 92.7999 59.1751L71.6703 53.7151C71.193 53.5901 70.8238 53.7351 70.5625 54.1501L66.8023 60.1651C66.6365 60.4301 66.4004 60.5176 66.094 60.4276L45.1753 54.2101C44.8136 54.1051 44.6051 53.8676 44.5498 53.4976L44.0977 50.6176C44.0475 50.2926 44.158 50.0351 44.4293 49.8451C45.4993 49.0901 45.8686 47.9601 45.537 46.4551C45.9741 46.2051 46.3609 46.1101 46.6975 46.1701L46.7954 48.3526C46.7994 48.4064 46.8182 48.458 46.8497 48.5018C46.8813 48.5456 46.9244 48.5798 46.9743 48.6008C47.0242 48.6217 47.0789 48.6285 47.1325 48.6205C47.186 48.6124 47.2363 48.5898 47.2777 48.5551L50.842 45.4051C51.3997 45.2301 51.9271 45.2276 52.4245 45.3976ZM49.0647 50.7702C49.0792 50.7221 49.0544 50.6628 48.9916 50.5956C48.9289 50.5284 48.8294 50.4547 48.6989 50.3786C48.5684 50.3026 48.4095 50.2257 48.2311 50.1524C48.0528 50.079 47.8585 50.0107 47.6595 49.9513C47.2575 49.8312 46.8603 49.7547 46.5554 49.7385C46.2504 49.7223 46.0626 49.7678 46.0333 49.865C46.0188 49.9131 46.0436 49.9725 46.1063 50.0397C46.1691 50.1068 46.2686 50.1806 46.399 50.2566C46.5295 50.3327 46.6885 50.4096 46.8669 50.4829C47.0452 50.5562 47.2395 50.6246 47.4385 50.684C47.8405 50.804 48.2377 50.8806 48.5426 50.8967C48.8476 50.9129 49.0354 50.8674 49.0647 50.7702ZM48.1895 53.4151L48.1066 52.4101C48.0865 52.1851 47.9685 52.0376 47.7525 51.9676L45.9062 51.3826C45.64 51.3026 45.4968 51.4001 45.4767 51.6751C45.3662 52.9951 46.18 53.6726 47.9182 53.7076C48.1192 53.7126 48.2096 53.6151 48.1895 53.4151ZM66.6192 55.4143C66.6291 55.3541 66.5907 55.2865 66.506 55.2156C66.4214 55.1446 66.2922 55.0716 66.1259 55.0007C65.9596 54.9299 65.7594 54.8625 65.5367 54.8026C65.314 54.7426 65.0733 54.6912 64.8281 54.6512C64.583 54.6112 64.3383 54.5836 64.1081 54.5697C63.8778 54.5559 63.6664 54.5561 63.4861 54.5705C63.3058 54.5849 63.16 54.613 63.057 54.6534C62.954 54.6938 62.896 54.7457 62.8861 54.8059C62.8762 54.8662 62.9146 54.9337 62.9993 55.0047C63.0839 55.0757 63.2131 55.1487 63.3794 55.2195C63.5457 55.2904 63.7459 55.3577 63.9686 55.4177C64.1912 55.4777 64.432 55.5291 64.6771 55.5691C64.9223 55.609 65.167 55.6367 65.3972 55.6505C65.6275 55.6644 65.8388 55.6641 66.0192 55.6497C66.1995 55.6354 66.3453 55.6072 66.4483 55.5668C66.5512 55.5264 66.6093 55.4746 66.6192 55.4143ZM62.7557 56.2351C62.7048 56.2223 62.6517 56.2215 62.6004 56.2326C62.5491 56.2437 62.5012 56.2665 62.4603 56.2993C62.4194 56.332 62.3866 56.3737 62.3647 56.4211C62.3427 56.4686 62.3321 56.5204 62.3337 56.5726L62.3639 57.8551C62.3671 57.9249 62.3921 57.992 62.4353 58.0471C62.4785 58.1021 62.5378 58.1425 62.605 58.1626L65.2575 58.9726C65.3094 58.9882 65.3642 58.9913 65.4175 58.9815C65.4707 58.9717 65.5209 58.9493 65.5637 58.9163C65.6065 58.8832 65.6407 58.8404 65.6635 58.7915C65.6862 58.7426 65.6969 58.689 65.6946 58.6351L65.6569 57.2701C65.6547 57.1981 65.6294 57.1286 65.5846 57.0719C65.5399 57.0152 65.4781 56.9743 65.4082 56.9551L62.7557 56.2351Z" fill="#909091"/>
<path d="M142.655 60.1125L142.271 63.57L141.525 62.49C141.369 61.79 141.404 61.135 141.63 60.525C141.826 60.25 142.168 60.1125 142.655 60.1125Z" fill="#909091"/>
<path d="M33.0137 27.5926C33.2649 27.5026 33.6366 27.5951 34.1289 27.8701L34.4831 31.2151C34.5434 31.8101 34.8674 32.1776 35.4552 32.3176L40.8356 33.5776C41.3781 33.7076 41.6218 33.4951 41.5665 32.9401L41.2952 30.1801L41.3631 29.9176C41.4133 29.7326 41.5313 29.6176 41.7172 29.5726C41.9131 29.5326 42.1216 29.5326 42.3427 29.5726L42.6516 32.3551C42.6818 32.6301 42.7571 32.6426 42.8777 32.3926L44.2944 29.4376L44.8143 29.4451L43.0209 33.3601C42.9104 33.6001 42.8576 33.8501 42.8626 34.1101L42.8702 34.7176C42.8708 34.7804 42.857 34.8426 42.8299 34.8993C42.8027 34.956 42.7629 35.0058 42.7135 35.0448C42.664 35.0839 42.6063 35.1112 42.5447 35.1247C42.483 35.1382 42.4191 35.1375 42.3577 35.1226L33.933 33.1576C33.6768 33.0976 33.5361 32.9376 33.511 32.6776L33.0137 27.5926Z" fill="#909091"/>
<path d="M47.6474 28.2975L48.4084 35.3925C48.4336 35.6425 48.5717 35.795 48.8229 35.85L53.9847 36.975C53.6683 37.32 53.2036 37.5825 52.5907 37.7625L47.7152 36.795C47.459 36.745 47.3183 36.59 47.2932 36.33L46.502 28.2675C46.6728 28.0575 46.8737 27.9375 47.1048 27.9075C47.3158 27.8775 47.4966 28.0075 47.6474 28.2975Z" fill="#909091"/>
<path d="M23.4431 28.635L24.7995 33.51C24.8748 33.775 24.7794 33.9375 24.5131 33.9975L14.6717 36.3975C14.4004 36.4625 14.2321 36.3625 14.1668 36.0975L12.833 30.8475C13.1244 30.6875 13.4911 30.63 13.9332 30.675L14.9806 34.725C15.0459 34.975 15.2042 35.07 15.4554 35.01L23.1868 33.12C23.2308 33.1097 23.2721 33.0906 23.3085 33.0638C23.3449 33.037 23.3756 33.0031 23.3987 32.964C23.4219 32.9249 23.4371 32.8814 23.4434 32.836C23.4497 32.7907 23.447 32.7445 23.4355 32.7L22.3655 28.7025C22.9432 28.4625 23.3024 28.44 23.4431 28.635Z" fill="#909091"/>
<path d="M72.7933 35.7976C73.4866 35.8126 73.9286 35.9076 74.1195 36.0826L72.2733 42.5926C72.203 42.8326 72.0473 42.9251 71.8061 42.8701L67.4431 41.8126C67.0562 41.4126 66.7523 40.9776 66.5312 40.5076L70.9923 41.3701C71.2435 41.4201 71.3992 41.3226 71.4595 41.0776L72.7933 35.7976Z" fill="#909091"/>
<path d="M102.069 53.3176L102.965 54.3076L102.724 56.3326C102.694 56.5926 102.757 56.8301 102.913 57.0451L107.336 63.1951C107.517 63.4501 107.632 63.4226 107.683 63.1126L108.075 60.6526C108.597 60.5876 108.946 60.6426 109.122 60.8176L108.911 62.9551C108.876 63.3201 108.966 63.3551 109.182 63.0601L110.034 61.8976C110.38 62.0076 110.576 62.3976 110.622 63.0676L108.225 65.7301C108.019 65.9601 107.828 65.9476 107.653 65.6926C105.884 63.1426 104.043 60.5976 102.129 58.0576C101.702 57.4876 101.511 56.7901 101.556 55.9651C101.602 55.1351 101.772 54.2526 102.069 53.3176Z" fill="#909091"/>
<path d="M114.556 58.8L113.584 60.0075C112.875 60.3175 112.122 60.65 111.323 61.005C111.248 61.04 111.2 60.955 111.18 60.75L112.325 59.5425C113.084 59.1525 113.827 58.905 114.556 58.8Z" fill="#909091"/>
<path d="M112.543 65.6177C112.809 65.7927 113.093 66.1152 113.394 66.5852L112.317 69.7352C112.231 69.9952 112.269 70.2327 112.43 70.4477L117.78 77.4452C117.976 77.6952 118.134 77.6727 118.255 77.3777L119.347 74.7452L120.455 75.2177C120.239 75.5277 120.101 75.8177 120.041 76.0877C119.965 76.4127 120.051 76.4602 120.297 76.2302L122.49 74.1827L124.728 73.4477L119.023 79.3127C118.536 79.8077 118.084 79.7802 117.667 79.2302L111.066 70.6052C110.925 70.4202 110.895 70.2152 110.975 69.9902L112.543 65.6177Z" fill="#909091"/>
<path d="M91.76 41.46C90.5995 41.59 89.7254 41.49 89.1377 41.16L79.3867 39.3675C79.0852 39.0725 78.7436 38.98 78.3618 39.09C77.5982 38.7 76.709 38.4825 75.6942 38.4375C75.6341 38.4346 75.5757 38.4162 75.5249 38.384C75.4741 38.3518 75.4326 38.3071 75.4044 38.2541C75.3763 38.2011 75.3625 38.1417 75.3644 38.0818C75.3664 38.0219 75.3839 37.9636 75.4154 37.9125L79.9518 30.4875C80.0997 30.2469 80.3105 30.05 80.5622 29.9175L88.6403 25.62C88.8714 25.495 89.0723 25.5325 89.2431 25.7325L95.7313 33.525C95.9171 33.745 95.9397 33.98 95.7991 34.23L91.76 41.46ZM90.8633 39.8325C90.8823 39.88 90.9146 39.9212 90.9562 39.9512C90.9979 39.9813 91.0473 39.9989 91.0986 40.002C91.15 40.0052 91.2012 39.9937 91.2462 39.969C91.2913 39.9443 91.3283 39.9073 91.3531 39.8625L94.4879 34.1625C94.5134 34.1151 94.5242 34.0613 94.5188 34.0079C94.5134 33.9544 94.4922 33.9038 94.4577 33.8625L89.213 27.5625C89.1845 27.5291 89.1483 27.5031 89.1075 27.4868C89.0667 27.4705 89.0226 27.4642 88.9788 27.4687C88.9351 27.4731 88.8931 27.488 88.8564 27.5122C88.8198 27.5364 88.7896 27.5691 88.7684 27.6075L87.1935 30.495C87.1737 30.5301 87.1621 30.5693 87.1595 30.6095C87.1568 30.6497 87.1633 30.6901 87.1784 30.7275L90.8633 39.8325ZM78.7537 34.6875C78.5979 34.9025 78.4548 35.12 78.3241 35.34C78.1282 35.685 78.191 35.74 78.5125 35.505C80.6577 33.945 82.8329 32.3825 85.0383 30.8175C86.033 30.1125 86.7313 29.2075 87.1332 28.1025C87.2588 27.7625 87.1633 27.685 86.8468 27.87C85.3146 28.77 83.7322 29.6125 82.0994 30.3975C80.3663 31.2375 79.8539 33.1875 78.7537 34.6875ZM78.0905 37.215C78.0498 37.2443 78.0187 37.285 78.0011 37.3318C77.9834 37.3787 77.98 37.4297 77.9912 37.4785C78.0025 37.5272 78.0279 37.5716 78.0643 37.6061C78.1007 37.6406 78.1465 37.6637 78.196 37.6725L89.1678 39.8475C89.213 39.8561 89.2596 39.8525 89.3029 39.837C89.3462 39.8215 89.3845 39.7948 89.4137 39.7595C89.443 39.7242 89.4622 39.6817 89.4693 39.6365C89.4765 39.5913 89.4712 39.545 89.4541 39.5025L86.3194 31.8C86.3048 31.7645 86.2824 31.7327 86.2539 31.7071C86.2253 31.6814 86.1913 31.6624 86.1544 31.6516C86.1175 31.6408 86.0786 31.6384 86.0406 31.6446C86.0026 31.6508 85.9666 31.6655 85.935 31.6875L78.0905 37.215Z" fill="#DD2D2C"/>
<path d="M79.387 39.3675L79.4548 43.05C79.4546 43.1247 79.4798 43.1972 79.5263 43.2558C79.5728 43.3144 79.638 43.3555 79.711 43.3725L88.5502 45.435C88.6141 45.4496 88.6805 45.4501 88.7444 45.4362C88.8083 45.4224 88.8682 45.3946 88.9196 45.355C88.971 45.3154 89.0125 45.2649 89.0412 45.2074C89.0699 45.1498 89.085 45.0866 89.0853 45.0225L89.138 41.16C89.7258 41.49 90.5999 41.59 91.7604 41.46L90.193 46.6875C90.1696 46.77 90.1156 46.8403 90.0425 46.8837C89.9694 46.9271 89.8828 46.9401 89.8011 46.92L78.7239 44.3325C78.4727 44.2775 78.3496 44.1225 78.3546 43.8675L78.3622 39.09C78.744 38.98 79.0856 39.0725 79.387 39.3675Z" fill="#909091"/>
</svg>
