<svg width="119" height="63" viewBox="0 0 119 63" fill="none" xmlns="http://www.w3.org/2000/svg">
<path d="M113.959 23.695L112.015 21.64L98.1646 6.06245C98.1372 6.03131 98.1032 6.00649 98.0652 5.98972C98.0272 5.97296 97.9859 5.96464 97.9443 5.96535C97.9027 5.96607 97.8618 5.97579 97.8243 5.99386C97.7869 6.01192 97.7539 6.03789 97.7275 6.06995L76.4924 32.8825L74.6236 33.43L56.2594 31.945L54.2399 31.735C53.5265 30.305 52.5394 29.0675 51.2784 28.0225L49.3719 25.7875L35.5593 9.91745C35.5388 9.89441 35.5139 9.87564 35.4862 9.86232C35.4585 9.849 35.4285 9.84139 35.3982 9.83999C35.3678 9.83858 35.3377 9.8434 35.3096 9.85415C35.2816 9.86489 35.2563 9.88133 35.2353 9.90245L22.8393 22.0525L20.8499 23.9875L16.8787 27.7C16.6978 27.87 16.4843 27.9525 16.2382 27.9475L12.9074 27.91C12.5658 27.71 12.1036 27.67 11.5209 27.79L0.812892 27.025C0.461233 27 0.418532 26.87 0.684788 26.635L30.307 0.489955C30.4001 0.406788 30.5086 0.342766 30.6263 0.301576C30.744 0.260386 30.8686 0.242842 30.9927 0.249955L97.4487 2.91995C97.8506 2.93495 98.1872 3.09246 98.4585 3.39246L118.367 25.525C118.714 25.91 118.754 26.3225 118.488 26.7625C118.352 26.9875 118.154 27.1425 117.893 27.2275C117.755 27.2742 117.607 27.2806 117.467 27.246C117.327 27.2114 117.2 27.1373 117.101 27.0325L113.959 23.695ZM62.8304 5.82996L63.4408 27.295C63.4453 27.4318 63.4101 27.5673 63.3393 27.6855C63.2686 27.8038 63.1652 27.8998 63.0414 27.9625L59.5073 29.7475C59.03 29.9875 59.0576 30.125 59.5901 30.16L74.7441 31.18C75.0104 31.2 75.2264 31.105 75.3922 30.895L95.9416 5.12495C95.9644 5.09768 95.979 5.06451 95.9837 5.02931C95.9883 4.99411 95.9828 4.95832 95.9678 4.92611C95.9528 4.8939 95.9289 4.86659 95.8989 4.84736C95.8689 4.82812 95.8341 4.81775 95.7984 4.81745L31.8443 2.25246C31.5127 2.23746 31.2213 2.33995 30.9701 2.55995L5.45479 25.0825C5.43419 25.101 5.41947 25.1252 5.41242 25.1519C5.40537 25.1787 5.40629 25.2069 5.41508 25.2331C5.42387 25.2594 5.44014 25.2825 5.46191 25.2997C5.48368 25.3169 5.51001 25.3274 5.53768 25.33L15.4318 25.9525C15.5862 25.9618 15.7409 25.9393 15.8861 25.8864C16.0313 25.8335 16.164 25.7513 16.2758 25.645L34.8208 7.50996C35.0418 7.29496 35.3056 7.17745 35.612 7.15745L62.2803 5.32746C62.637 5.30246 62.8204 5.46996 62.8304 5.82996ZM60.9013 7.63745C60.9004 7.60625 60.8931 7.57556 60.88 7.54721C60.8669 7.51886 60.8482 7.49342 60.825 7.47243C60.8018 7.45143 60.7745 7.4353 60.7449 7.42499C60.7153 7.41469 60.6839 7.41043 60.6527 7.41245L37.8652 8.96495C37.8224 8.96853 37.7814 8.98379 37.7467 9.00904C37.712 9.0343 37.6851 9.06858 37.6687 9.10812C37.6523 9.14765 37.6473 9.19091 37.654 9.23313C37.6607 9.27536 37.6791 9.31492 37.7069 9.34746L55.3627 29.4775C55.3974 29.5172 55.4446 29.544 55.4967 29.5535C55.5487 29.5631 55.6024 29.5548 55.649 29.53L61.3082 26.6125C61.3458 26.5918 61.3769 26.5613 61.3981 26.5243C61.4194 26.4872 61.43 26.4451 61.4288 26.4025L60.9013 7.63745Z" fill="#DD2D2C"/>
<path d="M112.015 21.6399L113.959 23.6949V50.1924C113.959 50.4374 113.836 50.5899 113.59 50.6499L75.4 60.0024C74.9622 60.1063 74.5116 60.1242 74.0738 60.0549L56.6591 57.3099C56.3477 57.2599 56.0839 57.3499 55.8679 57.5799L51.4069 62.2224C51.236 62.4024 51.0276 62.4724 50.7814 62.4324L21.3099 57.8199C21.0135 57.7749 20.8653 57.6024 20.8653 57.3024V52.4049C20.8653 52.1199 20.7221 51.9549 20.4358 51.9099L11.8302 50.6124C11.7427 50.5998 11.6627 50.5558 11.6047 50.4884C11.5466 50.421 11.5143 50.3346 11.5137 50.2449L11.5212 27.7899C12.104 27.6699 12.5661 27.7099 12.9077 27.9099L12.9304 48.4899C12.9304 48.7799 13.0735 48.9474 13.3599 48.9924L20.4282 50.0349C20.7096 50.0749 20.8502 49.9549 20.8502 49.6749V23.9874L22.8396 22.0524L22.8622 55.6374C22.8622 55.9374 23.0079 56.1099 23.2993 56.1549L48.8824 60.1524C49.1638 60.1974 49.3044 60.0774 49.3044 59.7924L49.3722 25.7874L51.2787 28.0224L51.2863 59.2974C51.2856 59.3142 51.29 59.3308 51.2991 59.345C51.3082 59.3592 51.3214 59.3704 51.3369 59.3769C51.3525 59.3834 51.3697 59.385 51.3863 59.3816C51.4028 59.3781 51.4179 59.3696 51.4295 59.3574L54.0594 56.5899C54.1705 56.4747 54.2326 56.3242 54.2327 56.1699L54.2402 31.7349L56.2597 31.9449L56.2899 54.9774C56.2899 55.2374 56.418 55.3874 56.6742 55.4274L74.3601 58.0374C74.546 58.0624 74.6389 57.9824 74.6389 57.7974L74.6239 33.4299L76.4927 32.8824L76.6735 57.3024C76.6735 57.5574 76.7966 57.6524 77.0428 57.5874L111.503 49.1124C111.769 49.0474 111.902 48.8799 111.902 48.6099L112.015 21.6399Z" fill="#909091"/>
</svg>
