<svg width="81" height="82" viewBox="0 0 81 82" fill="none" xmlns="http://www.w3.org/2000/svg">
<path d="M75.661 35.1725L73.9882 33.5975L60.7105 21.35C60.5648 21.215 60.4367 21.23 60.3262 21.395L40.6057 50.3975C39.8923 51.5525 39.3347 52.025 38.9328 51.815L6.96702 33.3275L5.11327 32.39L0.51659 29.48C0.310618 29.35 0.277966 29.1825 0.41863 28.9775L19.8679 0.717485C19.9784 0.547485 20.1266 0.504985 20.3125 0.589985C33.0274 6.32499 45.8228 12.085 58.6985 17.87C60.0097 18.46 61.2028 19.2525 62.2779 20.2475C68.0351 25.5975 73.8726 30.97 79.7905 36.365C80.1573 36.7 80.1723 37.0525 79.8357 37.4225L79.5946 37.6775C79.4716 37.8112 79.3005 37.8914 79.1176 37.9012C78.9347 37.911 78.7545 37.8496 78.615 37.73L75.661 35.1725ZM20.9002 2.86999C20.8402 2.84281 20.7724 2.83769 20.709 2.85554C20.6455 2.87339 20.5905 2.91306 20.5536 2.96749L2.97318 28.5275C2.95108 28.5586 2.93564 28.5939 2.92783 28.6311C2.92002 28.6684 2.92 28.7069 2.92777 28.7442C2.93555 28.7815 2.95095 28.8168 2.97302 28.8479C2.9951 28.879 3.02337 28.9052 3.05607 28.925L38.6012 49.4525C38.6619 49.4875 38.7336 49.4984 38.8021 49.4831C38.8705 49.4678 38.9306 49.4274 38.9705 49.37L58.8342 20.3075C58.8564 20.2743 58.8712 20.2367 58.8775 20.1973C58.8839 20.1579 58.8816 20.1177 58.8709 20.0792C58.8601 20.0408 58.8412 20.0051 58.8154 19.9746C58.7895 19.9441 58.7574 19.9195 58.7211 19.9025L20.9002 2.86999Z" fill="#DD2D2C"/>
<path d="M5.11328 32.39L6.96702 33.3275L6.95949 54.9875C6.95932 55.0885 6.98486 55.1877 7.03366 55.2757C7.08247 55.3637 7.15292 55.4374 7.2383 55.49L38.9554 75.56C39.2016 75.715 39.3221 75.6475 39.3171 75.3575L38.9328 51.815C39.3347 52.025 39.8923 51.5525 40.6057 50.3975L41.1106 75.995C41.112 76.0141 41.1176 76.0326 41.1271 76.0491C41.1366 76.0656 41.1496 76.0796 41.1651 76.0899C41.1806 76.1002 41.1981 76.1065 41.2161 76.1082C41.2342 76.11 41.2522 76.1072 41.2688 76.1L47.6439 73.595C47.6995 73.5726 47.7471 73.5343 47.7806 73.4849C47.8142 73.4354 47.8322 73.3772 47.8323 73.3175V54.8825C48.4 55.0425 48.9852 55.345 49.5881 55.79L49.5655 72.3425C49.5652 72.5752 49.6237 72.8046 49.7355 73.0102C49.8473 73.2157 50.009 73.3909 50.206 73.52L58.2464 78.7175C58.5629 78.9175 58.7211 78.8325 58.7211 78.4625L58.7739 60.7925C59.4672 61.1725 60.0499 60.9475 60.5221 60.1175L60.5598 78.875C60.5602 78.9118 60.5694 78.9479 60.5865 78.9805C60.6037 79.013 60.6284 79.041 60.6585 79.0623C60.6887 79.0835 60.7234 79.0973 60.76 79.1026C60.7965 79.1078 60.8338 79.1044 60.8688 79.0925L75.759 73.43C75.8409 73.3995 75.9114 73.3443 75.9612 73.272C76.011 73.1996 76.0378 73.1134 76.0378 73.025L76.0604 50.7425C76.7135 50.8075 77.3088 51.115 77.8464 51.665L77.8765 74.255C77.8765 74.46 77.7811 74.5975 77.5901 74.6675L59.859 81.4325C59.5375 81.5575 59.2311 81.525 58.9397 81.335L49.5579 75.275C49.4201 75.1846 49.2619 75.1286 49.0968 75.1116C48.9316 75.0947 48.7641 75.1173 48.6084 75.1775L41.5928 77.9225C41.3919 78.0025 41.2814 78.1475 41.2613 78.3575L41.2236 78.7475C41.2191 78.7882 41.2044 78.8272 41.1811 78.8609C41.1577 78.8945 41.1264 78.9217 41.0901 78.9397C41.0538 78.9578 41.0138 78.9661 40.9739 78.964C40.9339 78.9619 40.8954 78.9493 40.8619 78.9275L5.45238 56.525C5.23636 56.385 5.12835 56.19 5.12835 55.94L5.11328 32.39Z" fill="#909091"/>
<path d="M73.9883 33.5975L75.6612 35.1725L75.6913 47.8625L73.9883 46.94V33.5975Z" fill="#909091"/>
<path d="M73.9884 46.94L75.6914 47.8625L80.3559 50.9525C80.7628 51.2225 80.9035 51.5925 80.7779 52.0625C80.7226 52.2625 80.6021 52.4225 80.4162 52.5425C80.2955 52.622 80.1549 52.6675 80.009 52.6741C79.8632 52.6807 79.7175 52.6482 79.5873 52.58L77.8466 51.665C77.309 51.115 76.7137 50.8075 76.0607 50.7425L70.4391 46.985C70.2181 46.84 70.0297 46.875 69.874 47.09L60.5224 60.1175C60.0501 60.9475 59.4674 61.1725 58.7741 60.7925L49.5883 55.79C48.9854 55.345 48.4002 55.0425 47.8325 54.8825L46.1822 53.78C45.9863 53.645 45.9612 53.485 46.1069 53.3L58.2466 37.3325C58.2902 37.2749 58.3541 37.236 58.4254 37.2235C58.4968 37.2109 58.5702 37.2258 58.6309 37.265L73.9884 46.94ZM48.7669 52.85C48.7439 52.8794 48.7276 52.9135 48.7192 52.9499C48.7109 52.9862 48.7106 53.024 48.7185 53.0605C48.7264 53.097 48.7423 53.1313 48.765 53.161C48.7877 53.1907 48.8166 53.2151 48.8498 53.2325L58.955 58.64C59.0091 58.6679 59.0715 58.6757 59.1309 58.6619C59.1903 58.6482 59.2428 58.6138 59.279 58.565L68.4272 45.95C68.4466 45.9216 68.4602 45.8896 68.4669 45.856C68.4737 45.8223 68.4735 45.7876 68.4665 45.754C68.4595 45.7204 68.4457 45.6885 68.426 45.6603C68.4063 45.6321 68.381 45.6082 68.3518 45.59L59.0379 39.725C58.984 39.6912 58.9194 39.6787 58.8567 39.6898C58.794 39.7009 58.7377 39.7348 58.6988 39.785L48.7669 52.85Z" fill="#DD2D2C"/>
</svg>
