<svg width="159" height="96" viewBox="0 0 159 96" fill="none" xmlns="http://www.w3.org/2000/svg">
<path d="M135.594 41.9925C135.047 41.9075 134.655 41.9825 134.419 42.2175" stroke="#909091" stroke-width="2"/>
<path d="M103.139 46.29C102.838 45.94 102.443 45.895 101.956 46.155" stroke="#909091" stroke-width="2"/>
<path d="M88.7161 44.6099C88.4649 44.3199 88.0957 44.1949 87.6084 44.2349" stroke="#909091" stroke-width="2"/>
<path d="M47.4813 48.8925C46.8885 48.5925 46.3384 48.61 45.8311 48.945" stroke="#909091" stroke-width="2"/>
<path d="M25.9526 42.4874C25.616 42.1874 25.2392 42.0674 24.8223 42.1274" stroke="#909091" stroke-width="2"/>
<path d="M135.595 41.9925C135.047 41.9075 134.655 41.9825 134.419 42.2175L103.373 45.99C103.302 45.995 103.252 46.03 103.222 46.095C103.187 46.155 103.159 46.22 103.139 46.29C102.838 45.94 102.443 45.895 101.956 46.155C101.951 45.935 101.876 45.8175 101.73 45.8025C97.5152 45.3225 93.3104 44.7925 89.1156 44.2125C88.6785 44.1525 88.5454 44.285 88.7162 44.61C88.465 44.32 88.0958 44.195 87.6085 44.235C84.9032 44.2275 81.7157 44.7825 79.6359 45.0075C69.0359 46.1575 58.4409 47.35 47.8509 48.585C47.5495 48.62 47.4264 48.7225 47.4817 48.8925C46.8889 48.5925 46.3388 48.61 45.8314 48.945C45.741 48.695 45.5325 48.5175 45.206 48.4125C38.8309 46.4175 32.4131 44.4425 25.9526 42.4875C25.6161 42.1875 25.2393 42.0675 24.8223 42.1275L18.7863 40.23C16.807 39.605 16.7342 38.805 18.5678 37.83C30.2027 31.635 41.8476 25.44 53.5026 19.245C54.5425 18.695 55.5724 18.4075 56.5922 18.3825C64.9466 18.1775 73.9189 17.89 83.5091 17.52C90.9166 17.235 98.0904 17.2875 105.438 17.2875C105.704 17.2875 105.945 17.3625 106.161 17.5125L141.111 40.71C141.518 40.98 141.478 41.15 140.99 41.22L135.595 41.9925ZM56.1325 20.19C56.0793 20.1912 56.028 20.2093 55.9859 20.2417C55.9439 20.2741 55.9134 20.3191 55.8989 20.37L47.8961 46.4025C47.8849 46.4414 47.8833 46.4824 47.8917 46.522C47.9 46.5616 47.918 46.5986 47.944 46.6297C47.97 46.6608 48.0033 46.685 48.041 46.7003C48.0786 46.7157 48.1194 46.7215 48.1599 46.7175L86.5836 42.405C86.6358 42.3978 86.6844 42.3744 86.7223 42.338C86.7602 42.3016 86.7855 42.2541 86.7946 42.2025L91.0371 19.3125C91.044 19.2758 91.0424 19.238 91.0326 19.202C91.0227 19.166 91.0048 19.1327 90.9801 19.1046C90.9555 19.0764 90.9247 19.0542 90.8903 19.0396C90.8558 19.0249 90.8184 19.0182 90.7809 19.02L56.1325 20.19ZM104.872 19.305C104.879 19.258 104.875 19.2102 104.861 19.1649C104.848 19.1195 104.824 19.0776 104.793 19.042C104.761 19.0064 104.723 18.978 104.679 18.9587C104.636 18.9393 104.588 18.9296 104.541 18.93L93.3807 18.945C93.3023 18.9437 93.2259 18.9701 93.1652 19.0195C93.1045 19.069 93.0634 19.1382 93.0491 19.215L88.8443 42.12C88.8357 42.1645 88.8364 42.2103 88.8464 42.2545C88.8563 42.2987 88.8753 42.3404 88.9022 42.377C88.9291 42.4136 88.9632 42.4443 89.0025 42.4672C89.0418 42.4901 89.0854 42.5046 89.1306 42.51L101.466 43.8525C101.552 43.861 101.638 43.8361 101.705 43.7829C101.773 43.7297 101.817 43.6524 101.828 43.5675L104.872 19.305ZM106.884 20.1C106.848 20.0752 106.806 20.0601 106.762 20.0562C106.718 20.0524 106.674 20.0598 106.634 20.0779C106.594 20.096 106.559 20.1242 106.533 20.1595C106.507 20.1949 106.49 20.2364 106.485 20.28L103.584 43.815C103.579 43.8536 103.583 43.8928 103.596 43.9296C103.608 43.9664 103.629 43.9998 103.657 44.0273C103.684 44.0548 103.718 44.0757 103.755 44.0883C103.792 44.1009 103.831 44.1049 103.87 44.1L136.273 40.11C136.325 40.1039 136.374 40.0822 136.413 40.0476C136.452 40.013 136.48 39.9673 136.492 39.9167C136.505 39.866 136.501 39.8128 136.482 39.7642C136.463 39.7157 136.43 39.674 136.386 39.645L106.884 20.1ZM53.0354 21.4725L20.5798 38.73C20.419 38.82 20.4266 38.89 20.6024 38.94L45.3717 46.5525C45.6129 46.6275 45.7686 46.545 45.8389 46.305L53.3971 21.765C53.5177 21.375 53.3971 21.2775 53.0354 21.4725Z" fill="#DD2D2C"/>
<path d="M135.595 41.9925L135.603 69.2025C135.603 69.2867 135.573 69.3683 135.518 69.4318C135.462 69.4954 135.385 69.5365 135.301 69.5475L103.057 73.875C102.685 73.9244 102.306 73.8911 101.949 73.7775L88.1439 69.525C87.8927 69.45 87.639 69.4425 87.3828 69.5025L47.0299 79.4475C46.7034 79.5325 46.3869 79.505 46.0805 79.365L25.2296 69.8775C24.9483 69.7475 24.8076 69.5275 24.8076 69.2175L24.8227 42.1275C25.2397 42.0675 25.6164 42.1875 25.953 42.4875V68.5725C25.953 68.8225 26.0661 69 26.2921 69.105L45.568 77.88C45.5965 77.8939 45.628 77.9004 45.6597 77.8989C45.6914 77.8975 45.7222 77.8881 45.7492 77.8716C45.7763 77.8552 45.7987 77.8322 45.8144 77.8048C45.8302 77.7774 45.8388 77.7465 45.8393 77.715L45.8318 48.945C46.3392 48.61 46.8893 48.5925 47.4821 48.8925L47.4745 77.835C47.4741 77.8763 47.4835 77.9171 47.5019 77.9542C47.5203 77.9914 47.5473 78.0239 47.5807 78.0492C47.6142 78.0746 47.6533 78.0921 47.695 78.1005C47.7367 78.1088 47.7798 78.1078 47.8212 78.0975L87.3451 68.3475C87.4191 68.3276 87.4844 68.2845 87.5307 68.2247C87.5771 68.165 87.6019 68.0921 87.6013 68.0175L87.6089 44.235C88.0962 44.195 88.4654 44.32 88.7166 44.61L88.7241 68.1C88.7241 68.38 88.8598 68.5625 89.131 68.6475L101.519 72.4575C101.791 72.5425 101.929 72.4425 101.934 72.1575L101.957 46.155C102.444 45.895 102.838 45.94 103.14 46.29L103.125 72.4575C103.124 72.4907 103.131 72.5236 103.145 72.554C103.159 72.5844 103.179 72.6115 103.205 72.6335C103.231 72.6556 103.261 72.672 103.294 72.6817C103.327 72.6915 103.362 72.6943 103.396 72.69L133.99 68.5875C134.266 68.5475 134.405 68.39 134.405 68.115L134.42 42.2175C134.656 41.9825 135.048 41.9075 135.595 41.9925Z" fill="#909091"/>
</svg>
