<svg width="107" height="73" viewBox="0 0 107 73" fill="none" xmlns="http://www.w3.org/2000/svg">
<path d="M98.1326 24.9675L96.3843 25.6575C70.9494 36.3825 54.0773 43.515 45.7681 47.055C45.5671 47.14 45.3913 47.32 45.2406 47.595L43.4697 47.415L24.9097 27.1425C24.754 26.9675 24.5681 26.9325 24.3521 27.0375L6.98264 35.2575L5.257 36.12L1.62487 37.7175C1.24809 37.8825 0.906476 37.8275 0.600031 37.5525C0.524675 37.4875 0.471927 37.41 0.441785 37.32C0.245861 36.76 0.416667 36.3525 0.954202 36.0975L77.4475 0.0749505C77.5137 0.0434802 77.5867 0.0303298 77.6585 0.0369461C77.7303 0.0435625 77.7981 0.0696885 77.8544 0.11245L106.339 21.03C106.378 21.0602 106.409 21.1001 106.429 21.1459C106.448 21.1916 106.455 21.2416 106.449 21.2909C106.443 21.3401 106.424 21.3869 106.394 21.4266C106.364 21.4664 106.324 21.4977 106.279 21.5175L98.1326 24.9675ZM102.737 21.0225C102.774 21.0059 102.806 20.9801 102.83 20.9475C102.854 20.9149 102.869 20.8766 102.873 20.8365C102.878 20.7964 102.872 20.7558 102.856 20.7187C102.84 20.6816 102.814 20.6493 102.782 20.625L77.5681 2.10745C77.5338 2.08212 77.4932 2.06663 77.4507 2.06267C77.4082 2.0587 77.3654 2.06641 77.3269 2.08495L26.6429 25.9575C26.6101 25.9734 26.5816 25.9969 26.5595 26.0258C26.5375 26.0548 26.5226 26.0885 26.516 26.1242C26.5094 26.1599 26.5113 26.1967 26.5215 26.2316C26.5318 26.2664 26.5501 26.2984 26.5751 26.325L44.4795 45.51C44.5127 45.5447 44.5558 45.5684 44.603 45.5778C44.6502 45.5872 44.6992 45.5818 44.7433 45.5625L102.737 21.0225Z" fill="#DD2D2C"/>
<path d="M98.1324 24.9674V48.8849C98.1324 48.9631 98.1098 49.0398 98.0671 49.1062C98.0244 49.1726 97.9635 49.2259 97.8913 49.2599L44.826 72.6074C44.5848 72.7124 44.3337 72.7399 44.0724 72.6899L5.49044 65.3699C5.3347 65.3399 5.25684 65.2449 5.25684 65.0849V36.1199L6.98248 35.2574L7.01262 63.5249C7.01262 63.7599 7.13067 63.8999 7.36679 63.9449L42.9948 70.7024C43.3013 70.7624 43.4545 70.6374 43.4545 70.3274L43.4696 47.4149L45.2404 47.5949L45.263 70.1024C45.263 70.3624 45.3836 70.4399 45.6248 70.3349L96.0752 48.1424C96.1697 48.1003 96.2499 48.0319 96.3061 47.9453C96.3623 47.8588 96.392 47.7579 96.3917 47.6549L96.3842 25.6574L98.1324 24.9674Z" fill="#909091"/>
</svg>
