<svg width="159" height="96" viewBox="0 0 159 96" fill="none" xmlns="http://www.w3.org/2000/svg">
<path d="M127.23 40.6725L125.603 40.89" stroke="#909091" stroke-width="2"/>
<path d="M74.1116 49.11L72.4463 49.0125" stroke="#909091" stroke-width="2"/>
<path d="M33.39 38.3699L31.7773 38.0024" stroke="#909091" stroke-width="2"/>
<path d="M127.23 40.6725L125.602 40.89L74.112 49.11L72.4467 49.0125L33.3899 38.37L31.7773 38.0025L26.9847 36.63C26.5376 36.5 26.5225 36.335 26.9395 36.135C39.0918 30.21 51.9173 23.9675 65.416 17.4075C66.4308 16.9125 67.4355 16.66 68.4302 16.65C76.4179 16.595 84.913 16.535 93.9154 16.47C94.2671 16.47 94.5911 16.56 94.8875 16.74L132.083 39.36C132.334 39.515 132.317 39.6225 132.03 39.6825L127.23 40.6725ZM127.298 38.895C127.343 38.8874 127.385 38.8664 127.418 38.8347C127.451 38.8029 127.473 38.7619 127.482 38.7172C127.491 38.6724 127.486 38.626 127.468 38.5841C127.45 38.5422 127.42 38.5067 127.381 38.4825L94.0209 18.1875C93.9843 18.1665 93.9426 18.1561 93.9004 18.1575L68.5131 18.3C68.4798 18.3004 68.4471 18.3081 68.4172 18.3226C68.3872 18.3371 68.3609 18.358 68.34 18.3838C68.3192 18.4096 68.3043 18.4397 68.2964 18.4718C68.2885 18.504 68.2879 18.5375 68.2946 18.57L73.9161 47.19C73.9288 47.2473 73.9635 47.2974 74.0127 47.3296C74.062 47.3618 74.122 47.3736 74.1798 47.3625L127.298 38.895ZM71.8061 47.0775C71.8485 47.0887 71.8931 47.0889 71.9356 47.0781C71.9781 47.0673 72.0171 47.0458 72.0489 47.0157C72.0806 46.9856 72.1041 46.9479 72.117 46.9062C72.1299 46.8645 72.1319 46.8201 72.1226 46.7775L66.6744 19.0425C66.6668 19.0044 66.6505 18.9686 66.6268 18.9377C66.6031 18.9069 66.5727 18.8818 66.5378 18.8645C66.5029 18.8471 66.4645 18.8379 66.4255 18.8376C66.3865 18.8372 66.3479 18.8457 66.3127 18.8625L31.6643 35.6775C31.6157 35.6994 31.5753 35.7358 31.5485 35.7817C31.5218 35.8276 31.51 35.8807 31.515 35.9335C31.52 35.9863 31.5414 36.0363 31.5763 36.0765C31.6111 36.1166 31.6577 36.1449 31.7095 36.1575L71.8061 47.0775Z" fill="#DD2D2C"/>
<path d="M31.7778 38.0024L33.3904 38.3699L33.3828 65.3399C33.3828 65.4663 33.4229 65.5894 33.4973 65.6918C33.5717 65.7941 33.6767 65.8705 33.7973 65.9099L72.0477 78.1199C72.3039 78.2049 72.432 78.1099 72.432 77.8349L72.4471 49.0124L74.1125 49.1099L74.1351 77.9474C74.1351 78.2174 74.2657 78.3224 74.5269 78.2624L125.264 66.6749C125.359 66.6544 125.445 66.6009 125.507 66.5231C125.568 66.4454 125.602 66.3482 125.603 66.2474V40.8899L127.231 40.6724L127.246 67.6349C127.246 67.8349 127.148 67.9574 126.952 68.0024L73.6905 80.1674C73.3991 80.2324 73.1127 80.2199 72.8314 80.1299L31.8908 67.0574C31.8054 67.0274 31.7627 66.9674 31.7627 66.8774L31.7778 38.0024Z" fill="#909091"/>
</svg>
