<svg width="107" height="84" viewBox="0 0 107 84" fill="none" xmlns="http://www.w3.org/2000/svg">
<path d="M101.155 32.91C100.712 32.98 100.24 33.2025 99.7378 33.5775L89.7909 38.4075C89.5297 38.5325 89.5347 38.65 89.806 38.76L99.783 42.735L101.147 43.26L106.03 45.465C106.261 45.57 106.271 45.6925 106.06 45.8325L101.155 49.1325C100.692 49.2425 100.203 49.5125 99.6851 49.9425C93.6767 53.7075 87.6508 57.5075 81.6073 61.3425C81.3913 61.4825 81.2858 61.6975 81.2908 61.9875L79.7309 61.65L65.2024 54.6375C64.7553 54.3025 64.2454 54.33 63.6727 54.72L48.6318 61.6575C48.1897 61.7525 47.7049 61.75 47.1774 61.65L19.3712 49.245L17.9093 48.645L11.9412 46.1475C12.1421 45.6775 12.4385 45.24 12.8304 44.835C13.177 44.8725 13.4332 44.9475 13.7949 44.79C20.6975 41.69 27.8537 38.45 35.2637 35.07C35.7862 34.835 35.7811 34.61 35.2486 34.395L9.31128 24.075C8.83905 23.77 8.33668 23.6125 7.80417 23.6025L0.750901 20.67C0.709877 20.6534 0.674455 20.6255 0.648764 20.5896C0.623073 20.5537 0.608173 20.5112 0.605803 20.4672C0.603434 20.4231 0.613689 20.3794 0.635377 20.3409C0.657065 20.3025 0.689293 20.271 0.728295 20.25L36.4769 0.877542C36.5662 0.828391 36.6655 0.800142 36.7673 0.794943C36.8692 0.789745 36.9709 0.807734 37.0647 0.847542L106.279 29.9325C106.321 29.9504 106.357 29.9799 106.383 30.0176C106.409 30.0553 106.424 30.0996 106.426 30.1453C106.427 30.191 106.416 30.2362 106.392 30.2755C106.369 30.3149 106.335 30.3468 106.294 30.3675L101.155 32.91ZM38.1649 33.8325C38.1952 33.844 38.2275 33.8492 38.2598 33.8479C38.2922 33.8466 38.324 33.8388 38.3533 33.825L73.0771 18.0825C73.1183 18.0625 73.153 18.0312 73.177 17.9923C73.201 17.9533 73.2133 17.9083 73.2125 17.8627C73.2117 17.817 73.1979 17.7725 73.1725 17.7343C73.1472 17.6962 73.1115 17.6661 73.0695 17.6475L36.9517 2.49754C36.9182 2.48278 36.8818 2.47579 36.8453 2.47709C36.8087 2.47839 36.773 2.48795 36.7407 2.50504L4.41318 20.0175C4.37247 20.0389 4.33876 20.0714 4.31602 20.1112C4.29328 20.151 4.28246 20.1965 4.28484 20.2422C4.28721 20.288 4.30269 20.3321 4.32944 20.3693C4.35618 20.4066 4.39308 20.4355 4.43578 20.4525L38.1649 33.8325ZM63.7028 52.995C63.7432 52.9765 63.7774 52.9469 63.8014 52.9097C63.8254 52.8725 63.8383 52.8293 63.8385 52.785L63.6652 29.1C63.6646 29.0614 63.6738 29.0233 63.6918 28.9891C63.7097 28.9549 63.736 28.9257 63.7681 28.9041C63.8003 28.8826 63.8373 28.8693 63.8759 28.8655C63.9145 28.8617 63.9534 28.8676 63.9892 28.8825L87.048 37.9425C87.0782 37.9544 87.1105 37.9598 87.1429 37.9585C87.1754 37.9573 87.2072 37.9493 87.2363 37.935L102.481 30.4425C102.52 30.423 102.554 30.3926 102.576 30.355C102.599 30.3174 102.611 30.2741 102.61 30.2302C102.61 30.1862 102.596 30.1433 102.572 30.1066C102.548 30.0698 102.513 30.0407 102.473 30.0225L75.5487 18.6975C75.5185 18.6857 75.4862 18.6802 75.4537 18.6815C75.4213 18.6828 75.3895 18.6908 75.3603 18.705L46.7629 31.77C46.7202 31.7896 46.6844 31.8215 46.6602 31.8617C46.636 31.9018 46.6245 31.9483 46.6273 31.995L48.5865 59.61C48.5891 59.6477 48.6009 59.6841 48.6208 59.7163C48.6407 59.7484 48.6681 59.7752 48.7008 59.7944C48.7334 59.8136 48.7702 59.8246 48.8081 59.8264C48.846 59.8283 48.8837 59.821 48.9181 59.805L63.7028 52.995ZM65.3833 52.8C65.384 52.847 65.3977 52.8929 65.423 52.9326C65.4483 52.9723 65.4841 53.0043 65.5264 53.025L79.3617 59.715C79.4005 59.734 79.4434 59.7429 79.4866 59.7409C79.5297 59.739 79.5717 59.7261 79.6085 59.7037C79.6454 59.6812 79.6759 59.6499 79.6973 59.6125C79.7187 59.5752 79.7303 59.533 79.7309 59.49L79.7159 36.9075C79.7153 36.8576 79.6999 36.809 79.6718 36.7677C79.6437 36.7263 79.604 36.6941 79.5576 36.675L65.5641 31.1625C65.5254 31.1466 65.4834 31.1404 65.4417 31.1443C65.4001 31.1483 65.36 31.1624 65.3251 31.1853C65.2901 31.2082 65.2614 31.2393 65.2413 31.2759C65.2212 31.3125 65.2105 31.3534 65.2099 31.395L65.3833 52.8ZM46.665 59.7075C46.7063 59.7256 46.7515 59.7327 46.7963 59.7284C46.8412 59.7241 46.8842 59.7084 46.9212 59.6828C46.9583 59.6572 46.9881 59.6226 47.0079 59.5823C47.0276 59.542 47.0367 59.4973 47.0342 59.4525L45.1428 32.865C45.1408 32.8218 45.1281 32.7797 45.1058 32.7425C45.0835 32.7054 45.0523 32.6743 45.015 32.652C44.9777 32.6297 44.9355 32.617 44.892 32.6149C44.8486 32.6128 44.8053 32.6214 44.766 32.64L15.8973 45.5025C15.8507 45.5231 15.811 45.5568 15.7831 45.5994C15.7553 45.642 15.7404 45.6917 15.7404 45.7425C15.7404 45.7934 15.7553 45.8431 15.7831 45.8857C15.811 45.9283 15.8507 45.962 15.8973 45.9825L46.665 59.7075ZM81.2757 59.235C81.2749 59.2826 81.2871 59.3295 81.311 59.3708C81.3348 59.412 81.3696 59.446 81.4114 59.4691C81.4532 59.4922 81.5005 59.5036 81.5483 59.502C81.596 59.5004 81.6425 59.4859 81.6826 59.46L102.549 46.29C102.59 46.2646 102.623 46.2283 102.645 46.1853C102.666 46.1423 102.676 46.0941 102.672 46.0461C102.668 45.9981 102.651 45.9521 102.623 45.9131C102.594 45.8741 102.556 45.8436 102.511 45.825L81.6224 37.4775C81.5821 37.4615 81.5384 37.4556 81.4952 37.4604C81.4521 37.4651 81.4107 37.4805 81.375 37.5049C81.3392 37.5294 81.31 37.5623 81.2901 37.6007C81.2701 37.6391 81.26 37.6818 81.2607 37.725L81.2757 59.235Z" fill="#DD2D2C"/>
<path d="M9.31082 24.075L9.26561 43.14C9.26559 43.2451 9.29816 43.3475 9.35885 43.4334C9.41954 43.5194 9.5054 43.5845 9.60471 43.62L12.8299 44.835C12.4381 45.24 12.1417 45.6775 11.9407 46.1475L8.16542 44.6775C7.9293 44.5825 7.81125 44.4075 7.81125 44.1525L7.80371 23.6025C8.33622 23.6125 8.83859 23.77 9.31082 24.075Z" fill="#909091"/>
<path d="M101.155 32.91L101.147 43.26L99.7835 42.735L99.7383 33.5775C100.241 33.2025 100.713 32.98 101.155 32.91Z" fill="#909091"/>
<path d="M17.9092 48.645L19.3711 49.245V69.03C19.3709 69.1548 19.4086 69.2774 19.4796 69.3827C19.5505 69.488 19.6517 69.5714 19.7705 69.6225L46.71 81.0675C46.9713 81.1775 47.1044 81.09 47.1094 80.805L47.1772 61.65C47.7047 61.75 48.1895 61.7525 48.6316 61.6575L48.6391 80.76C48.6393 80.8004 48.65 80.84 48.6702 80.875C48.6905 80.91 48.7195 80.9391 48.7545 80.9596C48.7895 80.98 48.8292 80.991 48.8697 80.9915C48.9103 80.992 48.9503 80.982 48.9858 80.9625L63.3108 73.1625C63.5419 73.0375 63.6575 72.8425 63.6575 72.5775L63.6725 54.72C64.2452 54.33 64.7551 54.3025 65.2023 54.6375L65.2173 72.5025C65.2173 72.7675 65.3404 72.9525 65.5866 73.0575L79.3389 78.72C79.6052 78.83 79.7383 78.7425 79.7383 78.4575L79.7308 61.65L81.2906 61.9875L81.3283 78.2775C81.3283 78.5525 81.4514 78.625 81.6976 78.495L99.278 68.8125C99.3872 68.7534 99.4783 68.6665 99.542 68.5609C99.6056 68.4554 99.6394 68.335 99.6397 68.2125L99.6849 49.9425C100.202 49.5125 100.692 49.2425 101.154 49.1325L101.147 69.1575C101.147 69.2758 101.116 69.3918 101.056 69.4934C100.997 69.595 100.911 69.6785 100.808 69.735L80.9063 80.685C80.6652 80.82 80.419 80.835 80.1678 80.73L64.9687 74.46C64.6622 74.33 64.3608 74.345 64.0644 74.505L48.3452 83.07C48.0941 83.205 47.8379 83.2175 47.5766 83.1075L18.286 70.6575C18.0398 70.5575 17.9167 70.375 17.9167 70.11L17.9092 48.645Z" fill="#909091"/>
</svg>
