<svg width="92" height="83" viewBox="0 0 92 83" fill="none" xmlns="http://www.w3.org/2000/svg">
<path d="M91.6527 32.8625C91.1202 32.9175 90.5224 33.205 89.8593 33.725L40.0041 63.2525C39.562 63.7825 38.9718 63.935 38.2333 63.71C38.1077 62.945 37.9545 62.395 37.7736 62.06C34.2319 55.525 28.0176 44.325 19.1307 28.46L18.3018 26.6375L64.0124 0.619951C64.0934 0.57558 64.1868 0.559574 64.2772 0.574571C64.3676 0.589567 64.4496 0.634673 64.5097 0.702452L91.7808 31.955C91.855 32.0402 91.9035 32.1445 91.9209 32.2559C91.9382 32.3674 91.9236 32.4814 91.8788 32.585C91.8286 32.705 91.7532 32.7975 91.6527 32.8625ZM89.053 32.1125C89.0947 32.0873 89.1303 32.0534 89.1573 32.013C89.1843 31.9726 89.2021 31.9268 89.2093 31.8788C89.2165 31.8308 89.2129 31.7819 89.199 31.7354C89.185 31.6889 89.1609 31.6461 89.1283 31.61L64.0953 2.92995C64.0446 2.87281 63.9757 2.83487 63.9001 2.82257C63.8246 2.81026 63.7471 2.82435 63.6808 2.86245L20.8864 27.155C20.8114 27.1975 20.756 27.2676 20.732 27.3503C20.7081 27.4329 20.7175 27.5216 20.7583 27.5975L39.3184 61.175C39.3396 61.2139 39.3684 61.2483 39.4033 61.2759C39.4381 61.3036 39.4781 61.324 39.521 61.3359C39.5639 61.3478 39.6088 61.3509 39.653 61.3452C39.6971 61.3395 39.7397 61.3249 39.7781 61.3025L89.053 32.1125Z" fill="#DD2D2C"/>
<path d="M18.3022 26.6375L19.1311 28.46L2.95229 42.8899C2.73125 43.0849 2.62073 43.3275 2.62073 43.6175V63.3125C2.62073 63.5775 2.74381 63.765 2.98997 63.875L37.8117 79.2649C38.0478 79.3699 38.1684 79.295 38.1734 79.04L38.2337 63.71C38.9722 63.935 39.5625 63.7825 40.0046 63.2525L40.0422 80.0674C40.042 80.0992 40.0501 80.1304 40.0659 80.158C40.0816 80.1856 40.1044 80.2086 40.132 80.2246C40.1595 80.2405 40.1908 80.249 40.2227 80.2491C40.2546 80.2491 40.2859 80.2408 40.3135 80.225L89.5056 53.06C89.7417 52.93 89.8597 52.7325 89.8597 52.4675V33.725C90.5229 33.205 91.1207 32.9175 91.6532 32.8625L91.6607 53.6C91.6609 53.6838 91.6387 53.7662 91.5963 53.8387C91.554 53.9112 91.493 53.9712 91.4196 54.0125L40.5471 82.1075C40.3562 82.2175 40.1578 82.2275 39.9518 82.1375L1.12115 64.97C0.980488 64.91 0.910157 64.8025 0.910157 64.6475V42.71C0.909978 42.5943 0.93401 42.4799 0.980717 42.374C1.02742 42.2681 1.09578 42.1731 1.18144 42.095L18.3022 26.6375Z" fill="#909091"/>
</svg>
