<svg width="113" height="81" viewBox="0 0 113 81" fill="none" xmlns="http://www.w3.org/2000/svg">
<path d="M109.015 24.1225C108.508 24.0625 107.935 24.2525 107.297 24.6925L90.5604 31.795C90.5296 31.8084 90.5027 31.8294 90.4825 31.8561C90.4622 31.8828 90.4492 31.9142 90.4446 31.9473C90.4401 31.9805 90.4442 32.0142 90.4566 32.0453C90.4689 32.0764 90.4891 32.1039 90.5152 32.125L103.054 42.55L104.554 43.825L107.41 46.3075C107.596 46.4675 107.583 46.615 107.372 46.75L105.745 47.7625L103.974 48.475L81.6684 58.66C81.2263 58.885 80.6637 59.015 79.9805 59.05C79.9503 58.76 79.8247 58.5575 79.6037 58.4425C74.4042 55.7675 66.8686 52.0375 56.9971 47.2525C56.5801 46.9675 56.1807 46.8925 55.7989 47.0275C55.603 47.1025 55.4171 47.255 55.2413 47.485C55.3819 47.37 55.3267 47.3775 55.0755 47.5075C47.1632 51.6975 39.2609 55.9125 31.3687 60.1525C30.9065 60.4025 30.7055 60.785 30.7658 61.3C30.8864 60.925 30.3036 60.7275 29.0176 60.7075L14.4589 37.51C14.4369 37.475 14.4073 37.4454 14.3723 37.4233C14.3373 37.4011 14.2978 37.387 14.2567 37.382C14.2156 37.377 14.1738 37.3811 14.1345 37.3942C14.0952 37.4073 14.0593 37.4289 14.0294 37.4575L4.45171 46.57L2.80896 48.0025C2.30156 48.5675 1.79919 48.91 1.30185 49.03C1.04062 49.09 0.81455 49.025 0.62365 48.835C0.402607 48.615 0.319716 48.35 0.374977 48.04C0.415166 47.8 0.525687 47.5975 0.70654 47.4325C4.48436 44.0075 8.26469 40.4625 12.0475 36.7975C13.1226 35.7525 14.3333 34.9075 15.6797 34.2625C38.8238 23.1625 62.3875 11.845 86.3706 0.309976C86.428 0.281046 86.4937 0.270591 86.5595 0.279938C86.6252 0.289284 86.688 0.31801 86.7399 0.362475L112.308 22.075C112.564 22.295 112.542 22.475 112.24 22.615L109.015 24.1225ZM86.4234 2.41748C86.388 2.38613 86.3441 2.36585 86.2972 2.35918C86.2503 2.35251 86.2024 2.35975 86.1596 2.37998L56.8087 16.465C56.7674 16.485 56.7327 16.5163 56.7087 16.5553C56.6847 16.5942 56.6724 16.6392 56.6732 16.6849C56.674 16.7306 56.6879 16.7751 56.7132 16.8132C56.7385 16.8513 56.7743 16.8814 56.8162 16.9L88.4956 30.6325C88.5265 30.6461 88.5598 30.6532 88.5936 30.6532C88.6273 30.6532 88.6607 30.6461 88.6916 30.6325L109.015 22.045C109.053 22.0297 109.087 22.0048 109.113 21.9726C109.139 21.9405 109.157 21.9022 109.163 21.8615C109.17 21.8208 109.166 21.779 109.152 21.7402C109.138 21.7014 109.114 21.6669 109.083 21.64L86.4234 2.41748ZM55.0454 45.3775C55.0867 45.3548 55.1206 45.3209 55.1433 45.2797C55.166 45.2386 55.1765 45.1918 55.1735 45.145L53.5006 18.4375C53.4983 18.397 53.486 18.3578 53.4649 18.3231C53.4438 18.2885 53.4145 18.2595 53.3796 18.2388C53.3446 18.2181 53.305 18.2062 53.2644 18.2042C53.2237 18.2022 53.1832 18.2102 53.1464 18.2275L15.966 36.1C15.9352 36.1156 15.9079 36.1374 15.8861 36.164C15.8642 36.1906 15.8481 36.2215 15.8389 36.2547C15.8296 36.2879 15.8275 36.3226 15.8325 36.3567C15.8375 36.3907 15.8496 36.4233 15.8681 36.4525L30.0801 58.615C30.1143 58.6683 30.1677 58.7066 30.2294 58.7219C30.291 58.7372 30.3563 58.7285 30.4117 58.6975L55.0454 45.3775ZM80.2291 55.48C80.5456 55.37 80.7491 55.1575 80.8395 54.8425C82.9846 47.6025 85.18 40.15 87.4256 32.485C87.4525 32.3883 87.4437 32.2852 87.4008 32.1945C87.358 32.1037 87.2839 32.0311 87.192 31.99L55.5276 18.25C55.3066 18.15 55.2036 18.2225 55.2187 18.4675L56.9142 44.32C56.9544 44.935 57.2533 45.38 57.8109 45.655L79.5434 56.395C79.7042 56.475 79.8373 56.4425 79.9428 56.2975C79.988 56.2325 79.9955 56.165 79.9654 56.095C79.8348 55.795 79.9227 55.59 80.2291 55.48ZM104.132 46.3825C104.169 46.3646 104.202 46.3377 104.226 46.3041C104.25 46.2706 104.266 46.2315 104.271 46.1905C104.276 46.1495 104.271 46.1078 104.256 46.0693C104.241 46.0308 104.216 45.9966 104.185 45.97L89.3622 33.325C89.3306 33.2983 89.2927 33.28 89.2521 33.2716C89.2115 33.2632 89.1695 33.2651 89.1298 33.277C89.0901 33.289 89.054 33.3106 89.0249 33.3399C88.9957 33.3692 88.9744 33.4054 88.9628 33.445L82.4371 55.9525C82.4235 55.9984 82.4237 56.0473 82.4375 56.0931C82.4513 56.139 82.4782 56.1799 82.5149 56.2108C82.5516 56.2418 82.5965 56.2615 82.6442 56.2675C82.6919 56.2736 82.7404 56.2658 82.7837 56.245L104.132 46.3825Z" fill="#DD2D2C"/>
<path d="M109.015 24.1225V41.7025C109.015 41.9675 108.895 42.1475 108.654 42.2425L104.554 43.825L103.055 42.55L106.905 41.02C107.152 40.925 107.275 40.7475 107.275 40.4875L107.297 24.6925C107.935 24.2525 108.508 24.0625 109.015 24.1225Z" fill="#909091"/>
<path d="M4.45134 46.5699L4.51916 68.3274C4.51916 68.5924 4.64224 68.7749 4.8884 68.8749L28.6028 78.2874C28.854 78.3874 28.9795 78.3024 28.9795 78.0324L29.0172 60.7074C30.3033 60.7274 30.886 60.9249 30.7655 61.2999L30.7805 77.5149C30.7805 77.7949 30.9061 77.8724 31.1573 77.7474L54.8039 66.0174C54.9262 65.9569 55.0296 65.8634 55.1027 65.747C55.1758 65.6306 55.2158 65.4959 55.2183 65.3574L55.2409 47.4849C55.4167 47.2549 55.6026 47.1024 55.7985 47.0274C56.1803 46.8924 56.5797 46.9674 56.9967 47.2524L57.0344 65.8824C57.0344 66.1574 57.16 66.3524 57.4112 66.4674L79.7691 76.6224C79.7906 76.6323 79.8142 76.6364 79.8378 76.6344C79.8614 76.6325 79.8843 76.6244 79.9044 76.6111C79.9245 76.5977 79.9413 76.5794 79.9532 76.5579C79.9651 76.5363 79.9717 76.5121 79.9726 76.4874L79.9801 59.0499C80.6633 59.0149 81.226 58.8849 81.6681 58.6599L81.6831 76.3824C81.6831 76.5774 81.7736 76.6324 81.9544 76.5474L103.604 66.2424C103.71 66.1905 103.8 66.1096 103.862 66.0088C103.925 65.9081 103.958 65.7915 103.958 65.6724L103.973 48.4749L105.744 47.7624L105.706 66.8349C105.706 67.0599 105.606 67.2199 105.405 67.3149L81.0652 78.9099C80.9145 78.9849 80.7613 78.9874 80.6056 78.9174L55.9116 67.7049C55.8221 67.6649 55.7251 67.6449 55.6275 67.6462C55.5298 67.6475 55.4339 67.6701 55.3464 67.7124L29.8537 80.3349C29.7375 80.3916 29.6111 80.4236 29.4826 80.4288C29.3541 80.4339 29.2263 80.4122 29.1076 80.3649L3.17784 70.0749C2.95177 69.9899 2.83874 69.8249 2.83874 69.5799L2.80859 48.0024L4.45134 46.5699Z" fill="#909091"/>
</svg>
