<svg width="76" height="72" viewBox="0 0 76 72" fill="none" xmlns="http://www.w3.org/2000/svg">
<path d="M52.1572 7.36504C52.1572 8.23669 51.9848 9.0998 51.6496 9.9051C51.3145 10.7104 50.8232 11.4421 50.204 12.0585C49.5847 12.6748 48.8495 13.1637 48.0404 13.4973C47.2313 13.8309 46.3641 14.0025 45.4883 14.0025C43.7196 14.0025 42.0233 13.3032 40.7726 12.0585C39.522 10.8137 38.8193 9.12541 38.8193 7.36504C38.8193 5.60466 39.522 3.91639 40.7726 2.67162C42.0233 1.42685 43.7196 0.727539 45.4883 0.727539C47.257 0.727539 48.9533 1.42685 50.204 2.67162C51.4546 3.91639 52.1572 5.60466 52.1572 7.36504ZM50.1227 7.37254C50.1227 6.14724 49.6336 4.97212 48.7631 4.10571C47.8926 3.23929 46.7119 2.75254 45.4808 2.75254C44.2496 2.75254 43.069 3.23929 42.1984 4.10571C41.3279 4.97212 40.8389 6.14724 40.8389 7.37254C40.8389 8.59784 41.3279 9.77295 42.1984 10.6394C43.069 11.5058 44.2496 11.9925 45.4808 11.9925C46.7119 11.9925 47.8926 11.5058 48.7631 10.6394C49.6336 9.77295 50.1227 8.59784 50.1227 7.37254Z" fill="#909091"/>
<path d="M46.9648 58.155C44.7795 59.475 42.9759 59.88 41.5542 59.37C39.5096 58.485 38.4596 57.1325 38.4044 55.3125C38.2989 52.0275 38.2034 48.8275 38.118 45.7125C38.1157 45.657 38.1006 45.6038 38.0743 45.5579C38.0479 45.5119 38.0111 45.4748 37.9673 45.45L30.9517 41.235C30.9412 41.2274 30.9289 41.223 30.916 41.2221C30.9031 41.2212 30.8899 41.2239 30.8778 41.2299C30.8657 41.2359 30.8551 41.2451 30.8469 41.2565C30.8388 41.2679 30.8333 41.2811 30.8312 41.295C30.4393 43.775 30.0952 46.2925 29.7988 48.8475C29.6782 49.9125 29.2412 51.025 28.4876 52.185C25.8904 56.185 23.263 60.2575 20.6054 64.4025C19.0983 66.1225 17.2119 66.59 14.9462 65.805C11.9848 64.1025 11.299 61.05 13.1226 58.3425C15.3632 55.0075 17.5787 51.7175 19.769 48.4725C20.2211 47.7975 20.4899 47.0725 20.5753 46.2975C21.158 40.9725 21.7333 35.8375 22.3009 30.8925C22.4165 29.8525 22.8033 28.915 23.4614 28.08C26.4857 24.22 29.6807 20.13 33.0466 15.81C36.5356 11.3325 42.8127 12.03 45.8344 16.6425C47.5123 19.2025 49.2104 21.8475 50.9285 24.5775C51.1054 24.8565 51.3565 25.0778 51.6519 25.215C54.0632 26.36 56.5123 27.5075 58.999 28.6575C64.3568 31.1475 61.3351 38.2425 55.706 35.73C52.6968 34.395 49.7956 33.14 47.0024 31.965C45.3522 31.2675 44.5459 29.6925 43.7848 28.2C43.619 27.885 43.4256 27.8675 43.2045 28.1475L38.5024 34.0425C38.2863 34.3175 38.3265 34.545 38.6229 34.725C41.0293 36.2 43.4231 37.6875 45.8043 39.1875C46.6985 39.7475 47.2134 40.565 47.3491 41.64C48.1026 47.69 47.9745 53.195 46.9648 58.155ZM29.7008 38.115L39.7156 44.145C39.9718 44.3 40.1049 44.525 40.115 44.82L40.3938 54.7125C40.434 56.1875 41.1699 57.1225 42.6017 57.5175C42.8478 57.5875 43.099 57.595 43.3552 57.54C45.0985 57.175 45.9399 56.105 45.8796 54.33L45.4652 42.21C45.4561 41.9401 45.3806 41.6766 45.2452 41.4425C45.1099 41.2084 44.9189 41.011 44.689 40.8675L35.6162 35.22C35.3299 35.045 35.2897 34.825 35.4957 34.56L43.4833 24.5175C43.6994 24.2475 43.8928 24.2625 44.0636 24.5625L46.5805 29.025C46.8492 29.5016 47.2701 29.8783 47.7786 30.0975L57.2357 34.1625C58.1098 34.5375 58.8307 34.345 59.3984 33.585C59.4989 33.455 59.5742 33.3075 59.6245 33.1425C59.9761 32.0125 59.6119 31.195 58.5318 30.69L50.2427 26.7825C49.9912 26.6649 49.7752 26.481 49.6173 26.25C47.8841 23.61 46.1861 20.9525 44.5232 18.2775C42.775 15.465 39.8286 13.83 36.7089 15.36C35.7494 15.83 34.7145 16.81 33.6042 18.3C30.796 22.07 27.9149 25.775 24.961 29.415C24.6358 29.8221 24.4298 30.3127 24.3657 30.8325C23.6925 36.3575 23.0947 41.6875 22.5722 46.8225C22.4818 47.7175 22.2005 48.5125 21.7282 49.2075C19.2063 52.9175 16.8854 56.3675 14.7654 59.5575C14.538 59.897 14.4006 60.2865 14.366 60.69C14.2354 62.275 14.5745 63.2775 15.3833 63.6975C17.011 64.5475 18.3096 64.21 19.2792 62.685C21.6905 58.91 24.1999 55.05 26.8072 51.105C27.3548 50.275 27.6914 49.3625 27.8169 48.3675C28.2741 44.7725 28.7237 41.44 29.1658 38.37C29.216 38.015 29.3944 37.93 29.7008 38.115Z" fill="#909091"/>
<path d="M14.9464 65.805C17.2121 66.59 19.0985 66.1225 20.6056 64.4025L41.5544 59.37C42.9761 59.88 44.7796 59.475 46.9649 58.155C55.2992 56.095 64.1108 53.975 73.3996 51.795C74.4245 51.555 75.3287 51.81 75.5473 52.8975C75.6178 53.2627 75.5445 53.6408 75.3424 53.9536C75.1404 54.2664 74.8252 54.4898 74.4621 54.5775L2.15105 71.9325C1.17143 72.1675 0.538441 71.8025 0.252091 70.8375C0.19683 70.6525 0.189295 70.455 0.229485 70.245C0.340006 69.625 0.704225 69.2425 1.32214 69.0975L14.9464 65.805Z" fill="#DD2D2C"/>
</svg>
