<svg width="72" height="69" viewBox="0 0 72 69" fill="none" xmlns="http://www.w3.org/2000/svg">
<path d="M49.3499 6.78999C49.3499 8.52848 48.656 10.1958 47.4209 11.4251C46.1857 12.6544 44.5105 13.345 42.7638 13.345C41.0171 13.345 39.3419 12.6544 38.1067 11.4251C36.8716 10.1958 36.1777 8.52848 36.1777 6.78999C36.1777 5.05149 36.8716 3.3842 38.1067 2.1549C39.3419 0.9256 41.0171 0.234985 42.7638 0.234985C44.5105 0.234985 46.1857 0.9256 47.4209 2.1549C48.656 3.3842 49.3499 5.05149 49.3499 6.78999ZM47.3002 6.78999C47.3002 5.59054 46.8215 4.44023 45.9693 3.5921C45.1172 2.74396 43.9614 2.26749 42.7563 2.26749C41.5511 2.26749 40.3954 2.74396 39.5432 3.5921C38.6911 4.44023 38.2123 5.59054 38.2123 6.78999C38.2123 7.98943 38.6911 9.13974 39.5432 9.98788C40.3954 10.836 41.5511 11.3125 42.7563 11.3125C43.9614 11.3125 45.1172 10.836 45.9693 9.98788C46.8215 9.13974 47.3002 7.98943 47.3002 6.78999Z" fill="#909091"/>
<path d="M49.0634 63.085L45.7403 63.2575C44.1729 62.6475 43.3414 61.77 43.246 60.625C42.9195 56.64 42.6005 52.5025 42.289 48.2125C42.2789 48.0525 42.2136 47.9225 42.0931 47.8225C40.2192 46.2075 38.3203 44.6125 36.3962 43.0375C36.3855 43.0294 36.3728 43.0243 36.3595 43.0227C36.3462 43.0212 36.3327 43.0231 36.3204 43.0285C36.3081 43.0338 36.2975 43.0424 36.2896 43.0532C36.2817 43.064 36.2769 43.0767 36.2756 43.09C35.8436 48.35 35.1779 51.4925 34.2787 52.5175C31.586 55.5775 28.8581 58.605 26.0951 61.6C23.9927 63.88 21.6265 65.395 19.3282 62.32C18.0923 60.66 18.1501 59.0825 19.5015 57.5875C22.2294 54.5775 24.9422 51.575 27.6399 48.58C27.8107 48.385 27.9162 48.1625 27.9564 47.9125C28.5894 44.0425 29.1143 40.2 29.5313 36.385C30.0287 31.8025 31.3926 27.4975 32.5003 23.1325C32.5096 23.0992 32.5098 23.0641 32.501 23.0307C32.4921 22.9973 32.4746 22.9669 32.45 22.9425C32.4255 22.9181 32.3949 22.9006 32.3614 22.8918C32.3279 22.883 32.2926 22.8832 32.2592 22.8925L28.0468 24.13C27.9261 24.1652 27.8141 24.2254 27.718 24.3068C27.622 24.3882 27.544 24.4889 27.4892 24.6025C26.1227 27.5275 24.7437 30.49 23.3522 33.49C22.4554 35.425 20.888 35.92 18.8308 35.1475C16.7359 34.3625 16.2059 32.81 17.2408 30.49C18.8886 26.805 20.4535 23.4425 21.9355 20.4025C22.5182 19.1975 23.5682 18.365 25.0853 17.905C29.6619 16.51 33.9748 15.22 38.0239 14.035C40.7593 13.2325 43.6529 14.3275 45.1073 16.7875C47.1519 20.2425 49.1714 23.505 51.1659 26.575C51.3065 26.785 51.4999 26.91 51.7461 26.95C54.9964 27.505 58.2141 28.0475 61.3991 28.5775C63.5468 28.9375 64.4661 30.325 64.2174 32.5075C63.9713 34.6975 62.65 35.605 60.2537 35.23C56.1946 34.6 52.4821 33.9825 49.1162 33.3775C46.7802 32.9575 45.5067 30.685 44.414 28.7425C44.2532 28.4625 44.1302 28.4775 44.0448 28.7875L41.7389 37.1125C41.6585 37.3925 41.7339 37.625 41.965 37.81C43.9393 39.4 45.8659 41.045 47.7447 42.745C49.086 43.955 49.812 45.41 49.9225 47.11C50.1787 51.07 50.4625 55.26 50.774 59.68C50.8644 60.965 50.2942 62.1 49.0634 63.085ZM39.2295 37.6375C40.5859 34.0575 41.6384 30.3775 42.3869 26.5975C42.8793 24.1175 43.7961 23.95 45.1374 26.095L47.6091 30.055C47.8343 30.4134 48.1326 30.7203 48.4846 30.9556C48.8365 31.1908 49.2341 31.3491 49.6512 31.42L61.0374 33.3625C61.8211 33.4925 62.2205 33.1625 62.2356 32.3725V32.0275C62.2506 31.2025 61.8487 30.72 61.0299 30.58L50.6007 28.7875C50.3395 28.7425 50.1335 28.61 49.9828 28.39C47.8728 25.3 45.7302 21.875 43.555 18.115C42.6055 16.4725 40.6914 15.37 38.8226 15.9175C34.4169 17.2025 30.006 18.515 25.5902 19.855C25.1542 19.9869 24.7509 20.2094 24.4067 20.508C24.0626 20.8065 23.7854 21.1744 23.5933 21.5875L18.763 31.975C18.7058 32.0988 18.6771 32.2338 18.679 32.3701C18.6809 32.5064 18.7133 32.6405 18.774 32.7627C18.8347 32.8849 18.922 32.9921 19.0296 33.0764C19.1372 33.1607 19.2624 33.22 19.396 33.25L19.8331 33.3475C20.6368 33.5225 21.2121 33.2375 21.5587 32.4925L25.9896 22.9975C26.0513 22.8677 26.1389 22.7526 26.2466 22.6596C26.3544 22.5666 26.4799 22.4977 26.615 22.4575L33.7663 20.32C33.9315 20.2702 34.1069 20.2648 34.2749 20.3042C34.4429 20.3437 34.5974 20.4266 34.7228 20.5446C34.8483 20.6626 34.9402 20.8115 34.9892 20.9762C35.0382 21.1408 35.0427 21.3155 35.0021 21.4825C33.7286 26.665 32.0859 31.6375 31.5132 36.8875C31.1012 40.6575 30.5712 44.5825 29.9232 48.6625C29.869 49.0005 29.72 49.3153 29.4936 49.57L21.1066 58.87C20.353 59.7 20.3706 60.515 21.1593 61.315C21.2598 61.415 21.3628 61.51 21.4683 61.6C22.2017 62.19 22.8824 62.1375 23.5104 61.4425L32.1989 51.805C32.8768 51.0521 33.3148 50.1176 33.4573 49.12L34.6178 40.8325C34.6424 40.6553 34.7145 40.488 34.8264 40.348C34.9383 40.2081 35.086 40.1007 35.2539 40.037C35.4219 39.9734 35.604 39.9559 35.781 39.9863C35.9581 40.0167 36.1238 40.094 36.2605 40.21L43.7886 46.5775C44.0588 46.8084 44.2267 47.1344 44.2558 47.485L45.2128 59.7625C45.2881 60.6925 45.7905 61.21 46.7199 61.315C46.8555 61.33 46.9886 61.34 47.1193 61.345C48.2998 61.38 48.8449 60.81 48.7545 59.635L47.7447 46.75C47.7065 46.2721 47.5744 45.8068 47.3558 45.3808C47.1373 44.9548 46.8367 44.5765 46.4712 44.2675L39.3878 38.245C39.302 38.1721 39.2408 38.0747 39.2125 37.966C39.1842 37.8574 39.1902 37.7427 39.2295 37.6375Z" fill="#909091"/>
<path d="M45.7407 63.2575L49.0638 63.085L69.7489 61.99C70.407 61.955 70.8843 62.23 71.1807 62.815C71.3716 63.185 71.3515 63.6125 71.1204 64.0975C71.0202 64.3043 70.8659 64.4804 70.6735 64.6071C70.4812 64.7338 70.2581 64.8065 70.0277 64.8175L2.11739 68.5075C1.81273 68.5229 1.51042 68.4493 1.2479 68.296C0.985385 68.1427 0.774175 67.9164 0.640419 67.645C0.484684 67.335 0.441982 67.0575 0.512313 66.8125C0.723309 66.0825 1.09004 65.7025 1.6125 65.6725C16.2817 64.8975 30.9911 64.0925 45.7407 63.2575Z" fill="#DD2D2C"/>
</svg>
