<svg width="69" height="68" viewBox="0 0 69 68" fill="none" xmlns="http://www.w3.org/2000/svg">
<path d="M34.2434 6.71502C34.2434 8.43959 33.5551 10.0935 32.3298 11.313C31.1046 12.5324 29.4428 13.2175 27.7101 13.2175C25.9773 13.2175 24.3156 12.5324 23.0903 11.313C21.8651 10.0935 21.1768 8.43959 21.1768 6.71502C21.1768 5.8611 21.3457 5.01555 21.6741 4.22663C22.0024 3.43771 22.4836 2.72087 23.0903 2.11706C24.3156 0.897606 25.9773 0.212524 27.7101 0.212524C28.568 0.212524 29.4176 0.380716 30.2103 0.707497C31.0029 1.03428 31.7232 1.51325 32.3298 2.11706C32.9365 2.72087 33.4178 3.43771 33.7461 4.22663C34.0744 5.01555 34.2434 5.8611 34.2434 6.71502ZM32.2615 6.72252C32.2615 5.52109 31.782 4.36887 30.9285 3.51933C30.0749 2.66979 28.9172 2.19252 27.7101 2.19252C26.503 2.19252 25.3453 2.66979 24.4917 3.51933C23.6381 4.36887 23.1586 5.52109 23.1586 6.72252C23.1586 7.92395 23.6381 9.07618 24.4917 9.92572C25.3453 10.7753 26.503 11.2525 27.7101 11.2525C28.9172 11.2525 30.0749 10.7753 30.9285 9.92572C31.782 9.07618 32.2615 7.92395 32.2615 6.72252Z" fill="#909091"/>
<path d="M68.0482 4.63007C65.8227 5.67007 63.9061 6.93507 62.2985 8.42507L40.1591 24.4001C39.8175 24.6451 39.8426 24.8376 40.2345 24.9776C41.1839 25.3176 42.156 25.6326 43.1507 25.9226C48.6366 27.5276 46.7075 34.9976 40.8825 33.1901C38.009 32.3001 35.1053 31.4176 32.1714 30.5426C31.9052 30.4626 31.6615 30.5051 31.4405 30.6701L26.6931 34.1051C26.457 34.2751 26.1932 34.3626 25.9018 34.3676H25.2764C24.8544 34.3726 24.8368 34.4626 25.2237 34.6376C27.2683 35.5626 29.3104 36.5226 31.3501 37.5176C32.5256 38.0876 33.2063 38.9151 33.3922 40.0001C33.9146 43.0801 34.5401 47.5001 35.2685 53.2601C35.0626 54.8651 34.3065 56.1226 33.0003 57.0326C28.8181 58.8101 26.143 56.5376 25.7059 52.4876C25.4095 49.7226 25.0654 47.2076 24.6736 44.9426C24.6283 44.6776 24.4827 44.4876 24.2365 44.3726L17.5299 41.2901C17.1933 41.1351 17.02 41.2426 17.0099 41.6126C16.9747 43.8576 16.9245 46.2876 16.8592 48.9026C16.8341 49.9476 16.5703 50.9551 16.068 51.9251C14.1087 55.6851 12.0967 59.6651 10.032 63.8651C7.01024 70.0226 -1.48985 65.6726 1.61479 59.6726C3.46351 56.0976 5.25697 52.6901 6.99517 49.4501C7.40711 48.6901 7.60555 47.8826 7.59048 47.0276C7.53522 43.0276 7.55029 39.2076 7.63569 35.5676C7.64574 35.2776 7.50256 35.1351 7.20616 35.1401L6.03062 35.1551C5.69403 35.1601 5.4554 35.0126 5.31474 34.7126C5.16403 34.4026 5.16403 34.0801 5.31474 33.7451C5.41019 33.5401 5.56844 33.4076 5.78948 33.3476C6.22654 33.2276 6.68621 33.1976 7.16849 33.2576C7.22425 33.264 7.28076 33.2585 7.33419 33.2413C7.38762 33.2242 7.43672 33.1958 7.47816 33.1581C7.51961 33.1204 7.55243 33.0743 7.57441 33.0229C7.59639 32.9714 7.607 32.9159 7.60555 32.8601C7.5528 31.5776 7.68844 30.2951 8.40432 29.1851C10.5545 25.8601 12.7975 22.2201 15.1336 18.2651C16.4347 16.0651 17.673 14.5801 18.8486 13.8101C22.752 11.2526 27.0925 12.9851 29.8128 16.5101C31.6163 18.8551 33.3796 21.0226 35.1028 23.0126C35.4758 23.4443 35.9986 23.7203 36.567 23.7856C37.1354 23.8509 37.7076 23.7008 38.1697 23.3651L66.3602 2.89757C66.541 2.76757 66.7319 2.74507 66.9329 2.83007C67.6764 3.14507 68.0482 3.74507 68.0482 4.63007ZM28.2228 23.5751C29.1798 24.9251 30.9582 28.1051 32.6085 28.6076C35.7483 29.5726 39.0087 30.5601 42.3896 31.5701C42.5835 31.6283 42.7874 31.6457 42.9886 31.6214C43.1897 31.597 43.3838 31.5314 43.5586 31.4285C43.7333 31.3257 43.885 31.1879 44.0042 31.0239C44.1233 30.8598 44.2073 30.6729 44.2509 30.4751L44.2961 30.2726C44.5423 29.1326 44.1102 28.3726 43 27.9926L34.4396 25.0601C34.2272 24.9862 34.04 24.8594 33.8971 24.6926C32.0182 22.4926 30.0414 20.0676 27.9666 17.4176C24.8017 13.3901 20.2803 13.6751 17.6429 18.0326C15.1059 22.2376 12.6167 26.2776 10.1752 30.1526C9.70294 30.8976 9.52209 31.7276 9.63261 32.6426C9.66778 32.9426 9.83858 33.0851 10.145 33.0701L21.5538 32.4701C21.6893 32.4632 21.8214 32.4243 21.9393 32.3565C22.0571 32.2887 22.1575 32.194 22.232 32.0801L27.6275 23.5901C27.8184 23.2901 28.0168 23.2851 28.2228 23.5751ZM27.7933 27.0326L24.6811 31.9451C24.5002 32.2301 24.5806 32.3751 24.9222 32.3801C25.3442 32.3851 25.7336 32.2701 26.0902 32.0351C27.316 31.2201 28.4966 30.3751 29.6319 29.5001C29.7064 29.4415 29.7553 29.3568 29.7679 29.2643C29.7806 29.1717 29.7561 29.0786 29.6998 29.0051L28.2077 27.0176C28.062 26.8226 27.9239 26.8276 27.7933 27.0326ZM15.6686 38.2601L26.1505 43.0751C26.3615 43.1701 26.4821 43.3326 26.5122 43.5626L27.8988 53.3876C28.0997 54.8326 28.9337 55.6076 30.4006 55.7126C31.0436 55.7576 31.6992 55.5376 32.3673 55.0526C32.6995 54.813 32.9593 54.4878 33.1188 54.1123C33.2782 53.7368 33.331 53.3253 33.2716 52.9226L31.4631 40.5551C31.4263 40.2904 31.323 40.0387 31.1625 39.8226C31.002 39.6065 30.7893 39.4329 30.5437 39.3176C27.6601 37.9626 24.7112 36.5426 21.697 35.0576C20.9334 34.6876 20.112 34.5276 19.2329 34.5776C15.9022 34.7676 12.7875 34.9151 9.88882 35.0201C9.81019 35.022 9.73544 35.0545 9.68053 35.1105C9.62563 35.1666 9.59491 35.2418 9.59493 35.3201C9.56479 39.3301 9.57233 43.3401 9.61754 47.3501C9.62759 48.2851 9.42412 49.1426 9.00716 49.9226C7.06299 53.5126 5.17408 57.1101 3.34043 60.7151C2.53162 62.3001 2.87071 63.5876 4.35773 64.5776C4.53356 64.6876 4.72195 64.7626 4.92289 64.8026C6.38479 65.0826 7.44228 64.5576 8.09536 63.2276C9.97422 59.4026 11.9661 55.4801 14.071 51.4601C14.6036 50.4451 14.8799 49.4276 14.9 48.4076C14.9602 45.1026 15.0356 41.8326 15.126 38.5976C15.1361 38.2126 15.3169 38.1001 15.6686 38.2601Z" fill="#909091"/>
<path d="M68.0481 4.63L30.4307 66.9325C29.9584 67.7125 29.2978 67.9325 28.4488 67.5925C28.1826 67.4875 27.9716 67.3125 27.8158 67.0675C27.6782 66.8611 27.6023 66.6202 27.597 66.3732C27.5916 66.1261 27.6571 65.8831 27.7857 65.6725L33.0003 57.0325C34.3064 56.1225 35.0625 54.865 35.2685 53.26L62.2985 8.425C63.9061 6.935 65.8226 5.67 68.0481 4.63Z" fill="#DD2D2C"/>
</svg>
