<svg width="60" height="60" viewBox="0 0 60 60" fill="none" xmlns="http://www.w3.org/2000/svg">
<g clip-path="url(#clip0_2098_25604)">
<path d="M17.7715 26.0315L17.7693 26.0697C17.6215 28.659 19.0719 31.0846 21.4653 32.2475L21.4899 32.2595C22.3337 32.6631 23.0253 33.3286 23.4617 34.156L23.4715 34.174C24.6775 36.4704 27.1718 37.8624 29.8309 37.7227L29.8713 37.7205C30.8356 37.6665 31.7929 37.9153 32.6089 38.4324C34.8605 39.8407 37.7187 39.8407 39.9703 38.4324C40.7863 37.9153 41.7435 37.6665 42.7079 37.7205L42.7483 37.7227C45.403 37.8635 47.9006 36.4704 49.1093 34.1702L49.1153 34.1577C49.5533 33.328 50.2466 32.6615 51.0931 32.2573L51.1128 32.2475C53.5062 31.084 54.9571 28.659 54.8087 26.0692L54.8066 26.0332C54.7575 25.1212 55.0106 24.2185 55.5276 23.4652C57.0162 21.2943 57.0162 18.4318 55.5282 16.2603C55.0116 15.5076 54.7575 14.6054 54.8066 13.6934L54.8087 13.6552C54.9571 11.0654 53.5062 8.64037 51.1106 7.47637L51.0888 7.46546C50.2466 7.06292 49.5566 6.40074 49.1197 5.57548L49.1071 5.55093C47.9006 3.25458 45.403 1.86314 42.7483 2.00223L42.7074 2.00441C41.7435 2.05841 40.7863 1.80968 39.9708 1.29259H39.9697C37.7181 -0.115761 34.86 -0.115761 32.6083 1.29259C31.7923 1.80914 30.8351 2.05786 29.8707 2.00386L29.8303 2.00168C27.1751 1.86095 24.678 3.25404 23.472 5.54984L23.4628 5.56675C23.0258 6.39583 22.3337 7.06183 21.4888 7.46601L21.4659 7.47692C19.0724 8.63982 17.6215 11.0654 17.7699 13.6552L17.7721 13.6912C17.8211 14.6032 17.5681 15.506 17.051 16.2587C15.5624 18.4301 15.5624 21.2932 17.051 23.4641C17.5675 24.2168 17.8211 25.1195 17.7715 26.0315ZM18.8897 17.5274C19.6877 16.3656 20.0788 14.9725 20.0024 13.5652L20.0002 13.5271C19.9217 11.8111 20.8849 10.2173 22.44 9.488L22.4591 9.47872C23.7349 8.86782 24.7795 7.86201 25.4384 6.61074L25.4493 6.59002C26.2506 5.06384 27.9289 4.13876 29.7114 4.23367L29.7507 4.2353C31.1771 4.31548 32.5925 3.94785 33.799 3.18313C35.3225 2.23022 37.2556 2.23022 38.779 3.18313C39.9856 3.94676 41.401 4.31494 42.8268 4.23585L42.8661 4.23367C44.6573 4.13985 46.3275 5.06384 47.1266 6.58565L47.1413 6.61347C47.8002 7.8631 48.8437 8.86727 50.1179 9.47763L50.1364 9.48691C51.716 10.2549 52.6749 11.8405 52.5784 13.5276L52.5762 13.5674C52.4998 14.9747 52.8915 16.3672 53.6895 17.529C54.6538 18.9358 54.6533 20.7903 53.6884 22.1965C52.8909 23.3588 52.4998 24.7519 52.5762 26.1592L52.5784 26.1968C52.6749 27.8839 51.716 29.4701 50.1359 30.2386L50.1195 30.2462C48.8426 30.8582 47.797 31.8651 47.1375 33.1186L47.1293 33.1349C46.3275 34.6611 44.6519 35.5867 42.8666 35.4913L42.8279 35.4891C41.4015 35.4095 39.9856 35.7777 38.7785 36.5418C37.2556 37.4942 35.3225 37.4942 33.7996 36.5418C32.7021 35.8464 31.4291 35.4777 30.1298 35.4787C30.0038 35.4787 29.8773 35.482 29.7507 35.4891L29.7114 35.4907C27.9524 35.6026 26.2882 34.6818 25.4476 33.1322L25.4362 33.1109C24.7784 31.8619 23.7355 30.8582 22.4618 30.2479L22.4411 30.2375C20.8609 29.4695 19.902 27.8833 19.9991 26.1968L20.0013 26.157C20.0771 24.7497 19.6855 23.3566 18.8881 22.1954C17.9242 20.7887 17.9248 18.9341 18.8897 17.5285V17.5274Z" fill="#224334"/>
<path d="M29.0815 31.4106C29.6046 31.7373 30.2935 31.5775 30.6202 31.0544L43.8534 9.85489C44.0694 9.51617 44.0874 9.08744 43.8998 8.73235C43.7122 8.37672 43.3478 8.14981 42.9463 8.13727C42.5449 8.12472 42.1674 8.32872 41.958 8.67181L28.7253 29.8713C28.3986 30.3949 28.5579 31.0838 29.0815 31.4106Z" fill="#224334"/>
<path d="M30.268 19.917C32.9882 19.917 35.2016 17.3932 35.2016 14.2913C35.2016 11.1893 32.9882 8.66602 30.268 8.66602C27.5479 8.66602 25.335 11.1893 25.335 14.2913C25.335 17.3932 27.5479 19.917 30.268 19.917ZM30.268 10.9002C31.7566 10.9002 32.9675 12.4214 32.9675 14.2913C32.9675 16.1611 31.7566 17.6829 30.268 17.6829C28.78 17.6829 27.5691 16.1605 27.5691 14.2913C27.5691 12.422 28.78 10.9002 30.268 10.9002Z" fill="#224334"/>
<path d="M37.3779 25.4341C37.3779 28.5361 39.5908 31.0593 42.311 31.0593C45.0312 31.0593 47.2446 28.5355 47.2446 25.4341C47.2446 22.3332 45.0317 19.8088 42.3115 19.8088C39.5908 19.8088 37.3779 22.3315 37.3779 25.4341ZM45.0104 25.4341C45.0104 27.3039 43.7995 28.8251 42.311 28.8251C40.823 28.8251 39.6121 27.3039 39.6121 25.4341C39.6121 23.5643 40.823 22.043 42.311 22.043C43.7995 22.043 45.0104 23.5632 45.0104 25.4341Z" fill="#224334"/>
<path d="M59.855 43.9837C58.3757 41.3585 55.0954 40.3587 52.4036 41.7125L43.6529 45.847C42.4447 43.6003 40.1271 42.1701 37.5766 42.0981L29.4984 41.8756C28.2193 41.839 26.9643 41.5145 25.827 40.9276L25.005 40.5016C20.7963 38.3078 15.7798 38.3132 11.5754 40.5158L11.6267 38.6536C11.6436 38.0367 11.1576 37.5229 10.5407 37.506L1.6826 37.2621C1.06569 37.2452 0.552425 37.7312 0.535516 38.3481L0.00042818 57.7875C-0.0164809 58.4044 0.469516 58.9182 1.08642 58.9351L9.94455 59.1789H9.97564C10.5805 59.1784 11.0753 58.6967 11.0922 58.0924L11.1173 57.1624L13.4185 55.9302C14.3218 55.4442 15.3783 55.3286 16.3651 55.6079L30.1066 59.4647C30.1306 59.4718 30.1546 59.4773 30.1791 59.4827C31.1724 59.6906 32.1848 59.7947 33.1999 59.7942C35.3489 59.7953 37.4729 59.3322 39.4262 58.4355C39.4742 58.4137 39.5205 58.3886 39.5647 58.3602L59.489 45.4717C59.9859 45.151 60.1462 44.4981 59.855 43.9837ZM2.2646 56.732L2.73805 39.5269L9.3631 39.709L8.8891 56.9148L2.2646 56.732ZM38.4193 56.4391C35.9926 57.5344 33.2822 57.8366 30.6739 57.3031L16.9689 53.4571C15.4269 53.0208 13.7753 53.2019 12.3642 53.9606L11.1882 54.59L11.5034 43.1503C15.2294 40.6718 20.0087 40.417 23.9774 42.4848L24.7994 42.9108C26.2361 43.6527 27.8212 44.0623 29.4373 44.1086L37.5155 44.3312C39.7845 44.3961 41.7116 46.0117 42.172 48.235L30.1393 47.9039C29.5224 47.887 29.0092 48.373 28.9922 48.9899C28.9753 49.6068 29.4613 50.1206 30.0782 50.1375L43.3572 50.503H43.3889C43.9932 50.5024 44.488 50.0208 44.5049 49.4164C44.5185 48.931 44.482 48.445 44.3969 47.9672L53.3706 43.7263L53.3968 43.7137C54.6699 43.069 56.2097 43.2845 57.2564 44.2537L38.4193 56.4391Z" fill="#224334"/>
</g>
<defs>
<clipPath id="clip0_2098_25604">
<rect width="60" height="60" fill="white"/>
</clipPath>
</defs>
</svg>
