<svg width="80" height="80" viewBox="0 0 80 80" fill="none" xmlns="http://www.w3.org/2000/svg">
<circle cx="40" cy="40" r="40" fill="#28543F"/>
<path d="M58.8462 28.2305H21.1538C20.5166 28.2305 20 28.7471 20 29.3843V35.9227H60V29.3843C60 28.7471 59.4834 28.2305 58.8462 28.2305ZM49.2308 34.3843H47.6923C47.0551 34.3843 46.5385 33.8677 46.5385 33.2305C46.5385 32.5933 47.0552 32.0766 47.6923 32.0766H49.2308C49.868 32.0766 50.3846 32.5933 50.3846 33.2305C50.3846 33.8677 49.868 34.3843 49.2308 34.3843ZM53.8462 34.3843H52.3077C51.6705 34.3843 51.1539 33.8677 51.1539 33.2305C51.1539 32.5933 51.6705 32.0766 52.3077 32.0766H53.8462C54.4834 32.0766 55 32.5933 55 33.2305C55 33.8677 54.4834 34.3843 53.8462 34.3843Z" fill="white"/>
<path d="M40 42.8457C37.243 42.8457 35 45.0887 35 47.8457C35 50.6027 37.243 52.8457 40 52.8457C42.757 52.8457 45 50.6027 45 47.8457C45 45.0887 42.757 42.8457 40 42.8457ZM40 50.2303C38.6851 50.2303 37.6154 49.1605 37.6154 47.8457C37.6154 46.5309 38.6851 45.4611 40 45.4611C41.3149 45.4611 42.3846 46.5309 42.3846 47.8457C42.3846 49.1605 41.3149 50.2303 40 50.2303Z" fill="white"/>
<path d="M23.4609 38.2305V43.2305C23.4609 47.648 25.1812 51.8012 28.3049 54.9249C31.4286 58.0486 35.5818 59.7689 39.9994 59.7689C44.417 59.7689 48.5702 58.0486 51.6938 54.9249C54.8175 51.8012 56.5378 47.648 56.5378 43.2305V38.2305H23.4609ZM39.9994 55.1535C35.9699 55.1535 32.6917 51.8753 32.6917 47.8459C32.6917 43.8164 35.9699 40.5382 39.9994 40.5382C44.0288 40.5382 47.307 43.8164 47.307 47.8459C47.307 51.8753 44.0288 55.1535 39.9994 55.1535Z" fill="white"/>
</svg>
