<svg width="80" height="80" viewBox="0 0 80 80" fill="none" xmlns="http://www.w3.org/2000/svg">
<circle cx="40" cy="40" r="40" fill="#28543F"/>
<path d="M35 41.25C35.6904 41.25 36.25 40.6904 36.25 40C36.25 39.3096 35.6904 38.75 35 38.75C34.3096 38.75 33.75 39.3096 33.75 40C33.75 40.6904 34.3096 41.25 35 41.25Z" fill="white"/>
<path d="M45 50C45.6904 50 46.25 49.4404 46.25 48.75C46.25 48.0596 45.6904 47.5 45 47.5C44.3096 47.5 43.75 48.0596 43.75 48.75C43.75 49.4404 44.3096 50 45 50Z" fill="white"/>
<path d="M57.0577 36.5458L40.8077 22.7958C40.582 22.6048 40.2958 22.5 40.0002 22.5C39.7045 22.5 39.4184 22.6048 39.1927 22.7958L22.9427 36.5458C22.8132 36.6505 22.7059 36.7801 22.6271 36.9268C22.5484 37.0735 22.4997 37.2345 22.4841 37.4003C22.4684 37.5661 22.486 37.7334 22.5359 37.8923C22.5858 38.0512 22.6669 38.1985 22.7745 38.3256C22.8821 38.4527 23.0141 38.557 23.1625 38.6324C23.311 38.7078 23.4731 38.7528 23.6392 38.7647C23.8053 38.7766 23.9721 38.7552 24.1299 38.7017C24.2876 38.6482 24.433 38.5638 24.5577 38.4533L26.2502 37.0208V53.7496C26.2502 54.7441 26.6453 55.698 27.3485 56.4012C28.0518 57.1045 29.0056 57.4996 30.0002 57.4996H50.0002C50.9947 57.4996 51.9486 57.1045 52.6518 56.4012C53.3551 55.698 53.7502 54.7441 53.7502 53.7496V37.0208L55.4427 38.4533C55.5673 38.5638 55.7127 38.6482 55.8705 38.7017C56.0282 38.7552 56.195 38.7766 56.3611 38.7647C56.5272 38.7528 56.6893 38.7078 56.8378 38.6324C56.9863 38.557 57.1182 38.4527 57.2258 38.3256C57.3334 38.1985 57.4146 38.0512 57.4644 37.8923C57.5143 37.7334 57.5319 37.5661 57.5163 37.4003C57.5006 37.2345 57.452 37.0735 57.3732 36.9268C57.2945 36.7801 57.1872 36.6505 57.0577 36.5458ZM31.2502 39.9996C31.2502 39.2579 31.4701 38.5329 31.8822 37.9162C32.2942 37.2995 32.8799 36.8189 33.5651 36.535C34.2503 36.2512 35.0043 36.1769 35.7318 36.3216C36.4592 36.4663 37.1274 36.8235 37.6518 37.3479C38.1763 37.8724 38.5334 38.5406 38.6781 39.268C38.8228 39.9954 38.7485 40.7494 38.4647 41.4346C38.1809 42.1199 37.7002 42.7055 37.0836 43.1176C36.4669 43.5296 35.7418 43.7496 35.0002 43.7496C34.0056 43.7496 33.0518 43.3545 32.3485 42.6512C31.6453 41.948 31.2502 40.9941 31.2502 39.9996ZM35.0002 51.2496C34.759 51.2499 34.5229 51.1804 34.3203 51.0494C34.1177 50.9185 33.9573 50.7318 33.8585 50.5118C33.7597 50.2918 33.7266 50.0479 33.7633 49.8095C33.7999 49.5711 33.9048 49.3485 34.0652 49.1683L44.0652 37.9183C44.2856 37.6697 44.5958 37.5188 44.9275 37.4989C45.2592 37.479 45.5853 37.5916 45.8339 37.8121C46.0826 38.0325 46.2334 38.3427 46.2534 38.6744C46.2733 39.0062 46.1606 39.3322 45.9402 39.5808L35.9402 50.8308C35.8222 50.9633 35.6773 51.0692 35.5153 51.1414C35.3532 51.2136 35.1776 51.2505 35.0002 51.2496ZM45.0002 52.4996C44.2585 52.4996 43.5335 52.2796 42.9168 51.8676C42.3001 51.4555 41.8194 50.8699 41.5356 50.1846C41.2518 49.4994 41.1775 48.7454 41.3222 48.018C41.4669 47.2906 41.8241 46.6224 42.3485 46.0979C42.873 45.5735 43.5411 45.2163 44.2686 45.0716C44.996 44.9269 45.75 45.0012 46.4352 45.285C47.1205 45.5689 47.7061 46.0495 48.1182 46.6662C48.5302 47.2829 48.7502 48.0079 48.7502 48.7496C48.7502 49.7441 48.3551 50.698 47.6518 51.4012C46.9486 52.1045 45.9947 52.4996 45.0002 52.4996Z" fill="white"/>
</svg>
