<svg width="80" height="80" viewBox="0 0 80 80" fill="none" xmlns="http://www.w3.org/2000/svg">
<circle cx="40" cy="40" r="40" fill="#28543F"/>
<path d="M57.6562 55H22.3438C21.5671 55 20.9375 55.6296 20.9375 56.4062V57.6562C20.9375 58.4329 21.5671 59.0625 22.3438 59.0625H57.6562C58.4329 59.0625 59.0625 58.4329 59.0625 57.6562V56.4062C59.0625 55.6296 58.4329 55 57.6562 55Z" fill="white"/>
<path d="M49.5312 53.5938C49.5312 53.8523 49.7414 54.0625 50 54.0625H55.9375C56.1961 54.0625 56.4062 53.8523 56.4062 53.5938V51.875C56.4062 51.357 55.9867 50.9375 55.4688 50.9375H50.4688C49.9508 50.9375 49.5312 51.357 49.5312 51.875V53.5938Z" fill="white"/>
<path d="M54.5312 42.9688H51.4062C51.1474 42.9688 50.9375 43.1786 50.9375 43.4375V49.5312C50.9375 49.7901 51.1474 50 51.4062 50H54.5312C54.7901 50 55 49.7901 55 49.5312V43.4375C55 43.1786 54.7901 42.9688 54.5312 42.9688Z" fill="white"/>
<path d="M56.4062 41.0938V39.375C56.4062 39.1164 56.1961 38.9062 55.9375 38.9062H50C49.7414 38.9062 49.5312 39.1164 49.5312 39.375V41.0938C49.5312 41.6117 49.9508 42.0312 50.4688 42.0312H55.4688C55.9867 42.0312 56.4062 41.6117 56.4062 41.0938Z" fill="white"/>
<path d="M23.5938 53.5938C23.5938 53.8523 23.8039 54.0625 24.0625 54.0625H30C30.2586 54.0625 30.4688 53.8523 30.4688 53.5938V51.875C30.4688 51.357 30.0492 50.9375 29.5312 50.9375H24.5312C24.0133 50.9375 23.5938 51.357 23.5938 51.875V53.5938Z" fill="white"/>
<path d="M25.4688 42.9688C25.2102 42.9688 25 43.1789 25 43.4375V50H29.0625V43.4375C29.0625 43.1789 28.8523 42.9688 28.5938 42.9688H25.4688Z" fill="white"/>
<path d="M30.4688 41.0938V39.375C30.4688 39.1164 30.2586 38.9062 30 38.9062H24.0625C23.8039 38.9062 23.5938 39.1164 23.5938 39.375V41.0938C23.5938 41.6117 24.0133 42.0312 24.5312 42.0312H29.5312C30.0492 42.0312 30.4688 41.6117 30.4688 41.0938Z" fill="white"/>
<path d="M58.4672 32.1875H46.0125C45.8203 32.1875 45.6492 32.3055 45.5773 32.4836C44.6852 34.6898 42.5219 36.25 40 36.25C37.4781 36.25 35.3148 34.6891 34.4227 32.4836C34.3508 32.3055 34.1797 32.1875 33.9875 32.1875H21.5328C21.3484 32.1875 21.1813 32.2953 21.1047 32.4633C20.9961 32.7023 20.9375 32.9648 20.9375 33.2352V36.093C20.9375 37.1281 21.7773 37.968 22.8125 37.968H57.1875C58.2227 37.968 59.0625 37.1281 59.0625 36.093V33.2352C59.0625 32.9641 59.0039 32.7016 58.8953 32.4633C58.8195 32.2953 58.6516 32.1875 58.4672 32.1875Z" fill="white"/>
<path d="M46.4609 31.25H56.7093C56.946 31.25 57.0335 30.9399 56.832 30.8157L41.964 21.6758C40.7593 20.9352 39.2406 20.9352 38.0359 21.6758L23.1687 30.8157C22.9671 30.9391 23.0554 31.25 23.2913 31.25H33.5398C33.8124 31.25 34.0312 31.0188 34.007 30.7469C33.9921 30.5782 33.9843 30.4071 33.9843 30.2344C33.9843 26.9172 36.6827 24.2188 39.9999 24.2188C43.3171 24.2188 46.0156 26.9172 46.0156 30.2344C46.0156 30.4071 46.0077 30.5782 45.9929 30.7469C45.9695 31.018 46.1882 31.25 46.4601 31.25H46.4609Z" fill="white"/>
<path d="M40 25.1562C37.2 25.1562 34.9219 27.4344 34.9219 30.2344C34.9219 33.0344 37.2 35.3125 40 35.3125C42.8 35.3125 45.0781 33.0344 45.0781 30.2344C45.0781 27.4344 42.8 25.1562 40 25.1562ZM40.4688 32.7219V33.0836C40.4688 33.3422 40.2586 33.5523 40 33.5523C39.7414 33.5523 39.5312 33.3422 39.5312 33.0836V32.7445C38.8523 32.7133 38.3094 32.1523 38.3094 31.4656C38.3094 31.207 38.5195 30.9969 38.7781 30.9969C39.0367 30.9969 39.2469 31.207 39.2469 31.4656C39.2469 31.6555 39.4016 31.8102 39.5914 31.8102H40.2039C40.4922 31.8102 40.7516 31.582 40.7516 31.2516C40.7516 30.95 40.5062 30.7039 40.2039 30.7039H39.7922C38.9891 30.7039 38.307 30.0578 38.307 29.2078C38.307 28.4781 38.8367 27.8711 39.532 27.7469V27.3859C39.532 27.1273 39.7422 26.9172 40.0008 26.9172C40.2594 26.9172 40.4695 27.1273 40.4695 27.3859V27.7258C41.1461 27.7602 41.6867 28.3195 41.6867 29.0039C41.6867 29.2625 41.4766 29.4727 41.218 29.4727C40.9594 29.4727 40.7492 29.2625 40.7492 29.0039C40.7492 28.8141 40.5945 28.6594 40.4047 28.6594H39.7922C39.5039 28.6594 39.2445 28.8875 39.2445 29.218C39.2445 29.5195 39.4898 29.7656 39.7922 29.7656H40.2039C41.007 29.7656 41.6891 30.4117 41.6891 31.2617C41.6891 31.9898 41.1617 32.5961 40.4695 32.7219H40.4688Z" fill="white"/>
<path d="M34.0977 47.8594C33.8391 47.8594 33.6289 48.0695 33.6289 48.3281C33.6289 48.5867 33.8391 48.7969 34.0977 48.7969H36.4977C36.7563 48.7969 36.9664 48.5867 36.9664 48.3281C36.9664 48.0695 36.7563 47.8594 36.4977 47.8594H35.7664V44.7969H36.4977C36.7563 44.7969 36.9664 44.5867 36.9664 44.3281C36.9664 44.0695 36.7563 43.8594 36.4977 43.8594H34.0977C33.8391 43.8594 33.6289 44.0695 33.6289 44.3281C33.6289 44.5867 33.8391 44.7969 34.0977 44.7969H34.8289V47.8594H34.0977Z" fill="white"/>
<path d="M44.7164 47.8594H44.1164C43.9336 47.8594 43.7852 47.7109 43.7852 47.5281C43.7852 47.2695 43.575 47.0594 43.3164 47.0594C43.0578 47.0594 42.8477 47.2695 42.8477 47.5281C42.8477 48.2281 43.4172 48.7969 44.1164 48.7969H44.7164C45.5266 48.7969 46.1852 48.1383 46.1852 47.3281C46.1852 46.518 45.5266 45.8594 44.7164 45.8594H44.3164C44.0234 45.8594 43.7852 45.6211 43.7852 45.3281C43.7852 45.0352 44.0234 44.7969 44.3164 44.7969H44.9164C45.0992 44.7969 45.2477 44.9453 45.2477 45.1281C45.2477 45.3867 45.4578 45.5969 45.7164 45.5969C45.975 45.5969 46.1852 45.3867 46.1852 45.1281C46.1852 44.4281 45.6156 43.8594 44.9164 43.8594H44.3164C43.5062 43.8594 42.8477 44.518 42.8477 45.3281C42.8477 46.1383 43.5062 46.7969 44.3164 46.7969H44.7164C45.0094 46.7969 45.2477 47.0352 45.2477 47.3281C45.2477 47.6211 45.0094 47.8594 44.7164 47.8594Z" fill="white"/>
<path d="M41.732 45.3281C41.732 44.518 41.0734 43.8594 40.2633 43.8594H39.332C38.8148 43.8594 38.3945 44.2797 38.3945 44.7969V48.3281C38.3945 48.5867 38.6047 48.7969 38.8633 48.7969C39.1219 48.7969 39.332 48.5867 39.332 48.3281V47.3289L40.9633 48.6883C41.1609 48.8531 41.457 48.8281 41.6234 48.6281C41.7891 48.4289 41.7625 48.1336 41.5633 47.968L40.1578 46.7969H40.2633C41.0734 46.7969 41.732 46.1383 41.732 45.3281ZM39.332 45.8594V44.7969H40.2633C40.5562 44.7969 40.7945 45.0352 40.7945 45.3281C40.7945 45.6211 40.5562 45.8594 40.2633 45.8594H39.332Z" fill="white"/>
</svg>
