<?xml version="1.0" encoding="UTF-8"?>
<svg xmlns="http://www.w3.org/2000/svg" width="293" height="110" viewBox="0 0 293 110" fill="none">
  <path d="M99.7207 87.4784L121.761 21.082H160.552C159.01 27.4838 156.513 33.8184 154.731 40.3753C159.934 34.5368 164.904 27.3889 170.347 21.082H208.022L182.064 55.4976L192.434 87.4784H153.406C150.65 80.6677 148.611 73.564 145.852 66.7533C142.956 73.3839 140.693 80.6112 138.114 87.4784H99.7207Z" fill="#050013"></path>
  <path d="M237.404 68.8691C245.182 74.4561 258.112 51.5004 248.376 44.2137C237.632 37.1006 228.641 64.9649 237.404 68.8691ZM197.054 68.3001C179.218 17.9084 276.212 0.866657 290.263 46.3476C296.697 91.7579 216.687 104.62 197.054 68.3001Z" fill="#050013"></path>
  <path d="M113.716 21.082H76.2798L56.2803 87.3808H91.8348L113.716 21.082Z" fill="#050013"></path>
  <path d="M56.2461 87.3809L56.2707 87.4168L56.282 87.3809H56.2461Z" fill="#050013"></path>
  <path d="M56.2792 41.1688C63.944 41.308 63.9451 29.5157 56.2787 29.6555C48.6123 29.5167 48.6132 41.3087 56.2792 41.1688ZM56.2792 40.2858C49.8177 40.3845 49.8158 30.4396 56.2797 30.5395C62.7428 30.4403 62.7411 40.3857 56.2792 40.2858ZM57.1363 35.6185C59.9914 35.7876 59.6485 31.7719 56.8812 32.2253L54.0829 32.2252V38.5273H54.9839V35.6185H56.0693L57.9963 38.5273H59.0788L57.1363 35.6185ZM54.9839 34.7336V33.1082C59.4428 32.6687 59.4514 35.1776 54.9839 34.7336Z" fill="#231F20"></path>
  <path d="M56.3975 87.3965L56.4231 87.4324L56.4334 87.3965H56.3975Z" fill="#050013"></path>
  <path d="M21.973 50.332C20.412 54.3433 10.9499 65.6798 3.85845 55.4619C1.94733 68.7331 7.67799 93.9469 28.0984 104.543C28.0984 104.543 27.9549 104.702 28.0984 104.629C28.2419 104.702 28.0173 103.835 28.0984 103.875C29.1798 101.157 18.9525 98.0058 28.0984 104.629C28.0984 84.965 28.2458 99.2741 28.2458 99.2741C28.0902 85.5232 28.1486 60.875 28.1911 50.332" fill="#EA1D2D"></path>
  <path d="M34.1107 50.332C35.3974 52.9113 46.3319 65.3171 52.2906 55.4973C54.2089 68.8103 48.4797 94.243 27.9629 104.919C27.9629 104.919 28.1073 105.08 27.9629 105.006C27.8194 105.08 28.0448 104.207 27.9629 104.247C26.8065 101.716 37.1389 98.384 27.9629 105.006C27.9018 71.1806 27.9609 74.2402 27.8701 50.332" fill="#9B2226"></path>
  <path d="M27.8955 53.3157C27.8955 47.0797 28.0273 20.6462 27.8955 2.36719C27.9663 2.37732 26.6083 2.37938 26.6714 2.36812V2.45911C24.6088 2.74933 20.4777 3.97336 19.033 9.11755C12.974 9.69706 3.22469 18.5206 15.676 30.6492C15.676 30.6492 14.4402 39.4118 20.9063 48.1141" fill="#EA1D2D"></path>
  <path d="M27.9287 53.6185C27.9287 47.3768 27.7969 20.9203 27.9287 2.625C27.8581 2.63539 29.2176 2.63695 29.1537 2.62595V2.71694C31.2183 3.00715 35.3533 4.23308 36.799 9.38013C42.8643 9.9609 52.6205 18.7927 40.159 30.9319C40.159 30.9319 41.3957 39.7021 34.9238 48.4121" fill="#9B2226"></path>
  <path d="M25.9047 104.139L27.8873 105.34C27.8873 105.34 29.827 104.19 30.2984 103.886M34.1738 48.9381C38.4386 57.1494 46.5812 63.4715 53.1639 54.9472C55.1837 70.0532 46.3876 97.3854 27.6804 105.382M21.392 49.2417C17.1807 57.448 9.09963 63.2958 2.63319 54.9472C0.613479 70.0533 9.41073 97.3853 28.1177 105.382M52.63 56.221C52.63 56.221 40.2835 75.5143 27.6238 62.2416M3.0334 56.221C3.0334 56.221 15.3798 75.5143 28.0396 62.2416M27.821 63.3286V36.5073M27.821 29.1918V11.089M35.8928 9.842C21.6874 7.23127 4.4009 40.2776 28.6116 54.43M19.7774 9.84103C33.9818 7.23097 51.2688 40.2765 27.0586 54.4291M19.7774 9.84103C21.7209 2.9202 27.9606 3.17305 27.9606 3.17305M19.7774 9.84103C8.9485 11.1829 7.94152 22.8966 16.642 31.047M36.7909 44.2154L27.736 47.2678M38.6387 38.8308L27.736 42.7902M39.4421 33.0718L27.5945 37.0886M39.0419 32.4607L27.7497 28.5233M38.1555 26.3702L27.9352 23.0382M35.4281 19.7444L27.9352 17.1268M18.7661 44.2154L27.821 47.2678M16.9173 38.8308L27.821 42.7902M16.1139 33.0718L27.9606 37.0886M16.5131 32.4607L27.8053 28.5233M17.3995 26.3702L27.6218 23.0382M20.1279 19.7444L27.6218 17.1268M27.6325 3.17305C27.6325 3.17305 33.8731 2.92021 35.8166 9.84105C46.6452 11.1835 47.6528 22.8967 38.951 31.047" stroke="#231F20" stroke-width="2.16331"></path>
</svg>
