<svg width="286" height="66" viewBox="0 0 286 66" fill="none" xmlns="http://www.w3.org/2000/svg">
<g clip-path="url(#clip0_1495_34665)">
<path d="M252.475 29.2325C252.475 32.2198 253.462 34.9766 255.411 37.2444C257.397 39.5542 260.286 41.4006 265.559 41.4006C269.485 41.4006 274.333 39.4191 276.524 36.1478C276.853 35.6565 277.095 35.114 277.095 34.5226V9.95826C277.095 9.24345 276.509 8.66602 275.79 8.66602H273.051C272.33 8.66602 271.747 9.24578 271.747 9.95826V19.1251C268.888 17.2996 266.634 17.0388 264.53 17.0388C257.595 17.0388 252.477 22.6106 252.477 29.2302L252.475 29.2325ZM257.874 29.2325C257.874 25.4256 261.013 21.9587 265.244 21.9587C268.594 21.9587 270.778 23.9588 271.744 25.4885V33.6005C270.418 35.2141 268.263 36.4831 265.244 36.4831C261.361 36.4831 257.874 33.2885 257.874 29.2348V29.2325Z" fill="#005EB8"/>
<path d="M122.779 38.4504L121.771 36.4364C121.43 35.7565 120.584 35.4631 119.916 35.831C119.791 35.8985 119.664 35.9637 119.535 36.0219C118.98 36.2757 118.339 36.4014 117.605 36.4014C116.735 36.4014 115.99 36.1989 115.369 35.7937C114.746 35.3886 114.279 34.8158 113.964 34.0731C113.649 33.3303 113.491 32.4618 113.491 31.4653V22.5034H120.348C121.108 22.5034 121.724 21.8933 121.724 21.1413V19.104C121.724 18.3519 121.108 17.7419 120.348 17.7419H113.491V12.5193C113.491 11.7673 112.875 11.1572 112.116 11.1572H109.497C108.738 11.1572 108.122 11.7673 108.122 12.5193V17.7419H105.637C104.878 17.7419 104.262 18.3519 104.262 19.104V21.1413C104.262 21.8933 104.878 22.5034 105.637 22.5034H108.122V31.4909C108.122 33.3489 108.489 35.0393 109.222 36.5667C109.955 38.0942 111.006 39.3049 112.379 40.199C113.752 41.0931 115.384 41.5401 117.274 41.5401C118.806 41.5401 120.123 41.2817 121.223 40.7671C121.576 40.6018 121.919 40.4225 122.25 40.2316C122.873 39.873 123.101 39.0884 122.779 38.4504Z" fill="#005EB8"/>
<path d="M199.805 38.4504L198.796 36.4364C198.455 35.7565 197.609 35.4631 196.941 35.831C196.817 35.8985 196.69 35.9637 196.56 36.0219C196.006 36.2757 195.364 36.4014 194.63 36.4014C193.761 36.4014 193.015 36.1989 192.395 35.7937C191.772 35.3886 191.304 34.8158 190.989 34.0731C190.674 33.3303 190.516 32.4618 190.516 31.4653V22.5034H197.374C198.133 22.5034 198.749 21.8933 198.749 21.1413V19.104C198.749 18.3519 198.133 17.7419 197.374 17.7419H190.516V12.5193C190.516 11.7673 189.901 11.1572 189.141 11.1572H186.522C185.763 11.1572 185.147 11.7673 185.147 12.5193V17.7419H182.662C181.903 17.7419 181.287 18.3519 181.287 19.104V21.1413C181.287 21.8933 181.903 22.5034 182.662 22.5034H185.147V31.4909C185.147 33.3489 185.514 35.0393 186.247 36.5667C186.981 38.0942 188.032 39.3049 189.405 40.199C190.777 41.0931 192.409 41.5401 194.299 41.5401C195.832 41.5401 197.148 41.2817 198.248 40.7671C198.601 40.6018 198.944 40.4225 199.276 40.2316C199.899 39.873 200.127 39.0884 199.805 38.4504Z" fill="#005EB8"/>
<path d="M134.334 17.2598C131.358 17.2598 129.082 17.786 126.275 19.0829C125.584 19.4019 125.295 20.2471 125.641 20.9293L126.536 22.764C126.854 23.388 127.575 23.6162 128.234 23.3857C130.319 22.6523 131.729 22.2239 134.08 22.2239C136.748 22.2239 139.83 23.707 139.83 26.7339V27.4673C137.374 26.699 135.542 26.3334 132.385 26.3334C127.585 26.3334 123.17 28.8155 123.17 33.7749C123.17 38.7343 126.882 41.5237 131.447 41.5237C134.52 41.5237 137.724 40.5085 139.884 38.3432V39.661C139.884 40.4061 140.479 41.0091 141.215 41.0091H143.93C144.663 41.0091 145.261 40.4061 145.261 39.661V27.4371C145.261 19.9025 138.594 17.2598 134.339 17.2598H134.334ZM139.83 31.8004L139.882 33.7376C138.714 35.6935 136.062 37.0975 132.914 37.0975C129.766 37.0975 128.535 35.4676 128.535 33.7865C128.535 31.5094 130.189 30.3452 133.556 30.3452C136.269 30.3452 138.589 31.1066 139.83 31.8028V31.8004Z" fill="#005EB8"/>
<path d="M169.606 17.209C162.822 17.209 159.039 20.7574 159.039 27.3723V39.6452C159.039 40.3972 159.655 41.0073 160.414 41.0073H163.059C163.818 41.0073 164.434 40.3972 164.434 39.6452V27.4352C164.434 23.6493 166.769 22.0799 169.606 22.0799C172.444 22.0799 174.778 23.6516 174.778 27.4352V39.6452C174.778 40.3972 175.394 41.0073 176.153 41.0073H178.798C179.557 41.0073 180.173 40.3972 180.173 39.6452V27.3723C180.173 21.2836 176.48 17.209 169.606 17.209Z" fill="#005EB8"/>
<path d="M101.275 17.2441C96.7217 17.2535 91.7709 18.7529 88.2541 21.079C87.9343 21.2908 87.751 21.6517 87.751 22.0336V39.7153C87.751 40.4301 88.3363 41.0075 89.0557 41.0075H91.8908C92.6125 41.0075 93.1955 40.4277 93.1955 39.7153V24.4574C95.7532 23.0022 98.7998 22.4318 101.32 22.3689C102.03 22.3526 102.599 21.7891 102.599 21.086V18.541C102.599 17.8192 102.002 17.2441 101.273 17.2465L101.275 17.2441Z" fill="#005EB8"/>
<path d="M59.7873 36.5446L58.0172 34.6516C57.5611 34.165 56.7971 34.0928 56.2728 34.5003C56.1694 34.5818 55.5864 34.9939 55.2949 35.1732C54.7707 35.4968 53.4189 36.3653 51.3502 36.3653C47.5254 36.3653 43.8534 33.3012 43.8534 29.3476C43.8534 25.394 47.0082 22.3555 50.9388 22.3555C53.118 22.3555 54.5826 23.2217 55.6663 24.1716C56.1906 24.6303 56.9898 24.5907 57.4718 24.0901L59.3101 22.1879C59.8226 21.657 59.785 20.8071 59.2278 20.3205C57.8714 19.1377 55.1656 17.1865 50.9365 17.1865C43.8793 17.1865 38.5547 22.6931 38.5547 29.3476C38.5547 36.0021 44.6057 41.5343 51.3455 41.5343C56.1177 41.5343 58.6683 39.1128 59.6251 38.4469C60.2528 38.0091 60.3045 37.1034 59.7826 36.5469L59.7873 36.5446Z" fill="#005EB8"/>
<path d="M150.402 9.06348H153.608C154.323 9.06348 154.904 9.63858 154.904 10.3464V12.861C154.904 13.5689 154.323 14.144 153.608 14.144H150.402C149.687 14.144 149.107 13.5689 149.107 12.861V10.3464C149.107 9.63858 149.687 9.06348 150.402 9.06348Z" fill="#005EB8"/>
<path d="M154.696 19.0149V39.7141C154.696 40.4289 154.111 41.0064 153.392 41.0064H150.655C149.934 41.0064 149.351 40.4266 149.351 39.7141V19.0149C149.351 18.3001 149.936 17.7227 150.655 17.7227H153.392C154.113 17.7227 154.696 18.3024 154.696 19.0149Z" fill="#005EB8"/>
<path d="M211.799 17.1836C204.596 17.1836 199.412 22.5039 199.412 29.3493C199.412 36.9631 205.548 41.543 212.899 41.543C217.636 41.543 220.339 40.0179 222.213 38.7699C222.92 38.2973 223.026 37.31 222.403 36.7326L220.819 35.2634C220.396 34.8722 219.763 34.7977 219.267 35.0911C219.056 35.2168 216.446 36.8793 213.08 36.8793C208.496 36.8793 205.86 34.1411 205.207 31.7336H222.796C223.459 31.7336 224.028 31.2423 224.093 30.5904C224.138 30.1596 224.159 29.7428 224.159 29.3517C224.159 22.3805 218.665 17.1859 211.799 17.1859V17.1836ZM211.799 21.7705C215.532 21.7705 217.857 24.3759 218.51 27.2142H205.127C205.816 24.1408 208.089 21.7705 211.799 21.7705Z" fill="#005EB8"/>
<path d="M238.338 17.1836C231.135 17.1836 225.951 22.5039 225.951 29.3493C225.951 36.9631 232.087 41.543 239.438 41.543C244.175 41.543 246.878 40.0179 248.752 38.7699C249.459 38.2973 249.565 37.31 248.942 36.7326L247.358 35.2634C246.935 34.8722 246.302 34.7977 245.806 35.0911C245.595 35.2168 242.985 36.8793 239.619 36.8793C235.035 36.8793 232.399 34.1411 231.746 31.7336H249.335C249.998 31.7336 250.567 31.2423 250.632 30.5904C250.677 30.1596 250.698 29.7428 250.698 29.3517C250.698 22.3805 245.204 17.1859 238.338 17.1859V17.1836ZM238.338 21.7705C242.071 21.7705 244.396 24.3759 245.049 27.2142H231.666C232.355 24.1408 234.628 21.7705 238.338 21.7705Z" fill="#005EB8"/>
<path d="M72.6861 17.1836C65.4832 17.1836 60.2997 22.5039 60.2997 29.3493C60.2997 36.9631 66.4353 41.543 73.7863 41.543C78.5232 41.543 81.2267 40.0179 83.1003 38.7699C83.8079 38.2973 83.9137 37.31 83.2907 36.7326L81.7062 35.2634C81.2831 34.8722 80.6507 34.7977 80.1547 35.0911C79.9431 35.2168 77.3337 36.8793 73.9673 36.8793C69.3832 36.8793 66.748 34.1411 66.0944 31.7336H83.6833C84.3462 31.7336 84.9151 31.2423 84.9809 30.5904C85.0256 30.1596 85.0468 29.7428 85.0468 29.3517C85.0468 22.3805 79.5529 17.1859 72.6861 17.1859V17.1836ZM72.6861 21.7705C76.4192 21.7705 78.7442 24.3759 79.3977 27.2142H66.0145C66.7033 24.1408 68.9765 21.7705 72.6861 21.7705Z" fill="#005EB8"/>
<path d="M19.1771 32.2105H11.1302C10.3075 32.2105 9.64217 31.5492 9.64217 30.7366V18.9388C9.64217 18.1239 10.3098 17.4649 11.1302 17.4649H19.1771V8.66602H2.04666C1.22388 8.66602 0.558594 9.32727 0.558594 10.1399V39.5332C0.558594 40.3482 1.22623 41.0071 2.04666 41.0071H19.1771V32.2082V32.2105Z" fill="#005EB8"/>
<path d="M31.7238 8.66602H22.2077V18.99C22.2077 19.8049 21.5401 20.4639 20.7196 20.4639H12.6728V29.2069H20.7196C21.5424 29.2069 22.2077 29.8682 22.2077 30.6808V41.0048H31.7238C32.5466 41.0048 33.2119 40.3435 33.2119 39.5309V10.1399C33.2119 9.32494 32.5443 8.66602 31.7238 8.66602Z" fill="#00448A"/>
<path d="M203.557 52.8564C202.494 52.5374 202.029 52.3349 202.029 51.7318C202.029 51.1916 202.753 51.0007 203.373 51.0007C203.917 51.0007 204.5 51.1614 204.897 51.4175C204.991 51.478 205.106 51.4967 205.214 51.4664C205.322 51.4385 205.412 51.3639 205.463 51.2662L205.644 50.9076C205.734 50.7306 205.675 50.5164 205.508 50.407C204.937 50.0368 204.128 49.8086 203.395 49.8086C201.855 49.8086 200.818 50.5933 200.818 51.7574C200.818 53.2732 202.109 53.6551 203.148 53.9647C204.234 54.2884 204.709 54.4956 204.702 55.1336C204.702 55.7762 203.938 56.0044 203.223 56.0044C202.508 56.0044 201.794 55.6435 201.34 55.229C201.251 55.1475 201.133 55.0987 201.013 55.1126C200.891 55.1266 200.783 55.1964 200.722 55.2989L200.513 55.6481C200.421 55.8018 200.447 55.9974 200.574 56.1231C201.246 56.7774 202.257 57.1849 203.214 57.1849C204.829 57.1849 205.912 56.356 205.912 55.1243C205.924 53.5619 204.612 53.1661 203.557 52.8494" fill="#212121"/>
<path d="M210.67 50.055C210.607 49.9176 210.468 49.8291 210.313 49.8291H209.885C209.73 49.8291 209.591 49.9176 209.528 50.0573L206.519 56.6303C206.462 56.7513 206.474 56.8911 206.547 57.0005C206.62 57.1122 206.744 57.1798 206.876 57.1798H207.313C207.468 57.1798 207.607 57.0913 207.671 56.9516L208.421 55.3078H211.799L212.558 56.9516C212.621 57.089 212.76 57.1774 212.915 57.1774H213.353C213.487 57.1774 213.611 57.1099 213.682 56.9982C213.755 56.8864 213.764 56.7467 213.708 56.6256L210.668 50.0526L210.67 50.055ZM208.947 54.1343L210.097 51.608L211.26 54.1343H208.947Z" fill="#212121"/>
<path d="M215.677 49.8291H215.28C215.064 49.8291 214.888 50.0037 214.888 50.2179V56.7909C214.888 57.0051 215.064 57.1798 215.28 57.1798H215.677C215.894 57.1798 216.07 57.0051 216.07 56.7909V50.2179C216.07 50.0037 215.894 49.8291 215.677 49.8291Z" fill="#212121"/>
<path d="M223.956 49.8291H223.566C223.35 49.8291 223.173 50.0037 223.173 50.2179V55.0051L219.447 49.9874C219.374 49.8873 219.257 49.8291 219.132 49.8291H218.667C218.451 49.8291 218.274 50.0037 218.274 50.2179V56.7909C218.274 57.0051 218.451 57.1798 218.667 57.1798H219.064C219.28 57.1798 219.457 57.0051 219.457 56.7909V52.0061L223.173 57.0214C223.246 57.1216 223.364 57.1798 223.491 57.1798H223.956C224.173 57.1798 224.349 57.0051 224.349 56.7909V50.2179C224.349 50.0037 224.173 49.8291 223.956 49.8291Z" fill="#212121"/>
<path d="M230.802 49.8291H225.922C225.705 49.8291 225.529 50.0037 225.529 50.2179V50.6044C225.529 50.8187 225.705 50.9933 225.922 50.9933H227.77V56.7933C227.77 57.0075 227.946 57.1821 228.162 57.1821H228.559C228.778 57.1821 228.952 57.0075 228.952 56.7933V50.9933H230.8C231.016 50.9933 231.192 50.8187 231.192 50.6044V50.2179C231.192 50.0037 231.016 49.8291 230.8 49.8291" fill="#212121"/>
<path d="M233.722 53.4121H231.604C231.388 53.4121 231.212 53.5867 231.212 53.801V54.1199C231.212 54.3341 231.388 54.5088 231.604 54.5088H233.722C233.939 54.5088 234.115 54.3341 234.115 54.1199V53.801C234.115 53.5867 233.939 53.4121 233.722 53.4121Z" fill="#212121"/>
<path d="M241.969 53.1782H241.607C241.607 53.1782 241.602 53.1782 241.6 53.1782H240.422C240.205 53.1782 240.029 53.3528 240.029 53.567V53.9605C240.029 54.1747 240.205 54.3494 240.422 54.3494H241.214V55.5508C240.751 55.8651 240.196 56.0351 239.632 56.0351C238.167 56.0351 236.975 54.8965 236.975 53.4995C236.975 52.1025 238.167 50.9732 239.632 50.9732C240.311 50.9732 240.981 51.2224 241.468 51.6554C241.548 51.7276 241.654 51.7625 241.762 51.7532C241.87 51.7439 241.969 51.6927 242.037 51.6089L242.274 51.3178C242.406 51.1548 242.385 50.9173 242.227 50.78C241.515 50.1606 240.591 49.8184 239.632 49.8184C237.516 49.8184 235.793 51.4692 235.793 53.4995C235.793 55.5299 237.507 57.1877 239.613 57.1877C240.565 57.1877 241.517 56.8431 242.225 56.2377C242.312 56.1632 242.361 56.0561 242.361 55.942V53.5624C242.361 53.3482 242.185 53.1735 241.969 53.1735" fill="#212121"/>
<path d="M247.534 49.8203C245.423 49.8203 243.704 51.4711 243.704 53.5015C243.704 55.5318 245.423 57.1896 247.534 57.1896C249.645 57.1896 251.363 55.5341 251.363 53.5015C251.363 51.4688 249.645 49.8203 247.534 49.8203ZM247.534 56.0278C246.081 56.0278 244.896 54.8938 244.896 53.5015C244.896 52.1091 246.078 50.9845 247.534 50.9845C248.989 50.9845 250.171 52.1138 250.171 53.5015C250.171 54.8892 248.989 56.0278 247.534 56.0278Z" fill="#212121"/>
<path d="M257.648 53.2964C258.047 52.9565 258.268 52.4536 258.268 51.8435C258.268 50.6002 257.323 49.8271 255.807 49.8271H253.092C252.875 49.8271 252.699 50.0018 252.699 50.216V56.7913C252.699 57.0055 252.875 57.1801 253.092 57.1801H255.826C257.565 57.1801 258.602 56.3745 258.602 55.0241C258.602 54.2604 258.254 53.6527 257.648 53.2964ZM255.797 52.8098H253.882V50.9913H255.797C256.385 50.9913 257.086 51.1473 257.086 51.8901C257.086 52.5001 256.653 52.8075 255.797 52.8075M253.882 53.9693H255.797C256.402 53.9693 257.417 54.0997 257.417 54.9728C257.417 55.846 256.536 56.0136 255.797 56.0136H253.882V53.9693Z" fill="#212121"/>
<path d="M263.417 50.055C263.353 49.9176 263.214 49.8291 263.059 49.8291H262.631C262.476 49.8291 262.338 49.9176 262.274 50.0573L259.265 56.6303C259.209 56.7513 259.22 56.8911 259.293 57.0005C259.366 57.1122 259.491 57.1798 259.622 57.1798H260.06C260.215 57.1798 260.353 57.0913 260.417 56.9516L261.167 55.3078H264.545L265.304 56.9516C265.368 57.089 265.506 57.1774 265.662 57.1774H266.099C266.233 57.1774 266.357 57.1099 266.43 56.9982C266.503 56.8864 266.513 56.7467 266.456 56.6256L263.419 50.0526L263.417 50.055ZM261.693 54.1343L262.843 51.608L264.007 54.1343H261.693Z" fill="#212121"/>
<path d="M268.425 49.8291H268.025C267.809 49.8291 267.633 50.0037 267.633 50.2179V56.7909C267.633 57.0051 267.809 57.1798 268.025 57.1798H268.425C268.641 57.1798 268.818 57.0051 268.818 56.7909V50.2179C268.818 50.0037 268.641 49.8291 268.425 49.8291Z" fill="#212121"/>
<path d="M276.706 49.8291H276.315C276.099 49.8291 275.923 50.0037 275.923 50.2179V55.0051L272.197 49.9874C272.124 49.8873 272.006 49.8291 271.879 49.8291H271.414C271.198 49.8291 271.021 50.0037 271.021 50.2179V56.7909C271.021 57.0051 271.198 57.1798 271.414 57.1798H271.814C272.03 57.1798 272.206 57.0051 272.206 56.7909V52.0061L275.923 57.0214C275.996 57.1216 276.113 57.1798 276.238 57.1798H276.703C276.92 57.1798 277.096 57.0051 277.096 56.7909V50.2179C277.096 50.0037 276.92 49.8291 276.703 49.8291" fill="#212121"/>
</g>
<defs>
<clipPath id="clip0_1495_34665">
<rect width="286" height="66" fill="white"/>
</clipPath>
</defs>
</svg>
