<svg width="209" height="44" viewBox="0 0 209 44" fill="none" xmlns="http://www.w3.org/2000/svg">
    <path d="M53.979 14.0843L58.1769 18.9117L62.3747 14.0843V26.5552H73.45V22.4429C73.6286 23.5157 74.0752 24.499 74.879 25.2589C75.9062 26.2423 77.1566 26.734 78.6303 26.734C80.4166 26.734 82.069 26.1976 83.5427 25.1248V26.5999H93.6801V15.6934C93.6801 12.6539 92.8762 10.419 91.2239 8.94394C89.5715 7.46889 87.026 6.75371 83.5874 6.75371C79.97 6.75371 77.2012 7.51359 74.3431 9.07804V14.9782C76.2634 13.9502 77.7371 13.4138 79.5681 13.4138C80.8186 13.4138 81.801 13.682 82.5156 14.1737C83.2301 14.6654 83.5874 15.3805 83.5874 16.3192C82.4709 16.0063 81.3098 15.8722 80.1487 15.8722C78.1391 15.8722 76.5314 16.4086 75.2809 17.4814C74.2985 18.3306 73.6733 19.4034 73.4946 20.655V1.65808H62.7767L58.2215 6.84311L53.6664 1.65808H42.9038V26.5552H53.979V14.0843ZM80.4166 19.6269C80.7739 19.314 81.2651 19.1352 81.8903 19.1352C82.3816 19.1352 82.9175 19.2246 83.5427 19.4481V22.1747C83.0961 22.5323 82.6049 22.7111 81.9797 22.7111C81.3545 22.7111 80.8632 22.5323 80.4613 22.1747C80.0594 21.8171 79.8807 21.3701 79.8807 20.8338C79.8807 20.3868 80.0594 19.9398 80.4166 19.6269Z" fill="black"/>
    <path d="M104.845 23.8733C105.068 24.4096 105.425 24.8566 105.827 25.3036C106.81 26.287 108.105 26.7787 109.578 26.7787C111.365 26.7787 113.017 26.2423 114.491 25.1695V26.6446H124.628V15.6934C124.628 12.6539 123.824 10.419 122.172 8.94394C120.52 7.46889 117.974 6.75371 114.536 6.75371C110.918 6.75371 108.596 7.51359 105.738 9.07804V14.9782C107.658 13.9502 108.685 13.4138 110.516 13.4138C111.767 13.4138 112.749 13.682 113.464 14.1737C114.178 14.6654 114.536 15.3805 114.536 16.3192C113.419 16.0063 112.258 15.8722 111.097 15.8722C109.087 15.8722 107.48 16.4086 106.229 17.4814C105.649 17.973 105.157 18.5988 104.889 19.2246V1.65808H94.752V26.5552H104.889V23.8733H104.845ZM111.409 19.6269C111.767 19.314 112.258 19.1352 112.883 19.1352C113.374 19.1352 113.91 19.2246 114.536 19.4481V22.1747C114.089 22.5323 113.598 22.7111 112.972 22.7111C112.347 22.7111 111.856 22.5323 111.454 22.1747C111.052 21.8171 110.874 21.3701 110.874 20.8338C110.874 20.3868 111.052 19.9398 111.409 19.6269Z" fill="black"/>
    <path d="M199.163 6.88781L196.885 12.1175L194.518 6.88781H184.425L186.122 10.6872C185.899 10.419 185.721 10.1955 185.453 9.92731C184.47 8.89925 183.309 8.13937 182.014 7.64769C180.674 7.1113 179.245 6.88781 177.682 6.88781C174.645 6.88781 172.145 7.82648 170.224 9.65912C168.304 11.5365 167.366 13.9055 167.366 16.8556C167.366 17.1238 167.366 17.3473 167.411 17.6155C167.321 17.4367 167.232 17.2579 167.098 17.1238C166.562 16.3639 165.892 15.6934 165.089 15.0676C166.428 14.0843 167.411 13.0115 168.036 11.76C168.661 10.5084 169.063 8.89925 169.242 6.88781H159.238C159.194 10.2849 157.899 12.4751 155.398 13.4138V1.65808H145.26V8.67575C145.126 8.49696 144.948 8.27347 144.769 8.09467C143.876 7.2007 142.759 6.75372 141.42 6.75372C138.964 6.75372 137.088 8.22877 135.837 11.2236V6.93251H125.7V26.5999H135.837V19.2246C135.837 16.9003 136.329 15.3358 137.356 14.4866C138.472 15.6934 139.857 16.2745 141.464 16.2745C142.849 16.2745 144.01 15.8275 144.858 14.9335C145.037 14.7548 145.171 14.576 145.305 14.3525V26.5105H155.398V16.9003C156.737 17.4367 157.675 18.42 158.3 19.8504C158.926 21.2807 159.238 23.5157 159.238 26.5552H169.242C169.242 25.0354 169.197 23.7839 169.108 22.8452C169.51 23.3816 169.956 23.918 170.492 24.3649C172.591 26.2423 175.315 27.2257 178.754 27.2257C182.907 27.2257 186.123 25.7953 188.311 22.8899V19.4481C186.926 20.8785 185.095 21.5936 182.862 21.5936C181.746 21.5936 180.764 21.3254 179.87 20.7444C178.977 20.1633 178.352 19.4034 177.995 18.3753H188.311C188.311 17.0791 188.221 15.9169 187.998 14.8889L191.392 22.4876L187.328 31.7849H198.314L208.987 6.88781H199.163ZM177.37 14.9335C177.37 13.9055 177.593 13.1456 178.039 12.6092C178.486 12.0728 179.022 11.8047 179.647 11.8047C180.362 11.8047 180.942 12.0728 181.389 12.6092C181.835 13.1456 182.059 13.9502 182.103 14.8889H177.37V14.9335Z" fill="black"/>
    <path d="M54.0237 37.3275C53.8897 35.8078 53.2645 34.6903 52.2374 34.288C53.4878 33.841 54.0683 32.5001 54.0683 31.2485C54.0683 28.9242 52.1927 27.762 50.0491 27.762H42.9038V39.9647H46.6551V35.7184H48.6647C50.1384 35.7184 50.2724 36.9252 50.3617 38.0874C50.4064 38.7132 50.4957 39.339 50.6743 39.9647H54.4256C54.113 39.3837 54.0683 37.9533 54.0237 37.3275ZM48.6647 33.0812H46.6997V30.6674H48.4414C49.8705 30.6674 50.3171 31.1144 50.3171 31.8743C50.3171 32.9471 49.3346 33.0812 48.6647 33.0812Z" fill="#009845"/>
    <path d="M59.6954 30.8463C56.346 30.8463 54.8276 33.0365 54.8276 35.4949C54.8276 37.9533 56.346 40.1435 59.6954 40.1435C63.0447 40.1435 64.5631 37.9533 64.5631 35.4949C64.5184 33.0365 63.0001 30.8463 59.6954 30.8463ZM59.6954 37.7298C58.4003 37.7298 58.2216 36.4783 58.2216 35.5396C58.2216 34.6009 58.4003 33.3494 59.6954 33.3494C60.9904 33.3494 61.1691 34.6009 61.1691 35.5396C61.1244 36.4336 60.9458 37.7298 59.6954 37.7298Z" fill="#009845"/>
    <path d="M69.4307 30.8463C66.0814 30.8463 64.563 33.0365 64.563 35.4949C64.563 37.9533 66.0814 40.1435 69.4307 40.1435C72.7801 40.1435 74.2985 37.9533 74.2985 35.4949C74.2985 33.0365 72.7801 30.8463 69.4307 30.8463ZM69.4307 37.7298C68.1356 37.7298 67.957 36.4783 67.957 35.5396C67.957 34.6009 68.1356 33.3494 69.4307 33.3494C70.7258 33.3494 70.9044 34.6009 70.9044 35.5396C70.9044 36.4336 70.7258 37.7298 69.4307 37.7298Z" fill="#009845"/>
    <path d="M80.0148 30.0416C80.2827 30.0416 80.5507 30.131 80.8186 30.1757V27.8514C80.2827 27.8514 79.7915 27.762 79.3003 27.762C77.9159 27.762 77.0674 27.8514 76.3528 28.6113C75.683 29.2818 75.5936 30.2204 75.6383 31.1144H74.2539V33.2152H75.6383V40.0094H79.0323V33.1705H80.7293V31.0697H78.943C78.943 30.2651 79.2109 30.0416 80.0148 30.0416Z" fill="#009845"/>
    <path d="M85.2397 27.762H81.8457V30.1311H85.2397V27.762Z" fill="#009845"/>
    <path d="M85.2397 31.0697H81.8457V39.92H85.2397V31.0697Z" fill="#009845"/>
    <path d="M92.6531 30.8463C91.3133 30.8463 90.3755 31.2932 89.7503 32.1872V31.0697H86.4902V39.9201H89.8843V35.2714C89.8843 33.8411 90.6434 33.5729 91.224 33.5729C92.2065 33.5729 92.3404 34.288 92.3404 35.3161V39.9648H95.7345V33.8858C95.7345 31.8296 94.2607 30.8463 92.6531 30.8463Z" fill="#009845"/>
    <path d="M101.585 41.0375C101.138 41.0375 100.781 40.6799 100.602 40.367C100.513 40.2776 100.468 40.1435 100.423 40.0542H97.0741C97.3867 42.4232 99.6196 43.0043 101.719 43.0043C105.872 43.0043 106.363 40.5458 106.363 38.7579V31.0697H102.969V32.1425H102.924C102.522 31.2485 101.585 30.8463 100.602 30.8463C98.0566 30.8463 96.7615 32.7683 96.7615 35.0926C96.7615 37.4616 97.9672 39.4284 100.557 39.4284C101.585 39.4284 102.388 38.9814 102.924 38.1768H102.969V38.9814C102.88 39.7413 102.656 41.0375 101.585 41.0375ZM101.585 37.2381C100.379 37.2381 100.066 36.076 100.066 35.0479C100.066 34.1092 100.557 33.3047 101.495 33.3047C102.478 33.3047 102.969 34.0645 102.969 35.0479C102.969 36.076 102.835 37.2381 101.585 37.2381Z" fill="#009845"/>
    <path d="M123.199 31.919C123.199 30.1757 122.038 27.762 118.733 27.762H112.437V39.9647H116.188V36.2548H118.421C121.234 36.2548 123.199 34.8691 123.199 31.919ZM117.662 33.3493H116.188V30.8909H117.885C118.823 30.8909 119.671 30.9803 119.671 32.0531C119.626 33.3046 118.599 33.3493 117.662 33.3493Z" fill="#009845"/>
    <path d="M126.683 32.5001L126.638 31.0697H123.378V39.9201H126.772V36.4336C126.772 34.5562 127.486 33.7517 128.826 33.7517C129.496 33.7517 129.809 33.8411 130.166 33.9752V30.9803C129.853 30.8909 129.496 30.8463 129.183 30.8463C127.933 30.8463 127.219 31.4273 126.683 32.5001Z" fill="#009845"/>
    <path d="M135.168 30.8463C131.818 30.8463 130.3 33.0365 130.3 35.4949C130.3 37.9533 131.818 40.1435 135.168 40.1435C138.517 40.1435 140.035 37.9533 140.035 35.4949C139.991 33.0365 138.517 30.8463 135.168 30.8463ZM135.168 37.7298C133.872 37.7298 133.694 36.4783 133.694 35.5396C133.694 34.6009 133.872 33.3494 135.168 33.3494C136.463 33.3494 136.641 34.6009 136.641 35.5396C136.641 36.4336 136.463 37.7298 135.168 37.7298Z" fill="#009845"/>
    <path d="M149.681 39.9647V27.762H146.287V32.0531H146.243C145.752 31.2932 144.814 30.8462 143.831 30.8462C140.839 30.8462 140.035 33.394 140.035 35.4502C140.035 37.6851 141.241 40.1435 143.787 40.1435C145.439 40.1435 145.975 39.5177 146.377 38.9367H146.421V39.92H149.681V39.9647ZM144.948 37.7298C143.742 37.7298 143.474 36.5676 143.474 35.5396C143.474 34.5115 143.742 33.3493 144.948 33.3493C146.153 33.3493 146.421 34.5115 146.421 35.5396C146.421 36.5676 146.153 37.7298 144.948 37.7298Z" fill="#009845"/>
    <path d="M156.827 38.8473L156.871 39.9647H160.131V31.0697H156.737V35.7631C156.737 37.1934 155.978 37.4616 155.398 37.4616C154.415 37.4616 154.281 36.7464 154.281 35.7184V31.0697H150.887V37.1487C150.887 39.2048 152.361 40.1435 153.924 40.1435C155.264 40.1882 156.157 39.6965 156.827 38.8473Z" fill="#009845"/>
    <path d="M165.803 37.7298C164.508 37.7298 164.329 36.6123 164.329 35.5396C164.329 34.4668 164.508 33.3493 165.803 33.3493C166.16 33.3493 166.473 33.4387 166.652 33.6175C166.875 33.7963 167.009 34.1092 167.053 34.4668H170.269C170.09 32.0084 168.081 30.8909 165.758 30.8909C163.079 30.8909 160.935 32.7683 160.935 35.5396C160.935 38.3556 163.079 40.1882 165.758 40.1882C166.964 40.1882 168.036 39.8306 168.84 39.2049C169.644 38.5344 170.224 37.5957 170.403 36.4335H167.143C167.053 37.104 166.518 37.7298 165.803 37.7298Z" fill="#009845"/>
    <path d="M175.137 28.3878H171.742V31.0697H170.224V33.1706H171.742V37.4169C171.742 39.8306 173.35 40.0541 174.779 40.0541C175.494 40.0541 176.253 39.9647 176.967 39.9647V37.4169C176.7 37.4616 176.432 37.4616 176.208 37.4616C175.36 37.4616 175.181 37.104 175.181 36.2995V33.2153H177.012V31.1144H175.181V28.3878H175.137Z" fill="#009845"/>
    <path d="M184.381 34.5562C183.264 34.1986 181.969 34.1092 181.389 33.8857C181.21 33.7963 180.987 33.6622 180.987 33.4387C180.987 32.8577 181.523 32.7683 182.014 32.7683C182.282 32.7683 182.55 32.8577 182.773 33.0365C182.996 33.1706 183.175 33.3941 183.175 33.7069H186.256C186.167 31.4273 183.845 30.8909 181.925 30.8909C180.138 30.8909 177.727 31.472 177.727 33.7069C177.727 35.2267 178.754 36.0313 181.344 36.4782C182.907 36.7464 183.22 36.9252 183.22 37.4169C183.22 37.9086 182.505 38.0874 182.059 38.0874C181.657 38.0874 181.344 37.998 181.165 37.8192C180.897 37.5957 180.763 37.3275 180.763 37.0146H177.548C177.593 39.2943 179.87 40.1435 181.969 40.1435C184.113 40.1435 186.48 39.473 186.48 37.0146C186.48 35.5843 185.497 34.9138 184.381 34.5562Z" fill="#009845"/>
    <path d="M29.8191 17.392C29.8191 17.392 36.0265 16.1851 36.0265 10.5531C36.0265 8.13937 34.5082 5.85975 32.1859 5.09987C30.9355 4.69758 29.5511 4.56349 28.3007 4.96577C28.2114 4.96577 27.1842 5.27866 27.1842 5.27866C27.1396 5.27866 26.827 4.51879 26.7823 4.42939C26.0231 2.99904 25.13 1.52399 23.6116 0.764111C22.6291 0.272426 21.5126 -0.0404634 20.3962 0.0042352C18.7438 0.138331 16.9575 0.808809 15.8857 2.10507C15.3945 2.68615 15.0372 3.44602 14.8139 4.1612C13.8314 7.46889 15.1712 10.6425 15.1712 10.6425C15.1712 10.6425 13.2509 8.40756 12.1344 7.78178C10.3928 6.84311 8.20453 6.39613 6.23957 6.84311C4.22995 7.2901 2.44363 9.39093 2.5776 11.4918C2.62226 11.9387 2.71158 12.3857 2.89021 12.8327C2.97953 13.0115 3.06884 13.235 3.15816 13.3691C3.20282 13.4585 3.47077 13.8161 3.60474 13.9502C1.1932 14.5313 -0.235857 16.8109 0.0320914 19.2693C0.478673 24.0074 5.52504 26.0188 9.7229 25.9294C11.4646 25.8847 13.2509 25.7059 14.9479 25.3483C15.2605 25.3036 15.7517 25.1248 15.8411 25.1248C14.4567 28.7901 13.0723 30.9356 9.36564 33.4387C9.58893 34.0645 10.3035 34.9585 10.9733 35.2714C14.0101 32.813 16.109 29.4606 17.5381 25.3036C17.5827 25.4377 21.9146 36.9252 29.1045 36.5676C31.1141 36.4782 32.9898 35.2714 33.8383 33.4387C34.0616 32.9471 34.2402 32.4107 34.3295 31.8743C34.4188 31.2932 34.3742 30.7121 34.3295 30.1311C34.3295 30.0417 34.2849 29.103 34.2402 28.9242C35.7586 28.5219 37.143 27.315 37.6789 25.7953C38.84 22.5323 37.3663 19.8504 34.6421 18.4647C33.1238 17.7496 29.8191 17.392 29.8191 17.392Z" fill="#009845"/>
    <path d="M189.382 34.7797C189.516 34.4221 189.74 34.1539 189.963 33.8857C190.231 33.6623 190.499 33.4388 190.856 33.3047C191.213 33.1706 191.571 33.0812 191.928 33.0812C192.285 33.0812 192.687 33.1706 193 33.3047C193.312 33.4388 193.625 33.6176 193.893 33.8857C194.161 34.1539 194.34 34.4221 194.473 34.7797C194.607 35.0926 194.697 35.4949 194.697 35.8525C194.697 36.2548 194.607 36.6124 194.473 36.9699C194.34 37.3275 194.116 37.5957 193.893 37.8639C193.625 38.1321 193.357 38.3109 193 38.445C192.643 38.5791 192.285 38.6685 191.928 38.6685C191.526 38.6685 191.169 38.5791 190.856 38.445C190.499 38.3109 190.231 38.1321 189.963 37.8639C189.695 37.5957 189.516 37.3275 189.382 36.9699C189.248 36.6124 189.159 36.2548 189.159 35.8525C189.159 35.4949 189.248 35.1373 189.382 34.7797ZM189.874 36.7912C190.008 37.0593 190.142 37.3275 190.365 37.551C190.588 37.7745 190.812 37.9086 191.079 38.0427C191.347 38.1768 191.66 38.2215 191.973 38.2215C192.285 38.2215 192.598 38.1768 192.866 38.0427C193.134 37.9086 193.402 37.7745 193.58 37.551C193.804 37.3275 193.938 37.104 194.072 36.7912C194.206 36.523 194.25 36.1654 194.25 35.8525C194.25 35.5396 194.206 35.2267 194.072 34.9138C193.938 34.6456 193.804 34.3774 193.58 34.1539C193.357 33.9304 193.134 33.7964 192.866 33.6623C192.598 33.5282 192.285 33.4835 191.973 33.4835C191.66 33.4835 191.347 33.5282 191.079 33.6623C190.812 33.7964 190.544 33.9304 190.365 34.1539C190.142 34.3774 190.008 34.6009 189.874 34.9138C189.74 35.182 189.695 35.4949 189.695 35.8525C189.695 36.2101 189.74 36.523 189.874 36.7912ZM192.151 34.2433C192.553 34.2433 192.821 34.3327 193 34.4668C193.178 34.6009 193.268 34.8691 193.268 35.182C193.268 35.4949 193.178 35.6737 193.044 35.8078C192.866 35.9419 192.687 36.0313 192.419 36.0313L193.357 37.4616H192.821L191.928 36.076H191.392V37.4616H190.901V34.2433H192.151ZM191.928 35.7184C192.062 35.7184 192.151 35.7184 192.241 35.7184C192.33 35.7184 192.419 35.6737 192.509 35.6737C192.598 35.629 192.643 35.5843 192.687 35.4949C192.732 35.4055 192.776 35.3161 192.776 35.182C192.776 35.0926 192.732 35.0032 192.732 34.9138C192.687 34.8691 192.643 34.7797 192.553 34.7797C192.509 34.735 192.419 34.735 192.33 34.6903C192.241 34.6903 192.151 34.6903 192.062 34.6903H191.392V35.7184H191.928Z" fill="black"/>
</svg>
